<svg xmlns="http://www.w3.org/2000/svg" xmlns:v="https://svgstorm.com"
viewBox = "0 0 1024 1536"
width="1024"
height="1536">
<g fill="None" fill-opacity="0.0" stroke="#FFFDFB" stroke-opacity="1.00" stroke-width="0.3"><path d="
M 0.00 1536.00 
L 1024.00 1536.00
L 1024.00 0.00
L 0.00 0.00
L 0.00 1536.00
M 192.00 1015.00 
C 187.71 1011.34 183.62 1007.24 180.00 1003.00
C 154.20 972.80 136.66 949.00 121.23 911.77 C 105.80 874.54 96.75 834.04 91.00 792.00 C 85.25 749.96 86.75 693.29 91.78 650.78 C 96.80 608.27 103.93 563.89 114.98 523.98 C 126.02 484.06 137.43 447.04 150.98 408.98 C 164.52 370.91 177.79 337.15 191.78 299.78 C 205.76 262.40 219.15 221.54 224.00 182.00 C 228.85 142.46 216.29 95.05 175.32 82.68 C 134.36 70.31 99.42 100.31 83.69 135.69 C 67.97 171.08 75.45 220.55 47.00 250.00
C 72.41 214.13 63.90 162.74 82.92 124.92 C 101.95 87.11 144.37 59.03 186.23 77.77 C 228.09 96.51 239.38 146.77 233.67 189.67 C 227.96 232.57 212.72 275.33 198.22 316.22 C 183.73 357.12 170.44 394.51 156.22 436.22 C 142.01 477.93 132.14 519.84 122.01 564.01 C 111.88 608.17 106.28 662.83 106.00 710.00 C 105.72 757.17 111.47 812.31 123.33 854.67 C 135.18 897.04 151.57 929.37 176.75 963.25 C 201.93 997.12 231.75 1017.76 269.00 1033.00
C 272.67 1011.22 281.20 990.79 291.00 971.00
C 272.50 965.07 241.12 951.65 248.00 927.00
C 238.17 919.24 241.47 904.16 249.75 896.75 C 258.03 889.34 263.79 878.48 277.00 880.00 C 290.21 881.52 297.01 887.01 308.00 893.00
C 309.64 887.61 316.60 885.29 318.00 880.00
C 307.57 873.43 297.26 866.38 287.30 858.70 C 277.35 851.02 268.76 842.68 259.75 833.25 C 250.74 823.82 244.63 813.27 238.08 801.92 C 231.52 790.57 225.61 776.30 224.07 762.93 C 222.54 749.55 227.12 732.37 235.30 722.31 C 243.49 712.24 249.55 702.04 260.25 694.25 C 270.95 686.46 277.60 676.68 287.70 668.70 C 297.79 660.72 309.19 655.06 320.23 648.23 C 331.26 641.39 341.21 635.25 353.08 629.08 C 364.94 622.90 374.36 615.67 387.70 610.70 C 401.03 605.72 409.82 597.02 426.01 596.01 C 442.20 594.99 442.84 576.05 429.75 567.25 C 416.67 558.44 415.35 547.62 408.00 536.00
C 410.42 548.90 399.58 559.04 391.25 547.75 C 382.91 536.46 383.03 529.74 381.00 517.00 C 378.97 504.26 380.09 492.15 383.00 480.00
C 348.17 504.94 300.71 494.84 274.70 462.30 C 248.68 429.76 240.88 379.17 248.00 339.00 C 255.11 298.82 269.27 263.60 306.23 243.23 C 343.19 222.86 388.34 252.92 405.00 287.00
C 412.71 282.25 417.24 275.89 422.75 268.75 C 428.26 261.62 432.53 252.83 434.98 243.98 C 437.42 235.12 440.50 223.91 441.78 214.78 C 443.06 205.65 447.27 193.91 449.78 185.78 C 452.28 177.65 461.26 165.26 465.78 176.22 C 470.29 187.19 465.78 199.31 469.00 210.00
C 474.19 201.52 479.06 192.95 484.92 184.92 C 490.77 176.88 496.25 170.05 504.25 163.25 C 512.25 156.45 517.74 150.59 528.23 146.23 C 538.72 141.87 548.19 137.14 562.00 139.00 C 575.81 140.86 568.53 154.63 558.30 158.30 C 548.08 161.98 544.37 172.30 536.00 178.00
C 545.08 175.16 552.54 172.11 562.07 170.07 C 571.60 168.04 583.19 167.79 593.01 168.99 C 602.83 170.19 611.37 172.22 620.23 176.77 C 629.09 181.32 632.42 183.39 640.70 190.30 C 648.97 197.22 647.70 209.10 636.32 203.68 C 624.95 198.25 616.67 201.92 606.00 202.00 C 595.32 202.08 588.73 207.59 579.00 210.00
C 604.28 215.45 626.80 229.88 644.75 249.25 C 662.71 268.61 675.66 291.05 684.78 315.22 C 693.89 339.40 718.66 363.14 746.00 358.00
C 749.39 325.87 788.21 288.49 820.25 310.75 C 852.28 333.02 838.98 380.92 814.00 403.00
C 851.06 381.93 892.04 362.33 936.00 365.00
C 921.00 368.26 902.58 371.00 887.93 375.93 C 873.27 380.85 858.94 385.11 845.77 392.77 C 832.61 400.43 813.34 404.30 816.00 423.00
C 839.56 418.61 870.43 418.79 893.22 423.78 C 916.01 428.76 937.13 433.00 954.00 448.00
C 941.86 442.48 932.27 439.86 919.33 435.67 C 906.38 431.48 893.27 429.97 879.00 428.00 C 864.73 426.03 847.74 427.88 832.98 427.98 C 818.22 428.07 807.96 433.67 807.00 450.00
C 843.76 460.47 882.11 480.91 903.00 515.00
C 893.60 508.09 887.39 500.59 877.75 493.25 C 868.12 485.90 860.26 480.39 849.25 473.75 C 838.25 467.10 828.59 465.19 815.93 459.07 C 803.26 452.96 798.37 465.43 791.25 476.25 C 784.12 487.06 780.40 493.08 770.25 503.25 C 760.10 513.41 776.70 518.57 786.25 524.75 C 795.79 530.94 802.87 539.42 810.30 548.70 C 817.74 557.97 822.37 568.23 827.32 579.68 C 832.27 591.13 834.83 605.05 837.00 618.00 C 839.17 630.95 837.96 650.29 839.78 663.22 C 841.60 676.15 851.50 683.42 855.77 695.23 C 860.04 707.04 866.52 716.19 870.77 728.23 C 875.02 740.27 879.17 753.72 880.00 767.00 C 880.83 780.28 879.24 796.70 873.08 808.08 C 866.91 819.45 858.37 825.11 846.93 829.93 C 835.48 834.74 817.14 835.63 804.99 832.01 C 792.84 828.38 783.43 822.86 773.00 816.00
C 777.32 832.24 784.72 849.34 786.98 866.02 C 789.23 882.71 800.34 902.46 790.00 917.00
C 798.75 949.55 802.34 988.70 802.00 1023.00 C 801.66 1057.30 792.56 1091.06 780.69 1120.69 C 768.83 1150.33 748.79 1169.57 741.22 1199.22 C 733.65 1228.88 711.97 1246.78 692.00 1269.00
C 708.41 1266.81 726.16 1263.97 743.00 1264.00 C 759.84 1264.03 779.77 1264.83 795.00 1269.00 C 810.24 1273.17 820.97 1277.50 833.75 1286.25 C 846.52 1295.01 853.04 1301.96 860.92 1316.08 C 868.80 1330.19 858.05 1343.92 843.33 1348.33 C 828.60 1352.74 816.19 1362.09 798.93 1360.93 C 781.67 1359.76 761.55 1360.62 745.00 1358.00 C 728.45 1355.38 712.85 1352.98 696.98 1350.02 C 681.10 1347.07 664.22 1344.06 648.99 1341.01 C 633.76 1337.96 617.66 1333.51 603.33 1330.67 C 588.99 1327.83 570.66 1319.58 574.78 1303.78 C 578.90 1287.98 590.20 1283.46 599.00 1271.00
C 565.87 1277.89 528.72 1281.67 495.00 1274.00
C 484.01 1289.84 467.31 1302.16 455.00 1316.00
C 465.36 1324.84 472.79 1343.92 463.25 1355.25 C 453.71 1366.57 444.27 1373.97 432.75 1382.75 C 421.23 1391.54 410.40 1398.19 397.92 1405.92 C 385.44 1413.65 373.60 1418.90 359.32 1424.32 C 345.04 1429.75 327.83 1432.75 311.93 1434.93 C 296.02 1437.11 275.60 1433.43 262.75 1426.25 C 249.90 1419.06 232.80 1416.65 232.01 1398.99 C 231.22 1381.34 239.05 1371.15 249.25 1359.25 C 259.44 1347.35 268.61 1341.42 282.08 1334.08 C 295.54 1326.73 309.27 1322.21 324.67 1318.67 C 340.07 1315.14 359.35 1311.98 376.00 1312.00
C 366.74 1265.46 330.27 1241.12 303.25 1202.75 C 276.23 1164.39 257.43 1110.17 264.00 1061.00
C 237.31 1050.94 213.31 1034.66 192.00 1015.00 Z"/>
</g>
<g fill="None" fill-opacity="0.0" stroke="#0C0D0C" stroke-opacity="1.00" stroke-width="0.3"><path d="
M 180.00 1003.00 
C 183.92 1006.92 188.13 1011.13 192.00 1015.00
C 213.31 1034.66 237.31 1050.94 264.00 1061.00
C 257.43 1110.17 276.23 1164.39 303.25 1202.75 C 330.27 1241.12 366.74 1265.46 376.00 1312.00
C 359.35 1311.98 340.07 1315.14 324.67 1318.67 C 309.27 1322.21 295.54 1326.73 282.08 1334.08 C 268.61 1341.42 259.44 1347.35 249.25 1359.25 C 239.05 1371.15 231.22 1381.34 232.01 1398.99 C 232.80 1416.65 249.90 1419.06 262.75 1426.25 C 275.60 1433.43 296.02 1437.11 311.93 1434.93 C 327.83 1432.75 345.04 1429.75 359.32 1424.32 C 373.60 1418.90 385.44 1413.65 397.92 1405.92 C 410.40 1398.19 421.23 1391.54 432.75 1382.75 C 444.27 1373.97 453.71 1366.57 463.25 1355.25 C 472.79 1343.92 465.36 1324.84 455.00 1316.00
C 467.31 1302.16 484.01 1289.84 495.00 1274.00
C 528.72 1281.67 565.87 1277.89 599.00 1271.00
C 590.20 1283.46 578.90 1287.98 574.78 1303.78 C 570.66 1319.58 588.99 1327.83 603.33 1330.67 C 617.66 1333.51 633.76 1337.96 648.99 1341.01 C 664.22 1344.06 681.10 1347.07 696.98 1350.02 C 712.85 1352.98 728.45 1355.38 745.00 1358.00 C 761.55 1360.62 781.67 1359.76 798.93 1360.93 C 816.19 1362.09 828.60 1352.74 843.33 1348.33 C 858.05 1343.92 868.80 1330.19 860.92 1316.08 C 853.04 1301.96 846.52 1295.01 833.75 1286.25 C 820.97 1277.50 810.24 1273.17 795.00 1269.00 C 779.77 1264.83 759.84 1264.03 743.00 1264.00 C 726.16 1263.97 708.41 1266.81 692.00 1269.00
C 711.97 1246.78 733.65 1228.88 741.22 1199.22 C 748.79 1169.57 768.83 1150.33 780.69 1120.69 C 792.56 1091.06 801.66 1057.30 802.00 1023.00 C 802.34 988.70 798.75 949.55 790.00 917.00
C 800.34 902.46 789.23 882.71 786.98 866.02 C 784.72 849.34 777.32 832.24 773.00 816.00
C 783.43 822.86 792.84 828.38 804.99 832.01 C 817.14 835.63 835.48 834.74 846.93 829.93 C 858.37 825.11 866.91 819.45 873.08 808.08 C 879.24 796.70 880.83 780.28 880.00 767.00 C 879.17 753.72 875.02 740.27 870.77 728.23 C 866.52 716.19 860.04 707.04 855.77 695.23 C 851.50 683.42 841.60 676.15 839.78 663.22 C 837.96 650.29 839.17 630.95 837.00 618.00 C 834.83 605.05 832.27 591.13 827.32 579.68 C 822.37 568.23 817.74 557.97 810.30 548.70 C 802.87 539.42 795.79 530.94 786.25 524.75 C 776.70 518.57 760.10 513.41 770.25 503.25 C 780.40 493.08 784.12 487.06 791.25 476.25 C 798.37 465.43 803.26 452.96 815.93 459.07 C 828.59 465.19 838.25 467.10 849.25 473.75 C 860.26 480.39 868.12 485.90 877.75 493.25 C 887.39 500.59 893.60 508.09 903.00 515.00
C 882.11 480.91 843.76 460.47 807.00 450.00
C 807.96 433.67 818.22 428.07 832.98 427.98 C 847.74 427.88 864.73 426.03 879.00 428.00 C 893.27 429.97 906.38 431.48 919.33 435.67 C 932.27 439.86 941.86 442.48 954.00 448.00
C 937.13 433.00 916.01 428.76 893.22 423.78 C 870.43 418.79 839.56 418.61 816.00 423.00
C 813.34 404.30 832.61 400.43 845.77 392.77 C 858.94 385.11 873.27 380.85 887.93 375.93 C 902.58 371.00 921.00 368.26 936.00 365.00
C 892.04 362.33 851.06 381.93 814.00 403.00
C 838.98 380.92 852.28 333.02 820.25 310.75 C 788.21 288.49 749.39 325.87 746.00 358.00
C 718.66 363.14 693.89 339.40 684.78 315.22 C 675.66 291.05 662.71 268.61 644.75 249.25 C 626.80 229.88 604.28 215.45 579.00 210.00
C 588.73 207.59 595.32 202.08 606.00 202.00 C 616.67 201.92 624.95 198.25 636.32 203.68 C 647.70 209.10 648.97 197.22 640.70 190.30 C 632.42 183.39 629.09 181.32 620.23 176.77 C 611.37 172.22 602.83 170.19 593.01 168.99 C 583.19 167.79 571.60 168.04 562.07 170.07 C 552.54 172.11 545.08 175.16 536.00 178.00
C 544.37 172.30 548.08 161.98 558.30 158.30 C 568.53 154.63 575.81 140.86 562.00 139.00 C 548.19 137.14 538.72 141.87 528.23 146.23 C 517.74 150.59 512.25 156.45 504.25 163.25 C 496.25 170.05 490.77 176.88 484.92 184.92 C 479.06 192.95 474.19 201.52 469.00 210.00
C 465.78 199.31 470.29 187.19 465.78 176.22 C 461.26 165.26 452.28 177.65 449.78 185.78 C 447.27 193.91 443.06 205.65 441.78 214.78 C 440.50 223.91 437.42 235.12 434.98 243.98 C 432.53 252.83 428.26 261.62 422.75 268.75 C 417.24 275.89 412.71 282.25 405.00 287.00
C 388.34 252.92 343.19 222.86 306.23 243.23 C 269.27 263.60 255.11 298.82 248.00 339.00 C 240.88 379.17 248.68 429.76 274.70 462.30 C 300.71 494.84 348.17 504.94 383.00 480.00
C 380.09 492.15 378.97 504.26 381.00 517.00 C 383.03 529.74 382.91 536.46 391.25 547.75 C 399.58 559.04 410.42 548.90 408.00 536.00
C 415.35 547.62 416.67 558.44 429.75 567.25 C 442.84 576.05 442.20 594.99 426.01 596.01 C 409.82 597.02 401.03 605.72 387.70 610.70 C 374.36 615.67 364.94 622.90 353.08 629.08 C 341.21 635.25 331.26 641.39 320.23 648.23 C 309.19 655.06 297.79 660.72 287.70 668.70 C 277.60 676.68 270.95 686.46 260.25 694.25 C 249.55 702.04 243.49 712.24 235.30 722.31 C 227.12 732.37 222.54 749.55 224.07 762.93 C 225.61 776.30 231.52 790.57 238.08 801.92 C 244.63 813.27 250.74 823.82 259.75 833.25 C 268.76 842.68 277.35 851.02 287.30 858.70 C 297.26 866.38 307.57 873.43 318.00 880.00
C 316.60 885.29 309.64 887.61 308.00 893.00
C 297.01 887.01 290.21 881.52 277.00 880.00 C 263.79 878.48 258.03 889.34 249.75 896.75 C 241.47 904.16 238.17 919.24 248.00 927.00
C 241.12 951.65 272.50 965.07 291.00 971.00
C 281.20 990.79 272.67 1011.22 269.00 1033.00
C 231.75 1017.76 201.93 997.12 176.75 963.25 C 151.57 929.37 135.18 897.04 123.33 854.67 C 111.47 812.31 105.72 757.17 106.00 710.00 C 106.28 662.83 111.88 608.17 122.01 564.01 C 132.14 519.84 142.01 477.93 156.22 436.22 C 170.44 394.51 183.73 357.12 198.22 316.22 C 212.72 275.33 227.96 232.57 233.67 189.67 C 239.38 146.77 228.09 96.51 186.23 77.77 C 144.37 59.03 101.95 87.11 82.92 124.92 C 63.90 162.74 72.41 214.13 47.00 250.00
C 75.45 220.55 67.97 171.08 83.69 135.69 C 99.42 100.31 134.36 70.31 175.32 82.68 C 216.29 95.05 228.85 142.46 224.00 182.00 C 219.15 221.54 205.76 262.40 191.78 299.78 C 177.79 337.15 164.52 370.91 150.98 408.98 C 137.43 447.04 126.02 484.06 114.98 523.98 C 103.93 563.89 96.80 608.27 91.78 650.78 C 86.75 693.29 85.25 749.96 91.00 792.00 C 96.75 834.04 105.80 874.54 121.23 911.77 C 136.66 949.00 154.20 972.80 180.00 1003.00
M 461.00 210.00 
C 461.31 213.17 461.67 218.27 462.00 222.00 C 462.33 225.73 460.34 232.76 462.00 236.00
C 462.48 236.48 469.66 224.43 471.31 220.31 C 472.95 216.18 478.99 208.60 481.75 203.75 C 484.52 198.90 488.94 192.66 492.75 187.75 C 496.57 182.84 501.01 177.45 505.75 172.75 C 510.50 168.06 515.46 164.68 521.08 161.08 C 526.71 157.48 532.56 154.23 539.03 152.02 C 545.49 149.82 554.15 144.59 561.00 148.00
C 537.71 162.83 516.33 184.68 506.00 210.00
C 538.58 176.46 596.74 165.25 635.00 195.00
C 607.59 190.42 577.61 198.58 556.00 217.00
C 595.42 213.16 628.09 241.45 651.30 270.70 C 674.51 299.95 677.47 342.27 713.00 360.00
C 705.86 365.14 693.22 364.76 684.00 368.00
C 686.13 358.00 685.47 344.14 682.02 334.98 C 678.58 325.81 674.44 318.81 668.75 311.25 C 663.06 303.68 657.74 297.38 649.75 292.25 C 641.77 287.12 630.88 283.73 622.25 289.25 C 613.63 294.78 611.93 307.31 613.00 317.00 C 614.07 326.69 616.93 338.76 620.92 347.08 C 624.92 355.39 628.49 364.13 634.77 370.23 C 641.05 376.33 648.17 386.06 656.67 384.67 C 665.17 383.28 676.34 376.41 685.02 375.02 C 693.71 373.64 706.01 367.32 714.22 367.22 C 722.44 367.12 742.77 359.62 744.99 369.01 C 747.21 378.40 745.16 391.32 753.25 398.75 C 761.35 406.17 765.32 411.09 776.22 412.78 C 787.13 414.47 798.20 410.34 808.00 407.00
C 805.94 420.52 802.39 436.87 795.70 448.70 C 789.00 460.52 783.39 472.23 773.75 481.75 C 764.12 491.28 759.02 502.07 746.25 508.25 C 733.48 514.42 726.15 525.47 721.25 538.25 C 716.34 551.02 702.84 555.49 693.77 564.77 C 684.70 574.05 671.99 580.03 660.77 586.77 C 649.56 593.51 634.44 597.97 623.00 604.00
C 628.12 605.63 635.22 603.47 641.00 603.00
C 641.81 653.47 584.53 671.91 544.98 658.02 C 505.42 644.14 478.98 619.80 446.00 595.00
C 445.81 591.45 448.61 588.70 448.00 585.00
C 457.00 591.05 465.99 597.09 476.08 600.92 C 486.16 604.76 500.64 612.30 510.00 607.00
C 463.08 592.84 416.63 555.97 406.00 506.00
C 398.97 514.99 401.55 529.01 397.00 539.00
C 384.21 517.65 390.10 487.50 397.32 465.32 C 404.54 443.15 409.71 419.50 421.00 400.00
C 393.38 401.24 369.96 383.09 359.00 359.00
C 359.77 381.22 378.54 402.29 401.00 404.00
C 389.24 413.49 372.27 414.77 358.00 410.00
C 369.49 424.73 394.08 419.28 408.00 410.00
C 394.68 432.30 394.95 462.07 369.77 474.77 C 344.59 487.47 312.90 484.87 292.25 464.75 C 271.60 444.64 262.94 422.66 258.02 394.98 C 253.11 367.29 258.01 331.29 267.92 305.92 C 277.84 280.56 291.46 261.39 317.68 251.68 C 343.90 241.96 370.57 261.52 386.25 281.75 C 401.93 301.98 403.74 333.77 431.00 341.00
C 422.60 328.50 417.75 317.52 411.68 303.32 C 405.61 289.13 424.89 283.50 431.75 270.75 C 438.62 258.00 444.07 243.11 446.33 228.33 C 448.59 213.55 451.02 196.19 460.00 184.00
C 461.87 192.27 460.66 201.35 461.00 210.00
M 624.00 342.00 
C 627.92 350.20 641.16 363.91 650.25 353.25 C 659.34 342.58 651.48 328.74 646.25 318.75 C 641.01 308.77 622.61 301.32 620.00 317.00
C 611.86 300.56 632.07 289.14 643.70 297.31 C 655.32 305.47 663.07 311.47 669.75 323.25 C 676.43 335.02 681.80 350.98 679.02 364.02 C 676.25 377.07 655.44 381.04 645.75 373.25 C 636.07 365.46 627.36 354.05 624.00 342.00
M 804.00 316.00 
C 825.75 319.53 833.31 348.89 825.07 367.07 C 816.83 385.26 803.17 402.55 780.00 401.00 C 756.83 399.45 751.79 368.44 759.78 350.78 C 767.77 333.11 781.14 312.29 804.00 316.00
M 778.00 704.00 
C 779.27 723.65 773.98 748.35 786.00 766.00
C 787.18 758.24 785.17 749.77 785.00 741.00 C 784.83 732.23 785.33 721.43 786.00 713.00 C 786.67 704.56 789.58 695.87 782.75 691.25 C 775.92 686.62 772.52 683.45 768.70 676.30 C 764.87 669.16 764.98 660.70 764.00 652.00 C 763.02 643.29 760.30 637.68 749.33 637.67 C 738.36 637.66 747.80 646.09 756.00 646.00
C 756.07 652.08 755.54 658.26 757.00 664.00
C 738.62 659.59 724.68 637.34 736.25 619.25 C 747.83 601.17 773.78 603.95 792.00 609.00
C 781.17 595.96 758.23 595.21 743.00 602.00
C 743.36 567.84 789.13 574.63 809.00 587.00
C 801.48 574.23 788.76 574.72 777.75 565.25 C 766.74 555.78 759.36 551.84 744.75 545.25 C 730.14 538.66 734.35 518.08 751.00 520.00 C 767.65 521.92 775.77 527.36 787.25 536.75 C 798.72 546.14 804.12 553.90 811.30 565.70 C 818.49 577.50 823.39 589.80 826.33 603.67 C 829.26 617.55 833.23 636.86 831.00 652.00 C 828.77 667.14 836.75 678.89 843.31 691.69 C 849.86 704.50 855.05 714.48 860.31 727.69 C 865.57 740.91 870.00 755.41 871.00 770.00 C 872.00 784.60 869.04 800.19 858.75 810.75 C 848.46 821.31 834.88 825.84 820.00 825.00 C 805.12 824.16 795.24 816.75 781.92 810.08 C 768.60 803.41 765.71 791.71 760.07 778.93 C 754.44 766.14 752.14 752.10 758.93 738.93 C 765.71 725.75 768.00 715.11 778.00 704.00
M 769.00 568.00 
C 750.92 569.34 729.23 586.20 736.00 607.00
C 726.39 615.30 723.14 628.40 724.00 641.00
C 701.83 627.68 680.56 612.57 657.00 602.00
C 682.11 587.02 710.88 570.17 730.00 545.00
C 740.79 556.81 757.07 558.16 769.00 568.00
M 441.00 742.00 
C 436.75 746.98 431.93 751.79 427.00 756.00
C 413.01 767.96 399.22 779.80 383.00 788.00
C 386.28 736.63 348.10 686.12 300.00 671.00
C 319.00 657.10 336.28 649.48 356.70 636.70 C 377.11 623.91 395.97 617.12 419.02 607.02 C 442.07 596.93 461.35 614.81 478.75 630.25 C 496.15 645.68 515.26 655.46 537.03 663.98 C 558.79 672.49 591.05 673.98 612.23 662.23 C 633.41 650.47 645.61 630.13 649.00 607.00
C 685.29 648.06 710.60 690.51 733.77 741.23 C 756.94 791.95 776.60 853.18 786.00 909.00
C 777.63 918.19 770.30 925.66 759.75 932.75 C 749.21 939.84 738.49 945.11 726.32 950.32 C 714.15 955.54 701.69 958.84 687.99 961.99 C 674.30 965.14 657.86 966.94 643.00 968.00 C 628.14 969.06 609.95 969.44 595.00 968.00 C 580.05 966.56 563.27 965.64 549.00 963.00 C 534.73 960.36 521.90 957.06 508.33 953.67 C 494.76 950.28 482.88 945.48 469.93 941.07 C 456.97 936.66 447.32 930.85 434.77 925.23 C 422.22 919.61 417.07 912.55 404.25 905.75 C 391.43 898.95 395.24 881.25 392.67 868.33 C 390.10 855.41 379.93 843.70 386.77 831.77 C 393.61 819.85 399.68 810.71 403.93 797.93 C 408.17 785.14 415.50 778.54 425.25 769.25 C 435.00 759.96 449.67 759.41 461.22 754.22 C 472.78 749.04 484.44 743.51 490.00 732.00
C 474.52 741.00 458.44 748.94 441.00 753.00
C 453.86 737.42 470.04 719.29 469.00 699.00
C 463.57 715.16 452.23 728.91 441.00 742.00
M 759.00 674.00 
C 761.56 682.60 767.96 691.55 776.00 696.00
C 761.49 711.33 753.08 730.84 747.00 750.00
C 727.53 702.33 699.98 657.89 668.00 617.00
C 684.72 623.64 698.42 636.26 714.25 644.75 C 730.08 653.25 739.09 674.95 759.00 674.00
M 375.00 766.00 
C 367.31 769.00 360.60 774.84 353.00 778.00
C 348.83 766.48 339.36 754.13 327.00 751.00
C 334.30 760.61 342.26 768.58 346.77 780.23 C 351.28 791.88 356.97 803.45 361.78 815.22 C 366.58 827.00 371.94 838.07 376.92 850.08 C 381.91 862.09 385.85 877.58 386.00 891.00 C 386.15 904.42 381.71 918.69 374.25 929.25 C 366.78 939.81 360.20 946.18 349.75 953.75 C 339.31 961.33 322.92 964.10 310.00 964.00 C 297.08 963.90 282.36 957.07 271.77 952.23 C 261.18 947.38 247.17 931.45 262.07 926.07 C 276.97 920.70 287.86 937.69 302.00 936.00
C 297.04 927.00 286.85 926.41 278.92 920.08 C 271.00 913.74 251.33 926.18 250.01 913.99 C 248.68 901.80 264.52 898.41 272.69 904.31 C 280.87 910.20 288.90 915.04 298.00 919.00
C 298.81 911.59 290.01 908.27 284.77 903.23 C 279.53 898.19 271.19 894.39 264.00 893.00
C 275.81 878.55 292.21 894.42 304.00 900.00
C 299.13 912.52 298.65 929.25 307.00 940.00
C 304.67 918.15 309.07 888.40 334.00 882.00
C 320.05 870.82 304.95 861.90 291.25 849.75 C 277.56 837.59 265.14 825.73 254.25 810.75 C 243.36 795.78 234.58 773.85 234.00 755.00 C 233.42 736.15 247.48 717.74 260.75 705.75 C 274.02 693.77 289.83 674.47 307.68 681.32 C 325.53 688.17 338.22 699.95 350.25 714.75 C 362.28 729.56 371.00 747.56 375.00 766.00
M 376.00 773.00 
C 376.00 779.00 376.00 785.00 376.00 791.00
C 369.55 795.03 359.58 791.09 357.00 784.00
C 363.67 780.84 369.74 776.85 376.00 773.00
M 396.00 793.00 
C 391.92 805.53 382.44 816.09 379.00 829.00
C 373.03 821.79 369.49 810.14 365.00 801.00
C 376.07 804.54 387.77 800.47 396.00 793.00
M 610.00 978.00 
C 617.00 978.00 624.00 978.00 631.00 978.00
C 686.18 978.00 741.09 962.79 783.00 927.00
C 804.94 1017.32 788.53 1118.92 723.00 1187.00
C 719.63 1190.94 715.89 1194.67 712.00 1198.00
C 653.44 1248.05 581.25 1277.93 502.00 1266.00
C 508.93 1246.17 519.20 1226.46 518.00 1204.00
C 518.00 1200.00 518.00 1196.00 518.00 1192.00
C 518.00 1151.35 497.10 1107.60 462.00 1086.00
C 495.03 1118.68 513.00 1165.91 508.02 1212.02 C 503.05 1258.14 471.92 1287.73 439.00 1317.00
C 448.60 1319.45 463.56 1337.10 456.08 1347.08 C 448.59 1357.05 439.34 1363.96 429.75 1371.75 C 420.16 1379.54 409.66 1386.04 398.77 1392.77 C 387.88 1399.50 378.41 1405.41 365.77 1410.77 C 353.14 1416.13 340.57 1419.98 325.93 1422.93 C 311.29 1425.87 294.71 1425.66 278.33 1423.67 C 261.95 1421.68 263.65 1402.14 271.75 1391.75 C 279.86 1381.36 284.85 1372.23 296.25 1365.25 C 307.64 1358.26 318.77 1352.34 331.00 1348.00
C 296.29 1346.81 259.90 1377.79 255.00 1413.00
C 228.69 1402.85 244.37 1372.28 262.25 1358.25 C 280.13 1344.21 299.67 1334.49 323.02 1329.02 C 346.38 1323.56 379.46 1319.93 404.00 1321.00
C 393.54 1317.50 385.77 1310.89 384.07 1299.93 C 382.38 1288.97 375.97 1280.78 371.70 1271.31 C 367.42 1261.83 360.04 1255.02 354.25 1246.75 C 348.46 1238.48 341.76 1232.50 335.25 1224.75 C 328.74 1217.00 322.76 1209.46 316.70 1201.30 C 310.63 1193.14 305.43 1185.82 300.23 1176.77 C 295.03 1167.72 290.55 1158.47 286.69 1148.31 C 282.84 1138.14 279.53 1128.06 277.22 1116.78 C 274.92 1105.50 273.93 1091.28 274.00 1079.00 C 274.07 1066.73 274.87 1051.60 277.00 1040.00 C 279.13 1028.40 282.42 1018.72 285.93 1007.93 C 289.43 997.14 292.79 988.17 298.30 978.30 C 303.81 968.43 322.10 974.78 332.01 971.01 C 341.92 967.24 351.55 963.49 359.75 956.75 C 367.94 950.01 373.66 944.21 379.92 935.92 C 386.17 927.63 390.80 917.47 394.00 908.00
C 455.24 955.57 532.35 975.76 610.00 978.00
M 734.00 1192.00 
C 721.68 1231.85 687.50 1263.62 653.00 1286.00
C 672.78 1284.48 693.24 1277.84 714.01 1275.01 C 734.78 1272.18 763.19 1272.64 783.07 1275.93 C 802.95 1279.22 819.94 1286.63 835.08 1297.92 C 850.23 1309.20 865.58 1331.98 842.00 1340.00
C 837.07 1300.56 788.20 1283.81 753.00 1290.00
C 765.43 1293.45 780.58 1294.45 793.07 1298.93 C 805.57 1303.40 813.19 1310.01 823.25 1318.75 C 833.30 1327.50 837.50 1344.69 821.99 1347.99 C 806.48 1351.30 790.66 1351.99 775.00 1351.00 C 759.34 1350.01 744.90 1347.64 730.00 1346.00 C 715.10 1344.36 702.37 1339.90 687.98 1338.02 C 673.58 1336.15 660.15 1331.62 645.99 1330.01 C 631.84 1328.39 619.84 1321.59 605.93 1320.07 C 592.02 1318.56 578.33 1308.51 588.77 1296.77 C 599.21 1285.03 603.04 1280.79 612.75 1270.75 C 622.46 1260.72 635.80 1261.13 647.08 1255.08 C 658.35 1249.02 669.56 1244.86 679.70 1237.70 C 689.83 1230.54 699.42 1224.51 708.75 1216.75 C 718.08 1208.98 725.99 1200.66 734.00 1192.00 Z"/>
</g>
<g fill="None" fill-opacity="0.0" stroke="#FCF9F8" stroke-opacity="1.00" stroke-width="0.3"><path d="
M 462.00 236.00 
C 458.37 232.37 461.00 215.42 461.00 210.00
C 460.66 201.35 461.87 192.27 460.00 184.00
C 451.02 196.19 448.59 213.55 446.33 228.33 C 444.07 243.11 438.62 258.00 431.75 270.75 C 424.89 283.50 405.61 289.13 411.68 303.32 C 417.75 317.52 422.60 328.50 431.00 341.00
C 403.74 333.77 401.93 301.98 386.25 281.75 C 370.57 261.52 343.90 241.96 317.68 251.68 C 291.46 261.39 277.84 280.56 267.92 305.92 C 258.01 331.29 253.11 367.29 258.02 394.98 C 262.94 422.66 271.60 444.64 292.25 464.75 C 312.90 484.87 344.59 487.47 369.77 474.77 C 394.95 462.07 394.68 432.30 408.00 410.00
C 394.08 419.28 369.49 424.73 358.00 410.00
C 372.27 414.77 389.24 413.49 401.00 404.00
C 378.54 402.29 359.77 381.22 359.00 359.00
C 369.96 383.09 393.38 401.24 421.00 400.00
C 409.71 419.50 404.54 443.15 397.32 465.32 C 390.10 487.50 384.21 517.65 397.00 539.00
C 401.55 529.01 398.97 514.99 406.00 506.00
C 416.63 555.97 463.08 592.84 510.00 607.00
C 500.64 612.30 486.16 604.76 476.08 600.92 C 465.99 597.09 457.00 591.05 448.00 585.00
C 448.61 588.70 445.81 591.45 446.00 595.00
C 478.98 619.80 505.42 644.14 544.98 658.02 C 584.53 671.91 641.81 653.47 641.00 603.00
C 635.22 603.47 628.12 605.63 623.00 604.00
C 634.44 597.97 649.56 593.51 660.77 586.77 C 671.99 580.03 684.70 574.05 693.77 564.77 C 702.84 555.49 716.34 551.02 721.25 538.25 C 726.15 525.47 733.48 514.42 746.25 508.25 C 759.02 502.07 764.12 491.28 773.75 481.75 C 783.39 472.23 789.00 460.52 795.70 448.70 C 802.39 436.87 805.94 420.52 808.00 407.00
C 798.20 410.34 787.13 414.47 776.22 412.78 C 765.32 411.09 761.35 406.17 753.25 398.75 C 745.16 391.32 747.21 378.40 744.99 369.01 C 742.77 359.62 722.44 367.12 714.22 367.22 C 706.01 367.32 693.71 373.64 685.02 375.02 C 676.34 376.41 665.17 383.28 656.67 384.67 C 648.17 386.06 641.05 376.33 634.77 370.23 C 628.49 364.13 624.92 355.39 620.92 347.08 C 616.93 338.76 614.07 326.69 613.00 317.00 C 611.93 307.31 613.63 294.78 622.25 289.25 C 630.88 283.73 641.77 287.12 649.75 292.25 C 657.74 297.38 663.06 303.68 668.75 311.25 C 674.44 318.81 678.58 325.81 682.02 334.98 C 685.47 344.14 686.13 358.00 684.00 368.00
C 693.22 364.76 705.86 365.14 713.00 360.00
C 677.47 342.27 674.51 299.95 651.30 270.70 C 628.09 241.45 595.42 213.16 556.00 217.00
C 577.61 198.58 607.59 190.42 635.00 195.00
C 596.74 165.25 538.58 176.46 506.00 210.00
C 516.33 184.68 537.71 162.83 561.00 148.00
C 554.15 144.59 545.49 149.82 539.03 152.02 C 532.56 154.23 526.71 157.48 521.08 161.08 C 515.46 164.68 510.50 168.06 505.75 172.75 C 501.01 177.45 496.57 182.84 492.75 187.75 C 488.94 192.66 484.52 198.90 481.75 203.75 C 478.99 208.60 472.95 216.18 471.31 220.31 C 469.66 224.43 462.48 236.48 462.00 236.00
M 640.00 268.00 
C 632.86 263.48 629.10 260.19 621.31 255.70 C 613.51 251.20 604.08 255.49 597.75 259.75 C 591.42 264.01 593.59 242.64 602.22 243.22 C 610.86 243.81 619.98 243.49 626.08 249.92 C 632.18 256.35 638.64 259.30 640.00 268.00
M 526.00 265.00 
C 496.33 265.08 479.88 295.28 475.00 321.00
C 468.90 304.46 475.16 284.36 484.75 270.75 C 494.35 257.15 514.58 249.95 526.00 265.00
M 539.00 303.00 
C 560.11 306.02 576.15 324.10 586.31 342.70 C 596.46 361.29 600.97 393.62 583.75 410.75 C 566.53 427.89 539.19 426.41 520.92 411.08 C 502.65 395.75 495.30 371.37 496.00 348.00 C 496.70 324.63 512.08 299.15 539.00 303.00
M 646.00 451.00 
C 631.68 454.71 612.42 452.49 597.00 454.00 C 581.57 455.50 565.38 456.76 550.78 459.78 C 536.18 462.79 522.65 465.41 508.93 469.93 C 495.20 474.44 483.40 479.21 470.00 484.00
C 520.45 451.54 585.72 443.27 646.00 451.00
M 636.00 475.00 
C 587.86 487.93 547.04 518.57 510.00 552.00
C 514.99 540.83 524.57 533.12 533.75 524.75 C 542.93 516.38 552.30 508.52 562.75 501.75 C 573.19 494.97 584.29 487.56 596.22 483.22 C 608.15 478.88 624.12 470.95 636.00 475.00
M 725.00 510.00 
C 715.75 517.00 705.00 522.54 695.25 529.25 C 685.51 535.97 676.56 545.66 666.00 550.00
C 678.47 529.51 701.87 511.89 725.00 510.00 Z"/>
</g>
<g fill="None" fill-opacity="0.0" stroke="#7A7978" stroke-opacity="1.00" stroke-width="0.3"><path d="
M 462.00 236.00 
C 460.34 232.76 462.33 225.73 462.00 222.00 C 461.67 218.27 461.31 213.17 461.00 210.00
C 461.00 215.42 458.37 232.37 462.00 236.00 Z"/>
</g>
<g fill="None" fill-opacity="0.0" stroke="#0B0C0B" stroke-opacity="1.00" stroke-width="0.3"><path d="
M 640.00 268.00 
C 638.64 259.30 632.18 256.35 626.08 249.92 C 619.98 243.49 610.86 243.81 602.22 243.22 C 593.59 242.64 591.42 264.01 597.75 259.75 C 604.08 255.49 613.51 251.20 621.31 255.70 C 629.10 260.19 632.86 263.48 640.00 268.00 Z"/>
</g>
<g fill="None" fill-opacity="0.0" stroke="#0C0C0C" stroke-opacity="1.00" stroke-width="0.3"><path d="
M 526.00 265.00 
C 514.58 249.95 494.35 257.15 484.75 270.75 C 475.16 284.36 468.90 304.46 475.00 321.00
C 479.88 295.28 496.33 265.08 526.00 265.00 Z"/>
</g>
<g fill="None" fill-opacity="0.0" stroke="#FAF8F6" stroke-opacity="1.00" stroke-width="0.3"><path d="
M 624.00 342.00 
C 627.36 354.05 636.07 365.46 645.75 373.25 C 655.44 381.04 676.25 377.07 679.02 364.02 C 681.80 350.98 676.43 335.02 669.75 323.25 C 663.07 311.47 655.32 305.47 643.70 297.31 C 632.07 289.14 611.86 300.56 620.00 317.00
C 622.61 301.32 641.01 308.77 646.25 318.75 C 651.48 328.74 659.34 342.58 650.25 353.25 C 641.16 363.91 627.92 350.20 624.00 342.00 Z"/>
</g>
<g fill="None" fill-opacity="0.0" stroke="#0C0C0C" stroke-opacity="1.00" stroke-width="0.3"><path d="
M 539.00 303.00 
C 512.08 299.15 496.70 324.63 496.00 348.00 C 495.30 371.37 502.65 395.75 520.92 411.08 C 539.19 426.41 566.53 427.89 583.75 410.75 C 600.97 393.62 596.46 361.29 586.31 342.70 C 576.15 324.10 560.11 306.02 539.00 303.00
M 564.00 323.00 
C 549.16 320.43 541.22 336.09 544.00 349.00 C 546.78 361.91 550.52 370.37 562.70 377.31 C 574.87 384.24 586.62 367.93 584.00 357.00
C 600.51 384.24 577.38 425.15 544.78 416.22 C 512.17 407.29 503.40 379.28 503.00 348.00 C 502.60 316.72 540.53 297.36 564.00 323.00 Z"/>
</g>
<g fill="None" fill-opacity="0.0" stroke="#FBF9F7" stroke-opacity="1.00" stroke-width="0.3"><path d="
M 564.00 323.00 
C 540.53 297.36 502.60 316.72 503.00 348.00 C 503.40 379.28 512.17 407.29 544.78 416.22 C 577.38 425.15 600.51 384.24 584.00 357.00
C 586.62 367.93 574.87 384.24 562.70 377.31 C 550.52 370.37 546.78 361.91 544.00 349.00 C 541.22 336.09 549.16 320.43 564.00 323.00 Z"/>
</g>
<g fill="None" fill-opacity="0.0" stroke="#FDFAF8" stroke-opacity="1.00" stroke-width="0.3"><path d="
M 804.00 316.00 
C 781.14 312.29 767.77 333.11 759.78 350.78 C 751.79 368.44 756.83 399.45 780.00 401.00 C 803.17 402.55 816.83 385.26 825.07 367.07 C 833.31 348.89 825.75 319.53 804.00 316.00 Z"/>
</g>
<g fill="None" fill-opacity="0.0" stroke="#080908" stroke-opacity="1.00" stroke-width="0.3"><path d="
M 646.00 451.00 
C 585.72 443.27 520.45 451.54 470.00 484.00
C 483.40 479.21 495.20 474.44 508.93 469.93 C 522.65 465.41 536.18 462.79 550.78 459.78 C 565.38 456.76 581.57 455.50 597.00 454.00 C 612.42 452.49 631.68 454.71 646.00 451.00 Z"/>
</g>
<g fill="None" fill-opacity="0.0" stroke="#0A0A0A" stroke-opacity="1.00" stroke-width="0.3"><path d="
M 636.00 475.00 
C 624.12 470.95 608.15 478.88 596.22 483.22 C 584.29 487.56 573.19 494.97 562.75 501.75 C 552.30 508.52 542.93 516.38 533.75 524.75 C 524.57 533.12 514.99 540.83 510.00 552.00
C 547.04 518.57 587.86 487.93 636.00 475.00 Z"/>
</g>
<g fill="None" fill-opacity="0.0" stroke="#090A09" stroke-opacity="1.00" stroke-width="0.3"><path d="
M 725.00 510.00 
C 701.87 511.89 678.47 529.51 666.00 550.00
C 676.56 545.66 685.51 535.97 695.25 529.25 C 705.00 522.54 715.75 517.00 725.00 510.00 Z"/>
</g>
<g fill="None" fill-opacity="0.0" stroke="#FCFAF8" stroke-opacity="1.00" stroke-width="0.3"><path d="
M 778.00 704.00 
C 768.00 715.11 765.71 725.75 758.93 738.93 C 752.14 752.10 754.44 766.14 760.07 778.93 C 765.71 791.71 768.60 803.41 781.92 810.08 C 795.24 816.75 805.12 824.16 820.00 825.00 C 834.88 825.84 848.46 821.31 858.75 810.75 C 869.04 800.19 872.00 784.60 871.00 770.00 C 870.00 755.41 865.57 740.91 860.31 727.69 C 855.05 714.48 849.86 704.50 843.31 691.69 C 836.75 678.89 828.77 667.14 831.00 652.00 C 833.23 636.86 829.26 617.55 826.33 603.67 C 823.39 589.80 818.49 577.50 811.30 565.70 C 804.12 553.90 798.72 546.14 787.25 536.75 C 775.77 527.36 767.65 521.92 751.00 520.00 C 734.35 518.08 730.14 538.66 744.75 545.25 C 759.36 551.84 766.74 555.78 777.75 565.25 C 788.76 574.72 801.48 574.23 809.00 587.00
C 789.13 574.63 743.36 567.84 743.00 602.00
C 758.23 595.21 781.17 595.96 792.00 609.00
C 773.78 603.95 747.83 601.17 736.25 619.25 C 724.68 637.34 738.62 659.59 757.00 664.00
C 755.54 658.26 756.07 652.08 756.00 646.00
C 747.80 646.09 738.36 637.66 749.33 637.67 C 760.30 637.68 763.02 643.29 764.00 652.00 C 764.98 660.70 764.87 669.16 768.70 676.30 C 772.52 683.45 775.92 686.62 782.75 691.25 C 789.58 695.87 786.67 704.56 786.00 713.00 C 785.33 721.43 784.83 732.23 785.00 741.00 C 785.17 749.77 787.18 758.24 786.00 766.00
C 773.98 748.35 779.27 723.65 778.00 704.00 Z"/>
</g>
<g fill="None" fill-opacity="0.0" stroke="#FCF9F7" stroke-opacity="1.00" stroke-width="0.3"><path d="
M 769.00 568.00 
C 757.07 558.16 740.79 556.81 730.00 545.00
C 710.88 570.17 682.11 587.02 657.00 602.00
C 680.56 612.57 701.83 627.68 724.00 641.00
C 723.14 628.40 726.39 615.30 736.00 607.00
C 729.23 586.20 750.92 569.34 769.00 568.00 Z"/>
</g>
<g fill="None" fill-opacity="0.0" stroke="#FDFAF8" stroke-opacity="1.00" stroke-width="0.3"><path d="
M 427.00 756.00 
C 431.59 751.41 436.46 746.54 441.00 742.00
C 452.23 728.91 463.57 715.16 469.00 699.00
C 470.04 719.29 453.86 737.42 441.00 753.00
C 458.44 748.94 474.52 741.00 490.00 732.00
C 484.44 743.51 472.78 749.04 461.22 754.22 C 449.67 759.41 435.00 759.96 425.25 769.25 C 415.50 778.54 408.17 785.14 403.93 797.93 C 399.68 810.71 393.61 819.85 386.77 831.77 C 379.93 843.70 390.10 855.41 392.67 868.33 C 395.24 881.25 391.43 898.95 404.25 905.75 C 417.07 912.55 422.22 919.61 434.77 925.23 C 447.32 930.85 456.97 936.66 469.93 941.07 C 482.88 945.48 494.76 950.28 508.33 953.67 C 521.90 957.06 534.73 960.36 549.00 963.00 C 563.27 965.64 580.05 966.56 595.00 968.00 C 609.95 969.44 628.14 969.06 643.00 968.00 C 657.86 966.94 674.30 965.14 687.99 961.99 C 701.69 958.84 714.15 955.54 726.32 950.32 C 738.49 945.11 749.21 939.84 759.75 932.75 C 770.30 925.66 777.63 918.19 786.00 909.00
C 776.60 853.18 756.94 791.95 733.77 741.23 C 710.60 690.51 685.29 648.06 649.00 607.00
C 645.61 630.13 633.41 650.47 612.23 662.23 C 591.05 673.98 558.79 672.49 537.03 663.98 C 515.26 655.46 496.15 645.68 478.75 630.25 C 461.35 614.81 442.07 596.93 419.02 607.02 C 395.97 617.12 377.11 623.91 356.70 636.70 C 336.28 649.48 319.00 657.10 300.00 671.00
C 348.10 686.12 386.28 736.63 383.00 788.00
C 399.22 779.80 413.01 767.96 427.00 756.00 Z"/>
</g>
<g fill="None" fill-opacity="0.0" stroke="#FCF9F8" stroke-opacity="1.00" stroke-width="0.3"><path d="
M 759.00 674.00 
C 739.09 674.95 730.08 653.25 714.25 644.75 C 698.42 636.26 684.72 623.64 668.00 617.00
C 699.98 657.89 727.53 702.33 747.00 750.00
C 753.08 730.84 761.49 711.33 776.00 696.00
C 767.96 691.55 761.56 682.60 759.00 674.00 Z"/>
</g>
<g fill="None" fill-opacity="0.0" stroke="#FCFAF8" stroke-opacity="1.00" stroke-width="0.3"><path d="
M 375.00 766.00 
C 371.00 747.56 362.28 729.56 350.25 714.75 C 338.22 699.95 325.53 688.17 307.68 681.32 C 289.83 674.47 274.02 693.77 260.75 705.75 C 247.48 717.74 233.42 736.15 234.00 755.00 C 234.58 773.85 243.36 795.78 254.25 810.75 C 265.14 825.73 277.56 837.59 291.25 849.75 C 304.95 861.90 320.05 870.82 334.00 882.00
C 309.07 888.40 304.67 918.15 307.00 940.00
C 298.65 929.25 299.13 912.52 304.00 900.00
C 292.21 894.42 275.81 878.55 264.00 893.00
C 271.19 894.39 279.53 898.19 284.77 903.23 C 290.01 908.27 298.81 911.59 298.00 919.00
C 288.90 915.04 280.87 910.20 272.69 904.31 C 264.52 898.41 248.68 901.80 250.01 913.99 C 251.33 926.18 271.00 913.74 278.92 920.08 C 286.85 926.41 297.04 927.00 302.00 936.00
C 287.86 937.69 276.97 920.70 262.07 926.07 C 247.17 931.45 261.18 947.38 271.77 952.23 C 282.36 957.07 297.08 963.90 310.00 964.00 C 322.92 964.10 339.31 961.33 349.75 953.75 C 360.20 946.18 366.78 939.81 374.25 929.25 C 381.71 918.69 386.15 904.42 386.00 891.00 C 385.85 877.58 381.91 862.09 376.92 850.08 C 371.94 838.07 366.58 827.00 361.78 815.22 C 356.97 803.45 351.28 791.88 346.77 780.23 C 342.26 768.58 334.30 760.61 327.00 751.00
C 339.36 754.13 348.83 766.48 353.00 778.00
C 360.60 774.84 367.31 769.00 375.00 766.00 Z"/>
</g>
<g fill="None" fill-opacity="0.0" stroke="#848482" stroke-opacity="1.00" stroke-width="0.3"><path d="
M 427.00 756.00 
C 431.93 751.79 436.75 746.98 441.00 742.00
C 436.46 746.54 431.59 751.41 427.00 756.00 Z"/>
</g>
<g fill="None" fill-opacity="0.0" stroke="#F7F6F5" stroke-opacity="1.00" stroke-width="0.3"><path d="
M 376.00 773.00 
C 369.74 776.85 363.67 780.84 357.00 784.00
C 359.58 791.09 369.55 795.03 376.00 791.00
C 376.00 785.00 376.00 779.00 376.00 773.00 Z"/>
</g>
<g fill="None" fill-opacity="0.0" stroke="#F8F6F5" stroke-opacity="1.00" stroke-width="0.3"><path d="
M 396.00 793.00 
C 387.77 800.47 376.07 804.54 365.00 801.00
C 369.49 810.14 373.03 821.79 379.00 829.00
C 382.44 816.09 391.92 805.53 396.00 793.00 Z"/>
</g>
<g fill="None" fill-opacity="0.0" stroke="#FDFAF9" stroke-opacity="1.00" stroke-width="0.3"><path d="
M 518.00 1192.00 
C 518.37 1195.77 518.36 1200.29 518.00 1204.00
C 519.20 1226.46 508.93 1246.17 502.00 1266.00
C 581.25 1277.93 653.44 1248.05 712.00 1198.00
C 715.58 1194.42 719.46 1190.54 723.00 1187.00
C 788.53 1118.92 804.94 1017.32 783.00 927.00
C 741.09 962.79 686.18 978.00 631.00 978.00
C 624.39 978.64 616.54 978.63 610.00 978.00
C 532.35 975.76 455.24 955.57 394.00 908.00
C 390.80 917.47 386.17 927.63 379.92 935.92 C 373.66 944.21 367.94 950.01 359.75 956.75 C 351.55 963.49 341.92 967.24 332.01 971.01 C 322.10 974.78 303.81 968.43 298.30 978.30 C 292.79 988.17 289.43 997.14 285.93 1007.93 C 282.42 1018.72 279.13 1028.40 277.00 1040.00 C 274.87 1051.60 274.07 1066.73 274.00 1079.00 C 273.93 1091.28 274.92 1105.50 277.22 1116.78 C 279.53 1128.06 282.84 1138.14 286.69 1148.31 C 290.55 1158.47 295.03 1167.72 300.23 1176.77 C 305.43 1185.82 310.63 1193.14 316.70 1201.30 C 322.76 1209.46 328.74 1217.00 335.25 1224.75 C 341.76 1232.50 348.46 1238.48 354.25 1246.75 C 360.04 1255.02 367.42 1261.83 371.70 1271.31 C 375.97 1280.78 382.38 1288.97 384.07 1299.93 C 385.77 1310.89 393.54 1317.50 404.00 1321.00
C 379.46 1319.93 346.38 1323.56 323.02 1329.02 C 299.67 1334.49 280.13 1344.21 262.25 1358.25 C 244.37 1372.28 228.69 1402.85 255.00 1413.00
C 259.90 1377.79 296.29 1346.81 331.00 1348.00
C 318.77 1352.34 307.64 1358.26 296.25 1365.25 C 284.85 1372.23 279.86 1381.36 271.75 1391.75 C 263.65 1402.14 261.95 1421.68 278.33 1423.67 C 294.71 1425.66 311.29 1425.87 325.93 1422.93 C 340.57 1419.98 353.14 1416.13 365.77 1410.77 C 378.41 1405.41 387.88 1399.50 398.77 1392.77 C 409.66 1386.04 420.16 1379.54 429.75 1371.75 C 439.34 1363.96 448.59 1357.05 456.08 1347.08 C 463.56 1337.10 448.60 1319.45 439.00 1317.00
C 471.92 1287.73 503.05 1258.14 508.02 1212.02 C 513.00 1165.91 495.03 1118.68 462.00 1086.00
C 497.10 1107.60 518.00 1151.35 518.00 1192.00 Z"/>
</g>
<g fill="None" fill-opacity="0.0" stroke="#8E8C8A" stroke-opacity="1.00" stroke-width="0.3"><path d="
M 631.00 978.00 
C 624.00 978.00 617.00 978.00 610.00 978.00
C 616.54 978.63 624.39 978.64 631.00 978.00 Z"/>
</g>
<g fill="None" fill-opacity="0.0" stroke="#787777" stroke-opacity="1.00" stroke-width="0.3"><path d="
M 192.00 1015.00 
C 188.13 1011.13 183.92 1006.92 180.00 1003.00
C 183.62 1007.24 187.71 1011.34 192.00 1015.00 Z"/>
</g>
<g fill="None" fill-opacity="0.0" stroke="#7F7F7E" stroke-opacity="1.00" stroke-width="0.3"><path d="
M 712.00 1198.00 
C 715.89 1194.67 719.63 1190.94 723.00 1187.00
C 719.46 1190.54 715.58 1194.42 712.00 1198.00 Z"/>
</g>
<g fill="None" fill-opacity="0.0" stroke="#787877" stroke-opacity="1.00" stroke-width="0.3"><path d="
M 518.00 1204.00 
C 518.36 1200.29 518.37 1195.77 518.00 1192.00
C 518.00 1196.00 518.00 1200.00 518.00 1204.00 Z"/>
</g>
<g fill="None" fill-opacity="0.0" stroke="#FCF9F8" stroke-opacity="1.00" stroke-width="0.3"><path d="
M 734.00 1192.00 
C 725.99 1200.66 718.08 1208.98 708.75 1216.75 C 699.42 1224.51 689.83 1230.54 679.70 1237.70 C 669.56 1244.86 658.35 1249.02 647.08 1255.08 C 635.80 1261.13 622.46 1260.72 612.75 1270.75 C 603.04 1280.79 599.21 1285.03 588.77 1296.77 C 578.33 1308.51 592.02 1318.56 605.93 1320.07 C 619.84 1321.59 631.84 1328.39 645.99 1330.01 C 660.15 1331.62 673.58 1336.15 687.98 1338.02 C 702.37 1339.90 715.10 1344.36 730.00 1346.00 C 744.90 1347.64 759.34 1350.01 775.00 1351.00 C 790.66 1351.99 806.48 1351.30 821.99 1347.99 C 837.50 1344.69 833.30 1327.50 823.25 1318.75 C 813.19 1310.01 805.57 1303.40 793.07 1298.93 C 780.58 1294.45 765.43 1293.45 753.00 1290.00
C 788.20 1283.81 837.07 1300.56 842.00 1340.00
C 865.58 1331.98 850.23 1309.20 835.08 1297.92 C 819.94 1286.63 802.95 1279.22 783.07 1275.93 C 763.19 1272.64 734.78 1272.18 714.01 1275.01 C 693.24 1277.84 672.78 1284.48 653.00 1286.00
C 687.50 1263.62 721.68 1231.85 734.00 1192.00 Z"/>
</g>
<g fill="#FFFDFB" fill-opacity="1.00" stroke="None">
<path d="
M 0.00 1536.00 
L 1024.00 1536.00
L 1024.00 0.00
L 0.00 0.00
L 0.00 1536.00
M 192.00 1015.00 
C 187.71 1011.34 183.62 1007.24 180.00 1003.00
C 154.20 972.80 136.66 949.00 121.23 911.77 C 105.80 874.54 96.75 834.04 91.00 792.00 C 85.25 749.96 86.75 693.29 91.78 650.78 C 96.80 608.27 103.93 563.89 114.98 523.98 C 126.02 484.06 137.43 447.04 150.98 408.98 C 164.52 370.91 177.79 337.15 191.78 299.78 C 205.76 262.40 219.15 221.54 224.00 182.00 C 228.85 142.46 216.29 95.05 175.32 82.68 C 134.36 70.31 99.42 100.31 83.69 135.69 C 67.97 171.08 75.45 220.55 47.00 250.00
C 72.41 214.13 63.90 162.74 82.92 124.92 C 101.95 87.11 144.37 59.03 186.23 77.77 C 228.09 96.51 239.38 146.77 233.67 189.67 C 227.96 232.57 212.72 275.33 198.22 316.22 C 183.73 357.12 170.44 394.51 156.22 436.22 C 142.01 477.93 132.14 519.84 122.01 564.01 C 111.88 608.17 106.28 662.83 106.00 710.00 C 105.72 757.17 111.47 812.31 123.33 854.67 C 135.18 897.04 151.57 929.37 176.75 963.25 C 201.93 997.12 231.75 1017.76 269.00 1033.00
C 272.67 1011.22 281.20 990.79 291.00 971.00
C 272.50 965.07 241.12 951.65 248.00 927.00
C 238.17 919.24 241.47 904.16 249.75 896.75 C 258.03 889.34 263.79 878.48 277.00 880.00 C 290.21 881.52 297.01 887.01 308.00 893.00
C 309.64 887.61 316.60 885.29 318.00 880.00
C 307.57 873.43 297.26 866.38 287.30 858.70 C 277.35 851.02 268.76 842.68 259.75 833.25 C 250.74 823.82 244.63 813.27 238.08 801.92 C 231.52 790.57 225.61 776.30 224.07 762.93 C 222.54 749.55 227.12 732.37 235.30 722.31 C 243.49 712.24 249.55 702.04 260.25 694.25 C 270.95 686.46 277.60 676.68 287.70 668.70 C 297.79 660.72 309.19 655.06 320.23 648.23 C 331.26 641.39 341.21 635.25 353.08 629.08 C 364.94 622.90 374.36 615.67 387.70 610.70 C 401.03 605.72 409.82 597.02 426.01 596.01 C 442.20 594.99 442.84 576.05 429.75 567.25 C 416.67 558.44 415.35 547.62 408.00 536.00
C 410.42 548.90 399.58 559.04 391.25 547.75 C 382.91 536.46 383.03 529.74 381.00 517.00 C 378.97 504.26 380.09 492.15 383.00 480.00
C 348.17 504.94 300.71 494.84 274.70 462.30 C 248.68 429.76 240.88 379.17 248.00 339.00 C 255.11 298.82 269.27 263.60 306.23 243.23 C 343.19 222.86 388.34 252.92 405.00 287.00
C 412.71 282.25 417.24 275.89 422.75 268.75 C 428.26 261.62 432.53 252.83 434.98 243.98 C 437.42 235.12 440.50 223.91 441.78 214.78 C 443.06 205.65 447.27 193.91 449.78 185.78 C 452.28 177.65 461.26 165.26 465.78 176.22 C 470.29 187.19 465.78 199.31 469.00 210.00
C 474.19 201.52 479.06 192.95 484.92 184.92 C 490.77 176.88 496.25 170.05 504.25 163.25 C 512.25 156.45 517.74 150.59 528.23 146.23 C 538.72 141.87 548.19 137.14 562.00 139.00 C 575.81 140.86 568.53 154.63 558.30 158.30 C 548.08 161.98 544.37 172.30 536.00 178.00
C 545.08 175.16 552.54 172.11 562.07 170.07 C 571.60 168.04 583.19 167.79 593.01 168.99 C 602.83 170.19 611.37 172.22 620.23 176.77 C 629.09 181.32 632.42 183.39 640.70 190.30 C 648.97 197.22 647.70 209.10 636.32 203.68 C 624.95 198.25 616.67 201.92 606.00 202.00 C 595.32 202.08 588.73 207.59 579.00 210.00
C 604.28 215.45 626.80 229.88 644.75 249.25 C 662.71 268.61 675.66 291.05 684.78 315.22 C 693.89 339.40 718.66 363.14 746.00 358.00
C 749.39 325.87 788.21 288.49 820.25 310.75 C 852.28 333.02 838.98 380.92 814.00 403.00
C 851.06 381.93 892.04 362.33 936.00 365.00
C 921.00 368.26 902.58 371.00 887.93 375.93 C 873.27 380.85 858.94 385.11 845.77 392.77 C 832.61 400.43 813.34 404.30 816.00 423.00
C 839.56 418.61 870.43 418.79 893.22 423.78 C 916.01 428.76 937.13 433.00 954.00 448.00
C 941.86 442.48 932.27 439.86 919.33 435.67 C 906.38 431.48 893.27 429.97 879.00 428.00 C 864.73 426.03 847.74 427.88 832.98 427.98 C 818.22 428.07 807.96 433.67 807.00 450.00
C 843.76 460.47 882.11 480.91 903.00 515.00
C 893.60 508.09 887.39 500.59 877.75 493.25 C 868.12 485.90 860.26 480.39 849.25 473.75 C 838.25 467.10 828.59 465.19 815.93 459.07 C 803.26 452.96 798.37 465.43 791.25 476.25 C 784.12 487.06 780.40 493.08 770.25 503.25 C 760.10 513.41 776.70 518.57 786.25 524.75 C 795.79 530.94 802.87 539.42 810.30 548.70 C 817.74 557.97 822.37 568.23 827.32 579.68 C 832.27 591.13 834.83 605.05 837.00 618.00 C 839.17 630.95 837.96 650.29 839.78 663.22 C 841.60 676.15 851.50 683.42 855.77 695.23 C 860.04 707.04 866.52 716.19 870.77 728.23 C 875.02 740.27 879.17 753.72 880.00 767.00 C 880.83 780.28 879.24 796.70 873.08 808.08 C 866.91 819.45 858.37 825.11 846.93 829.93 C 835.48 834.74 817.14 835.63 804.99 832.01 C 792.84 828.38 783.43 822.86 773.00 816.00
C 777.32 832.24 784.72 849.34 786.98 866.02 C 789.23 882.71 800.34 902.46 790.00 917.00
C 798.75 949.55 802.34 988.70 802.00 1023.00 C 801.66 1057.30 792.56 1091.06 780.69 1120.69 C 768.83 1150.33 748.79 1169.57 741.22 1199.22 C 733.65 1228.88 711.97 1246.78 692.00 1269.00
C 708.41 1266.81 726.16 1263.97 743.00 1264.00 C 759.84 1264.03 779.77 1264.83 795.00 1269.00 C 810.24 1273.17 820.97 1277.50 833.75 1286.25 C 846.52 1295.01 853.04 1301.96 860.92 1316.08 C 868.80 1330.19 858.05 1343.92 843.33 1348.33 C 828.60 1352.74 816.19 1362.09 798.93 1360.93 C 781.67 1359.76 761.55 1360.62 745.00 1358.00 C 728.45 1355.38 712.85 1352.98 696.98 1350.02 C 681.10 1347.07 664.22 1344.06 648.99 1341.01 C 633.76 1337.96 617.66 1333.51 603.33 1330.67 C 588.99 1327.83 570.66 1319.58 574.78 1303.78 C 578.90 1287.98 590.20 1283.46 599.00 1271.00
C 565.87 1277.89 528.72 1281.67 495.00 1274.00
C 484.01 1289.84 467.31 1302.16 455.00 1316.00
C 465.36 1324.84 472.79 1343.92 463.25 1355.25 C 453.71 1366.57 444.27 1373.97 432.75 1382.75 C 421.23 1391.54 410.40 1398.19 397.92 1405.92 C 385.44 1413.65 373.60 1418.90 359.32 1424.32 C 345.04 1429.75 327.83 1432.75 311.93 1434.93 C 296.02 1437.11 275.60 1433.43 262.75 1426.25 C 249.90 1419.06 232.80 1416.65 232.01 1398.99 C 231.22 1381.34 239.05 1371.15 249.25 1359.25 C 259.44 1347.35 268.61 1341.42 282.08 1334.08 C 295.54 1326.73 309.27 1322.21 324.67 1318.67 C 340.07 1315.14 359.35 1311.98 376.00 1312.00
C 366.74 1265.46 330.27 1241.12 303.25 1202.75 C 276.23 1164.39 257.43 1110.17 264.00 1061.00
C 237.31 1050.94 213.31 1034.66 192.00 1015.00 Z"/>
</g>
<g fill="#0C0D0C" fill-opacity="1.00" stroke="None">
<path d="
M 180.00 1003.00 
C 183.92 1006.92 188.13 1011.13 192.00 1015.00
C 213.31 1034.66 237.31 1050.94 264.00 1061.00
C 257.43 1110.17 276.23 1164.39 303.25 1202.75 C 330.27 1241.12 366.74 1265.46 376.00 1312.00
C 359.35 1311.98 340.07 1315.14 324.67 1318.67 C 309.27 1322.21 295.54 1326.73 282.08 1334.08 C 268.61 1341.42 259.44 1347.35 249.25 1359.25 C 239.05 1371.15 231.22 1381.34 232.01 1398.99 C 232.80 1416.65 249.90 1419.06 262.75 1426.25 C 275.60 1433.43 296.02 1437.11 311.93 1434.93 C 327.83 1432.75 345.04 1429.75 359.32 1424.32 C 373.60 1418.90 385.44 1413.65 397.92 1405.92 C 410.40 1398.19 421.23 1391.54 432.75 1382.75 C 444.27 1373.97 453.71 1366.57 463.25 1355.25 C 472.79 1343.92 465.36 1324.84 455.00 1316.00
C 467.31 1302.16 484.01 1289.84 495.00 1274.00
C 528.72 1281.67 565.87 1277.89 599.00 1271.00
C 590.20 1283.46 578.90 1287.98 574.78 1303.78 C 570.66 1319.58 588.99 1327.83 603.33 1330.67 C 617.66 1333.51 633.76 1337.96 648.99 1341.01 C 664.22 1344.06 681.10 1347.07 696.98 1350.02 C 712.85 1352.98 728.45 1355.38 745.00 1358.00 C 761.55 1360.62 781.67 1359.76 798.93 1360.93 C 816.19 1362.09 828.60 1352.74 843.33 1348.33 C 858.05 1343.92 868.80 1330.19 860.92 1316.08 C 853.04 1301.96 846.52 1295.01 833.75 1286.25 C 820.97 1277.50 810.24 1273.17 795.00 1269.00 C 779.77 1264.83 759.84 1264.03 743.00 1264.00 C 726.16 1263.97 708.41 1266.81 692.00 1269.00
C 711.97 1246.78 733.65 1228.88 741.22 1199.22 C 748.79 1169.57 768.83 1150.33 780.69 1120.69 C 792.56 1091.06 801.66 1057.30 802.00 1023.00 C 802.34 988.70 798.75 949.55 790.00 917.00
C 800.34 902.46 789.23 882.71 786.98 866.02 C 784.72 849.34 777.32 832.24 773.00 816.00
C 783.43 822.86 792.84 828.38 804.99 832.01 C 817.14 835.63 835.48 834.74 846.93 829.93 C 858.37 825.11 866.91 819.45 873.08 808.08 C 879.24 796.70 880.83 780.28 880.00 767.00 C 879.17 753.72 875.02 740.27 870.77 728.23 C 866.52 716.19 860.04 707.04 855.77 695.23 C 851.50 683.42 841.60 676.15 839.78 663.22 C 837.96 650.29 839.17 630.95 837.00 618.00 C 834.83 605.05 832.27 591.13 827.32 579.68 C 822.37 568.23 817.74 557.97 810.30 548.70 C 802.87 539.42 795.79 530.94 786.25 524.75 C 776.70 518.57 760.10 513.41 770.25 503.25 C 780.40 493.08 784.12 487.06 791.25 476.25 C 798.37 465.43 803.26 452.96 815.93 459.07 C 828.59 465.19 838.25 467.10 849.25 473.75 C 860.26 480.39 868.12 485.90 877.75 493.25 C 887.39 500.59 893.60 508.09 903.00 515.00
C 882.11 480.91 843.76 460.47 807.00 450.00
C 807.96 433.67 818.22 428.07 832.98 427.98 C 847.74 427.88 864.73 426.03 879.00 428.00 C 893.27 429.97 906.38 431.48 919.33 435.67 C 932.27 439.86 941.86 442.48 954.00 448.00
C 937.13 433.00 916.01 428.76 893.22 423.78 C 870.43 418.79 839.56 418.61 816.00 423.00
C 813.34 404.30 832.61 400.43 845.77 392.77 C 858.94 385.11 873.27 380.85 887.93 375.93 C 902.58 371.00 921.00 368.26 936.00 365.00
C 892.04 362.33 851.06 381.93 814.00 403.00
C 838.98 380.92 852.28 333.02 820.25 310.75 C 788.21 288.49 749.39 325.87 746.00 358.00
C 718.66 363.14 693.89 339.40 684.78 315.22 C 675.66 291.05 662.71 268.61 644.75 249.25 C 626.80 229.88 604.28 215.45 579.00 210.00
C 588.73 207.59 595.32 202.08 606.00 202.00 C 616.67 201.92 624.95 198.25 636.32 203.68 C 647.70 209.10 648.97 197.22 640.70 190.30 C 632.42 183.39 629.09 181.32 620.23 176.77 C 611.37 172.22 602.83 170.19 593.01 168.99 C 583.19 167.79 571.60 168.04 562.07 170.07 C 552.54 172.11 545.08 175.16 536.00 178.00
C 544.37 172.30 548.08 161.98 558.30 158.30 C 568.53 154.63 575.81 140.86 562.00 139.00 C 548.19 137.14 538.72 141.87 528.23 146.23 C 517.74 150.59 512.25 156.45 504.25 163.25 C 496.25 170.05 490.77 176.88 484.92 184.92 C 479.06 192.95 474.19 201.52 469.00 210.00
C 465.78 199.31 470.29 187.19 465.78 176.22 C 461.26 165.26 452.28 177.65 449.78 185.78 C 447.27 193.91 443.06 205.65 441.78 214.78 C 440.50 223.91 437.42 235.12 434.98 243.98 C 432.53 252.83 428.26 261.62 422.75 268.75 C 417.24 275.89 412.71 282.25 405.00 287.00
C 388.34 252.92 343.19 222.86 306.23 243.23 C 269.27 263.60 255.11 298.82 248.00 339.00 C 240.88 379.17 248.68 429.76 274.70 462.30 C 300.71 494.84 348.17 504.94 383.00 480.00
C 380.09 492.15 378.97 504.26 381.00 517.00 C 383.03 529.74 382.91 536.46 391.25 547.75 C 399.58 559.04 410.42 548.90 408.00 536.00
C 415.35 547.62 416.67 558.44 429.75 567.25 C 442.84 576.05 442.20 594.99 426.01 596.01 C 409.82 597.02 401.03 605.72 387.70 610.70 C 374.36 615.67 364.94 622.90 353.08 629.08 C 341.21 635.25 331.26 641.39 320.23 648.23 C 309.19 655.06 297.79 660.72 287.70 668.70 C 277.60 676.68 270.95 686.46 260.25 694.25 C 249.55 702.04 243.49 712.24 235.30 722.31 C 227.12 732.37 222.54 749.55 224.07 762.93 C 225.61 776.30 231.52 790.57 238.08 801.92 C 244.63 813.27 250.74 823.82 259.75 833.25 C 268.76 842.68 277.35 851.02 287.30 858.70 C 297.26 866.38 307.57 873.43 318.00 880.00
C 316.60 885.29 309.64 887.61 308.00 893.00
C 297.01 887.01 290.21 881.52 277.00 880.00 C 263.79 878.48 258.03 889.34 249.75 896.75 C 241.47 904.16 238.17 919.24 248.00 927.00
C 241.12 951.65 272.50 965.07 291.00 971.00
C 281.20 990.79 272.67 1011.22 269.00 1033.00
C 231.75 1017.76 201.93 997.12 176.75 963.25 C 151.57 929.37 135.18 897.04 123.33 854.67 C 111.47 812.31 105.72 757.17 106.00 710.00 C 106.28 662.83 111.88 608.17 122.01 564.01 C 132.14 519.84 142.01 477.93 156.22 436.22 C 170.44 394.51 183.73 357.12 198.22 316.22 C 212.72 275.33 227.96 232.57 233.67 189.67 C 239.38 146.77 228.09 96.51 186.23 77.77 C 144.37 59.03 101.95 87.11 82.92 124.92 C 63.90 162.74 72.41 214.13 47.00 250.00
C 75.45 220.55 67.97 171.08 83.69 135.69 C 99.42 100.31 134.36 70.31 175.32 82.68 C 216.29 95.05 228.85 142.46 224.00 182.00 C 219.15 221.54 205.76 262.40 191.78 299.78 C 177.79 337.15 164.52 370.91 150.98 408.98 C 137.43 447.04 126.02 484.06 114.98 523.98 C 103.93 563.89 96.80 608.27 91.78 650.78 C 86.75 693.29 85.25 749.96 91.00 792.00 C 96.75 834.04 105.80 874.54 121.23 911.77 C 136.66 949.00 154.20 972.80 180.00 1003.00
M 461.00 210.00 
C 461.31 213.17 461.67 218.27 462.00 222.00 C 462.33 225.73 460.34 232.76 462.00 236.00
C 462.48 236.48 469.66 224.43 471.31 220.31 C 472.95 216.18 478.99 208.60 481.75 203.75 C 484.52 198.90 488.94 192.66 492.75 187.75 C 496.57 182.84 501.01 177.45 505.75 172.75 C 510.50 168.06 515.46 164.68 521.08 161.08 C 526.71 157.48 532.56 154.23 539.03 152.02 C 545.49 149.82 554.15 144.59 561.00 148.00
C 537.71 162.83 516.33 184.68 506.00 210.00
C 538.58 176.46 596.74 165.25 635.00 195.00
C 607.59 190.42 577.61 198.58 556.00 217.00
C 595.42 213.16 628.09 241.45 651.30 270.70 C 674.51 299.95 677.47 342.27 713.00 360.00
C 705.86 365.14 693.22 364.76 684.00 368.00
C 686.13 358.00 685.47 344.14 682.02 334.98 C 678.58 325.81 674.44 318.81 668.75 311.25 C 663.06 303.68 657.74 297.38 649.75 292.25 C 641.77 287.12 630.88 283.73 622.25 289.25 C 613.63 294.78 611.93 307.31 613.00 317.00 C 614.07 326.69 616.93 338.76 620.92 347.08 C 624.92 355.39 628.49 364.13 634.77 370.23 C 641.05 376.33 648.17 386.06 656.67 384.67 C 665.17 383.28 676.34 376.41 685.02 375.02 C 693.71 373.64 706.01 367.32 714.22 367.22 C 722.44 367.12 742.77 359.62 744.99 369.01 C 747.21 378.40 745.16 391.32 753.25 398.75 C 761.35 406.17 765.32 411.09 776.22 412.78 C 787.13 414.47 798.20 410.34 808.00 407.00
C 805.94 420.52 802.39 436.87 795.70 448.70 C 789.00 460.52 783.39 472.23 773.75 481.75 C 764.12 491.28 759.02 502.07 746.25 508.25 C 733.48 514.42 726.15 525.47 721.25 538.25 C 716.34 551.02 702.84 555.49 693.77 564.77 C 684.70 574.05 671.99 580.03 660.77 586.77 C 649.56 593.51 634.44 597.97 623.00 604.00
C 628.12 605.63 635.22 603.47 641.00 603.00
C 641.81 653.47 584.53 671.91 544.98 658.02 C 505.42 644.14 478.98 619.80 446.00 595.00
C 445.81 591.45 448.61 588.70 448.00 585.00
C 457.00 591.05 465.99 597.09 476.08 600.92 C 486.16 604.76 500.64 612.30 510.00 607.00
C 463.08 592.84 416.63 555.97 406.00 506.00
C 398.97 514.99 401.55 529.01 397.00 539.00
C 384.21 517.65 390.10 487.50 397.32 465.32 C 404.54 443.15 409.71 419.50 421.00 400.00
C 393.38 401.24 369.96 383.09 359.00 359.00
C 359.77 381.22 378.54 402.29 401.00 404.00
C 389.24 413.49 372.27 414.77 358.00 410.00
C 369.49 424.73 394.08 419.28 408.00 410.00
C 394.68 432.30 394.95 462.07 369.77 474.77 C 344.59 487.47 312.90 484.87 292.25 464.75 C 271.60 444.64 262.94 422.66 258.02 394.98 C 253.11 367.29 258.01 331.29 267.92 305.92 C 277.84 280.56 291.46 261.39 317.68 251.68 C 343.90 241.96 370.57 261.52 386.25 281.75 C 401.93 301.98 403.74 333.77 431.00 341.00
C 422.60 328.50 417.75 317.52 411.68 303.32 C 405.61 289.13 424.89 283.50 431.75 270.75 C 438.62 258.00 444.07 243.11 446.33 228.33 C 448.59 213.55 451.02 196.19 460.00 184.00
C 461.87 192.27 460.66 201.35 461.00 210.00
M 624.00 342.00 
C 627.92 350.20 641.16 363.91 650.25 353.25 C 659.34 342.58 651.48 328.74 646.25 318.75 C 641.01 308.77 622.61 301.32 620.00 317.00
C 611.86 300.56 632.07 289.14 643.70 297.31 C 655.32 305.47 663.07 311.47 669.75 323.25 C 676.43 335.02 681.80 350.98 679.02 364.02 C 676.25 377.07 655.44 381.04 645.75 373.25 C 636.07 365.46 627.36 354.05 624.00 342.00
M 804.00 316.00 
C 825.75 319.53 833.31 348.89 825.07 367.07 C 816.83 385.26 803.17 402.55 780.00 401.00 C 756.83 399.45 751.79 368.44 759.78 350.78 C 767.77 333.11 781.14 312.29 804.00 316.00
M 778.00 704.00 
C 779.27 723.65 773.98 748.35 786.00 766.00
C 787.18 758.24 785.17 749.77 785.00 741.00 C 784.83 732.23 785.33 721.43 786.00 713.00 C 786.67 704.56 789.58 695.87 782.75 691.25 C 775.92 686.62 772.52 683.45 768.70 676.30 C 764.87 669.16 764.98 660.70 764.00 652.00 C 763.02 643.29 760.30 637.68 749.33 637.67 C 738.36 637.66 747.80 646.09 756.00 646.00
C 756.07 652.08 755.54 658.26 757.00 664.00
C 738.62 659.59 724.68 637.34 736.25 619.25 C 747.83 601.17 773.78 603.95 792.00 609.00
C 781.17 595.96 758.23 595.21 743.00 602.00
C 743.36 567.84 789.13 574.63 809.00 587.00
C 801.48 574.23 788.76 574.72 777.75 565.25 C 766.74 555.78 759.36 551.84 744.75 545.25 C 730.14 538.66 734.35 518.08 751.00 520.00 C 767.65 521.92 775.77 527.36 787.25 536.75 C 798.72 546.14 804.12 553.90 811.30 565.70 C 818.49 577.50 823.39 589.80 826.33 603.67 C 829.26 617.55 833.23 636.86 831.00 652.00 C 828.77 667.14 836.75 678.89 843.31 691.69 C 849.86 704.50 855.05 714.48 860.31 727.69 C 865.57 740.91 870.00 755.41 871.00 770.00 C 872.00 784.60 869.04 800.19 858.75 810.75 C 848.46 821.31 834.88 825.84 820.00 825.00 C 805.12 824.16 795.24 816.75 781.92 810.08 C 768.60 803.41 765.71 791.71 760.07 778.93 C 754.44 766.14 752.14 752.10 758.93 738.93 C 765.71 725.75 768.00 715.11 778.00 704.00
M 769.00 568.00 
C 750.92 569.34 729.23 586.20 736.00 607.00
C 726.39 615.30 723.14 628.40 724.00 641.00
C 701.83 627.68 680.56 612.57 657.00 602.00
C 682.11 587.02 710.88 570.17 730.00 545.00
C 740.79 556.81 757.07 558.16 769.00 568.00
M 441.00 742.00 
C 436.75 746.98 431.93 751.79 427.00 756.00
C 413.01 767.96 399.22 779.80 383.00 788.00
C 386.28 736.63 348.10 686.12 300.00 671.00
C 319.00 657.10 336.28 649.48 356.70 636.70 C 377.11 623.91 395.97 617.12 419.02 607.02 C 442.07 596.93 461.35 614.81 478.75 630.25 C 496.15 645.68 515.26 655.46 537.03 663.98 C 558.79 672.49 591.05 673.98 612.23 662.23 C 633.41 650.47 645.61 630.13 649.00 607.00
C 685.29 648.06 710.60 690.51 733.77 741.23 C 756.94 791.95 776.60 853.18 786.00 909.00
C 777.63 918.19 770.30 925.66 759.75 932.75 C 749.21 939.84 738.49 945.11 726.32 950.32 C 714.15 955.54 701.69 958.84 687.99 961.99 C 674.30 965.14 657.86 966.94 643.00 968.00 C 628.14 969.06 609.95 969.44 595.00 968.00 C 580.05 966.56 563.27 965.64 549.00 963.00 C 534.73 960.36 521.90 957.06 508.33 953.67 C 494.76 950.28 482.88 945.48 469.93 941.07 C 456.97 936.66 447.32 930.85 434.77 925.23 C 422.22 919.61 417.07 912.55 404.25 905.75 C 391.43 898.95 395.24 881.25 392.67 868.33 C 390.10 855.41 379.93 843.70 386.77 831.77 C 393.61 819.85 399.68 810.71 403.93 797.93 C 408.17 785.14 415.50 778.54 425.25 769.25 C 435.00 759.96 449.67 759.41 461.22 754.22 C 472.78 749.04 484.44 743.51 490.00 732.00
C 474.52 741.00 458.44 748.94 441.00 753.00
C 453.86 737.42 470.04 719.29 469.00 699.00
C 463.57 715.16 452.23 728.91 441.00 742.00
M 759.00 674.00 
C 761.56 682.60 767.96 691.55 776.00 696.00
C 761.49 711.33 753.08 730.84 747.00 750.00
C 727.53 702.33 699.98 657.89 668.00 617.00
C 684.72 623.64 698.42 636.26 714.25 644.75 C 730.08 653.25 739.09 674.95 759.00 674.00
M 375.00 766.00 
C 367.31 769.00 360.60 774.84 353.00 778.00
C 348.83 766.48 339.36 754.13 327.00 751.00
C 334.30 760.61 342.26 768.58 346.77 780.23 C 351.28 791.88 356.97 803.45 361.78 815.22 C 366.58 827.00 371.94 838.07 376.92 850.08 C 381.91 862.09 385.85 877.58 386.00 891.00 C 386.15 904.42 381.71 918.69 374.25 929.25 C 366.78 939.81 360.20 946.18 349.75 953.75 C 339.31 961.33 322.92 964.10 310.00 964.00 C 297.08 963.90 282.36 957.07 271.77 952.23 C 261.18 947.38 247.17 931.45 262.07 926.07 C 276.97 920.70 287.86 937.69 302.00 936.00
C 297.04 927.00 286.85 926.41 278.92 920.08 C 271.00 913.74 251.33 926.18 250.01 913.99 C 248.68 901.80 264.52 898.41 272.69 904.31 C 280.87 910.20 288.90 915.04 298.00 919.00
C 298.81 911.59 290.01 908.27 284.77 903.23 C 279.53 898.19 271.19 894.39 264.00 893.00
C 275.81 878.55 292.21 894.42 304.00 900.00
C 299.13 912.52 298.65 929.25 307.00 940.00
C 304.67 918.15 309.07 888.40 334.00 882.00
C 320.05 870.82 304.95 861.90 291.25 849.75 C 277.56 837.59 265.14 825.73 254.25 810.75 C 243.36 795.78 234.58 773.85 234.00 755.00 C 233.42 736.15 247.48 717.74 260.75 705.75 C 274.02 693.77 289.83 674.47 307.68 681.32 C 325.53 688.17 338.22 699.95 350.25 714.75 C 362.28 729.56 371.00 747.56 375.00 766.00
M 376.00 773.00 
C 376.00 779.00 376.00 785.00 376.00 791.00
C 369.55 795.03 359.58 791.09 357.00 784.00
C 363.67 780.84 369.74 776.85 376.00 773.00
M 396.00 793.00 
C 391.92 805.53 382.44 816.09 379.00 829.00
C 373.03 821.79 369.49 810.14 365.00 801.00
C 376.07 804.54 387.77 800.47 396.00 793.00
M 610.00 978.00 
C 617.00 978.00 624.00 978.00 631.00 978.00
C 686.18 978.00 741.09 962.79 783.00 927.00
C 804.94 1017.32 788.53 1118.92 723.00 1187.00
C 719.63 1190.94 715.89 1194.67 712.00 1198.00
C 653.44 1248.05 581.25 1277.93 502.00 1266.00
C 508.93 1246.17 519.20 1226.46 518.00 1204.00
C 518.00 1200.00 518.00 1196.00 518.00 1192.00
C 518.00 1151.35 497.10 1107.60 462.00 1086.00
C 495.03 1118.68 513.00 1165.91 508.02 1212.02 C 503.05 1258.14 471.92 1287.73 439.00 1317.00
C 448.60 1319.45 463.56 1337.10 456.08 1347.08 C 448.59 1357.05 439.34 1363.96 429.75 1371.75 C 420.16 1379.54 409.66 1386.04 398.77 1392.77 C 387.88 1399.50 378.41 1405.41 365.77 1410.77 C 353.14 1416.13 340.57 1419.98 325.93 1422.93 C 311.29 1425.87 294.71 1425.66 278.33 1423.67 C 261.95 1421.68 263.65 1402.14 271.75 1391.75 C 279.86 1381.36 284.85 1372.23 296.25 1365.25 C 307.64 1358.26 318.77 1352.34 331.00 1348.00
C 296.29 1346.81 259.90 1377.79 255.00 1413.00
C 228.69 1402.85 244.37 1372.28 262.25 1358.25 C 280.13 1344.21 299.67 1334.49 323.02 1329.02 C 346.38 1323.56 379.46 1319.93 404.00 1321.00
C 393.54 1317.50 385.77 1310.89 384.07 1299.93 C 382.38 1288.97 375.97 1280.78 371.70 1271.31 C 367.42 1261.83 360.04 1255.02 354.25 1246.75 C 348.46 1238.48 341.76 1232.50 335.25 1224.75 C 328.74 1217.00 322.76 1209.46 316.70 1201.30 C 310.63 1193.14 305.43 1185.82 300.23 1176.77 C 295.03 1167.72 290.55 1158.47 286.69 1148.31 C 282.84 1138.14 279.53 1128.06 277.22 1116.78 C 274.92 1105.50 273.93 1091.28 274.00 1079.00 C 274.07 1066.73 274.87 1051.60 277.00 1040.00 C 279.13 1028.40 282.42 1018.72 285.93 1007.93 C 289.43 997.14 292.79 988.17 298.30 978.30 C 303.81 968.43 322.10 974.78 332.01 971.01 C 341.92 967.24 351.55 963.49 359.75 956.75 C 367.94 950.01 373.66 944.21 379.92 935.92 C 386.17 927.63 390.80 917.47 394.00 908.00
C 455.24 955.57 532.35 975.76 610.00 978.00
M 734.00 1192.00 
C 721.68 1231.85 687.50 1263.62 653.00 1286.00
C 672.78 1284.48 693.24 1277.84 714.01 1275.01 C 734.78 1272.18 763.19 1272.64 783.07 1275.93 C 802.95 1279.22 819.94 1286.63 835.08 1297.92 C 850.23 1309.20 865.58 1331.98 842.00 1340.00
C 837.07 1300.56 788.20 1283.81 753.00 1290.00
C 765.43 1293.45 780.58 1294.45 793.07 1298.93 C 805.57 1303.40 813.19 1310.01 823.25 1318.75 C 833.30 1327.50 837.50 1344.69 821.99 1347.99 C 806.48 1351.30 790.66 1351.99 775.00 1351.00 C 759.34 1350.01 744.90 1347.64 730.00 1346.00 C 715.10 1344.36 702.37 1339.90 687.98 1338.02 C 673.58 1336.15 660.15 1331.62 645.99 1330.01 C 631.84 1328.39 619.84 1321.59 605.93 1320.07 C 592.02 1318.56 578.33 1308.51 588.77 1296.77 C 599.21 1285.03 603.04 1280.79 612.75 1270.75 C 622.46 1260.72 635.80 1261.13 647.08 1255.08 C 658.35 1249.02 669.56 1244.86 679.70 1237.70 C 689.83 1230.54 699.42 1224.51 708.75 1216.75 C 718.08 1208.98 725.99 1200.66 734.00 1192.00 Z"/>
</g>
<g fill="#FCF9F8" fill-opacity="1.00" stroke="None">
<path d="
M 462.00 236.00 
C 458.37 232.37 461.00 215.42 461.00 210.00
C 460.66 201.35 461.87 192.27 460.00 184.00
C 451.02 196.19 448.59 213.55 446.33 228.33 C 444.07 243.11 438.62 258.00 431.75 270.75 C 424.89 283.50 405.61 289.13 411.68 303.32 C 417.75 317.52 422.60 328.50 431.00 341.00
C 403.74 333.77 401.93 301.98 386.25 281.75 C 370.57 261.52 343.90 241.96 317.68 251.68 C 291.46 261.39 277.84 280.56 267.92 305.92 C 258.01 331.29 253.11 367.29 258.02 394.98 C 262.94 422.66 271.60 444.64 292.25 464.75 C 312.90 484.87 344.59 487.47 369.77 474.77 C 394.95 462.07 394.68 432.30 408.00 410.00
C 394.08 419.28 369.49 424.73 358.00 410.00
C 372.27 414.77 389.24 413.49 401.00 404.00
C 378.54 402.29 359.77 381.22 359.00 359.00
C 369.96 383.09 393.38 401.24 421.00 400.00
C 409.71 419.50 404.54 443.15 397.32 465.32 C 390.10 487.50 384.21 517.65 397.00 539.00
C 401.55 529.01 398.97 514.99 406.00 506.00
C 416.63 555.97 463.08 592.84 510.00 607.00
C 500.64 612.30 486.16 604.76 476.08 600.92 C 465.99 597.09 457.00 591.05 448.00 585.00
C 448.61 588.70 445.81 591.45 446.00 595.00
C 478.98 619.80 505.42 644.14 544.98 658.02 C 584.53 671.91 641.81 653.47 641.00 603.00
C 635.22 603.47 628.12 605.63 623.00 604.00
C 634.44 597.97 649.56 593.51 660.77 586.77 C 671.99 580.03 684.70 574.05 693.77 564.77 C 702.84 555.49 716.34 551.02 721.25 538.25 C 726.15 525.47 733.48 514.42 746.25 508.25 C 759.02 502.07 764.12 491.28 773.75 481.75 C 783.39 472.23 789.00 460.52 795.70 448.70 C 802.39 436.87 805.94 420.52 808.00 407.00
C 798.20 410.34 787.13 414.47 776.22 412.78 C 765.32 411.09 761.35 406.17 753.25 398.75 C 745.16 391.32 747.21 378.40 744.99 369.01 C 742.77 359.62 722.44 367.12 714.22 367.22 C 706.01 367.32 693.71 373.64 685.02 375.02 C 676.34 376.41 665.17 383.28 656.67 384.67 C 648.17 386.06 641.05 376.33 634.77 370.23 C 628.49 364.13 624.92 355.39 620.92 347.08 C 616.93 338.76 614.07 326.69 613.00 317.00 C 611.93 307.31 613.63 294.78 622.25 289.25 C 630.88 283.73 641.77 287.12 649.75 292.25 C 657.74 297.38 663.06 303.68 668.75 311.25 C 674.44 318.81 678.58 325.81 682.02 334.98 C 685.47 344.14 686.13 358.00 684.00 368.00
C 693.22 364.76 705.86 365.14 713.00 360.00
C 677.47 342.27 674.51 299.95 651.30 270.70 C 628.09 241.45 595.42 213.16 556.00 217.00
C 577.61 198.58 607.59 190.42 635.00 195.00
C 596.74 165.25 538.58 176.46 506.00 210.00
C 516.33 184.68 537.71 162.83 561.00 148.00
C 554.15 144.59 545.49 149.82 539.03 152.02 C 532.56 154.23 526.71 157.48 521.08 161.08 C 515.46 164.68 510.50 168.06 505.75 172.75 C 501.01 177.45 496.57 182.84 492.75 187.75 C 488.94 192.66 484.52 198.90 481.75 203.75 C 478.99 208.60 472.95 216.18 471.31 220.31 C 469.66 224.43 462.48 236.48 462.00 236.00
M 640.00 268.00 
C 632.86 263.48 629.10 260.19 621.31 255.70 C 613.51 251.20 604.08 255.49 597.75 259.75 C 591.42 264.01 593.59 242.64 602.22 243.22 C 610.86 243.81 619.98 243.49 626.08 249.92 C 632.18 256.35 638.64 259.30 640.00 268.00
M 526.00 265.00 
C 496.33 265.08 479.88 295.28 475.00 321.00
C 468.90 304.46 475.16 284.36 484.75 270.75 C 494.35 257.15 514.58 249.95 526.00 265.00
M 539.00 303.00 
C 560.11 306.02 576.15 324.10 586.31 342.70 C 596.46 361.29 600.97 393.62 583.75 410.75 C 566.53 427.89 539.19 426.41 520.92 411.08 C 502.65 395.75 495.30 371.37 496.00 348.00 C 496.70 324.63 512.08 299.15 539.00 303.00
M 646.00 451.00 
C 631.68 454.71 612.42 452.49 597.00 454.00 C 581.57 455.50 565.38 456.76 550.78 459.78 C 536.18 462.79 522.65 465.41 508.93 469.93 C 495.20 474.44 483.40 479.21 470.00 484.00
C 520.45 451.54 585.72 443.27 646.00 451.00
M 636.00 475.00 
C 587.86 487.93 547.04 518.57 510.00 552.00
C 514.99 540.83 524.57 533.12 533.75 524.75 C 542.93 516.38 552.30 508.52 562.75 501.75 C 573.19 494.97 584.29 487.56 596.22 483.22 C 608.15 478.88 624.12 470.95 636.00 475.00
M 725.00 510.00 
C 715.75 517.00 705.00 522.54 695.25 529.25 C 685.51 535.97 676.56 545.66 666.00 550.00
C 678.47 529.51 701.87 511.89 725.00 510.00 Z"/>
</g>
<g fill="#7A7978" fill-opacity="1.00" stroke="None">
<path d="
M 462.00 236.00 
C 460.34 232.76 462.33 225.73 462.00 222.00 C 461.67 218.27 461.31 213.17 461.00 210.00
C 461.00 215.42 458.37 232.37 462.00 236.00 Z"/>
</g>
<g fill="#0B0C0B" fill-opacity="1.00" stroke="None">
<path d="
M 640.00 268.00 
C 638.64 259.30 632.18 256.35 626.08 249.92 C 619.98 243.49 610.86 243.81 602.22 243.22 C 593.59 242.64 591.42 264.01 597.75 259.75 C 604.08 255.49 613.51 251.20 621.31 255.70 C 629.10 260.19 632.86 263.48 640.00 268.00 Z"/>
</g>
<g fill="#0C0C0C" fill-opacity="1.00" stroke="None">
<path d="
M 526.00 265.00 
C 514.58 249.95 494.35 257.15 484.75 270.75 C 475.16 284.36 468.90 304.46 475.00 321.00
C 479.88 295.28 496.33 265.08 526.00 265.00 Z"/>
</g>
<g fill="#FAF8F6" fill-opacity="1.00" stroke="None">
<path d="
M 624.00 342.00 
C 627.36 354.05 636.07 365.46 645.75 373.25 C 655.44 381.04 676.25 377.07 679.02 364.02 C 681.80 350.98 676.43 335.02 669.75 323.25 C 663.07 311.47 655.32 305.47 643.70 297.31 C 632.07 289.14 611.86 300.56 620.00 317.00
C 622.61 301.32 641.01 308.77 646.25 318.75 C 651.48 328.74 659.34 342.58 650.25 353.25 C 641.16 363.91 627.92 350.20 624.00 342.00 Z"/>
</g>
<g fill="#0C0C0C" fill-opacity="1.00" stroke="None">
<path d="
M 539.00 303.00 
C 512.08 299.15 496.70 324.63 496.00 348.00 C 495.30 371.37 502.65 395.75 520.92 411.08 C 539.19 426.41 566.53 427.89 583.75 410.75 C 600.97 393.62 596.46 361.29 586.31 342.70 C 576.15 324.10 560.11 306.02 539.00 303.00
M 564.00 323.00 
C 549.16 320.43 541.22 336.09 544.00 349.00 C 546.78 361.91 550.52 370.37 562.70 377.31 C 574.87 384.24 586.62 367.93 584.00 357.00
C 600.51 384.24 577.38 425.15 544.78 416.22 C 512.17 407.29 503.40 379.28 503.00 348.00 C 502.60 316.72 540.53 297.36 564.00 323.00 Z"/>
</g>
<g fill="#FBF9F7" fill-opacity="1.00" stroke="None">
<path d="
M 564.00 323.00 
C 540.53 297.36 502.60 316.72 503.00 348.00 C 503.40 379.28 512.17 407.29 544.78 416.22 C 577.38 425.15 600.51 384.24 584.00 357.00
C 586.62 367.93 574.87 384.24 562.70 377.31 C 550.52 370.37 546.78 361.91 544.00 349.00 C 541.22 336.09 549.16 320.43 564.00 323.00 Z"/>
</g>
<g fill="#FDFAF8" fill-opacity="1.00" stroke="None">
<path d="
M 804.00 316.00 
C 781.14 312.29 767.77 333.11 759.78 350.78 C 751.79 368.44 756.83 399.45 780.00 401.00 C 803.17 402.55 816.83 385.26 825.07 367.07 C 833.31 348.89 825.75 319.53 804.00 316.00 Z"/>
</g>
<g fill="#080908" fill-opacity="1.00" stroke="None">
<path d="
M 646.00 451.00 
C 585.72 443.27 520.45 451.54 470.00 484.00
C 483.40 479.21 495.20 474.44 508.93 469.93 C 522.65 465.41 536.18 462.79 550.78 459.78 C 565.38 456.76 581.57 455.50 597.00 454.00 C 612.42 452.49 631.68 454.71 646.00 451.00 Z"/>
</g>
<g fill="#0A0A0A" fill-opacity="1.00" stroke="None">
<path d="
M 636.00 475.00 
C 624.12 470.95 608.15 478.88 596.22 483.22 C 584.29 487.56 573.19 494.97 562.75 501.75 C 552.30 508.52 542.93 516.38 533.75 524.75 C 524.57 533.12 514.99 540.83 510.00 552.00
C 547.04 518.57 587.86 487.93 636.00 475.00 Z"/>
</g>
<g fill="#090A09" fill-opacity="1.00" stroke="None">
<path d="
M 725.00 510.00 
C 701.87 511.89 678.47 529.51 666.00 550.00
C 676.56 545.66 685.51 535.97 695.25 529.25 C 705.00 522.54 715.75 517.00 725.00 510.00 Z"/>
</g>
<g fill="#FCFAF8" fill-opacity="1.00" stroke="None">
<path d="
M 778.00 704.00 
C 768.00 715.11 765.71 725.75 758.93 738.93 C 752.14 752.10 754.44 766.14 760.07 778.93 C 765.71 791.71 768.60 803.41 781.92 810.08 C 795.24 816.75 805.12 824.16 820.00 825.00 C 834.88 825.84 848.46 821.31 858.75 810.75 C 869.04 800.19 872.00 784.60 871.00 770.00 C 870.00 755.41 865.57 740.91 860.31 727.69 C 855.05 714.48 849.86 704.50 843.31 691.69 C 836.75 678.89 828.77 667.14 831.00 652.00 C 833.23 636.86 829.26 617.55 826.33 603.67 C 823.39 589.80 818.49 577.50 811.30 565.70 C 804.12 553.90 798.72 546.14 787.25 536.75 C 775.77 527.36 767.65 521.92 751.00 520.00 C 734.35 518.08 730.14 538.66 744.75 545.25 C 759.36 551.84 766.74 555.78 777.75 565.25 C 788.76 574.72 801.48 574.23 809.00 587.00
C 789.13 574.63 743.36 567.84 743.00 602.00
C 758.23 595.21 781.17 595.96 792.00 609.00
C 773.78 603.95 747.83 601.17 736.25 619.25 C 724.68 637.34 738.62 659.59 757.00 664.00
C 755.54 658.26 756.07 652.08 756.00 646.00
C 747.80 646.09 738.36 637.66 749.33 637.67 C 760.30 637.68 763.02 643.29 764.00 652.00 C 764.98 660.70 764.87 669.16 768.70 676.30 C 772.52 683.45 775.92 686.62 782.75 691.25 C 789.58 695.87 786.67 704.56 786.00 713.00 C 785.33 721.43 784.83 732.23 785.00 741.00 C 785.17 749.77 787.18 758.24 786.00 766.00
C 773.98 748.35 779.27 723.65 778.00 704.00 Z"/>
</g>
<g fill="#FCF9F7" fill-opacity="1.00" stroke="None">
<path d="
M 769.00 568.00 
C 757.07 558.16 740.79 556.81 730.00 545.00
C 710.88 570.17 682.11 587.02 657.00 602.00
C 680.56 612.57 701.83 627.68 724.00 641.00
C 723.14 628.40 726.39 615.30 736.00 607.00
C 729.23 586.20 750.92 569.34 769.00 568.00 Z"/>
</g>
<g fill="#FDFAF8" fill-opacity="1.00" stroke="None">
<path d="
M 427.00 756.00 
C 431.59 751.41 436.46 746.54 441.00 742.00
C 452.23 728.91 463.57 715.16 469.00 699.00
C 470.04 719.29 453.86 737.42 441.00 753.00
C 458.44 748.94 474.52 741.00 490.00 732.00
C 484.44 743.51 472.78 749.04 461.22 754.22 C 449.67 759.41 435.00 759.96 425.25 769.25 C 415.50 778.54 408.17 785.14 403.93 797.93 C 399.68 810.71 393.61 819.85 386.77 831.77 C 379.93 843.70 390.10 855.41 392.67 868.33 C 395.24 881.25 391.43 898.95 404.25 905.75 C 417.07 912.55 422.22 919.61 434.77 925.23 C 447.32 930.85 456.97 936.66 469.93 941.07 C 482.88 945.48 494.76 950.28 508.33 953.67 C 521.90 957.06 534.73 960.36 549.00 963.00 C 563.27 965.64 580.05 966.56 595.00 968.00 C 609.95 969.44 628.14 969.06 643.00 968.00 C 657.86 966.94 674.30 965.14 687.99 961.99 C 701.69 958.84 714.15 955.54 726.32 950.32 C 738.49 945.11 749.21 939.84 759.75 932.75 C 770.30 925.66 777.63 918.19 786.00 909.00
C 776.60 853.18 756.94 791.95 733.77 741.23 C 710.60 690.51 685.29 648.06 649.00 607.00
C 645.61 630.13 633.41 650.47 612.23 662.23 C 591.05 673.98 558.79 672.49 537.03 663.98 C 515.26 655.46 496.15 645.68 478.75 630.25 C 461.35 614.81 442.07 596.93 419.02 607.02 C 395.97 617.12 377.11 623.91 356.70 636.70 C 336.28 649.48 319.00 657.10 300.00 671.00
C 348.10 686.12 386.28 736.63 383.00 788.00
C 399.22 779.80 413.01 767.96 427.00 756.00 Z"/>
</g>
<g fill="#FCF9F8" fill-opacity="1.00" stroke="None">
<path d="
M 759.00 674.00 
C 739.09 674.95 730.08 653.25 714.25 644.75 C 698.42 636.26 684.72 623.64 668.00 617.00
C 699.98 657.89 727.53 702.33 747.00 750.00
C 753.08 730.84 761.49 711.33 776.00 696.00
C 767.96 691.55 761.56 682.60 759.00 674.00 Z"/>
</g>
<g fill="#FCFAF8" fill-opacity="1.00" stroke="None">
<path d="
M 375.00 766.00 
C 371.00 747.56 362.28 729.56 350.25 714.75 C 338.22 699.95 325.53 688.17 307.68 681.32 C 289.83 674.47 274.02 693.77 260.75 705.75 C 247.48 717.74 233.42 736.15 234.00 755.00 C 234.58 773.85 243.36 795.78 254.25 810.75 C 265.14 825.73 277.56 837.59 291.25 849.75 C 304.95 861.90 320.05 870.82 334.00 882.00
C 309.07 888.40 304.67 918.15 307.00 940.00
C 298.65 929.25 299.13 912.52 304.00 900.00
C 292.21 894.42 275.81 878.55 264.00 893.00
C 271.19 894.39 279.53 898.19 284.77 903.23 C 290.01 908.27 298.81 911.59 298.00 919.00
C 288.90 915.04 280.87 910.20 272.69 904.31 C 264.52 898.41 248.68 901.80 250.01 913.99 C 251.33 926.18 271.00 913.74 278.92 920.08 C 286.85 926.41 297.04 927.00 302.00 936.00
C 287.86 937.69 276.97 920.70 262.07 926.07 C 247.17 931.45 261.18 947.38 271.77 952.23 C 282.36 957.07 297.08 963.90 310.00 964.00 C 322.92 964.10 339.31 961.33 349.75 953.75 C 360.20 946.18 366.78 939.81 374.25 929.25 C 381.71 918.69 386.15 904.42 386.00 891.00 C 385.85 877.58 381.91 862.09 376.92 850.08 C 371.94 838.07 366.58 827.00 361.78 815.22 C 356.97 803.45 351.28 791.88 346.77 780.23 C 342.26 768.58 334.30 760.61 327.00 751.00
C 339.36 754.13 348.83 766.48 353.00 778.00
C 360.60 774.84 367.31 769.00 375.00 766.00 Z"/>
</g>
<g fill="#848482" fill-opacity="1.00" stroke="None">
<path d="
M 427.00 756.00 
C 431.93 751.79 436.75 746.98 441.00 742.00
C 436.46 746.54 431.59 751.41 427.00 756.00 Z"/>
</g>
<g fill="#F7F6F5" fill-opacity="1.00" stroke="None">
<path d="
M 376.00 773.00 
C 369.74 776.85 363.67 780.84 357.00 784.00
C 359.58 791.09 369.55 795.03 376.00 791.00
C 376.00 785.00 376.00 779.00 376.00 773.00 Z"/>
</g>
<g fill="#F8F6F5" fill-opacity="1.00" stroke="None">
<path d="
M 396.00 793.00 
C 387.77 800.47 376.07 804.54 365.00 801.00
C 369.49 810.14 373.03 821.79 379.00 829.00
C 382.44 816.09 391.92 805.53 396.00 793.00 Z"/>
</g>
<g fill="#FDFAF9" fill-opacity="1.00" stroke="None">
<path d="
M 518.00 1192.00 
C 518.37 1195.77 518.36 1200.29 518.00 1204.00
C 519.20 1226.46 508.93 1246.17 502.00 1266.00
C 581.25 1277.93 653.44 1248.05 712.00 1198.00
C 715.58 1194.42 719.46 1190.54 723.00 1187.00
C 788.53 1118.92 804.94 1017.32 783.00 927.00
C 741.09 962.79 686.18 978.00 631.00 978.00
C 624.39 978.64 616.54 978.63 610.00 978.00
C 532.35 975.76 455.24 955.57 394.00 908.00
C 390.80 917.47 386.17 927.63 379.92 935.92 C 373.66 944.21 367.94 950.01 359.75 956.75 C 351.55 963.49 341.92 967.24 332.01 971.01 C 322.10 974.78 303.81 968.43 298.30 978.30 C 292.79 988.17 289.43 997.14 285.93 1007.93 C 282.42 1018.72 279.13 1028.40 277.00 1040.00 C 274.87 1051.60 274.07 1066.73 274.00 1079.00 C 273.93 1091.28 274.92 1105.50 277.22 1116.78 C 279.53 1128.06 282.84 1138.14 286.69 1148.31 C 290.55 1158.47 295.03 1167.72 300.23 1176.77 C 305.43 1185.82 310.63 1193.14 316.70 1201.30 C 322.76 1209.46 328.74 1217.00 335.25 1224.75 C 341.76 1232.50 348.46 1238.48 354.25 1246.75 C 360.04 1255.02 367.42 1261.83 371.70 1271.31 C 375.97 1280.78 382.38 1288.97 384.07 1299.93 C 385.77 1310.89 393.54 1317.50 404.00 1321.00
C 379.46 1319.93 346.38 1323.56 323.02 1329.02 C 299.67 1334.49 280.13 1344.21 262.25 1358.25 C 244.37 1372.28 228.69 1402.85 255.00 1413.00
C 259.90 1377.79 296.29 1346.81 331.00 1348.00
C 318.77 1352.34 307.64 1358.26 296.25 1365.25 C 284.85 1372.23 279.86 1381.36 271.75 1391.75 C 263.65 1402.14 261.95 1421.68 278.33 1423.67 C 294.71 1425.66 311.29 1425.87 325.93 1422.93 C 340.57 1419.98 353.14 1416.13 365.77 1410.77 C 378.41 1405.41 387.88 1399.50 398.77 1392.77 C 409.66 1386.04 420.16 1379.54 429.75 1371.75 C 439.34 1363.96 448.59 1357.05 456.08 1347.08 C 463.56 1337.10 448.60 1319.45 439.00 1317.00
C 471.92 1287.73 503.05 1258.14 508.02 1212.02 C 513.00 1165.91 495.03 1118.68 462.00 1086.00
C 497.10 1107.60 518.00 1151.35 518.00 1192.00 Z"/>
</g>
<g fill="#8E8C8A" fill-opacity="1.00" stroke="None">
<path d="
M 631.00 978.00 
C 624.00 978.00 617.00 978.00 610.00 978.00
C 616.54 978.63 624.39 978.64 631.00 978.00 Z"/>
</g>
<g fill="#787777" fill-opacity="1.00" stroke="None">
<path d="
M 192.00 1015.00 
C 188.13 1011.13 183.92 1006.92 180.00 1003.00
C 183.62 1007.24 187.71 1011.34 192.00 1015.00 Z"/>
</g>
<g fill="#7F7F7E" fill-opacity="1.00" stroke="None">
<path d="
M 712.00 1198.00 
C 715.89 1194.67 719.63 1190.94 723.00 1187.00
C 719.46 1190.54 715.58 1194.42 712.00 1198.00 Z"/>
</g>
<g fill="#787877" fill-opacity="1.00" stroke="None">
<path d="
M 518.00 1204.00 
C 518.36 1200.29 518.37 1195.77 518.00 1192.00
C 518.00 1196.00 518.00 1200.00 518.00 1204.00 Z"/>
</g>
<g fill="#FCF9F8" fill-opacity="1.00" stroke="None">
<path d="
M 734.00 1192.00 
C 725.99 1200.66 718.08 1208.98 708.75 1216.75 C 699.42 1224.51 689.83 1230.54 679.70 1237.70 C 669.56 1244.86 658.35 1249.02 647.08 1255.08 C 635.80 1261.13 622.46 1260.72 612.75 1270.75 C 603.04 1280.79 599.21 1285.03 588.77 1296.77 C 578.33 1308.51 592.02 1318.56 605.93 1320.07 C 619.84 1321.59 631.84 1328.39 645.99 1330.01 C 660.15 1331.62 673.58 1336.15 687.98 1338.02 C 702.37 1339.90 715.10 1344.36 730.00 1346.00 C 744.90 1347.64 759.34 1350.01 775.00 1351.00 C 790.66 1351.99 806.48 1351.30 821.99 1347.99 C 837.50 1344.69 833.30 1327.50 823.25 1318.75 C 813.19 1310.01 805.57 1303.40 793.07 1298.93 C 780.58 1294.45 765.43 1293.45 753.00 1290.00
C 788.20 1283.81 837.07 1300.56 842.00 1340.00
C 865.58 1331.98 850.23 1309.20 835.08 1297.92 C 819.94 1286.63 802.95 1279.22 783.07 1275.93 C 763.19 1272.64 734.78 1272.18 714.01 1275.01 C 693.24 1277.84 672.78 1284.48 653.00 1286.00
C 687.50 1263.62 721.68 1231.85 734.00 1192.00 Z"/>
</g>
</svg>