<svg xmlns="http://www.w3.org/2000/svg" xmlns:v="https://svgstorm.com"
viewBox = "0 0 519 549"
width="519"
height="549">
<g fill="None" fill-opacity="0.0" stroke="#000000" stroke-opacity="0.00" stroke-width="0.3"><path d="
M 0.00 549.00 
L 13.00 549.00
C 13.00 548.50 13.00 548.00 13.00 548.00
C 3.47 547.30 2.13 548.08 2.00 538.00 C 1.87 527.92 9.53 518.80 18.25 514.81 C 26.98 510.82 41.69 509.44 48.30 518.70 C 54.91 527.95 57.57 515.42 65.00 518.00
C 61.33 508.13 57.32 492.25 47.08 486.87 C 36.85 481.49 28.03 472.86 19.10 461.90 C 10.17 450.94 5.67 432.81 18.92 426.87 C 32.17 420.93 35.96 419.64 48.00 410.00
C 37.26 409.55 43.15 394.48 44.13 388.08 C 45.11 381.69 56.20 377.39 58.75 369.75 C 61.30 362.10 58.09 348.42 60.97 340.97 C 63.86 333.53 61.56 325.68 65.00 318.00
C 62.78 318.68 62.45 319.68 60.00 320.00
C 60.12 326.86 56.70 331.08 52.00 337.00
C 35.33 334.09 23.01 330.69 9.75 317.25 C -3.51 303.81 12.74 285.91 28.22 277.22 C 43.71 268.54 53.99 244.91 69.00 236.00
C 59.09 223.15 50.12 211.48 40.25 198.75 C 30.38 186.01 21.96 172.71 12.25 160.75 C 2.55 148.78 16.11 128.24 31.00 131.00
C 33.56 136.40 38.89 139.51 41.00 144.00
C 42.01 145.17 42.22 145.78 43.00 147.00
C 45.67 151.18 47.82 153.26 50.00 156.00
C 51.19 117.82 53.17 93.16 66.80 63.75 C 80.43 34.35 109.94 20.26 135.25 11.20 C 160.56 2.14 203.07 -2.24 230.25 7.19 C 257.43 16.63 274.33 45.03 283.26 70.75 C 292.20 96.48 295.54 130.70 302.00 159.00
C 309.94 149.72 317.30 151.39 321.97 160.03 C 326.64 168.68 327.19 173.63 321.61 181.75 C 316.03 189.88 308.62 194.51 301.25 201.25 C 293.88 207.99 285.41 215.73 279.00 223.00
C 299.72 221.69 320.09 215.28 334.70 211.65 C 349.30 208.02 359.84 192.16 375.00 207.00
C 388.64 202.06 406.55 204.83 421.08 202.08 C 435.61 199.33 453.98 199.61 471.00 199.00 C 488.02 198.39 503.79 199.81 519.00 198.00
L 519.00 0.00
L 0.00 0.00
L 0.00 549.00 Z"/>
</g>
<g fill="None" fill-opacity="0.0" stroke="#000000" stroke-opacity="0.85" stroke-width="0.3"><path d="
M 43.00 147.00 
C 42.95 147.18 41.06 148.99 41.00 149.00
C 43.64 150.52 47.48 157.46 49.00 160.00
C 49.19 160.32 52.16 164.41 52.00 164.00
C 53.35 144.15 55.19 119.64 58.92 101.92 C 62.65 84.20 64.77 73.10 73.92 57.92 C 83.07 42.75 97.59 31.13 110.30 25.29 C 123.02 19.44 136.13 14.40 151.23 10.79 C 166.33 7.17 197.17 1.96 214.69 6.35 C 232.22 10.75 242.13 14.32 255.25 26.75 C 268.37 39.18 274.76 57.11 279.64 70.70 C 284.52 84.29 290.65 101.97 290.78 119.22 C 290.92 136.47 307.37 158.52 290.00 172.00
C 301.89 146.04 278.36 121.93 256.75 113.24 C 235.15 104.55 202.32 101.82 177.25 108.26 C 152.19 114.70 136.94 123.09 114.90 138.90 C 92.86 154.71 73.40 181.18 58.00 199.00
C 57.30 199.91 57.82 200.62 57.00 202.00
C 58.26 201.57 61.93 203.44 64.00 202.00
C 64.52 207.79 71.93 209.97 73.00 216.00
C 75.70 215.12 81.57 216.00 77.00 219.00
C 81.18 220.20 85.34 226.78 89.00 230.00
C 82.46 230.80 77.61 232.27 72.00 235.00
C 71.46 233.34 69.44 232.67 69.00 231.00
C 67.96 230.20 67.67 230.95 66.00 231.00
C 65.24 228.71 65.19 226.19 64.00 224.00
C 61.38 218.65 55.09 214.28 54.00 209.00
C 53.51 208.49 50.37 209.51 50.26 207.74 C 50.15 205.98 49.73 204.56 49.00 203.00
C 46.62 197.92 37.72 191.77 37.00 187.00
C 37.54 187.47 34.25 188.46 34.25 186.74 C 34.26 185.02 33.78 183.47 33.00 182.00
C 30.36 177.01 26.04 173.06 24.00 169.00
C 22.39 167.91 21.86 168.91 20.00 169.00
C 20.00 167.00 20.00 165.00 20.00 163.00
C 18.74 159.63 14.15 156.63 12.00 154.00
C 10.46 139.35 28.28 126.25 36.00 143.00
C 37.94 144.58 40.41 143.71 41.00 144.00
C 38.89 139.51 33.56 136.40 31.00 131.00
C 16.11 128.24 2.55 148.78 12.25 160.75 C 21.96 172.71 30.38 186.01 40.25 198.75 C 50.12 211.48 59.09 223.15 69.00 236.00
C 53.99 244.91 43.71 268.54 28.22 277.22 C 12.74 285.91 -3.51 303.81 9.75 317.25 C 23.01 330.69 35.33 334.09 52.00 337.00
C 56.70 331.08 60.12 326.86 60.00 320.00
C 62.45 319.68 62.78 318.68 65.00 318.00
C 61.56 325.68 63.86 333.53 60.97 340.97 C 58.09 348.42 61.30 362.10 58.75 369.75 C 56.20 377.39 45.11 381.69 44.13 388.08 C 43.15 394.48 37.26 409.55 48.00 410.00
C 35.96 419.64 32.17 420.93 18.92 426.87 C 5.67 432.81 10.17 450.94 19.10 461.90 C 28.03 472.86 36.85 481.49 47.08 486.87 C 57.32 492.25 61.33 508.13 65.00 518.00
C 57.57 515.42 54.91 527.95 48.30 518.70 C 41.69 509.44 26.98 510.82 18.25 514.81 C 9.53 518.80 1.87 527.92 2.00 538.00 C 2.13 548.08 3.47 547.30 13.00 548.00
C 19.58 548.49 26.40 548.00 33.00 548.00
C 36.67 548.00 40.33 548.00 44.00 548.00
C 48.30 548.00 52.71 548.29 57.00 548.00
C 73.84 546.85 88.36 544.33 100.00 539.00
C 101.88 531.57 97.98 525.97 96.00 519.00
C 89.84 516.90 86.76 507.76 84.87 502.08 C 82.98 496.40 79.18 488.29 78.08 481.92 C 76.98 475.55 76.55 465.08 79.19 457.75 C 81.84 450.42 90.07 448.31 95.75 444.61 C 101.44 440.90 113.42 441.35 123.00 441.00 C 132.58 440.65 146.42 439.94 154.25 442.76 C 162.07 445.57 167.28 444.85 173.77 448.57 C 180.26 452.30 184.96 451.39 191.25 455.19 C 197.55 458.99 201.45 461.06 208.75 464.39 C 216.06 467.72 215.88 469.98 226.08 474.92 C 236.27 479.86 252.24 489.61 262.25 496.80 C 272.25 503.99 271.03 508.05 281.00 513.00
C 276.80 518.28 280.94 525.44 279.00 531.00
C 287.74 531.01 296.47 535.91 304.69 536.31 C 312.92 536.70 329.97 536.12 338.00 536.00 C 346.03 535.88 357.68 537.55 360.75 531.75 C 363.83 525.95 358.62 514.45 354.61 510.25 C 350.59 506.04 344.61 499.50 338.70 499.29 C 332.80 499.08 321.04 498.71 317.23 503.58 C 313.42 508.45 302.29 503.48 297.00 502.00
C 293.29 492.92 287.02 484.95 279.00 477.00
C 281.48 460.36 269.23 450.27 258.77 438.23 C 248.31 426.19 234.76 415.59 231.00 403.00
C 237.43 404.51 240.91 407.06 249.00 408.00
C 249.40 394.61 248.24 379.77 241.09 371.90 C 233.95 364.03 232.78 353.78 225.43 346.23 C 218.08 338.69 220.14 321.97 222.32 311.32 C 224.50 300.67 235.97 292.09 243.25 285.81 C 250.53 279.53 258.27 276.80 265.75 272.74 C 273.23 268.68 281.06 267.44 290.23 264.79 C 299.40 262.13 309.55 259.27 319.70 257.36 C 329.85 255.44 341.36 253.97 351.23 251.79 C 361.10 249.60 368.80 246.09 375.00 235.00
C 386.06 237.71 390.06 227.57 401.08 230.07 C 412.09 232.57 409.00 248.61 418.23 249.21 C 427.46 249.82 442.72 248.69 449.00 254.00
C 450.79 252.41 452.20 250.62 454.00 249.00
C 451.19 245.09 455.28 240.50 452.00 237.00
C 459.54 235.11 466.80 225.49 462.00 218.00
C 483.39 215.31 503.05 216.28 519.00 204.00
L 519.00 198.00
C 503.79 199.81 488.02 198.39 471.00 199.00 C 453.98 199.61 435.61 199.33 421.08 202.08 C 406.55 204.83 388.64 202.06 375.00 207.00
C 359.84 192.16 349.30 208.02 334.70 211.65 C 320.09 215.28 299.72 221.69 279.00 223.00
C 285.41 215.73 293.88 207.99 301.25 201.25 C 308.62 194.51 316.03 189.88 321.61 181.75 C 327.19 173.63 326.64 168.68 321.97 160.03 C 317.30 151.39 309.94 149.72 302.00 159.00
C 295.54 130.70 292.20 96.48 283.26 70.75 C 274.33 45.03 257.43 16.63 230.25 7.19 C 203.07 -2.24 160.56 2.14 135.25 11.20 C 109.94 20.26 80.43 34.35 66.80 63.75 C 53.17 93.16 51.19 117.82 50.00 156.00
C 47.82 153.26 45.67 151.18 43.00 147.00
M 261.00 121.00 
C 255.32 122.56 248.04 130.60 245.81 135.25 C 243.57 139.90 240.00 136.88 238.70 141.70 C 237.39 146.51 229.94 139.86 229.08 145.08 C 228.23 150.31 237.90 145.92 240.00 149.00
C 235.93 152.48 236.67 158.29 237.00 165.00
C 235.35 164.18 232.76 162.02 232.00 165.00
C 237.62 166.72 244.43 173.68 252.00 168.00
C 246.74 167.90 242.28 166.87 238.00 166.00
C 238.48 153.76 244.13 142.72 255.00 138.00
C 247.88 145.20 245.37 163.36 260.00 165.00
C 260.75 168.84 254.28 165.06 255.00 169.00
C 275.97 171.67 277.05 138.76 259.00 134.00
C 263.63 129.27 272.58 137.15 274.00 130.00
C 284.21 136.05 290.04 150.80 279.75 158.75 C 269.47 166.70 260.59 170.40 252.75 174.19 C 244.91 177.98 234.18 184.75 224.00 181.00
C 222.29 177.03 224.12 167.80 221.00 164.00
C 220.96 171.11 219.31 179.05 224.00 184.00
C 211.23 185.58 192.89 186.29 179.00 186.00 C 165.11 185.71 154.40 183.41 143.25 180.74 C 132.09 178.06 127.13 176.01 116.92 172.08 C 106.71 168.14 96.94 155.46 110.25 148.25 C 123.55 141.03 124.23 132.61 139.00 129.00
C 138.52 131.46 136.34 130.95 134.00 132.00
C 136.16 136.17 145.28 131.85 148.25 134.19 C 151.22 136.53 156.71 138.47 161.00 140.00
C 155.20 140.45 151.96 146.04 147.70 147.70 C 143.43 149.36 139.12 161.36 137.00 154.00
C 136.81 178.34 171.48 182.86 191.00 173.00
C 183.89 166.38 188.68 155.27 183.00 148.00
C 187.41 149.59 191.95 147.48 194.92 145.87 C 197.88 144.26 204.59 144.79 203.00 139.00
C 191.65 143.23 180.34 137.05 173.25 132.61 C 166.16 128.16 149.96 124.77 140.00 130.00
C 170.83 104.77 226.28 104.62 261.00 121.00
M 262.00 124.00 
C 261.95 126.99 267.97 125.78 268.00 130.00
C 258.26 126.02 253.61 135.94 246.00 140.00
C 250.23 134.06 254.19 125.26 262.00 124.00
M 191.00 144.00 
C 170.60 149.81 162.84 132.22 144.00 132.00
C 152.61 127.01 164.72 132.25 170.92 135.13 C 177.12 138.01 182.53 142.17 191.00 144.00
M 263.00 139.00 
C 270.23 142.95 268.44 164.19 259.33 161.67 C 250.21 159.14 253.25 143.13 257.00 139.00
C 259.19 139.87 260.75 139.73 263.00 139.00
M 166.00 144.00 
C 156.33 149.20 152.80 165.82 161.00 174.00
C 153.17 173.96 137.77 165.68 141.58 157.23 C 145.38 148.78 158.60 139.47 166.00 144.00
M 166.00 173.00 
C 160.05 165.94 158.16 156.36 164.78 149.78 C 171.39 143.19 182.51 147.39 183.02 158.03 C 183.53 168.66 176.94 173.94 166.00 173.00
M 288.00 154.00 
C 290.77 182.94 276.56 205.57 257.25 227.25 C 237.94 248.92 214.13 258.19 187.00 257.00 C 159.87 255.81 140.48 247.13 120.70 239.29 C 100.92 231.44 82.13 222.75 66.00 198.00
C 74.38 183.90 85.18 170.00 99.00 158.00
C 110.16 179.89 130.78 184.10 153.23 188.77 C 175.67 193.44 213.81 190.98 233.75 184.74 C 253.70 178.49 272.18 173.33 288.00 154.00
M 312.00 186.00 
C 311.60 191.63 310.81 189.92 308.00 191.00
C 305.22 192.06 302.55 194.24 301.00 197.00
C 299.33 196.76 300.83 194.15 299.00 194.00
C 300.58 202.25 296.53 202.07 292.00 205.00
C 290.45 206.33 289.16 207.33 288.00 209.00
C 285.40 212.75 283.21 213.36 281.00 215.00
C 279.40 217.73 276.21 219.67 276.00 223.00
C 273.00 223.00 270.00 223.00 267.00 223.00
C 271.05 216.38 274.86 212.77 278.00 206.00
C 277.26 205.11 276.50 204.01 276.00 203.00
C 277.14 202.07 278.55 201.92 280.00 202.00
C 283.37 198.45 285.17 190.22 286.00 187.00
C 286.66 184.41 287.16 183.01 288.00 181.00
C 288.39 180.08 288.41 179.57 288.00 178.00
C 293.21 177.07 295.37 171.91 299.00 169.00
C 300.04 167.20 298.34 168.15 301.00 166.00
C 306.12 161.86 309.45 155.42 315.00 155.00
C 323.98 163.35 324.42 178.99 312.00 186.00
M 184.00 171.00 
C 184.09 177.59 177.31 173.67 184.00 171.00
M 517.00 203.00 
C 503.27 210.33 487.24 212.20 470.97 214.97 C 454.71 217.75 433.85 213.23 425.00 228.00
C 427.96 228.45 428.47 225.05 431.00 225.00
C 430.72 228.58 430.07 231.65 432.00 235.00
C 439.76 233.40 445.38 237.16 450.00 241.00
C 448.48 243.03 448.71 245.96 450.00 248.00
C 439.93 246.88 427.80 244.89 416.00 245.00
C 415.89 238.16 404.73 228.63 398.00 224.00
C 399.47 218.47 399.04 206.77 407.10 206.09 C 415.16 205.42 424.69 205.11 432.25 203.24 C 439.80 201.38 450.84 202.00 460.00 202.00 C 469.16 202.00 481.15 202.55 491.00 203.00 C 500.85 203.45 510.63 197.81 517.00 203.00
M 365.00 203.00 
C 365.48 205.46 367.66 204.95 370.00 206.00
C 366.85 212.43 364.88 214.69 362.69 221.70 C 360.51 228.71 364.51 235.14 370.00 238.00
C 356.12 250.92 333.55 250.44 315.92 254.92 C 298.28 259.40 279.77 260.96 265.75 268.19 C 251.72 275.42 237.30 282.09 224.00 299.00
C 225.20 283.94 231.11 272.09 235.19 259.75 C 239.27 247.41 253.89 238.23 264.00 225.00
C 307.16 228.16 333.25 213.85 365.00 203.00
M 403.00 207.00 
C 395.31 211.55 393.36 220.93 398.00 228.00
C 387.12 227.50 378.04 231.84 368.00 234.00
C 361.34 225.78 368.44 216.69 371.00 209.00
C 380.93 210.52 392.23 205.37 403.00 207.00
M 461.00 220.00 
C 459.92 222.25 460.34 224.38 461.00 227.00
C 456.30 231.40 451.38 237.90 445.00 233.00
C 447.37 231.51 448.45 227.05 452.00 227.00
C 451.01 224.63 452.55 221.68 451.00 219.00
C 455.53 220.84 457.41 217.46 461.00 220.00
M 449.00 220.00 
C 451.76 226.80 441.14 232.47 436.00 230.00
C 432.96 227.42 437.93 225.34 436.00 223.00
C 440.58 222.05 444.37 220.94 449.00 220.00
M 96.00 233.00 
C 92.27 240.72 88.31 251.84 84.20 259.25 C 80.09 266.66 79.48 281.68 68.00 283.00
C 60.77 267.19 38.16 276.19 31.00 287.00
C 41.81 282.72 54.16 273.06 63.00 283.00
C 53.03 284.67 44.93 287.75 38.10 297.10 C 31.27 306.45 41.13 323.79 53.00 324.00
C 48.09 338.19 34.05 327.90 23.92 324.08 C 13.80 320.25 1.63 306.01 11.09 296.08 C 20.54 286.16 27.97 280.20 38.25 272.25 C 48.54 264.31 55.50 250.97 64.25 243.20 C 73.00 235.43 83.08 230.96 96.00 233.00
M 236.00 250.00 
C 233.22 258.95 227.67 265.06 225.23 274.23 C 222.78 283.40 220.22 289.07 218.08 299.08 C 215.94 309.10 216.26 321.32 216.00 333.00 C 215.74 344.68 215.85 361.82 216.78 372.22 C 217.70 382.62 204.05 385.64 198.75 389.19 C 193.44 392.74 184.92 395.27 177.25 397.26 C 169.58 399.26 158.72 402.18 149.00 403.00 C 139.27 403.82 122.83 404.20 112.93 402.93 C 103.02 401.66 95.49 398.84 87.75 396.81 C 80.01 394.78 72.76 388.85 68.61 380.25 C 64.45 371.65 66.28 356.73 66.00 345.00 C 65.72 333.27 68.13 325.64 70.00 315.00
C 76.08 321.73 82.33 316.44 88.67 316.33 C 95.02 316.23 100.12 315.60 106.00 313.00
C 112.86 331.26 146.60 315.91 142.00 299.00
C 148.89 301.56 153.78 291.39 148.00 287.00
C 158.58 284.98 155.25 271.45 148.92 270.94 C 142.59 270.42 140.40 262.26 133.30 265.31 C 126.21 268.36 121.22 267.54 114.92 270.06 C 108.61 272.59 103.84 274.41 97.25 276.39 C 90.66 278.38 87.31 281.20 79.00 284.00
C 85.90 264.55 89.58 252.10 100.00 235.00
C 117.35 246.06 134.30 250.10 157.75 257.40 C 181.20 264.70 217.78 263.91 236.00 250.00
M 136.00 266.00 
C 142.39 270.42 144.95 272.34 152.00 274.00
C 153.35 280.60 150.03 284.18 145.00 285.00
C 143.08 281.03 139.53 276.71 135.00 276.00
C 137.18 282.46 157.78 293.78 140.00 298.00
C 138.71 293.13 132.66 291.57 129.00 289.00
C 133.48 294.85 141.47 299.33 140.00 307.00
C 137.37 307.13 137.06 309.07 134.00 309.00
C 130.48 303.01 126.37 302.13 121.00 300.00
C 122.68 307.03 132.01 305.77 132.00 313.00
C 127.49 319.16 119.71 315.88 113.00 318.00
C 111.52 316.49 108.88 315.24 108.00 313.00
C 112.98 311.09 115.98 311.46 121.00 313.00
C 115.18 301.59 104.56 312.43 97.70 312.71 C 90.85 312.98 76.77 317.66 72.30 309.70 C 67.84 301.73 74.28 291.30 80.25 287.80 C 86.21 284.31 90.60 282.72 97.25 280.20 C 103.90 277.68 109.29 276.10 116.25 273.81 C 123.21 271.51 128.28 268.05 136.00 266.00
M 73.00 290.00 
C 63.50 295.92 70.79 308.48 64.00 316.00
C 54.91 316.89 48.56 322.89 42.69 312.31 C 36.83 301.72 43.65 295.69 50.25 291.81 C 56.86 287.94 66.28 282.01 73.00 290.00
M 222.00 345.00 
C 228.69 363.74 247.20 376.14 244.00 398.00
C 239.24 392.20 237.84 387.10 234.61 382.25 C 231.37 377.39 225.47 372.55 222.92 367.08 C 220.36 361.62 218.72 350.08 222.00 345.00
M 61.00 373.00 
C 61.64 377.58 62.85 379.28 65.00 384.00
C 57.68 389.38 51.20 398.09 45.00 405.00
C 44.50 391.00 51.12 381.55 61.00 373.00
M 243.00 403.00 
C 238.08 401.84 235.81 398.18 230.00 399.00
C 227.58 390.77 223.52 386.23 217.00 383.00
C 220.40 381.57 223.41 378.03 225.00 375.00
C 232.42 382.59 237.33 392.03 243.00 403.00
M 66.00 386.00 
C 66.52 389.40 69.76 390.48 70.00 394.00
C 59.63 388.86 57.69 406.81 48.00 406.00
C 54.56 398.77 60.29 392.28 66.00 386.00
M 268.00 489.00 
C 243.07 487.18 228.94 470.86 210.75 461.81 C 192.55 452.76 181.94 445.43 160.75 439.81 C 139.57 434.18 102.08 434.54 83.00 443.00
C 82.71 447.56 87.87 442.00 89.00 445.00
C 81.81 447.16 78.04 456.00 74.87 459.92 C 71.70 463.84 75.09 474.99 68.92 478.92 C 62.75 482.84 55.02 484.35 46.92 482.07 C 38.83 479.79 37.05 472.82 30.25 467.75 C 23.45 462.69 21.07 456.14 16.68 450.32 C 12.29 444.50 13.70 436.47 19.25 431.25 C 24.80 426.02 30.11 427.21 35.92 422.87 C 41.73 418.53 52.91 417.64 50.00 411.00
C 58.95 408.82 60.02 393.04 70.00 397.00
C 68.95 406.13 77.74 406.89 82.75 409.39 C 87.77 411.90 94.16 414.99 101.75 416.26 C 109.33 417.52 120.33 419.21 130.02 419.98 C 139.72 420.74 152.90 417.69 160.75 416.74 C 168.59 415.79 175.79 413.86 182.25 411.81 C 188.72 409.77 195.10 406.78 200.77 403.43 C 206.43 400.08 215.24 393.19 216.00 386.00
C 229.22 394.07 227.32 407.02 235.70 417.30 C 244.09 427.57 256.74 441.23 265.70 451.30 C 274.66 461.37 283.00 478.59 268.00 489.00
M 211.00 388.00 
C 202.59 399.36 194.78 404.06 184.10 407.12 C 173.42 410.17 162.62 414.29 149.00 415.00 C 135.37 415.71 112.98 413.98 101.92 411.08 C 90.86 408.18 79.61 409.11 74.00 396.00
C 94.15 406.16 120.09 410.42 148.22 408.22 C 176.35 406.02 188.96 399.51 211.00 388.00
M 76.00 480.00 
C 78.35 496.29 82.58 505.60 91.00 522.00
C 81.62 526.16 74.17 522.36 67.00 517.00
C 66.83 505.06 59.94 498.47 53.00 488.00
C 63.95 488.19 67.43 485.54 76.00 480.00
M 280.00 482.00 
C 285.70 489.71 289.50 495.82 296.00 504.00
C 290.99 506.03 286.75 510.42 286.00 515.00
C 277.75 506.76 270.90 500.56 263.00 493.00
C 271.39 493.12 274.65 488.16 280.00 482.00
M 298.00 505.00 
C 302.22 503.72 303.30 507.23 307.00 508.00
C 304.47 510.22 302.84 513.28 299.00 511.00
C 297.93 508.80 303.15 507.35 301.00 506.00
C 297.75 505.29 296.20 510.16 296.00 512.00
C 300.36 513.73 306.80 512.81 303.00 519.00
C 312.19 508.15 323.35 501.23 335.22 502.78 C 347.10 504.33 356.43 513.83 358.00 525.00
C 334.85 532.18 305.43 526.20 281.00 522.00
C 283.33 519.79 280.48 517.12 282.00 515.00
C 284.59 515.53 284.32 519.24 287.00 519.00
C 289.43 514.22 291.52 508.16 298.00 505.00
M 57.00 529.00 
C 54.86 528.29 53.58 524.86 53.00 523.00
C 55.70 522.88 55.97 526.93 58.00 528.00
C 62.74 527.50 74.02 529.51 69.00 521.00
C 76.11 527.17 85.96 527.20 94.00 523.00
C 89.00 537.15 75.90 535.60 59.99 537.01 C 44.08 538.41 18.23 540.38 5.00 538.00
C 6.00 526.04 14.17 518.14 26.23 515.21 C 38.29 512.28 50.97 523.42 58.00 534.00
C 57.23 532.03 57.97 530.82 57.00 529.00
M 68.00 525.00 
C 63.17 523.60 58.81 529.51 56.00 523.00
C 59.28 520.89 66.57 517.77 68.00 525.00
M 298.00 527.00 
C 299.24 534.74 293.35 527.47 290.00 529.00 C 286.65 530.53 280.97 529.83 281.00 525.00
C 286.64 526.32 292.39 527.77 298.00 527.00
M 359.00 526.00 
C 356.57 536.25 344.40 533.36 334.00 533.00 C 323.60 532.65 311.26 532.76 300.00 533.00
C 299.99 531.40 299.36 525.19 302.00 528.00
C 318.00 530.76 345.03 536.28 359.00 526.00
M 97.00 529.00 
C 98.36 539.62 89.27 540.00 79.77 541.79 C 70.27 543.58 56.81 545.65 45.00 546.00 C 33.18 546.35 16.42 544.85 5.00 545.00
C 4.67 542.79 3.68 541.42 3.00 539.00
C 12.03 543.83 27.18 542.61 39.00 543.00 C 50.82 543.39 64.44 540.91 74.08 539.93 C 83.72 538.95 88.08 534.77 97.00 529.00 Z"/>
</g>
<g fill="None" fill-opacity="0.0" stroke="#000000" stroke-opacity="0.01" stroke-width="0.3"><path d="
M 52.00 164.00 
C 51.82 166.65 52.10 169.34 52.00 172.00
C 51.65 181.05 48.43 192.61 56.00 198.00
C 55.33 197.52 58.99 198.97 58.00 199.00
C 73.40 181.18 92.86 154.71 114.90 138.90 C 136.94 123.09 152.19 114.70 177.25 108.26 C 202.32 101.82 235.15 104.55 256.75 113.24 C 278.36 121.93 301.89 146.04 290.00 172.00
C 307.37 158.52 290.92 136.47 290.78 119.22 C 290.65 101.97 284.52 84.29 279.64 70.70 C 274.76 57.11 268.37 39.18 255.25 26.75 C 242.13 14.32 232.22 10.75 214.69 6.35 C 197.17 1.96 166.33 7.17 151.23 10.79 C 136.13 14.40 123.02 19.44 110.30 25.29 C 97.59 31.13 83.07 42.75 73.92 57.92 C 64.77 73.10 62.65 84.20 58.92 101.92 C 55.19 119.64 53.35 144.15 52.00 164.00 Z"/>
</g>
<g fill="None" fill-opacity="0.0" stroke="#000000" stroke-opacity="0.04" stroke-width="0.3"><path d="
M 261.00 121.00 
C 226.28 104.62 170.83 104.77 140.00 130.00
C 149.96 124.77 166.16 128.16 173.25 132.61 C 180.34 137.05 191.65 143.23 203.00 139.00
C 204.59 144.79 197.88 144.26 194.92 145.87 C 191.95 147.48 187.41 149.59 183.00 148.00
C 188.68 155.27 183.89 166.38 191.00 173.00
C 171.48 182.86 136.81 178.34 137.00 154.00
C 139.12 161.36 143.43 149.36 147.70 147.70 C 151.96 146.04 155.20 140.45 161.00 140.00
C 156.71 138.47 151.22 136.53 148.25 134.19 C 145.28 131.85 136.16 136.17 134.00 132.00
C 136.34 130.95 138.52 131.46 139.00 129.00
C 124.23 132.61 123.55 141.03 110.25 148.25 C 96.94 155.46 106.71 168.14 116.92 172.08 C 127.13 176.01 132.09 178.06 143.25 180.74 C 154.40 183.41 165.11 185.71 179.00 186.00 C 192.89 186.29 211.23 185.58 224.00 184.00
C 219.31 179.05 220.96 171.11 221.00 164.00
C 224.12 167.80 222.29 177.03 224.00 181.00
C 234.18 184.75 244.91 177.98 252.75 174.19 C 260.59 170.40 269.47 166.70 279.75 158.75 C 290.04 150.80 284.21 136.05 274.00 130.00
C 272.58 137.15 263.63 129.27 259.00 134.00
C 277.05 138.76 275.97 171.67 255.00 169.00
C 254.28 165.06 260.75 168.84 260.00 165.00
C 245.37 163.36 247.88 145.20 255.00 138.00
C 244.13 142.72 238.48 153.76 238.00 166.00
C 242.28 166.87 246.74 167.90 252.00 168.00
C 244.43 173.68 237.62 166.72 232.00 165.00
C 232.76 162.02 235.35 164.18 237.00 165.00
C 236.67 158.29 235.93 152.48 240.00 149.00
C 237.90 145.92 228.23 150.31 229.08 145.08 C 229.94 139.86 237.39 146.51 238.70 141.70 C 240.00 136.88 243.57 139.90 245.81 135.25 C 248.04 130.60 255.32 122.56 261.00 121.00
M 244.00 176.00 
C 238.72 174.11 235.92 174.01 232.00 170.00
C 236.63 168.73 242.58 171.16 244.00 176.00
M 194.00 173.00 
C 192.85 177.87 187.13 180.08 182.00 182.00
C 185.15 178.08 189.90 175.57 194.00 173.00 Z"/>
</g>
<g fill="None" fill-opacity="0.0" stroke="#000000" stroke-opacity="0.23" stroke-width="0.3"><path d="
M 262.00 124.00 
C 254.19 125.26 250.23 134.06 246.00 140.00
C 253.61 135.94 258.26 126.02 268.00 130.00
C 267.97 125.78 261.95 126.99 262.00 124.00 Z"/>
</g>
<g fill="None" fill-opacity="0.0" stroke="#000000" stroke-opacity="0.17" stroke-width="0.3"><path d="
M 191.00 144.00 
C 182.53 142.17 177.12 138.01 170.92 135.13 C 164.72 132.25 152.61 127.01 144.00 132.00
C 162.84 132.22 170.60 149.81 191.00 144.00 Z"/>
</g>
<g fill="None" fill-opacity="0.0" stroke="#000000" stroke-opacity="0.04" stroke-width="0.3"><path d="
M 20.00 163.00 
C 20.36 158.68 23.76 153.87 25.92 149.92 C 28.08 145.97 36.66 146.85 36.00 143.00
C 28.28 126.25 10.46 139.35 12.00 154.00
C 14.15 156.63 18.74 159.63 20.00 163.00 Z"/>
</g>
<g fill="None" fill-opacity="0.0" stroke="#000000" stroke-opacity="0.07" stroke-width="0.3"><path d="
M 263.00 139.00 
C 260.75 139.73 259.19 139.87 257.00 139.00
C 253.25 143.13 250.21 159.14 259.33 161.67 C 268.44 164.19 270.23 142.95 263.00 139.00 Z"/>
</g>
<g fill="None" fill-opacity="0.0" stroke="#000000" stroke-opacity="0.07" stroke-width="0.3"><path d="
M 166.00 144.00 
C 158.60 139.47 145.38 148.78 141.58 157.23 C 137.77 165.68 153.17 173.96 161.00 174.00
C 152.80 165.82 156.33 149.20 166.00 144.00 Z"/>
</g>
<g fill="None" fill-opacity="0.0" stroke="#000000" stroke-opacity="0.67" stroke-width="0.3"><path d="
M 20.00 163.00 
C 20.00 165.00 20.00 167.00 20.00 169.00
C 21.86 168.91 22.39 167.91 24.00 169.00
C 21.02 163.06 23.80 160.69 26.31 154.31 C 28.81 147.92 36.86 149.95 41.00 149.00
C 41.06 148.99 42.95 147.18 43.00 147.00
C 42.22 145.78 42.01 145.17 41.00 144.00
C 40.41 143.71 37.94 144.58 36.00 143.00
C 36.66 146.85 28.08 145.97 25.92 149.92 C 23.76 153.87 20.36 158.68 20.00 163.00 Z"/>
</g>
<g fill="None" fill-opacity="0.0" stroke="#000000" stroke-opacity="0.05" stroke-width="0.3"><path d="
M 166.00 173.00 
C 176.94 173.94 183.53 168.66 183.02 158.03 C 182.51 147.39 171.39 143.19 164.78 149.78 C 158.16 156.36 160.05 165.94 166.00 173.00 Z"/>
</g>
<g fill="None" fill-opacity="0.0" stroke="#000000" stroke-opacity="0.02" stroke-width="0.3"><path d="
M 24.00 169.00 
C 26.04 173.06 30.36 177.01 33.00 182.00
C 33.55 175.43 41.59 165.56 48.00 164.00
C 48.28 162.72 47.24 160.50 49.00 160.00
C 47.48 157.46 43.64 150.52 41.00 149.00
C 36.86 149.95 28.81 147.92 26.31 154.31 C 23.80 160.69 21.02 163.06 24.00 169.00 Z"/>
</g>
<g fill="None" fill-opacity="0.0" stroke="#000000" stroke-opacity="0.01" stroke-width="0.3"><path d="
M 288.00 154.00 
C 272.18 173.33 253.70 178.49 233.75 184.74 C 213.81 190.98 175.67 193.44 153.23 188.77 C 130.78 184.10 110.16 179.89 99.00 158.00
C 85.18 170.00 74.38 183.90 66.00 198.00
C 82.13 222.75 100.92 231.44 120.70 239.29 C 140.48 247.13 159.87 255.81 187.00 257.00 C 214.13 258.19 237.94 248.92 257.25 227.25 C 276.56 205.57 290.77 182.94 288.00 154.00 Z"/>
</g>
<g fill="None" fill-opacity="0.0" stroke="#000000" stroke-opacity="0.05" stroke-width="0.3"><path d="
M 301.00 166.00 
C 308.38 166.16 312.40 180.37 312.00 186.00
C 324.42 178.99 323.98 163.35 315.00 155.00
C 309.45 155.42 306.12 161.86 301.00 166.00 Z"/>
</g>
<g fill="None" fill-opacity="0.0" stroke="#000000" stroke-opacity="0.65" stroke-width="0.3"><path d="
M 33.00 182.00 
C 33.78 183.47 34.26 185.02 34.25 186.74 C 34.25 188.46 37.54 187.47 37.00 187.00
C 36.27 182.22 41.66 164.72 49.00 167.00
C 50.83 167.57 51.77 170.22 52.00 172.00
C 52.10 169.34 51.82 166.65 52.00 164.00
C 52.16 164.41 49.19 160.32 49.00 160.00
C 47.24 160.50 48.28 162.72 48.00 164.00
C 41.59 165.56 33.55 175.43 33.00 182.00 Z"/>
</g>
<g fill="None" fill-opacity="0.0" stroke="#000000" stroke-opacity="0.66" stroke-width="0.3"><path d="
M 299.00 169.00 
C 300.59 172.26 306.36 172.54 307.30 176.70 C 308.25 180.85 310.82 186.77 308.00 191.00
C 310.81 189.92 311.60 191.63 312.00 186.00
C 312.40 180.37 308.38 166.16 301.00 166.00
C 298.34 168.15 300.04 167.20 299.00 169.00 Z"/>
</g>
<g fill="None" fill-opacity="0.0" stroke="#000000" stroke-opacity="0.07" stroke-width="0.3"><path d="
M 37.00 187.00 
C 37.72 191.77 46.62 197.92 49.00 203.00
C 51.99 204.54 50.54 202.31 52.00 201.00
C 52.25 195.42 46.77 194.88 48.80 188.75 C 50.84 182.63 47.69 173.42 49.00 167.00
C 41.66 164.72 36.27 182.22 37.00 187.00 Z"/>
</g>
<g fill="None" fill-opacity="0.0" stroke="#000000" stroke-opacity="0.84" stroke-width="0.3"><path d="
M 52.00 201.00 
C 52.68 200.39 55.47 198.08 56.00 198.00
C 48.43 192.61 51.65 181.05 52.00 172.00
C 51.77 170.22 50.83 167.57 49.00 167.00
C 47.69 173.42 50.84 182.63 48.80 188.75 C 46.77 194.88 52.25 195.42 52.00 201.00 Z"/>
</g>
<g fill="None" fill-opacity="0.0" stroke="#000000" stroke-opacity="0.75" stroke-width="0.3"><path d="
M 244.00 176.00 
C 242.58 171.16 236.63 168.73 232.00 170.00
C 235.92 174.01 238.72 174.11 244.00 176.00 Z"/>
</g>
<g fill="None" fill-opacity="0.0" stroke="#000000" stroke-opacity="0.02" stroke-width="0.3"><path d="
M 288.00 181.00 
C 292.80 184.57 297.78 187.64 299.00 194.00
C 300.83 194.15 299.33 196.76 301.00 197.00
C 302.55 194.24 305.22 192.06 308.00 191.00
C 310.82 186.77 308.25 180.85 307.30 176.70 C 306.36 172.54 300.59 172.26 299.00 169.00
C 295.37 171.91 293.21 177.07 288.00 178.00
C 288.41 179.57 288.39 180.08 288.00 181.00 Z"/>
</g>
<g fill="None" fill-opacity="0.0" stroke="#000000" stroke-opacity="0.46" stroke-width="0.3"><path d="
M 184.00 171.00 
C 177.31 173.67 184.09 177.59 184.00 171.00 Z"/>
</g>
<g fill="None" fill-opacity="0.0" stroke="#000000" stroke-opacity="0.71" stroke-width="0.3"><path d="
M 194.00 173.00 
C 189.90 175.57 185.15 178.08 182.00 182.00
C 187.13 180.08 192.85 177.87 194.00 173.00 Z"/>
</g>
<g fill="None" fill-opacity="0.0" stroke="#000000" stroke-opacity="0.67" stroke-width="0.3"><path d="
M 286.00 187.00 
C 289.00 184.16 293.27 187.13 295.30 191.70 C 297.34 196.26 295.85 201.71 292.00 205.00
C 296.53 202.07 300.58 202.25 299.00 194.00
C 297.78 187.64 292.80 184.57 288.00 181.00
C 287.16 183.01 286.66 184.41 286.00 187.00 Z"/>
</g>
<g fill="None" fill-opacity="0.0" stroke="#000000" stroke-opacity="0.02" stroke-width="0.3"><path d="
M 286.00 187.00 
C 285.17 190.22 283.37 198.45 280.00 202.00
C 282.57 202.51 284.98 207.62 285.00 210.00
C 286.28 210.53 286.86 209.03 288.00 209.00
C 289.16 207.33 290.45 206.33 292.00 205.00
C 295.85 201.71 297.34 196.26 295.30 191.70 C 293.27 187.13 289.00 184.16 286.00 187.00 Z"/>
</g>
<g fill="None" fill-opacity="0.0" stroke="#000000" stroke-opacity="0.69" stroke-width="0.3"><path d="
M 52.00 201.00 
C 50.54 202.31 51.99 204.54 49.00 203.00
C 49.73 204.56 50.15 205.98 50.26 207.74 C 50.37 209.51 53.51 208.49 54.00 209.00
C 53.08 204.53 55.27 204.90 57.00 202.00
C 57.82 200.62 57.30 199.91 58.00 199.00
C 58.99 198.97 55.33 197.52 56.00 198.00
C 55.47 198.08 52.68 200.39 52.00 201.00 Z"/>
</g>
<g fill="None" fill-opacity="0.0" stroke="#000000" stroke-opacity="0.04" stroke-width="0.3"><path d="
M 517.00 203.00 
C 510.63 197.81 500.85 203.45 491.00 203.00 C 481.15 202.55 469.16 202.00 460.00 202.00 C 450.84 202.00 439.80 201.38 432.25 203.24 C 424.69 205.11 415.16 205.42 407.10 206.09 C 399.04 206.77 399.47 218.47 398.00 224.00
C 404.73 228.63 415.89 238.16 416.00 245.00
C 427.80 244.89 439.93 246.88 450.00 248.00
C 448.71 245.96 448.48 243.03 450.00 241.00
C 445.38 237.16 439.76 233.40 432.00 235.00
C 430.07 231.65 430.72 228.58 431.00 225.00
C 428.47 225.05 427.96 228.45 425.00 228.00
C 433.85 213.23 454.71 217.75 470.97 214.97 C 487.24 212.20 503.27 210.33 517.00 203.00 Z"/>
</g>
<g fill="None" fill-opacity="0.0" stroke="#000000" stroke-opacity="0.05" stroke-width="0.3"><path d="
M 54.00 209.00 
C 55.09 214.28 61.38 218.65 64.00 224.00
C 66.52 225.10 69.10 217.27 73.00 216.00
C 71.93 209.97 64.52 207.79 64.00 202.00
C 61.93 203.44 58.26 201.57 57.00 202.00
C 55.27 204.90 53.08 204.53 54.00 209.00 Z"/>
</g>
<g fill="None" fill-opacity="0.0" stroke="#000000" stroke-opacity="0.67" stroke-width="0.3"><path d="
M 278.00 206.00 
C 281.19 209.88 284.35 209.30 281.00 215.00
C 283.21 213.36 285.40 212.75 288.00 209.00
C 286.86 209.03 286.28 210.53 285.00 210.00
C 284.98 207.62 282.57 202.51 280.00 202.00
C 278.55 201.92 277.14 202.07 276.00 203.00
C 276.50 204.01 277.26 205.11 278.00 206.00 Z"/>
</g>
<g fill="None" fill-opacity="0.0" stroke="#000000" stroke-opacity="0.02" stroke-width="0.3"><path d="
M 365.00 203.00 
C 333.25 213.85 307.16 228.16 264.00 225.00
C 253.89 238.23 239.27 247.41 235.19 259.75 C 231.11 272.09 225.20 283.94 224.00 299.00
C 237.30 282.09 251.72 275.42 265.75 268.19 C 279.77 260.96 298.28 259.40 315.92 254.92 C 333.55 250.44 356.12 250.92 370.00 238.00
C 364.51 235.14 360.51 228.71 362.69 221.70 C 364.88 214.69 366.85 212.43 370.00 206.00
C 367.66 204.95 365.48 205.46 365.00 203.00 Z"/>
</g>
<g fill="None" fill-opacity="0.0" stroke="#000000" stroke-opacity="0.00" stroke-width="0.3"><path d="
M 57.00 548.00 
C 56.94 548.01 57.00 549.00 57.00 549.00
L 519.00 549.00
L 519.00 204.00
C 503.05 216.28 483.39 215.31 462.00 218.00
C 466.80 225.49 459.54 235.11 452.00 237.00
C 455.28 240.50 451.19 245.09 454.00 249.00
C 452.20 250.62 450.79 252.41 449.00 254.00
C 442.72 248.69 427.46 249.82 418.23 249.21 C 409.00 248.61 412.09 232.57 401.08 230.07 C 390.06 227.57 386.06 237.71 375.00 235.00
C 368.80 246.09 361.10 249.60 351.23 251.79 C 341.36 253.97 329.85 255.44 319.70 257.36 C 309.55 259.27 299.40 262.13 290.23 264.79 C 281.06 267.44 273.23 268.68 265.75 272.74 C 258.27 276.80 250.53 279.53 243.25 285.81 C 235.97 292.09 224.50 300.67 222.32 311.32 C 220.14 321.97 218.08 338.69 225.43 346.23 C 232.78 353.78 233.95 364.03 241.09 371.90 C 248.24 379.77 249.40 394.61 249.00 408.00
C 240.91 407.06 237.43 404.51 231.00 403.00
C 234.76 415.59 248.31 426.19 258.77 438.23 C 269.23 450.27 281.48 460.36 279.00 477.00
C 287.02 484.95 293.29 492.92 297.00 502.00
C 302.29 503.48 313.42 508.45 317.23 503.58 C 321.04 498.71 332.80 499.08 338.70 499.29 C 344.61 499.50 350.59 506.04 354.61 510.25 C 358.62 514.45 363.83 525.95 360.75 531.75 C 357.68 537.55 346.03 535.88 338.00 536.00 C 329.97 536.12 312.92 536.70 304.69 536.31 C 296.47 535.91 287.74 531.01 279.00 531.00
C 280.94 525.44 276.80 518.28 281.00 513.00
C 271.03 508.05 272.25 503.99 262.25 496.80 C 252.24 489.61 236.27 479.86 226.08 474.92 C 215.88 469.98 216.06 467.72 208.75 464.39 C 201.45 461.06 197.55 458.99 191.25 455.19 C 184.96 451.39 180.26 452.30 173.77 448.57 C 167.28 444.85 162.07 445.57 154.25 442.76 C 146.42 439.94 132.58 440.65 123.00 441.00 C 113.42 441.35 101.44 440.90 95.75 444.61 C 90.07 448.31 81.84 450.42 79.19 457.75 C 76.55 465.08 76.98 475.55 78.08 481.92 C 79.18 488.29 82.98 496.40 84.87 502.08 C 86.76 507.76 89.84 516.90 96.00 519.00
C 97.98 525.97 101.88 531.57 100.00 539.00
C 88.36 544.33 73.84 546.85 57.00 548.00 Z"/>
</g>
<g fill="None" fill-opacity="0.0" stroke="#000000" stroke-opacity="0.10" stroke-width="0.3"><path d="
M 281.00 215.00 
C 284.35 209.30 281.19 209.88 278.00 206.00
C 274.86 212.77 271.05 216.38 267.00 223.00
C 270.00 223.00 273.00 223.00 276.00 223.00
C 276.21 219.67 279.40 217.73 281.00 215.00 Z"/>
</g>
<g fill="None" fill-opacity="0.0" stroke="#000000" stroke-opacity="0.05" stroke-width="0.3"><path d="
M 403.00 207.00 
C 392.23 205.37 380.93 210.52 371.00 209.00
C 368.44 216.69 361.34 225.78 368.00 234.00
C 378.04 231.84 387.12 227.50 398.00 228.00
C 393.36 220.93 395.31 211.55 403.00 207.00 Z"/>
</g>
<g fill="None" fill-opacity="0.0" stroke="#000000" stroke-opacity="0.67" stroke-width="0.3"><path d="
M 73.00 216.00 
C 69.10 217.27 66.52 225.10 64.00 224.00
C 65.19 226.19 65.24 228.71 66.00 231.00
C 67.67 230.95 67.96 230.20 69.00 231.00
C 67.80 228.67 69.11 227.28 69.33 223.33 C 69.54 219.37 75.05 220.28 77.00 219.00
C 81.57 216.00 75.70 215.12 73.00 216.00 Z"/>
</g>
<g fill="None" fill-opacity="0.0" stroke="#000000" stroke-opacity="0.09" stroke-width="0.3"><path d="
M 461.00 220.00 
C 457.41 217.46 455.53 220.84 451.00 219.00
C 452.55 221.68 451.01 224.63 452.00 227.00
C 448.45 227.05 447.37 231.51 445.00 233.00
C 451.38 237.90 456.30 231.40 461.00 227.00
C 460.34 224.38 459.92 222.25 461.00 220.00 Z"/>
</g>
<g fill="None" fill-opacity="0.0" stroke="#000000" stroke-opacity="0.06" stroke-width="0.3"><path d="
M 69.00 231.00 
C 69.44 232.67 71.46 233.34 72.00 235.00
C 77.61 232.27 82.46 230.80 89.00 230.00
C 85.34 226.78 81.18 220.20 77.00 219.00
C 75.05 220.28 69.54 219.37 69.33 223.33 C 69.11 227.28 67.80 228.67 69.00 231.00 Z"/>
</g>
<g fill="None" fill-opacity="0.0" stroke="#000000" stroke-opacity="0.14" stroke-width="0.3"><path d="
M 449.00 220.00 
C 444.37 220.94 440.58 222.05 436.00 223.00
C 437.93 225.34 432.96 227.42 436.00 230.00
C 441.14 232.47 451.76 226.80 449.00 220.00 Z"/>
</g>
<g fill="None" fill-opacity="0.0" stroke="#000000" stroke-opacity="0.04" stroke-width="0.3"><path d="
M 96.00 233.00 
C 83.08 230.96 73.00 235.43 64.25 243.20 C 55.50 250.97 48.54 264.31 38.25 272.25 C 27.97 280.20 20.54 286.16 11.09 296.08 C 1.63 306.01 13.80 320.25 23.92 324.08 C 34.05 327.90 48.09 338.19 53.00 324.00
C 41.13 323.79 31.27 306.45 38.10 297.10 C 44.93 287.75 53.03 284.67 63.00 283.00
C 54.16 273.06 41.81 282.72 31.00 287.00
C 38.16 276.19 60.77 267.19 68.00 283.00
C 79.48 281.68 80.09 266.66 84.20 259.25 C 88.31 251.84 92.27 240.72 96.00 233.00 Z"/>
</g>
<g fill="None" fill-opacity="0.0" stroke="#000000" stroke-opacity="0.01" stroke-width="0.3"><path d="
M 236.00 250.00 
C 217.78 263.91 181.20 264.70 157.75 257.40 C 134.30 250.10 117.35 246.06 100.00 235.00
C 89.58 252.10 85.90 264.55 79.00 284.00
C 87.31 281.20 90.66 278.38 97.25 276.39 C 103.84 274.41 108.61 272.59 114.92 270.06 C 121.22 267.54 126.21 268.36 133.30 265.31 C 140.40 262.26 142.59 270.42 148.92 270.94 C 155.25 271.45 158.58 284.98 148.00 287.00
C 153.78 291.39 148.89 301.56 142.00 299.00
C 146.60 315.91 112.86 331.26 106.00 313.00
C 100.12 315.60 95.02 316.23 88.67 316.33 C 82.33 316.44 76.08 321.73 70.00 315.00
C 68.13 325.64 65.72 333.27 66.00 345.00 C 66.28 356.73 64.45 371.65 68.61 380.25 C 72.76 388.85 80.01 394.78 87.75 396.81 C 95.49 398.84 103.02 401.66 112.93 402.93 C 122.83 404.20 139.27 403.82 149.00 403.00 C 158.72 402.18 169.58 399.26 177.25 397.26 C 184.92 395.27 193.44 392.74 198.75 389.19 C 204.05 385.64 217.70 382.62 216.78 372.22 C 215.85 361.82 215.74 344.68 216.00 333.00 C 216.26 321.32 215.94 309.10 218.08 299.08 C 220.22 289.07 222.78 283.40 225.23 274.23 C 227.67 265.06 233.22 258.95 236.00 250.00 Z"/>
</g>
<g fill="None" fill-opacity="0.0" stroke="#000000" stroke-opacity="0.04" stroke-width="0.3"><path d="
M 136.00 266.00 
C 128.28 268.05 123.21 271.51 116.25 273.81 C 109.29 276.10 103.90 277.68 97.25 280.20 C 90.60 282.72 86.21 284.31 80.25 287.80 C 74.28 291.30 67.84 301.73 72.30 309.70 C 76.77 317.66 90.85 312.98 97.70 312.71 C 104.56 312.43 115.18 301.59 121.00 313.00
C 115.98 311.46 112.98 311.09 108.00 313.00
C 108.88 315.24 111.52 316.49 113.00 318.00
C 119.71 315.88 127.49 319.16 132.00 313.00
C 132.01 305.77 122.68 307.03 121.00 300.00
C 126.37 302.13 130.48 303.01 134.00 309.00
C 137.06 309.07 137.37 307.13 140.00 307.00
C 141.47 299.33 133.48 294.85 129.00 289.00
C 132.66 291.57 138.71 293.13 140.00 298.00
C 157.78 293.78 137.18 282.46 135.00 276.00
C 139.53 276.71 143.08 281.03 145.00 285.00
C 150.03 284.18 153.35 280.60 152.00 274.00
C 144.95 272.34 142.39 270.42 136.00 266.00 Z"/>
</g>
<g fill="None" fill-opacity="0.0" stroke="#000000" stroke-opacity="0.04" stroke-width="0.3"><path d="
M 73.00 290.00 
C 66.28 282.01 56.86 287.94 50.25 291.81 C 43.65 295.69 36.83 301.72 42.69 312.31 C 48.56 322.89 54.91 316.89 64.00 316.00
C 70.79 308.48 63.50 295.92 73.00 290.00 Z"/>
</g>
<g fill="None" fill-opacity="0.0" stroke="#000000" stroke-opacity="0.09" stroke-width="0.3"><path d="
M 222.00 345.00 
C 218.72 350.08 220.36 361.62 222.92 367.08 C 225.47 372.55 231.37 377.39 234.61 382.25 C 237.84 387.10 239.24 392.20 244.00 398.00
C 247.20 376.14 228.69 363.74 222.00 345.00 Z"/>
</g>
<g fill="None" fill-opacity="0.0" stroke="#000000" stroke-opacity="0.07" stroke-width="0.3"><path d="
M 61.00 373.00 
C 51.12 381.55 44.50 391.00 45.00 405.00
C 51.20 398.09 57.68 389.38 65.00 384.00
C 62.85 379.28 61.64 377.58 61.00 373.00 Z"/>
</g>
<g fill="None" fill-opacity="0.0" stroke="#000000" stroke-opacity="0.09" stroke-width="0.3"><path d="
M 243.00 403.00 
C 237.33 392.03 232.42 382.59 225.00 375.00
C 223.41 378.03 220.40 381.57 217.00 383.00
C 223.52 386.23 227.58 390.77 230.00 399.00
C 235.81 398.18 238.08 401.84 243.00 403.00 Z"/>
</g>
<g fill="None" fill-opacity="0.0" stroke="#000000" stroke-opacity="0.14" stroke-width="0.3"><path d="
M 66.00 386.00 
C 60.29 392.28 54.56 398.77 48.00 406.00
C 57.69 406.81 59.63 388.86 70.00 394.00
C 69.76 390.48 66.52 389.40 66.00 386.00 Z"/>
</g>
<g fill="None" fill-opacity="0.0" stroke="#000000" stroke-opacity="0.02" stroke-width="0.3"><path d="
M 268.00 489.00 
C 283.00 478.59 274.66 461.37 265.70 451.30 C 256.74 441.23 244.09 427.57 235.70 417.30 C 227.32 407.02 229.22 394.07 216.00 386.00
C 215.24 393.19 206.43 400.08 200.77 403.43 C 195.10 406.78 188.72 409.77 182.25 411.81 C 175.79 413.86 168.59 415.79 160.75 416.74 C 152.90 417.69 139.72 420.74 130.02 419.98 C 120.33 419.21 109.33 417.52 101.75 416.26 C 94.16 414.99 87.77 411.90 82.75 409.39 C 77.74 406.89 68.95 406.13 70.00 397.00
C 60.02 393.04 58.95 408.82 50.00 411.00
C 52.91 417.64 41.73 418.53 35.92 422.87 C 30.11 427.21 24.80 426.02 19.25 431.25 C 13.70 436.47 12.29 444.50 16.68 450.32 C 21.07 456.14 23.45 462.69 30.25 467.75 C 37.05 472.82 38.83 479.79 46.92 482.07 C 55.02 484.35 62.75 482.84 68.92 478.92 C 75.09 474.99 71.70 463.84 74.87 459.92 C 78.04 456.00 81.81 447.16 89.00 445.00
C 87.87 442.00 82.71 447.56 83.00 443.00
C 102.08 434.54 139.57 434.18 160.75 439.81 C 181.94 445.43 192.55 452.76 210.75 461.81 C 228.94 470.86 243.07 487.18 268.00 489.00 Z"/>
</g>
<g fill="None" fill-opacity="0.0" stroke="#000000" stroke-opacity="0.11" stroke-width="0.3"><path d="
M 211.00 388.00 
C 188.96 399.51 176.35 406.02 148.22 408.22 C 120.09 410.42 94.15 406.16 74.00 396.00
C 79.61 409.11 90.86 408.18 101.92 411.08 C 112.98 413.98 135.37 415.71 149.00 415.00 C 162.62 414.29 173.42 410.17 184.10 407.12 C 194.78 404.06 202.59 399.36 211.00 388.00 Z"/>
</g>
<g fill="None" fill-opacity="0.0" stroke="#000000" stroke-opacity="0.05" stroke-width="0.3"><path d="
M 76.00 480.00 
C 67.43 485.54 63.95 488.19 53.00 488.00
C 59.94 498.47 66.83 505.06 67.00 517.00
C 74.17 522.36 81.62 526.16 91.00 522.00
C 82.58 505.60 78.35 496.29 76.00 480.00 Z"/>
</g>
<g fill="None" fill-opacity="0.0" stroke="#000000" stroke-opacity="0.06" stroke-width="0.3"><path d="
M 280.00 482.00 
C 274.65 488.16 271.39 493.12 263.00 493.00
C 270.90 500.56 277.75 506.76 286.00 515.00
C 286.75 510.42 290.99 506.03 296.00 504.00
C 289.50 495.82 285.70 489.71 280.00 482.00 Z"/>
</g>
<g fill="None" fill-opacity="0.0" stroke="#000000" stroke-opacity="0.05" stroke-width="0.3"><path d="
M 301.00 506.00 
C 300.14 505.13 299.44 504.84 298.00 505.00
C 291.52 508.16 289.43 514.22 287.00 519.00
C 284.32 519.24 284.59 515.53 282.00 515.00
C 280.48 517.12 283.33 519.79 281.00 522.00
C 305.43 526.20 334.85 532.18 358.00 525.00
C 356.43 513.83 347.10 504.33 335.22 502.78 C 323.35 501.23 312.19 508.15 303.00 519.00
C 306.80 512.81 300.36 513.73 296.00 512.00
C 296.20 510.16 297.75 505.29 301.00 506.00 Z"/>
</g>
<g fill="None" fill-opacity="0.0" stroke="#000000" stroke-opacity="0.31" stroke-width="0.3"><path d="
M 298.00 505.00 
C 299.44 504.84 300.14 505.13 301.00 506.00
C 303.15 507.35 297.93 508.80 299.00 511.00
C 302.84 513.28 304.47 510.22 307.00 508.00
C 303.30 507.23 302.22 503.72 298.00 505.00 Z"/>
</g>
<g fill="None" fill-opacity="0.0" stroke="#000000" stroke-opacity="0.05" stroke-width="0.3"><path d="
M 58.00 528.00 
C 57.80 528.02 57.03 528.79 57.00 529.00
C 57.97 530.82 57.23 532.03 58.00 534.00
C 50.97 523.42 38.29 512.28 26.23 515.21 C 14.17 518.14 6.00 526.04 5.00 538.00
C 18.23 540.38 44.08 538.41 59.99 537.01 C 75.90 535.60 89.00 537.15 94.00 523.00
C 85.96 527.20 76.11 527.17 69.00 521.00
C 74.02 529.51 62.74 527.50 58.00 528.00 Z"/>
</g>
<g fill="None" fill-opacity="0.0" stroke="#000000" stroke-opacity="0.14" stroke-width="0.3"><path d="
M 68.00 525.00 
C 66.57 517.77 59.28 520.89 56.00 523.00
C 58.81 529.51 63.17 523.60 68.00 525.00 Z"/>
</g>
<g fill="None" fill-opacity="0.0" stroke="#000000" stroke-opacity="0.54" stroke-width="0.3"><path d="
M 57.00 529.00 
C 57.03 528.79 57.80 528.02 58.00 528.00
C 55.97 526.93 55.70 522.88 53.00 523.00
C 53.58 524.86 54.86 528.29 57.00 529.00 Z"/>
</g>
<g fill="None" fill-opacity="0.0" stroke="#000000" stroke-opacity="0.22" stroke-width="0.3"><path d="
M 298.00 527.00 
C 292.39 527.77 286.64 526.32 281.00 525.00
C 280.97 529.83 286.65 530.53 290.00 529.00 C 293.35 527.47 299.24 534.74 298.00 527.00 Z"/>
</g>
<g fill="None" fill-opacity="0.0" stroke="#000000" stroke-opacity="0.21" stroke-width="0.3"><path d="
M 359.00 526.00 
C 345.03 536.28 318.00 530.76 302.00 528.00
C 299.36 525.19 299.99 531.40 300.00 533.00
C 311.26 532.76 323.60 532.65 334.00 533.00 C 344.40 533.36 356.57 536.25 359.00 526.00 Z"/>
</g>
<g fill="None" fill-opacity="0.0" stroke="#000000" stroke-opacity="0.19" stroke-width="0.3"><path d="
M 97.00 529.00 
C 88.08 534.77 83.72 538.95 74.08 539.93 C 64.44 540.91 50.82 543.39 39.00 543.00 C 27.18 542.61 12.03 543.83 3.00 539.00
C 3.68 541.42 4.67 542.79 5.00 545.00
C 16.42 544.85 33.18 546.35 45.00 546.00 C 56.81 545.65 70.27 543.58 79.77 541.79 C 89.27 540.00 98.36 539.62 97.00 529.00 Z"/>
</g>
<g fill="None" fill-opacity="0.0" stroke="#000000" stroke-opacity="0.22" stroke-width="0.3"><path d="
M 13.00 549.00 
L 33.00 549.00
C 33.00 548.50 33.00 548.00 33.00 548.00
C 26.40 548.00 19.58 548.49 13.00 548.00
C 13.00 548.00 13.00 548.50 13.00 549.00 Z"/>
</g>
<g fill="None" fill-opacity="0.0" stroke="#000000" stroke-opacity="0.70" stroke-width="0.3"><path d="
M 33.00 549.00 
L 44.00 549.00
C 44.00 548.50 44.00 548.00 44.00 548.00
C 40.33 548.00 36.67 548.00 33.00 548.00
C 33.00 548.00 33.00 548.50 33.00 549.00 Z"/>
</g>
<g fill="None" fill-opacity="0.0" stroke="#000000" stroke-opacity="0.22" stroke-width="0.3"><path d="
M 44.00 549.00 
L 57.00 549.00
C 57.00 549.00 56.94 548.01 57.00 548.00
C 52.71 548.29 48.30 548.00 44.00 548.00
C 44.00 548.00 44.00 548.50 44.00 549.00 Z"/>
</g>
<g fill="#000000" fill-opacity="0.00" stroke="None">
<path d="
M 0.00 549.00 
L 13.00 549.00
C 13.00 548.50 13.00 548.00 13.00 548.00
C 3.47 547.30 2.13 548.08 2.00 538.00 C 1.87 527.92 9.53 518.80 18.25 514.81 C 26.98 510.82 41.69 509.44 48.30 518.70 C 54.91 527.95 57.57 515.42 65.00 518.00
C 61.33 508.13 57.32 492.25 47.08 486.87 C 36.85 481.49 28.03 472.86 19.10 461.90 C 10.17 450.94 5.67 432.81 18.92 426.87 C 32.17 420.93 35.96 419.64 48.00 410.00
C 37.26 409.55 43.15 394.48 44.13 388.08 C 45.11 381.69 56.20 377.39 58.75 369.75 C 61.30 362.10 58.09 348.42 60.97 340.97 C 63.86 333.53 61.56 325.68 65.00 318.00
C 62.78 318.68 62.45 319.68 60.00 320.00
C 60.12 326.86 56.70 331.08 52.00 337.00
C 35.33 334.09 23.01 330.69 9.75 317.25 C -3.51 303.81 12.74 285.91 28.22 277.22 C 43.71 268.54 53.99 244.91 69.00 236.00
C 59.09 223.15 50.12 211.48 40.25 198.75 C 30.38 186.01 21.96 172.71 12.25 160.75 C 2.55 148.78 16.11 128.24 31.00 131.00
C 33.56 136.40 38.89 139.51 41.00 144.00
C 42.01 145.17 42.22 145.78 43.00 147.00
C 45.67 151.18 47.82 153.26 50.00 156.00
C 51.19 117.82 53.17 93.16 66.80 63.75 C 80.43 34.35 109.94 20.26 135.25 11.20 C 160.56 2.14 203.07 -2.24 230.25 7.19 C 257.43 16.63 274.33 45.03 283.26 70.75 C 292.20 96.48 295.54 130.70 302.00 159.00
C 309.94 149.72 317.30 151.39 321.97 160.03 C 326.64 168.68 327.19 173.63 321.61 181.75 C 316.03 189.88 308.62 194.51 301.25 201.25 C 293.88 207.99 285.41 215.73 279.00 223.00
C 299.72 221.69 320.09 215.28 334.70 211.65 C 349.30 208.02 359.84 192.16 375.00 207.00
C 388.64 202.06 406.55 204.83 421.08 202.08 C 435.61 199.33 453.98 199.61 471.00 199.00 C 488.02 198.39 503.79 199.81 519.00 198.00
L 519.00 0.00
L 0.00 0.00
L 0.00 549.00 Z"/>
</g>
<g fill="#000000" fill-opacity="0.85" stroke="None">
<path d="
M 43.00 147.00 
C 42.95 147.18 41.06 148.99 41.00 149.00
C 43.64 150.52 47.48 157.46 49.00 160.00
C 49.19 160.32 52.16 164.41 52.00 164.00
C 53.35 144.15 55.19 119.64 58.92 101.92 C 62.65 84.20 64.77 73.10 73.92 57.92 C 83.07 42.75 97.59 31.13 110.30 25.29 C 123.02 19.44 136.13 14.40 151.23 10.79 C 166.33 7.17 197.17 1.96 214.69 6.35 C 232.22 10.75 242.13 14.32 255.25 26.75 C 268.37 39.18 274.76 57.11 279.64 70.70 C 284.52 84.29 290.65 101.97 290.78 119.22 C 290.92 136.47 307.37 158.52 290.00 172.00
C 301.89 146.04 278.36 121.93 256.75 113.24 C 235.15 104.55 202.32 101.82 177.25 108.26 C 152.19 114.70 136.94 123.09 114.90 138.90 C 92.86 154.71 73.40 181.18 58.00 199.00
C 57.30 199.91 57.82 200.62 57.00 202.00
C 58.26 201.57 61.93 203.44 64.00 202.00
C 64.52 207.79 71.93 209.97 73.00 216.00
C 75.70 215.12 81.57 216.00 77.00 219.00
C 81.18 220.20 85.34 226.78 89.00 230.00
C 82.46 230.80 77.61 232.27 72.00 235.00
C 71.46 233.34 69.44 232.67 69.00 231.00
C 67.96 230.20 67.67 230.95 66.00 231.00
C 65.24 228.71 65.19 226.19 64.00 224.00
C 61.38 218.65 55.09 214.28 54.00 209.00
C 53.51 208.49 50.37 209.51 50.26 207.74 C 50.15 205.98 49.73 204.56 49.00 203.00
C 46.62 197.92 37.72 191.77 37.00 187.00
C 37.54 187.47 34.25 188.46 34.25 186.74 C 34.26 185.02 33.78 183.47 33.00 182.00
C 30.36 177.01 26.04 173.06 24.00 169.00
C 22.39 167.91 21.86 168.91 20.00 169.00
C 20.00 167.00 20.00 165.00 20.00 163.00
C 18.74 159.63 14.15 156.63 12.00 154.00
C 10.46 139.35 28.28 126.25 36.00 143.00
C 37.94 144.58 40.41 143.71 41.00 144.00
C 38.89 139.51 33.56 136.40 31.00 131.00
C 16.11 128.24 2.55 148.78 12.25 160.75 C 21.96 172.71 30.38 186.01 40.25 198.75 C 50.12 211.48 59.09 223.15 69.00 236.00
C 53.99 244.91 43.71 268.54 28.22 277.22 C 12.74 285.91 -3.51 303.81 9.75 317.25 C 23.01 330.69 35.33 334.09 52.00 337.00
C 56.70 331.08 60.12 326.86 60.00 320.00
C 62.45 319.68 62.78 318.68 65.00 318.00
C 61.56 325.68 63.86 333.53 60.97 340.97 C 58.09 348.42 61.30 362.10 58.75 369.75 C 56.20 377.39 45.11 381.69 44.13 388.08 C 43.15 394.48 37.26 409.55 48.00 410.00
C 35.96 419.64 32.17 420.93 18.92 426.87 C 5.67 432.81 10.17 450.94 19.10 461.90 C 28.03 472.86 36.85 481.49 47.08 486.87 C 57.32 492.25 61.33 508.13 65.00 518.00
C 57.57 515.42 54.91 527.95 48.30 518.70 C 41.69 509.44 26.98 510.82 18.25 514.81 C 9.53 518.80 1.87 527.92 2.00 538.00 C 2.13 548.08 3.47 547.30 13.00 548.00
C 19.58 548.49 26.40 548.00 33.00 548.00
C 36.67 548.00 40.33 548.00 44.00 548.00
C 48.30 548.00 52.71 548.29 57.00 548.00
C 73.84 546.85 88.36 544.33 100.00 539.00
C 101.88 531.57 97.98 525.97 96.00 519.00
C 89.84 516.90 86.76 507.76 84.87 502.08 C 82.98 496.40 79.18 488.29 78.08 481.92 C 76.98 475.55 76.55 465.08 79.19 457.75 C 81.84 450.42 90.07 448.31 95.75 444.61 C 101.44 440.90 113.42 441.35 123.00 441.00 C 132.58 440.65 146.42 439.94 154.25 442.76 C 162.07 445.57 167.28 444.85 173.77 448.57 C 180.26 452.30 184.96 451.39 191.25 455.19 C 197.55 458.99 201.45 461.06 208.75 464.39 C 216.06 467.72 215.88 469.98 226.08 474.92 C 236.27 479.86 252.24 489.61 262.25 496.80 C 272.25 503.99 271.03 508.05 281.00 513.00
C 276.80 518.28 280.94 525.44 279.00 531.00
C 287.74 531.01 296.47 535.91 304.69 536.31 C 312.92 536.70 329.97 536.12 338.00 536.00 C 346.03 535.88 357.68 537.55 360.75 531.75 C 363.83 525.95 358.62 514.45 354.61 510.25 C 350.59 506.04 344.61 499.50 338.70 499.29 C 332.80 499.08 321.04 498.71 317.23 503.58 C 313.42 508.45 302.29 503.48 297.00 502.00
C 293.29 492.92 287.02 484.95 279.00 477.00
C 281.48 460.36 269.23 450.27 258.77 438.23 C 248.31 426.19 234.76 415.59 231.00 403.00
C 237.43 404.51 240.91 407.06 249.00 408.00
C 249.40 394.61 248.24 379.77 241.09 371.90 C 233.95 364.03 232.78 353.78 225.43 346.23 C 218.08 338.69 220.14 321.97 222.32 311.32 C 224.50 300.67 235.97 292.09 243.25 285.81 C 250.53 279.53 258.27 276.80 265.75 272.74 C 273.23 268.68 281.06 267.44 290.23 264.79 C 299.40 262.13 309.55 259.27 319.70 257.36 C 329.85 255.44 341.36 253.97 351.23 251.79 C 361.10 249.60 368.80 246.09 375.00 235.00
C 386.06 237.71 390.06 227.57 401.08 230.07 C 412.09 232.57 409.00 248.61 418.23 249.21 C 427.46 249.82 442.72 248.69 449.00 254.00
C 450.79 252.41 452.20 250.62 454.00 249.00
C 451.19 245.09 455.28 240.50 452.00 237.00
C 459.54 235.11 466.80 225.49 462.00 218.00
C 483.39 215.31 503.05 216.28 519.00 204.00
L 519.00 198.00
C 503.79 199.81 488.02 198.39 471.00 199.00 C 453.98 199.61 435.61 199.33 421.08 202.08 C 406.55 204.83 388.64 202.06 375.00 207.00
C 359.84 192.16 349.30 208.02 334.70 211.65 C 320.09 215.28 299.72 221.69 279.00 223.00
C 285.41 215.73 293.88 207.99 301.25 201.25 C 308.62 194.51 316.03 189.88 321.61 181.75 C 327.19 173.63 326.64 168.68 321.97 160.03 C 317.30 151.39 309.94 149.72 302.00 159.00
C 295.54 130.70 292.20 96.48 283.26 70.75 C 274.33 45.03 257.43 16.63 230.25 7.19 C 203.07 -2.24 160.56 2.14 135.25 11.20 C 109.94 20.26 80.43 34.35 66.80 63.75 C 53.17 93.16 51.19 117.82 50.00 156.00
C 47.82 153.26 45.67 151.18 43.00 147.00
M 261.00 121.00 
C 255.32 122.56 248.04 130.60 245.81 135.25 C 243.57 139.90 240.00 136.88 238.70 141.70 C 237.39 146.51 229.94 139.86 229.08 145.08 C 228.23 150.31 237.90 145.92 240.00 149.00
C 235.93 152.48 236.67 158.29 237.00 165.00
C 235.35 164.18 232.76 162.02 232.00 165.00
C 237.62 166.72 244.43 173.68 252.00 168.00
C 246.74 167.90 242.28 166.87 238.00 166.00
C 238.48 153.76 244.13 142.72 255.00 138.00
C 247.88 145.20 245.37 163.36 260.00 165.00
C 260.75 168.84 254.28 165.06 255.00 169.00
C 275.97 171.67 277.05 138.76 259.00 134.00
C 263.63 129.27 272.58 137.15 274.00 130.00
C 284.21 136.05 290.04 150.80 279.75 158.75 C 269.47 166.70 260.59 170.40 252.75 174.19 C 244.91 177.98 234.18 184.75 224.00 181.00
C 222.29 177.03 224.12 167.80 221.00 164.00
C 220.96 171.11 219.31 179.05 224.00 184.00
C 211.23 185.58 192.89 186.29 179.00 186.00 C 165.11 185.71 154.40 183.41 143.25 180.74 C 132.09 178.06 127.13 176.01 116.92 172.08 C 106.71 168.14 96.94 155.46 110.25 148.25 C 123.55 141.03 124.23 132.61 139.00 129.00
C 138.52 131.46 136.34 130.95 134.00 132.00
C 136.16 136.17 145.28 131.85 148.25 134.19 C 151.22 136.53 156.71 138.47 161.00 140.00
C 155.20 140.45 151.96 146.04 147.70 147.70 C 143.43 149.36 139.12 161.36 137.00 154.00
C 136.81 178.34 171.48 182.86 191.00 173.00
C 183.89 166.38 188.68 155.27 183.00 148.00
C 187.41 149.59 191.95 147.48 194.92 145.87 C 197.88 144.26 204.59 144.79 203.00 139.00
C 191.65 143.23 180.34 137.05 173.25 132.61 C 166.16 128.16 149.96 124.77 140.00 130.00
C 170.83 104.77 226.28 104.62 261.00 121.00
M 262.00 124.00 
C 261.95 126.99 267.97 125.78 268.00 130.00
C 258.26 126.02 253.61 135.94 246.00 140.00
C 250.23 134.06 254.19 125.26 262.00 124.00
M 191.00 144.00 
C 170.60 149.81 162.84 132.22 144.00 132.00
C 152.61 127.01 164.72 132.25 170.92 135.13 C 177.12 138.01 182.53 142.17 191.00 144.00
M 263.00 139.00 
C 270.23 142.95 268.44 164.19 259.33 161.67 C 250.21 159.14 253.25 143.13 257.00 139.00
C 259.19 139.87 260.75 139.73 263.00 139.00
M 166.00 144.00 
C 156.33 149.20 152.80 165.82 161.00 174.00
C 153.17 173.96 137.77 165.68 141.58 157.23 C 145.38 148.78 158.60 139.47 166.00 144.00
M 166.00 173.00 
C 160.05 165.94 158.16 156.36 164.78 149.78 C 171.39 143.19 182.51 147.39 183.02 158.03 C 183.53 168.66 176.94 173.94 166.00 173.00
M 288.00 154.00 
C 290.77 182.94 276.56 205.57 257.25 227.25 C 237.94 248.92 214.13 258.19 187.00 257.00 C 159.87 255.81 140.48 247.13 120.70 239.29 C 100.92 231.44 82.13 222.75 66.00 198.00
C 74.38 183.90 85.18 170.00 99.00 158.00
C 110.16 179.89 130.78 184.10 153.23 188.77 C 175.67 193.44 213.81 190.98 233.75 184.74 C 253.70 178.49 272.18 173.33 288.00 154.00
M 312.00 186.00 
C 311.60 191.63 310.81 189.92 308.00 191.00
C 305.22 192.06 302.55 194.24 301.00 197.00
C 299.33 196.76 300.83 194.15 299.00 194.00
C 300.58 202.25 296.53 202.07 292.00 205.00
C 290.45 206.33 289.16 207.33 288.00 209.00
C 285.40 212.75 283.21 213.36 281.00 215.00
C 279.40 217.73 276.21 219.67 276.00 223.00
C 273.00 223.00 270.00 223.00 267.00 223.00
C 271.05 216.38 274.86 212.77 278.00 206.00
C 277.26 205.11 276.50 204.01 276.00 203.00
C 277.14 202.07 278.55 201.92 280.00 202.00
C 283.37 198.45 285.17 190.22 286.00 187.00
C 286.66 184.41 287.16 183.01 288.00 181.00
C 288.39 180.08 288.41 179.57 288.00 178.00
C 293.21 177.07 295.37 171.91 299.00 169.00
C 300.04 167.20 298.34 168.15 301.00 166.00
C 306.12 161.86 309.45 155.42 315.00 155.00
C 323.98 163.35 324.42 178.99 312.00 186.00
M 184.00 171.00 
C 184.09 177.59 177.31 173.67 184.00 171.00
M 517.00 203.00 
C 503.27 210.33 487.24 212.20 470.97 214.97 C 454.71 217.75 433.85 213.23 425.00 228.00
C 427.96 228.45 428.47 225.05 431.00 225.00
C 430.72 228.58 430.07 231.65 432.00 235.00
C 439.76 233.40 445.38 237.16 450.00 241.00
C 448.48 243.03 448.71 245.96 450.00 248.00
C 439.93 246.88 427.80 244.89 416.00 245.00
C 415.89 238.16 404.73 228.63 398.00 224.00
C 399.47 218.47 399.04 206.77 407.10 206.09 C 415.16 205.42 424.69 205.11 432.25 203.24 C 439.80 201.38 450.84 202.00 460.00 202.00 C 469.16 202.00 481.15 202.55 491.00 203.00 C 500.85 203.45 510.63 197.81 517.00 203.00
M 365.00 203.00 
C 365.48 205.46 367.66 204.95 370.00 206.00
C 366.85 212.43 364.88 214.69 362.69 221.70 C 360.51 228.71 364.51 235.14 370.00 238.00
C 356.12 250.92 333.55 250.44 315.92 254.92 C 298.28 259.40 279.77 260.96 265.75 268.19 C 251.72 275.42 237.30 282.09 224.00 299.00
C 225.20 283.94 231.11 272.09 235.19 259.75 C 239.27 247.41 253.89 238.23 264.00 225.00
C 307.16 228.16 333.25 213.85 365.00 203.00
M 403.00 207.00 
C 395.31 211.55 393.36 220.93 398.00 228.00
C 387.12 227.50 378.04 231.84 368.00 234.00
C 361.34 225.78 368.44 216.69 371.00 209.00
C 380.93 210.52 392.23 205.37 403.00 207.00
M 461.00 220.00 
C 459.92 222.25 460.34 224.38 461.00 227.00
C 456.30 231.40 451.38 237.90 445.00 233.00
C 447.37 231.51 448.45 227.05 452.00 227.00
C 451.01 224.63 452.55 221.68 451.00 219.00
C 455.53 220.84 457.41 217.46 461.00 220.00
M 449.00 220.00 
C 451.76 226.80 441.14 232.47 436.00 230.00
C 432.96 227.42 437.93 225.34 436.00 223.00
C 440.58 222.05 444.37 220.94 449.00 220.00
M 96.00 233.00 
C 92.27 240.72 88.31 251.84 84.20 259.25 C 80.09 266.66 79.48 281.68 68.00 283.00
C 60.77 267.19 38.16 276.19 31.00 287.00
C 41.81 282.72 54.16 273.06 63.00 283.00
C 53.03 284.67 44.93 287.75 38.10 297.10 C 31.27 306.45 41.13 323.79 53.00 324.00
C 48.09 338.19 34.05 327.90 23.92 324.08 C 13.80 320.25 1.63 306.01 11.09 296.08 C 20.54 286.16 27.97 280.20 38.25 272.25 C 48.54 264.31 55.50 250.97 64.25 243.20 C 73.00 235.43 83.08 230.96 96.00 233.00
M 236.00 250.00 
C 233.22 258.95 227.67 265.06 225.23 274.23 C 222.78 283.40 220.22 289.07 218.08 299.08 C 215.94 309.10 216.26 321.32 216.00 333.00 C 215.74 344.68 215.85 361.82 216.78 372.22 C 217.70 382.62 204.05 385.64 198.75 389.19 C 193.44 392.74 184.92 395.27 177.25 397.26 C 169.58 399.26 158.72 402.18 149.00 403.00 C 139.27 403.82 122.83 404.20 112.93 402.93 C 103.02 401.66 95.49 398.84 87.75 396.81 C 80.01 394.78 72.76 388.85 68.61 380.25 C 64.45 371.65 66.28 356.73 66.00 345.00 C 65.72 333.27 68.13 325.64 70.00 315.00
C 76.08 321.73 82.33 316.44 88.67 316.33 C 95.02 316.23 100.12 315.60 106.00 313.00
C 112.86 331.26 146.60 315.91 142.00 299.00
C 148.89 301.56 153.78 291.39 148.00 287.00
C 158.58 284.98 155.25 271.45 148.92 270.94 C 142.59 270.42 140.40 262.26 133.30 265.31 C 126.21 268.36 121.22 267.54 114.92 270.06 C 108.61 272.59 103.84 274.41 97.25 276.39 C 90.66 278.38 87.31 281.20 79.00 284.00
C 85.90 264.55 89.58 252.10 100.00 235.00
C 117.35 246.06 134.30 250.10 157.75 257.40 C 181.20 264.70 217.78 263.91 236.00 250.00
M 136.00 266.00 
C 142.39 270.42 144.95 272.34 152.00 274.00
C 153.35 280.60 150.03 284.18 145.00 285.00
C 143.08 281.03 139.53 276.71 135.00 276.00
C 137.18 282.46 157.78 293.78 140.00 298.00
C 138.71 293.13 132.66 291.57 129.00 289.00
C 133.48 294.85 141.47 299.33 140.00 307.00
C 137.37 307.13 137.06 309.07 134.00 309.00
C 130.48 303.01 126.37 302.13 121.00 300.00
C 122.68 307.03 132.01 305.77 132.00 313.00
C 127.49 319.16 119.71 315.88 113.00 318.00
C 111.52 316.49 108.88 315.24 108.00 313.00
C 112.98 311.09 115.98 311.46 121.00 313.00
C 115.18 301.59 104.56 312.43 97.70 312.71 C 90.85 312.98 76.77 317.66 72.30 309.70 C 67.84 301.73 74.28 291.30 80.25 287.80 C 86.21 284.31 90.60 282.72 97.25 280.20 C 103.90 277.68 109.29 276.10 116.25 273.81 C 123.21 271.51 128.28 268.05 136.00 266.00
M 73.00 290.00 
C 63.50 295.92 70.79 308.48 64.00 316.00
C 54.91 316.89 48.56 322.89 42.69 312.31 C 36.83 301.72 43.65 295.69 50.25 291.81 C 56.86 287.94 66.28 282.01 73.00 290.00
M 222.00 345.00 
C 228.69 363.74 247.20 376.14 244.00 398.00
C 239.24 392.20 237.84 387.10 234.61 382.25 C 231.37 377.39 225.47 372.55 222.92 367.08 C 220.36 361.62 218.72 350.08 222.00 345.00
M 61.00 373.00 
C 61.64 377.58 62.85 379.28 65.00 384.00
C 57.68 389.38 51.20 398.09 45.00 405.00
C 44.50 391.00 51.12 381.55 61.00 373.00
M 243.00 403.00 
C 238.08 401.84 235.81 398.18 230.00 399.00
C 227.58 390.77 223.52 386.23 217.00 383.00
C 220.40 381.57 223.41 378.03 225.00 375.00
C 232.42 382.59 237.33 392.03 243.00 403.00
M 66.00 386.00 
C 66.52 389.40 69.76 390.48 70.00 394.00
C 59.63 388.86 57.69 406.81 48.00 406.00
C 54.56 398.77 60.29 392.28 66.00 386.00
M 268.00 489.00 
C 243.07 487.18 228.94 470.86 210.75 461.81 C 192.55 452.76 181.94 445.43 160.75 439.81 C 139.57 434.18 102.08 434.54 83.00 443.00
C 82.71 447.56 87.87 442.00 89.00 445.00
C 81.81 447.16 78.04 456.00 74.87 459.92 C 71.70 463.84 75.09 474.99 68.92 478.92 C 62.75 482.84 55.02 484.35 46.92 482.07 C 38.83 479.79 37.05 472.82 30.25 467.75 C 23.45 462.69 21.07 456.14 16.68 450.32 C 12.29 444.50 13.70 436.47 19.25 431.25 C 24.80 426.02 30.11 427.21 35.92 422.87 C 41.73 418.53 52.91 417.64 50.00 411.00
C 58.95 408.82 60.02 393.04 70.00 397.00
C 68.95 406.13 77.74 406.89 82.75 409.39 C 87.77 411.90 94.16 414.99 101.75 416.26 C 109.33 417.52 120.33 419.21 130.02 419.98 C 139.72 420.74 152.90 417.69 160.75 416.74 C 168.59 415.79 175.79 413.86 182.25 411.81 C 188.72 409.77 195.10 406.78 200.77 403.43 C 206.43 400.08 215.24 393.19 216.00 386.00
C 229.22 394.07 227.32 407.02 235.70 417.30 C 244.09 427.57 256.74 441.23 265.70 451.30 C 274.66 461.37 283.00 478.59 268.00 489.00
M 211.00 388.00 
C 202.59 399.36 194.78 404.06 184.10 407.12 C 173.42 410.17 162.62 414.29 149.00 415.00 C 135.37 415.71 112.98 413.98 101.92 411.08 C 90.86 408.18 79.61 409.11 74.00 396.00
C 94.15 406.16 120.09 410.42 148.22 408.22 C 176.35 406.02 188.96 399.51 211.00 388.00
M 76.00 480.00 
C 78.35 496.29 82.58 505.60 91.00 522.00
C 81.62 526.16 74.17 522.36 67.00 517.00
C 66.83 505.06 59.94 498.47 53.00 488.00
C 63.95 488.19 67.43 485.54 76.00 480.00
M 280.00 482.00 
C 285.70 489.71 289.50 495.82 296.00 504.00
C 290.99 506.03 286.75 510.42 286.00 515.00
C 277.75 506.76 270.90 500.56 263.00 493.00
C 271.39 493.12 274.65 488.16 280.00 482.00
M 298.00 505.00 
C 302.22 503.72 303.30 507.23 307.00 508.00
C 304.47 510.22 302.84 513.28 299.00 511.00
C 297.93 508.80 303.15 507.35 301.00 506.00
C 297.75 505.29 296.20 510.16 296.00 512.00
C 300.36 513.73 306.80 512.81 303.00 519.00
C 312.19 508.15 323.35 501.23 335.22 502.78 C 347.10 504.33 356.43 513.83 358.00 525.00
C 334.85 532.18 305.43 526.20 281.00 522.00
C 283.33 519.79 280.48 517.12 282.00 515.00
C 284.59 515.53 284.32 519.24 287.00 519.00
C 289.43 514.22 291.52 508.16 298.00 505.00
M 57.00 529.00 
C 54.86 528.29 53.58 524.86 53.00 523.00
C 55.70 522.88 55.97 526.93 58.00 528.00
C 62.74 527.50 74.02 529.51 69.00 521.00
C 76.11 527.17 85.96 527.20 94.00 523.00
C 89.00 537.15 75.90 535.60 59.99 537.01 C 44.08 538.41 18.23 540.38 5.00 538.00
C 6.00 526.04 14.17 518.14 26.23 515.21 C 38.29 512.28 50.97 523.42 58.00 534.00
C 57.23 532.03 57.97 530.82 57.00 529.00
M 68.00 525.00 
C 63.17 523.60 58.81 529.51 56.00 523.00
C 59.28 520.89 66.57 517.77 68.00 525.00
M 298.00 527.00 
C 299.24 534.74 293.35 527.47 290.00 529.00 C 286.65 530.53 280.97 529.83 281.00 525.00
C 286.64 526.32 292.39 527.77 298.00 527.00
M 359.00 526.00 
C 356.57 536.25 344.40 533.36 334.00 533.00 C 323.60 532.65 311.26 532.76 300.00 533.00
C 299.99 531.40 299.36 525.19 302.00 528.00
C 318.00 530.76 345.03 536.28 359.00 526.00
M 97.00 529.00 
C 98.36 539.62 89.27 540.00 79.77 541.79 C 70.27 543.58 56.81 545.65 45.00 546.00 C 33.18 546.35 16.42 544.85 5.00 545.00
C 4.67 542.79 3.68 541.42 3.00 539.00
C 12.03 543.83 27.18 542.61 39.00 543.00 C 50.82 543.39 64.44 540.91 74.08 539.93 C 83.72 538.95 88.08 534.77 97.00 529.00 Z"/>
</g>
<g fill="#000000" fill-opacity="0.01" stroke="None">
<path d="
M 52.00 164.00 
C 51.82 166.65 52.10 169.34 52.00 172.00
C 51.65 181.05 48.43 192.61 56.00 198.00
C 55.33 197.52 58.99 198.97 58.00 199.00
C 73.40 181.18 92.86 154.71 114.90 138.90 C 136.94 123.09 152.19 114.70 177.25 108.26 C 202.32 101.82 235.15 104.55 256.75 113.24 C 278.36 121.93 301.89 146.04 290.00 172.00
C 307.37 158.52 290.92 136.47 290.78 119.22 C 290.65 101.97 284.52 84.29 279.64 70.70 C 274.76 57.11 268.37 39.18 255.25 26.75 C 242.13 14.32 232.22 10.75 214.69 6.35 C 197.17 1.96 166.33 7.17 151.23 10.79 C 136.13 14.40 123.02 19.44 110.30 25.29 C 97.59 31.13 83.07 42.75 73.92 57.92 C 64.77 73.10 62.65 84.20 58.92 101.92 C 55.19 119.64 53.35 144.15 52.00 164.00 Z"/>
</g>
<g fill="#000000" fill-opacity="0.04" stroke="None">
<path d="
M 261.00 121.00 
C 226.28 104.62 170.83 104.77 140.00 130.00
C 149.96 124.77 166.16 128.16 173.25 132.61 C 180.34 137.05 191.65 143.23 203.00 139.00
C 204.59 144.79 197.88 144.26 194.92 145.87 C 191.95 147.48 187.41 149.59 183.00 148.00
C 188.68 155.27 183.89 166.38 191.00 173.00
C 171.48 182.86 136.81 178.34 137.00 154.00
C 139.12 161.36 143.43 149.36 147.70 147.70 C 151.96 146.04 155.20 140.45 161.00 140.00
C 156.71 138.47 151.22 136.53 148.25 134.19 C 145.28 131.85 136.16 136.17 134.00 132.00
C 136.34 130.95 138.52 131.46 139.00 129.00
C 124.23 132.61 123.55 141.03 110.25 148.25 C 96.94 155.46 106.71 168.14 116.92 172.08 C 127.13 176.01 132.09 178.06 143.25 180.74 C 154.40 183.41 165.11 185.71 179.00 186.00 C 192.89 186.29 211.23 185.58 224.00 184.00
C 219.31 179.05 220.96 171.11 221.00 164.00
C 224.12 167.80 222.29 177.03 224.00 181.00
C 234.18 184.75 244.91 177.98 252.75 174.19 C 260.59 170.40 269.47 166.70 279.75 158.75 C 290.04 150.80 284.21 136.05 274.00 130.00
C 272.58 137.15 263.63 129.27 259.00 134.00
C 277.05 138.76 275.97 171.67 255.00 169.00
C 254.28 165.06 260.75 168.84 260.00 165.00
C 245.37 163.36 247.88 145.20 255.00 138.00
C 244.13 142.72 238.48 153.76 238.00 166.00
C 242.28 166.87 246.74 167.90 252.00 168.00
C 244.43 173.68 237.62 166.72 232.00 165.00
C 232.76 162.02 235.35 164.18 237.00 165.00
C 236.67 158.29 235.93 152.48 240.00 149.00
C 237.90 145.92 228.23 150.31 229.08 145.08 C 229.94 139.86 237.39 146.51 238.70 141.70 C 240.00 136.88 243.57 139.90 245.81 135.25 C 248.04 130.60 255.32 122.56 261.00 121.00
M 244.00 176.00 
C 238.72 174.11 235.92 174.01 232.00 170.00
C 236.63 168.73 242.58 171.16 244.00 176.00
M 194.00 173.00 
C 192.85 177.87 187.13 180.08 182.00 182.00
C 185.15 178.08 189.90 175.57 194.00 173.00 Z"/>
</g>
<g fill="#000000" fill-opacity="0.23" stroke="None">
<path d="
M 262.00 124.00 
C 254.19 125.26 250.23 134.06 246.00 140.00
C 253.61 135.94 258.26 126.02 268.00 130.00
C 267.97 125.78 261.95 126.99 262.00 124.00 Z"/>
</g>
<g fill="#000000" fill-opacity="0.17" stroke="None">
<path d="
M 191.00 144.00 
C 182.53 142.17 177.12 138.01 170.92 135.13 C 164.72 132.25 152.61 127.01 144.00 132.00
C 162.84 132.22 170.60 149.81 191.00 144.00 Z"/>
</g>
<g fill="#000000" fill-opacity="0.04" stroke="None">
<path d="
M 20.00 163.00 
C 20.36 158.68 23.76 153.87 25.92 149.92 C 28.08 145.97 36.66 146.85 36.00 143.00
C 28.28 126.25 10.46 139.35 12.00 154.00
C 14.15 156.63 18.74 159.63 20.00 163.00 Z"/>
</g>
<g fill="#000000" fill-opacity="0.07" stroke="None">
<path d="
M 263.00 139.00 
C 260.75 139.73 259.19 139.87 257.00 139.00
C 253.25 143.13 250.21 159.14 259.33 161.67 C 268.44 164.19 270.23 142.95 263.00 139.00 Z"/>
</g>
<g fill="#000000" fill-opacity="0.07" stroke="None">
<path d="
M 166.00 144.00 
C 158.60 139.47 145.38 148.78 141.58 157.23 C 137.77 165.68 153.17 173.96 161.00 174.00
C 152.80 165.82 156.33 149.20 166.00 144.00 Z"/>
</g>
<g fill="#000000" fill-opacity="0.67" stroke="None">
<path d="
M 20.00 163.00 
C 20.00 165.00 20.00 167.00 20.00 169.00
C 21.86 168.91 22.39 167.91 24.00 169.00
C 21.02 163.06 23.80 160.69 26.31 154.31 C 28.81 147.92 36.86 149.95 41.00 149.00
C 41.06 148.99 42.95 147.18 43.00 147.00
C 42.22 145.78 42.01 145.17 41.00 144.00
C 40.41 143.71 37.94 144.58 36.00 143.00
C 36.66 146.85 28.08 145.97 25.92 149.92 C 23.76 153.87 20.36 158.68 20.00 163.00 Z"/>
</g>
<g fill="#000000" fill-opacity="0.05" stroke="None">
<path d="
M 166.00 173.00 
C 176.94 173.94 183.53 168.66 183.02 158.03 C 182.51 147.39 171.39 143.19 164.78 149.78 C 158.16 156.36 160.05 165.94 166.00 173.00 Z"/>
</g>
<g fill="#000000" fill-opacity="0.02" stroke="None">
<path d="
M 24.00 169.00 
C 26.04 173.06 30.36 177.01 33.00 182.00
C 33.55 175.43 41.59 165.56 48.00 164.00
C 48.28 162.72 47.24 160.50 49.00 160.00
C 47.48 157.46 43.64 150.52 41.00 149.00
C 36.86 149.95 28.81 147.92 26.31 154.31 C 23.80 160.69 21.02 163.06 24.00 169.00 Z"/>
</g>
<g fill="#000000" fill-opacity="0.01" stroke="None">
<path d="
M 288.00 154.00 
C 272.18 173.33 253.70 178.49 233.75 184.74 C 213.81 190.98 175.67 193.44 153.23 188.77 C 130.78 184.10 110.16 179.89 99.00 158.00
C 85.18 170.00 74.38 183.90 66.00 198.00
C 82.13 222.75 100.92 231.44 120.70 239.29 C 140.48 247.13 159.87 255.81 187.00 257.00 C 214.13 258.19 237.94 248.92 257.25 227.25 C 276.56 205.57 290.77 182.94 288.00 154.00 Z"/>
</g>
<g fill="#000000" fill-opacity="0.05" stroke="None">
<path d="
M 301.00 166.00 
C 308.38 166.16 312.40 180.37 312.00 186.00
C 324.42 178.99 323.98 163.35 315.00 155.00
C 309.45 155.42 306.12 161.86 301.00 166.00 Z"/>
</g>
<g fill="#000000" fill-opacity="0.65" stroke="None">
<path d="
M 33.00 182.00 
C 33.78 183.47 34.26 185.02 34.25 186.74 C 34.25 188.46 37.54 187.47 37.00 187.00
C 36.27 182.22 41.66 164.72 49.00 167.00
C 50.83 167.57 51.77 170.22 52.00 172.00
C 52.10 169.34 51.82 166.65 52.00 164.00
C 52.16 164.41 49.19 160.32 49.00 160.00
C 47.24 160.50 48.28 162.72 48.00 164.00
C 41.59 165.56 33.55 175.43 33.00 182.00 Z"/>
</g>
<g fill="#000000" fill-opacity="0.66" stroke="None">
<path d="
M 299.00 169.00 
C 300.59 172.26 306.36 172.54 307.30 176.70 C 308.25 180.85 310.82 186.77 308.00 191.00
C 310.81 189.92 311.60 191.63 312.00 186.00
C 312.40 180.37 308.38 166.16 301.00 166.00
C 298.34 168.15 300.04 167.20 299.00 169.00 Z"/>
</g>
<g fill="#000000" fill-opacity="0.07" stroke="None">
<path d="
M 37.00 187.00 
C 37.72 191.77 46.62 197.92 49.00 203.00
C 51.99 204.54 50.54 202.31 52.00 201.00
C 52.25 195.42 46.77 194.88 48.80 188.75 C 50.84 182.63 47.69 173.42 49.00 167.00
C 41.66 164.72 36.27 182.22 37.00 187.00 Z"/>
</g>
<g fill="#000000" fill-opacity="0.84" stroke="None">
<path d="
M 52.00 201.00 
C 52.68 200.39 55.47 198.08 56.00 198.00
C 48.43 192.61 51.65 181.05 52.00 172.00
C 51.77 170.22 50.83 167.57 49.00 167.00
C 47.69 173.42 50.84 182.63 48.80 188.75 C 46.77 194.88 52.25 195.42 52.00 201.00 Z"/>
</g>
<g fill="#000000" fill-opacity="0.75" stroke="None">
<path d="
M 244.00 176.00 
C 242.58 171.16 236.63 168.73 232.00 170.00
C 235.92 174.01 238.72 174.11 244.00 176.00 Z"/>
</g>
<g fill="#000000" fill-opacity="0.02" stroke="None">
<path d="
M 288.00 181.00 
C 292.80 184.57 297.78 187.64 299.00 194.00
C 300.83 194.15 299.33 196.76 301.00 197.00
C 302.55 194.24 305.22 192.06 308.00 191.00
C 310.82 186.77 308.25 180.85 307.30 176.70 C 306.36 172.54 300.59 172.26 299.00 169.00
C 295.37 171.91 293.21 177.07 288.00 178.00
C 288.41 179.57 288.39 180.08 288.00 181.00 Z"/>
</g>
<g fill="#000000" fill-opacity="0.46" stroke="None">
<path d="
M 184.00 171.00 
C 177.31 173.67 184.09 177.59 184.00 171.00 Z"/>
</g>
<g fill="#000000" fill-opacity="0.71" stroke="None">
<path d="
M 194.00 173.00 
C 189.90 175.57 185.15 178.08 182.00 182.00
C 187.13 180.08 192.85 177.87 194.00 173.00 Z"/>
</g>
<g fill="#000000" fill-opacity="0.67" stroke="None">
<path d="
M 286.00 187.00 
C 289.00 184.16 293.27 187.13 295.30 191.70 C 297.34 196.26 295.85 201.71 292.00 205.00
C 296.53 202.07 300.58 202.25 299.00 194.00
C 297.78 187.64 292.80 184.57 288.00 181.00
C 287.16 183.01 286.66 184.41 286.00 187.00 Z"/>
</g>
<g fill="#000000" fill-opacity="0.02" stroke="None">
<path d="
M 286.00 187.00 
C 285.17 190.22 283.37 198.45 280.00 202.00
C 282.57 202.51 284.98 207.62 285.00 210.00
C 286.28 210.53 286.86 209.03 288.00 209.00
C 289.16 207.33 290.45 206.33 292.00 205.00
C 295.85 201.71 297.34 196.26 295.30 191.70 C 293.27 187.13 289.00 184.16 286.00 187.00 Z"/>
</g>
<g fill="#000000" fill-opacity="0.69" stroke="None">
<path d="
M 52.00 201.00 
C 50.54 202.31 51.99 204.54 49.00 203.00
C 49.73 204.56 50.15 205.98 50.26 207.74 C 50.37 209.51 53.51 208.49 54.00 209.00
C 53.08 204.53 55.27 204.90 57.00 202.00
C 57.82 200.62 57.30 199.91 58.00 199.00
C 58.99 198.97 55.33 197.52 56.00 198.00
C 55.47 198.08 52.68 200.39 52.00 201.00 Z"/>
</g>
<g fill="#000000" fill-opacity="0.04" stroke="None">
<path d="
M 517.00 203.00 
C 510.63 197.81 500.85 203.45 491.00 203.00 C 481.15 202.55 469.16 202.00 460.00 202.00 C 450.84 202.00 439.80 201.38 432.25 203.24 C 424.69 205.11 415.16 205.42 407.10 206.09 C 399.04 206.77 399.47 218.47 398.00 224.00
C 404.73 228.63 415.89 238.16 416.00 245.00
C 427.80 244.89 439.93 246.88 450.00 248.00
C 448.71 245.96 448.48 243.03 450.00 241.00
C 445.38 237.16 439.76 233.40 432.00 235.00
C 430.07 231.65 430.72 228.58 431.00 225.00
C 428.47 225.05 427.96 228.45 425.00 228.00
C 433.85 213.23 454.71 217.75 470.97 214.97 C 487.24 212.20 503.27 210.33 517.00 203.00 Z"/>
</g>
<g fill="#000000" fill-opacity="0.05" stroke="None">
<path d="
M 54.00 209.00 
C 55.09 214.28 61.38 218.65 64.00 224.00
C 66.52 225.10 69.10 217.27 73.00 216.00
C 71.93 209.97 64.52 207.79 64.00 202.00
C 61.93 203.44 58.26 201.57 57.00 202.00
C 55.27 204.90 53.08 204.53 54.00 209.00 Z"/>
</g>
<g fill="#000000" fill-opacity="0.67" stroke="None">
<path d="
M 278.00 206.00 
C 281.19 209.88 284.35 209.30 281.00 215.00
C 283.21 213.36 285.40 212.75 288.00 209.00
C 286.86 209.03 286.28 210.53 285.00 210.00
C 284.98 207.62 282.57 202.51 280.00 202.00
C 278.55 201.92 277.14 202.07 276.00 203.00
C 276.50 204.01 277.26 205.11 278.00 206.00 Z"/>
</g>
<g fill="#000000" fill-opacity="0.02" stroke="None">
<path d="
M 365.00 203.00 
C 333.25 213.85 307.16 228.16 264.00 225.00
C 253.89 238.23 239.27 247.41 235.19 259.75 C 231.11 272.09 225.20 283.94 224.00 299.00
C 237.30 282.09 251.72 275.42 265.75 268.19 C 279.77 260.96 298.28 259.40 315.92 254.92 C 333.55 250.44 356.12 250.92 370.00 238.00
C 364.51 235.14 360.51 228.71 362.69 221.70 C 364.88 214.69 366.85 212.43 370.00 206.00
C 367.66 204.95 365.48 205.46 365.00 203.00 Z"/>
</g>
<g fill="#000000" fill-opacity="0.00" stroke="None">
<path d="
M 57.00 548.00 
C 56.94 548.01 57.00 549.00 57.00 549.00
L 519.00 549.00
L 519.00 204.00
C 503.05 216.28 483.39 215.31 462.00 218.00
C 466.80 225.49 459.54 235.11 452.00 237.00
C 455.28 240.50 451.19 245.09 454.00 249.00
C 452.20 250.62 450.79 252.41 449.00 254.00
C 442.72 248.69 427.46 249.82 418.23 249.21 C 409.00 248.61 412.09 232.57 401.08 230.07 C 390.06 227.57 386.06 237.71 375.00 235.00
C 368.80 246.09 361.10 249.60 351.23 251.79 C 341.36 253.97 329.85 255.44 319.70 257.36 C 309.55 259.27 299.40 262.13 290.23 264.79 C 281.06 267.44 273.23 268.68 265.75 272.74 C 258.27 276.80 250.53 279.53 243.25 285.81 C 235.97 292.09 224.50 300.67 222.32 311.32 C 220.14 321.97 218.08 338.69 225.43 346.23 C 232.78 353.78 233.95 364.03 241.09 371.90 C 248.24 379.77 249.40 394.61 249.00 408.00
C 240.91 407.06 237.43 404.51 231.00 403.00
C 234.76 415.59 248.31 426.19 258.77 438.23 C 269.23 450.27 281.48 460.36 279.00 477.00
C 287.02 484.95 293.29 492.92 297.00 502.00
C 302.29 503.48 313.42 508.45 317.23 503.58 C 321.04 498.71 332.80 499.08 338.70 499.29 C 344.61 499.50 350.59 506.04 354.61 510.25 C 358.62 514.45 363.83 525.95 360.75 531.75 C 357.68 537.55 346.03 535.88 338.00 536.00 C 329.97 536.12 312.92 536.70 304.69 536.31 C 296.47 535.91 287.74 531.01 279.00 531.00
C 280.94 525.44 276.80 518.28 281.00 513.00
C 271.03 508.05 272.25 503.99 262.25 496.80 C 252.24 489.61 236.27 479.86 226.08 474.92 C 215.88 469.98 216.06 467.72 208.75 464.39 C 201.45 461.06 197.55 458.99 191.25 455.19 C 184.96 451.39 180.26 452.30 173.77 448.57 C 167.28 444.85 162.07 445.57 154.25 442.76 C 146.42 439.94 132.58 440.65 123.00 441.00 C 113.42 441.35 101.44 440.90 95.75 444.61 C 90.07 448.31 81.84 450.42 79.19 457.75 C 76.55 465.08 76.98 475.55 78.08 481.92 C 79.18 488.29 82.98 496.40 84.87 502.08 C 86.76 507.76 89.84 516.90 96.00 519.00
C 97.98 525.97 101.88 531.57 100.00 539.00
C 88.36 544.33 73.84 546.85 57.00 548.00 Z"/>
</g>
<g fill="#000000" fill-opacity="0.10" stroke="None">
<path d="
M 281.00 215.00 
C 284.35 209.30 281.19 209.88 278.00 206.00
C 274.86 212.77 271.05 216.38 267.00 223.00
C 270.00 223.00 273.00 223.00 276.00 223.00
C 276.21 219.67 279.40 217.73 281.00 215.00 Z"/>
</g>
<g fill="#000000" fill-opacity="0.05" stroke="None">
<path d="
M 403.00 207.00 
C 392.23 205.37 380.93 210.52 371.00 209.00
C 368.44 216.69 361.34 225.78 368.00 234.00
C 378.04 231.84 387.12 227.50 398.00 228.00
C 393.36 220.93 395.31 211.55 403.00 207.00 Z"/>
</g>
<g fill="#000000" fill-opacity="0.67" stroke="None">
<path d="
M 73.00 216.00 
C 69.10 217.27 66.52 225.10 64.00 224.00
C 65.19 226.19 65.24 228.71 66.00 231.00
C 67.67 230.95 67.96 230.20 69.00 231.00
C 67.80 228.67 69.11 227.28 69.33 223.33 C 69.54 219.37 75.05 220.28 77.00 219.00
C 81.57 216.00 75.70 215.12 73.00 216.00 Z"/>
</g>
<g fill="#000000" fill-opacity="0.09" stroke="None">
<path d="
M 461.00 220.00 
C 457.41 217.46 455.53 220.84 451.00 219.00
C 452.55 221.68 451.01 224.63 452.00 227.00
C 448.45 227.05 447.37 231.51 445.00 233.00
C 451.38 237.90 456.30 231.40 461.00 227.00
C 460.34 224.38 459.92 222.25 461.00 220.00 Z"/>
</g>
<g fill="#000000" fill-opacity="0.06" stroke="None">
<path d="
M 69.00 231.00 
C 69.44 232.67 71.46 233.34 72.00 235.00
C 77.61 232.27 82.46 230.80 89.00 230.00
C 85.34 226.78 81.18 220.20 77.00 219.00
C 75.05 220.28 69.54 219.37 69.33 223.33 C 69.11 227.28 67.80 228.67 69.00 231.00 Z"/>
</g>
<g fill="#000000" fill-opacity="0.14" stroke="None">
<path d="
M 449.00 220.00 
C 444.37 220.94 440.58 222.05 436.00 223.00
C 437.93 225.34 432.96 227.42 436.00 230.00
C 441.14 232.47 451.76 226.80 449.00 220.00 Z"/>
</g>
<g fill="#000000" fill-opacity="0.04" stroke="None">
<path d="
M 96.00 233.00 
C 83.08 230.96 73.00 235.43 64.25 243.20 C 55.50 250.97 48.54 264.31 38.25 272.25 C 27.97 280.20 20.54 286.16 11.09 296.08 C 1.63 306.01 13.80 320.25 23.92 324.08 C 34.05 327.90 48.09 338.19 53.00 324.00
C 41.13 323.79 31.27 306.45 38.10 297.10 C 44.93 287.75 53.03 284.67 63.00 283.00
C 54.16 273.06 41.81 282.72 31.00 287.00
C 38.16 276.19 60.77 267.19 68.00 283.00
C 79.48 281.68 80.09 266.66 84.20 259.25 C 88.31 251.84 92.27 240.72 96.00 233.00 Z"/>
</g>
<g fill="#000000" fill-opacity="0.01" stroke="None">
<path d="
M 236.00 250.00 
C 217.78 263.91 181.20 264.70 157.75 257.40 C 134.30 250.10 117.35 246.06 100.00 235.00
C 89.58 252.10 85.90 264.55 79.00 284.00
C 87.31 281.20 90.66 278.38 97.25 276.39 C 103.84 274.41 108.61 272.59 114.92 270.06 C 121.22 267.54 126.21 268.36 133.30 265.31 C 140.40 262.26 142.59 270.42 148.92 270.94 C 155.25 271.45 158.58 284.98 148.00 287.00
C 153.78 291.39 148.89 301.56 142.00 299.00
C 146.60 315.91 112.86 331.26 106.00 313.00
C 100.12 315.60 95.02 316.23 88.67 316.33 C 82.33 316.44 76.08 321.73 70.00 315.00
C 68.13 325.64 65.72 333.27 66.00 345.00 C 66.28 356.73 64.45 371.65 68.61 380.25 C 72.76 388.85 80.01 394.78 87.75 396.81 C 95.49 398.84 103.02 401.66 112.93 402.93 C 122.83 404.20 139.27 403.82 149.00 403.00 C 158.72 402.18 169.58 399.26 177.25 397.26 C 184.92 395.27 193.44 392.74 198.75 389.19 C 204.05 385.64 217.70 382.62 216.78 372.22 C 215.85 361.82 215.74 344.68 216.00 333.00 C 216.26 321.32 215.94 309.10 218.08 299.08 C 220.22 289.07 222.78 283.40 225.23 274.23 C 227.67 265.06 233.22 258.95 236.00 250.00 Z"/>
</g>
<g fill="#000000" fill-opacity="0.04" stroke="None">
<path d="
M 136.00 266.00 
C 128.28 268.05 123.21 271.51 116.25 273.81 C 109.29 276.10 103.90 277.68 97.25 280.20 C 90.60 282.72 86.21 284.31 80.25 287.80 C 74.28 291.30 67.84 301.73 72.30 309.70 C 76.77 317.66 90.85 312.98 97.70 312.71 C 104.56 312.43 115.18 301.59 121.00 313.00
C 115.98 311.46 112.98 311.09 108.00 313.00
C 108.88 315.24 111.52 316.49 113.00 318.00
C 119.71 315.88 127.49 319.16 132.00 313.00
C 132.01 305.77 122.68 307.03 121.00 300.00
C 126.37 302.13 130.48 303.01 134.00 309.00
C 137.06 309.07 137.37 307.13 140.00 307.00
C 141.47 299.33 133.48 294.85 129.00 289.00
C 132.66 291.57 138.71 293.13 140.00 298.00
C 157.78 293.78 137.18 282.46 135.00 276.00
C 139.53 276.71 143.08 281.03 145.00 285.00
C 150.03 284.18 153.35 280.60 152.00 274.00
C 144.95 272.34 142.39 270.42 136.00 266.00 Z"/>
</g>
<g fill="#000000" fill-opacity="0.04" stroke="None">
<path d="
M 73.00 290.00 
C 66.28 282.01 56.86 287.94 50.25 291.81 C 43.65 295.69 36.83 301.72 42.69 312.31 C 48.56 322.89 54.91 316.89 64.00 316.00
C 70.79 308.48 63.50 295.92 73.00 290.00 Z"/>
</g>
<g fill="#000000" fill-opacity="0.09" stroke="None">
<path d="
M 222.00 345.00 
C 218.72 350.08 220.36 361.62 222.92 367.08 C 225.47 372.55 231.37 377.39 234.61 382.25 C 237.84 387.10 239.24 392.20 244.00 398.00
C 247.20 376.14 228.69 363.74 222.00 345.00 Z"/>
</g>
<g fill="#000000" fill-opacity="0.07" stroke="None">
<path d="
M 61.00 373.00 
C 51.12 381.55 44.50 391.00 45.00 405.00
C 51.20 398.09 57.68 389.38 65.00 384.00
C 62.85 379.28 61.64 377.58 61.00 373.00 Z"/>
</g>
<g fill="#000000" fill-opacity="0.09" stroke="None">
<path d="
M 243.00 403.00 
C 237.33 392.03 232.42 382.59 225.00 375.00
C 223.41 378.03 220.40 381.57 217.00 383.00
C 223.52 386.23 227.58 390.77 230.00 399.00
C 235.81 398.18 238.08 401.84 243.00 403.00 Z"/>
</g>
<g fill="#000000" fill-opacity="0.14" stroke="None">
<path d="
M 66.00 386.00 
C 60.29 392.28 54.56 398.77 48.00 406.00
C 57.69 406.81 59.63 388.86 70.00 394.00
C 69.76 390.48 66.52 389.40 66.00 386.00 Z"/>
</g>
<g fill="#000000" fill-opacity="0.02" stroke="None">
<path d="
M 268.00 489.00 
C 283.00 478.59 274.66 461.37 265.70 451.30 C 256.74 441.23 244.09 427.57 235.70 417.30 C 227.32 407.02 229.22 394.07 216.00 386.00
C 215.24 393.19 206.43 400.08 200.77 403.43 C 195.10 406.78 188.72 409.77 182.25 411.81 C 175.79 413.86 168.59 415.79 160.75 416.74 C 152.90 417.69 139.72 420.74 130.02 419.98 C 120.33 419.21 109.33 417.52 101.75 416.26 C 94.16 414.99 87.77 411.90 82.75 409.39 C 77.74 406.89 68.95 406.13 70.00 397.00
C 60.02 393.04 58.95 408.82 50.00 411.00
C 52.91 417.64 41.73 418.53 35.92 422.87 C 30.11 427.21 24.80 426.02 19.25 431.25 C 13.70 436.47 12.29 444.50 16.68 450.32 C 21.07 456.14 23.45 462.69 30.25 467.75 C 37.05 472.82 38.83 479.79 46.92 482.07 C 55.02 484.35 62.75 482.84 68.92 478.92 C 75.09 474.99 71.70 463.84 74.87 459.92 C 78.04 456.00 81.81 447.16 89.00 445.00
C 87.87 442.00 82.71 447.56 83.00 443.00
C 102.08 434.54 139.57 434.18 160.75 439.81 C 181.94 445.43 192.55 452.76 210.75 461.81 C 228.94 470.86 243.07 487.18 268.00 489.00 Z"/>
</g>
<g fill="#000000" fill-opacity="0.11" stroke="None">
<path d="
M 211.00 388.00 
C 188.96 399.51 176.35 406.02 148.22 408.22 C 120.09 410.42 94.15 406.16 74.00 396.00
C 79.61 409.11 90.86 408.18 101.92 411.08 C 112.98 413.98 135.37 415.71 149.00 415.00 C 162.62 414.29 173.42 410.17 184.10 407.12 C 194.78 404.06 202.59 399.36 211.00 388.00 Z"/>
</g>
<g fill="#000000" fill-opacity="0.05" stroke="None">
<path d="
M 76.00 480.00 
C 67.43 485.54 63.95 488.19 53.00 488.00
C 59.94 498.47 66.83 505.06 67.00 517.00
C 74.17 522.36 81.62 526.16 91.00 522.00
C 82.58 505.60 78.35 496.29 76.00 480.00 Z"/>
</g>
<g fill="#000000" fill-opacity="0.06" stroke="None">
<path d="
M 280.00 482.00 
C 274.65 488.16 271.39 493.12 263.00 493.00
C 270.90 500.56 277.75 506.76 286.00 515.00
C 286.75 510.42 290.99 506.03 296.00 504.00
C 289.50 495.82 285.70 489.71 280.00 482.00 Z"/>
</g>
<g fill="#000000" fill-opacity="0.05" stroke="None">
<path d="
M 301.00 506.00 
C 300.14 505.13 299.44 504.84 298.00 505.00
C 291.52 508.16 289.43 514.22 287.00 519.00
C 284.32 519.24 284.59 515.53 282.00 515.00
C 280.48 517.12 283.33 519.79 281.00 522.00
C 305.43 526.20 334.85 532.18 358.00 525.00
C 356.43 513.83 347.10 504.33 335.22 502.78 C 323.35 501.23 312.19 508.15 303.00 519.00
C 306.80 512.81 300.36 513.73 296.00 512.00
C 296.20 510.16 297.75 505.29 301.00 506.00 Z"/>
</g>
<g fill="#000000" fill-opacity="0.31" stroke="None">
<path d="
M 298.00 505.00 
C 299.44 504.84 300.14 505.13 301.00 506.00
C 303.15 507.35 297.93 508.80 299.00 511.00
C 302.84 513.28 304.47 510.22 307.00 508.00
C 303.30 507.23 302.22 503.72 298.00 505.00 Z"/>
</g>
<g fill="#000000" fill-opacity="0.05" stroke="None">
<path d="
M 58.00 528.00 
C 57.80 528.02 57.03 528.79 57.00 529.00
C 57.97 530.82 57.23 532.03 58.00 534.00
C 50.97 523.42 38.29 512.28 26.23 515.21 C 14.17 518.14 6.00 526.04 5.00 538.00
C 18.23 540.38 44.08 538.41 59.99 537.01 C 75.90 535.60 89.00 537.15 94.00 523.00
C 85.96 527.20 76.11 527.17 69.00 521.00
C 74.02 529.51 62.74 527.50 58.00 528.00 Z"/>
</g>
<g fill="#000000" fill-opacity="0.14" stroke="None">
<path d="
M 68.00 525.00 
C 66.57 517.77 59.28 520.89 56.00 523.00
C 58.81 529.51 63.17 523.60 68.00 525.00 Z"/>
</g>
<g fill="#000000" fill-opacity="0.54" stroke="None">
<path d="
M 57.00 529.00 
C 57.03 528.79 57.80 528.02 58.00 528.00
C 55.97 526.93 55.70 522.88 53.00 523.00
C 53.58 524.86 54.86 528.29 57.00 529.00 Z"/>
</g>
<g fill="#000000" fill-opacity="0.22" stroke="None">
<path d="
M 298.00 527.00 
C 292.39 527.77 286.64 526.32 281.00 525.00
C 280.97 529.83 286.65 530.53 290.00 529.00 C 293.35 527.47 299.24 534.74 298.00 527.00 Z"/>
</g>
<g fill="#000000" fill-opacity="0.21" stroke="None">
<path d="
M 359.00 526.00 
C 345.03 536.28 318.00 530.76 302.00 528.00
C 299.36 525.19 299.99 531.40 300.00 533.00
C 311.26 532.76 323.60 532.65 334.00 533.00 C 344.40 533.36 356.57 536.25 359.00 526.00 Z"/>
</g>
<g fill="#000000" fill-opacity="0.19" stroke="None">
<path d="
M 97.00 529.00 
C 88.08 534.77 83.72 538.95 74.08 539.93 C 64.44 540.91 50.82 543.39 39.00 543.00 C 27.18 542.61 12.03 543.83 3.00 539.00
C 3.68 541.42 4.67 542.79 5.00 545.00
C 16.42 544.85 33.18 546.35 45.00 546.00 C 56.81 545.65 70.27 543.58 79.77 541.79 C 89.27 540.00 98.36 539.62 97.00 529.00 Z"/>
</g>
<g fill="#000000" fill-opacity="0.22" stroke="None">
<path d="
M 13.00 549.00 
L 33.00 549.00
C 33.00 548.50 33.00 548.00 33.00 548.00
C 26.40 548.00 19.58 548.49 13.00 548.00
C 13.00 548.00 13.00 548.50 13.00 549.00 Z"/>
</g>
<g fill="#000000" fill-opacity="0.70" stroke="None">
<path d="
M 33.00 549.00 
L 44.00 549.00
C 44.00 548.50 44.00 548.00 44.00 548.00
C 40.33 548.00 36.67 548.00 33.00 548.00
C 33.00 548.00 33.00 548.50 33.00 549.00 Z"/>
</g>
<g fill="#000000" fill-opacity="0.22" stroke="None">
<path d="
M 44.00 549.00 
L 57.00 549.00
C 57.00 549.00 56.94 548.01 57.00 548.00
C 52.71 548.29 48.30 548.00 44.00 548.00
C 44.00 548.00 44.00 548.50 44.00 549.00 Z"/>
</g>
</svg>