<?xml version="1.0" encoding="UTF-8" standalone="no"?>
<svg
   viewBox="0 0 728 728"
   width="728"
   height="728"
   version="1.1"
   id="svg28"
   sodipodi:docname="11.svg"
   inkscape:version="1.4.2 (f4327f4, 2025-05-13)"
   xmlns:inkscape="http://www.inkscape.org/namespaces/inkscape"
   xmlns:sodipodi="http://sodipodi.sourceforge.net/DTD/sodipodi-0.dtd"
   xmlns="http://www.w3.org/2000/svg"
   xmlns:svg="http://www.w3.org/2000/svg">
  <defs
     id="defs28" />
  <sodipodi:namedview
     id="namedview28"
     pagecolor="#ffffff"
     bordercolor="#000000"
     borderopacity="0.25"
     inkscape:showpageshadow="2"
     inkscape:pageopacity="0.0"
     inkscape:pagecheckerboard="0"
     inkscape:deskcolor="#d1d1d1"
     inkscape:zoom="1.5041209"
     inkscape:cx="363.66758"
     inkscape:cy="364"
     inkscape:window-width="2560"
     inkscape:window-height="1334"
     inkscape:window-x="-11"
     inkscape:window-y="-11"
     inkscape:window-maximized="1"
     inkscape:current-layer="svg28" />
  <g
     fill="None"
     fill-opacity="0.0"
     stroke="#000000"
     stroke-opacity="0.00"
     stroke-width="0.3"
     id="g1">
    <path
       d=" M 0.00 728.00  L 728.00 728.00 L 728.00 0.00 L 0.00 0.00 L 0.00 728.00 M 264.00 196.00  C 284.34 188.67 317.81 186.09 343.25 191.19 C 368.69 196.28 386.25 205.10 408.00 220.00 C 409.83 206.55 427.27 194.93 437.92 187.87 C 448.57 180.81 470.92 181.60 484.30 184.71 C 497.68 187.82 512.33 198.39 520.39 210.75 C 528.46 223.12 533.24 235.15 531.60 253.75 C 529.96 272.34 525.25 276.88 512.25 292.25 C 499.24 307.62 488.91 308.04 473.00 312.00 C 483.78 314.97 495.45 317.55 505.90 321.12 C 516.35 324.68 524.59 329.32 534.30 335.71 C 544.01 342.11 557.93 353.80 564.75 364.25 C 571.56 374.71 573.80 382.90 578.06 394.08 C 582.33 405.27 584.63 415.84 586.39 428.75 C 588.16 441.66 588.21 466.32 586.07 480.08 C 583.93 493.83 585.02 502.49 581.81 515.25 C 578.60 528.02 577.45 542.68 578.02 560.02 C 578.60 577.37 579.20 597.99 576.80 612.25 C 574.40 626.51 559.12 628.41 547.77 630.21 C 536.42 632.02 511.88 633.54 499.75 631.20 C 487.62 628.85 471.96 628.57 471.01 614.99 C 470.05 601.41 483.97 595.80 494.25 587.25 C 504.54 578.70 507.16 564.49 505.00 547.00 C 494.53 550.91 484.32 557.26 473.00 559.00 C 469.25 569.87 467.10 581.35 469.20 595.25 C 471.30 609.15 457.65 613.71 446.23 615.58 C 434.81 617.44 416.65 616.93 402.00 618.00 C 398.15 635.11 386.50 634.70 367.92 637.92 C 349.34 641.14 326.50 637.27 309.90 633.09 C 293.30 628.92 296.90 606.77 313.75 600.61 C 330.61 594.44 339.23 578.29 336.00 564.00 C 320.02 563.29 305.30 556.93 292.00 551.00 C 293.97 565.89 293.74 589.54 293.65 604.70 C 293.55 619.85 280.86 622.65 269.25 625.40 C 257.65 628.15 237.85 629.35 222.97 627.03 C 208.09 624.71 198.49 627.71 187.00 616.00 C 183.51 602.33 196.25 595.87 204.75 589.61 C 213.26 583.35 226.36 576.93 224.78 561.78 C 223.20 546.63 227.44 526.54 226.00 509.00 C 221.59 510.36 226.18 498.73 224.21 493.77 C 222.25 488.81 225.27 480.81 223.93 475.92 C 222.59 471.04 214.72 468.53 211.70 464.30 C 208.69 460.07 202.73 457.85 198.75 452.25 C 194.77 446.65 194.45 449.42 189.29 441.70 C 184.13 433.97 177.59 425.01 173.87 418.08 C 170.15 411.16 170.72 412.26 168.42 406.23 C 166.13 400.20 164.49 400.33 163.09 392.90 C 161.70 385.47 158.84 375.34 157.79 366.77 C 156.74 358.19 156.89 357.84 156.01 348.99 C 155.12 340.14 157.80 337.34 157.90 329.90 C 158.01 322.47 158.09 322.59 159.64 314.30 C 161.19 306.00 163.62 296.21 166.21 288.77 C 168.80 281.32 174.24 274.90 177.00 266.00 C 160.62 263.96 145.78 245.54 139.60 231.25 C 133.42 216.96 131.06 193.01 140.13 178.08 C 149.20 163.15 161.65 147.22 178.77 143.43 C 195.88 139.64 219.13 139.02 232.92 150.13 C 246.70 161.24 264.45 179.15 264.00 196.00 M 724.00 726.00  C 721.10 724.17 715.56 725.95 716.00 722.00 C 713.67 728.06 706.59 721.82 703.00 725.00 C 701.83 723.55 700.95 720.78 702.00 719.00 C 708.98 724.90 724.25 715.89 724.00 726.00 Z"
       id="path1" />
  </g>
  <g
     fill="None"
     fill-opacity="0.0"
     stroke="#000000"
     stroke-opacity="0.97"
     stroke-width="0.3"
     id="g2">
    <path
       d=" M 264.00 196.00  C 264.45 179.15 246.70 161.24 232.92 150.13 C 219.13 139.02 195.88 139.64 178.77 143.43 C 161.65 147.22 149.20 163.15 140.13 178.08 C 131.06 193.01 133.42 216.96 139.60 231.25 C 145.78 245.54 160.62 263.96 177.00 266.00 C 174.24 274.90 168.80 281.32 166.21 288.77 C 163.62 296.21 161.19 306.00 159.64 314.30 C 158.09 322.59 158.01 322.47 157.90 329.90 C 157.80 337.34 155.12 340.14 156.01 348.99 C 156.89 357.84 156.74 358.19 157.79 366.77 C 158.84 375.34 161.70 385.47 163.09 392.90 C 164.49 400.33 166.13 400.20 168.42 406.23 C 170.72 412.26 170.15 411.16 173.87 418.08 C 177.59 425.01 184.13 433.97 189.29 441.70 C 194.45 449.42 194.77 446.65 198.75 452.25 C 202.73 457.85 208.69 460.07 211.70 464.30 C 214.72 468.53 222.59 471.04 223.93 475.92 C 225.27 480.81 222.25 488.81 224.21 493.77 C 226.18 498.73 221.59 510.36 226.00 509.00 C 227.44 526.54 223.20 546.63 224.78 561.78 C 226.36 576.93 213.26 583.35 204.75 589.61 C 196.25 595.87 183.51 602.33 187.00 616.00 C 198.49 627.71 208.09 624.71 222.97 627.03 C 237.85 629.35 257.65 628.15 269.25 625.40 C 280.86 622.65 293.55 619.85 293.65 604.70 C 293.74 589.54 293.97 565.89 292.00 551.00 C 305.30 556.93 320.02 563.29 336.00 564.00 C 339.23 578.29 330.61 594.44 313.75 600.61 C 296.90 606.77 293.30 628.92 309.90 633.09 C 326.50 637.27 349.34 641.14 367.92 637.92 C 386.50 634.70 398.15 635.11 402.00 618.00 C 416.65 616.93 434.81 617.44 446.23 615.58 C 457.65 613.71 471.30 609.15 469.20 595.25 C 467.10 581.35 469.25 569.87 473.00 559.00 C 484.32 557.26 494.53 550.91 505.00 547.00 C 507.16 564.49 504.54 578.70 494.25 587.25 C 483.97 595.80 470.05 601.41 471.01 614.99 C 471.96 628.57 487.62 628.85 499.75 631.20 C 511.88 633.54 536.42 632.02 547.77 630.21 C 559.12 628.41 574.40 626.51 576.80 612.25 C 579.20 597.99 578.60 577.37 578.02 560.02 C 577.45 542.68 578.60 528.02 581.81 515.25 C 585.02 502.49 583.93 493.83 586.07 480.08 C 588.21 466.32 588.16 441.66 586.39 428.75 C 584.63 415.84 582.33 405.27 578.06 394.08 C 573.80 382.90 571.56 374.71 564.75 364.25 C 557.93 353.80 544.01 342.11 534.30 335.71 C 524.59 329.32 516.35 324.68 505.90 321.12 C 495.45 317.55 483.78 314.97 473.00 312.00 C 488.91 308.04 499.24 307.62 512.25 292.25 C 525.25 276.88 529.96 272.34 531.60 253.75 C 533.24 235.15 528.46 223.12 520.39 210.75 C 512.33 198.39 497.68 187.82 484.30 184.71 C 470.92 181.60 448.57 180.81 437.92 187.87 C 427.27 194.93 409.83 206.55 408.00 220.00 C 386.25 205.10 368.69 196.28 343.25 191.19 C 317.81 186.09 284.34 188.67 264.00 196.00 M 182.00 260.00  C 172.46 257.10 163.67 252.17 156.75 244.25 C 149.84 236.33 145.22 227.41 143.02 216.98 C 140.83 206.54 142.08 191.35 146.93 181.93 C 151.77 172.50 156.78 165.80 165.25 159.25 C 173.71 152.69 185.41 149.79 196.00 149.00 C 206.59 148.21 218.56 150.78 227.70 156.30 C 236.83 161.82 242.84 167.79 248.30 176.70 C 253.77 185.60 259.34 198.78 248.31 202.31 C 237.27 205.83 231.22 211.83 222.25 217.25 C 213.29 222.67 207.71 229.13 200.25 236.25 C 192.79 243.37 186.99 251.55 182.00 260.00 M 464.00 304.00  C 456.81 274.03 438.94 245.47 414.00 226.00 C 427.80 183.55 488.79 177.70 513.75 214.25 C 538.71 250.79 510.94 307.53 464.00 304.00 M 316.00 196.00  C 337.40 196.91 361.47 203.01 380.23 212.77 C 398.99 222.53 411.76 232.03 425.75 248.25 C 439.75 264.47 448.08 280.62 454.98 301.02 C 461.87 321.43 463.61 350.89 459.22 372.22 C 454.83 393.56 447.53 412.86 435.23 430.23 C 422.93 447.60 411.20 458.17 393.92 469.92 C 376.63 481.67 356.92 484.95 340.25 498.25 C 323.58 511.55 294.25 511.73 274.78 504.22 C 255.30 496.71 246.55 477.98 228.92 468.08 C 211.30 458.17 201.02 443.31 189.08 426.92 C 177.14 410.53 169.61 388.85 166.02 367.98 C 162.44 347.10 165.01 317.00 172.32 297.32 C 179.63 277.65 188.32 261.07 202.75 245.75 C 217.18 230.43 229.94 220.01 249.08 211.08 C 268.21 202.14 293.80 195.05 316.00 196.00 M 494.00 622.00  C 497.29 612.77 496.53 608.19 507.03 604.03 C 517.52 599.86 504.53 592.58 497.75 599.75 C 490.98 606.93 487.31 609.87 487.00 620.00 C 483.70 620.79 481.96 617.17 479.00 617.00 C 478.32 607.22 486.88 603.67 493.75 598.75 C 500.61 593.82 506.64 589.94 510.31 581.31 C 513.97 572.67 512.55 561.38 513.00 551.00 C 513.45 540.62 509.23 535.40 500.75 529.25 C 492.28 523.10 495.01 517.86 487.70 509.31 C 480.38 500.75 477.71 513.57 484.75 520.25 C 491.80 526.92 490.55 535.40 500.00 539.00 C 471.52 555.34 437.70 561.45 404.00 562.00 C 402.05 549.73 406.03 543.73 403.00 531.00 C 399.97 518.27 391.58 533.39 395.00 543.00 C 398.42 552.61 395.01 563.85 396.00 574.00 C 396.99 584.15 395.34 595.93 396.00 606.00 C 396.66 616.07 394.15 624.41 383.99 625.99 C 373.84 627.58 366.55 630.05 356.00 630.00 C 345.45 629.95 334.35 630.08 324.00 629.00 C 325.73 618.43 326.37 613.61 337.01 609.01 C 347.65 604.41 334.34 596.51 327.30 604.30 C 320.27 612.10 317.08 616.80 316.00 627.00 C 312.03 626.25 308.29 624.42 305.00 622.00 C 305.80 614.69 311.52 610.97 317.23 607.23 C 322.94 603.49 328.64 600.92 333.75 595.75 C 338.87 590.58 341.90 586.71 343.93 578.93 C 345.95 571.15 346.41 563.31 347.00 554.00 C 347.59 544.69 344.83 540.01 345.02 528.98 C 345.22 517.94 334.37 519.31 337.00 531.00 C 339.63 542.69 338.07 545.74 339.00 557.00 C 332.02 555.59 322.44 554.64 315.99 552.01 C 309.55 549.37 301.35 547.82 295.92 544.08 C 290.50 540.34 282.53 538.83 279.25 532.75 C 275.96 526.67 263.92 522.82 266.98 531.03 C 270.04 539.23 274.64 539.68 279.75 546.25 C 284.86 552.81 285.13 560.54 285.00 569.00 C 284.87 577.46 287.22 587.55 286.00 596.00 C 284.78 604.45 285.76 612.49 276.98 614.98 C 268.19 617.46 263.07 619.00 253.78 619.78 C 244.49 620.56 235.82 619.50 226.00 620.00 C 216.18 620.50 209.66 618.83 212.98 608.98 C 216.29 599.13 225.15 603.29 228.30 596.30 C 231.45 589.31 215.73 591.20 212.30 596.30 C 208.88 601.41 202.88 608.94 203.00 616.00 C 186.49 611.87 201.75 600.13 210.75 594.75 C 219.74 589.36 231.19 582.86 232.00 570.00 C 232.81 557.13 233.06 539.14 233.00 525.00 C 232.94 510.86 232.68 494.23 232.00 480.00 C 245.05 489.23 252.22 503.95 268.69 510.31 C 285.17 516.66 309.70 520.34 326.67 513.67 C 343.64 507.00 355.00 495.84 371.69 490.69 C 388.39 485.55 400.19 476.07 413.75 465.75 C 427.30 455.43 435.82 443.47 445.30 429.30 C 454.79 415.13 461.56 399.13 465.78 381.78 C 469.99 364.43 471.65 339.35 468.01 320.99 C 483.89 323.10 502.41 326.77 516.69 334.31 C 530.98 341.84 541.41 348.86 552.25 361.75 C 563.09 374.64 567.91 387.46 572.99 404.01 C 578.07 420.56 579.87 441.68 579.00 460.00 C 578.13 478.32 577.79 499.33 573.02 517.02 C 568.26 534.72 570.52 557.68 570.60 575.74 C 570.67 593.81 573.89 618.56 553.00 621.00 C 532.10 623.43 514.64 626.45 494.00 622.00 M 463.00 562.00  C 456.23 575.24 469.58 600.44 452.98 604.98 C 436.37 609.51 421.05 610.00 404.00 609.00 C 406.61 599.31 400.52 583.03 404.00 574.00 C 407.48 564.97 424.72 571.35 433.01 568.01 C 441.29 564.67 454.72 566.74 463.00 562.00 Z"
       id="path2" />
  </g>
  <g
     fill="None"
     fill-opacity="0.0"
     stroke="#FFFFFF"
     stroke-opacity="1.00"
     stroke-width="0.3"
     id="g3">
    <path
       d=" M 182.00 260.00  C 186.99 251.55 192.79 243.37 200.25 236.25 C 207.71 229.13 213.29 222.67 222.25 217.25 C 231.22 211.83 237.27 205.83 248.31 202.31 C 259.34 198.78 253.77 185.60 248.30 176.70 C 242.84 167.79 236.83 161.82 227.70 156.30 C 218.56 150.78 206.59 148.21 196.00 149.00 C 185.41 149.79 173.71 152.69 165.25 159.25 C 156.78 165.80 151.77 172.50 146.93 181.93 C 142.08 191.35 140.83 206.54 143.02 216.98 C 145.22 227.41 149.84 236.33 156.75 244.25 C 163.67 252.17 172.46 257.10 182.00 260.00 Z"
       id="path3" />
  </g>
  <g
     fill="None"
     fill-opacity="0.0"
     stroke="#FFFFFF"
     stroke-opacity="1.00"
     stroke-width="0.3"
     id="g4">
    <path
       d=" M 464.00 304.00  C 510.94 307.53 538.71 250.79 513.75 214.25 C 488.79 177.70 427.80 183.55 414.00 226.00 C 438.94 245.47 456.81 274.03 464.00 304.00 Z"
       id="path4" />
  </g>
  <g
     fill="None"
     fill-opacity="0.0"
     stroke="#FFFFFF"
     stroke-opacity="1.00"
     stroke-width="0.3"
     id="g5">
    <path
       d=" M 316.00 196.00  C 293.80 195.05 268.21 202.14 249.08 211.08 C 229.94 220.01 217.18 230.43 202.75 245.75 C 188.32 261.07 179.63 277.65 172.32 297.32 C 165.01 317.00 162.44 347.10 166.02 367.98 C 169.61 388.85 177.14 410.53 189.08 426.92 C 201.02 443.31 211.30 458.17 228.92 468.08 C 246.55 477.98 255.30 496.71 274.78 504.22 C 294.25 511.73 323.58 511.55 340.25 498.25 C 356.92 484.95 376.63 481.67 393.92 469.92 C 411.20 458.17 422.93 447.60 435.23 430.23 C 447.53 412.86 454.83 393.56 459.22 372.22 C 463.61 350.89 461.87 321.43 454.98 301.02 C 448.08 280.62 439.75 264.47 425.75 248.25 C 411.76 232.03 398.99 222.53 380.23 212.77 C 361.47 203.01 337.40 196.91 316.00 196.00 M 247.00 331.00  C 271.28 334.94 282.47 366.53 267.25 385.25 C 252.03 403.96 221.16 402.78 210.08 378.92 C 198.99 355.07 220.00 326.62 247.00 331.00 M 375.00 343.00  C 398.76 347.26 410.07 379.68 394.08 398.08 C 378.09 416.49 346.18 413.44 336.68 389.32 C 327.18 365.21 347.94 338.15 375.00 343.00 M 295.00 472.00  C 296.28 464.53 295.76 456.47 296.99 448.99 C 298.22 441.51 288.55 441.61 284.25 436.75 C 279.95 431.90 276.20 428.04 274.03 421.97 C 271.85 415.91 270.65 408.09 276.75 403.75 C 282.85 399.41 287.78 397.94 295.02 397.02 C 302.27 396.11 310.48 397.96 317.02 399.98 C 323.57 402.00 327.27 404.69 332.25 409.75 C 337.23 414.81 334.26 423.03 330.75 427.75 C 327.23 432.46 322.44 437.02 317.77 439.77 C 313.10 442.52 301.06 443.52 303.00 450.00 C 304.94 456.48 298.21 468.83 303.26 472.74 C 308.31 476.66 320.18 474.06 326.01 473.01 C 331.84 471.96 336.32 468.19 340.75 462.75 C 345.18 457.32 345.40 453.17 347.98 444.98 C 350.55 436.78 356.99 444.06 353.22 451.22 C 349.46 458.38 350.15 462.66 345.08 468.08 C 340.02 473.50 336.94 476.01 330.32 478.32 C 323.70 480.64 316.03 481.83 308.98 480.02 C 301.92 478.22 294.40 478.79 287.00 479.00 C 279.60 479.21 272.16 478.50 265.92 475.08 C 259.69 471.65 256.91 469.66 252.75 463.25 C 248.58 456.85 248.69 453.49 246.07 444.93 C 243.46 436.36 252.39 431.32 252.93 441.07 C 253.46 450.82 254.71 453.51 258.77 460.23 C 262.83 466.94 266.60 468.03 273.08 470.92 C 279.55 473.82 288.16 472.48 295.00 472.00 Z"
       id="path5" />
  </g>
  <g
     fill="None"
     fill-opacity="0.0"
     stroke="#FFFFFF"
     stroke-opacity="1.00"
     stroke-width="0.3"
     id="g6">
    <path
       d=" M 494.00 622.00  C 514.64 626.45 532.10 623.43 553.00 621.00 C 573.89 618.56 570.67 593.81 570.60 575.74 C 570.52 557.68 568.26 534.72 573.02 517.02 C 577.79 499.33 578.13 478.32 579.00 460.00 C 579.87 441.68 578.07 420.56 572.99 404.01 C 567.91 387.46 563.09 374.64 552.25 361.75 C 541.41 348.86 530.98 341.84 516.69 334.31 C 502.41 326.77 483.89 323.10 468.00 320.00 C 471.65 339.35 469.99 364.43 465.78 381.78 C 461.56 399.13 454.79 415.13 445.30 429.30 C 435.82 443.47 427.30 455.43 413.75 465.75 C 400.19 476.07 388.39 485.55 371.69 490.69 C 355.00 495.84 343.64 507.00 326.67 513.67 C 309.70 520.34 285.17 516.66 268.69 510.31 C 252.22 503.95 245.05 489.23 232.00 480.00 C 232.68 494.23 232.94 510.86 233.00 525.00 C 233.06 539.14 232.81 557.13 232.00 570.00 C 231.19 582.86 219.74 589.36 210.75 594.75 C 201.75 600.13 186.49 611.87 203.00 616.00 C 202.88 608.94 208.88 601.41 212.30 596.30 C 215.73 591.20 231.45 589.31 228.30 596.30 C 225.15 603.29 216.29 599.13 212.98 608.98 C 209.66 618.83 216.18 620.50 226.00 620.00 C 235.82 619.50 244.49 620.56 253.78 619.78 C 263.07 619.00 268.19 617.46 276.98 614.98 C 285.76 612.49 284.78 604.45 286.00 596.00 C 287.22 587.55 284.87 577.46 285.00 569.00 C 285.13 560.54 284.86 552.81 279.75 546.25 C 274.64 539.68 270.04 539.23 266.98 531.03 C 263.92 522.82 275.96 526.67 279.25 532.75 C 282.53 538.83 290.50 540.34 295.92 544.08 C 301.35 547.82 309.55 549.37 315.99 552.01 C 322.44 554.64 332.02 555.59 339.00 557.00 C 338.07 545.74 339.63 542.69 337.00 531.00 C 334.37 519.31 345.22 517.94 345.02 528.98 C 344.83 540.01 347.59 544.69 347.00 554.00 C 346.41 563.31 345.95 571.15 343.93 578.93 C 341.90 586.71 338.87 590.58 333.75 595.75 C 328.64 600.92 322.94 603.49 317.23 607.23 C 311.52 610.97 305.80 614.69 305.00 622.00 C 308.29 624.42 312.03 626.25 316.00 627.00 C 317.08 616.80 320.27 612.10 327.30 604.30 C 334.34 596.51 347.65 604.41 337.01 609.01 C 326.37 613.61 325.73 618.43 324.00 629.00 C 334.35 630.08 345.45 629.95 356.00 630.00 C 366.55 630.05 373.84 627.58 383.99 625.99 C 394.15 624.41 396.66 616.07 396.00 606.00 C 395.34 595.93 396.99 584.15 396.00 574.00 C 395.01 563.85 398.42 552.61 395.00 543.00 C 391.58 533.39 399.97 518.27 403.00 531.00 C 406.03 543.73 402.05 549.73 404.00 562.00 C 437.70 561.45 471.52 555.34 500.00 539.00 C 490.55 535.40 491.80 526.92 484.75 520.25 C 477.71 513.57 480.38 500.75 487.70 509.31 C 495.01 517.86 492.28 523.10 500.75 529.25 C 509.23 535.40 513.45 540.62 513.00 551.00 C 512.55 561.38 513.97 572.67 510.31 581.31 C 506.64 589.94 500.61 593.82 493.75 598.75 C 486.88 603.67 478.32 607.22 479.00 617.00 C 481.96 617.17 483.70 620.79 487.00 620.00 C 487.31 609.87 490.98 606.93 497.75 599.75 C 504.53 592.58 517.52 599.86 507.03 604.03 C 496.53 608.19 497.29 612.77 494.00 622.00 Z"
       id="path6" />
  </g>
  <g
     fill="None"
     fill-opacity="0.0"
     stroke="#000000"
     stroke-opacity="1.00"
     stroke-width="0.3"
     id="g7">
    <path
       d=" M 247.00 331.00  C 220.00 326.62 198.99 355.07 210.08 378.92 C 221.16 402.78 252.03 403.96 267.25 385.25 C 282.47 366.53 271.28 334.94 247.00 331.00 M 248.00 337.00  C 266.62 338.20 265.81 368.20 246.00 367.00 C 226.19 365.80 229.16 335.79 248.00 337.00 Z"
       id="path7" />
  </g>
  <g
     fill="None"
     fill-opacity="0.0"
     stroke="#FFFFFF"
     stroke-opacity="1.00"
     stroke-width="0.3"
     id="g8">
    <path
       d=" M 248.00 337.00  C 229.16 335.79 226.19 365.80 246.00 367.00 C 265.81 368.20 266.62 338.20 248.00 337.00 Z"
       id="path8" />
  </g>
  <g
     fill="None"
     fill-opacity="0.0"
     stroke="#000000"
     stroke-opacity="1.00"
     stroke-width="0.3"
     id="g9">
    <path
       d=" M 375.00 343.00  C 347.94 338.15 327.18 365.21 336.68 389.32 C 346.18 413.44 378.09 416.49 394.08 398.08 C 410.07 379.68 398.76 347.26 375.00 343.00 M 377.00 349.00  C 395.65 352.18 390.35 383.10 371.00 379.00 C 351.65 374.90 358.47 345.85 377.00 349.00 Z"
       id="path9" />
  </g>
  <g
     fill="None"
     fill-opacity="0.0"
     stroke="#FFFFFF"
     stroke-opacity="1.00"
     stroke-width="0.3"
     id="g10">
    <path
       d=" M 377.00 349.00  C 358.47 345.85 351.65 374.90 371.00 379.00 C 390.35 383.10 395.65 352.18 377.00 349.00 Z"
       id="path10" />
  </g>
  <g
     fill="None"
     fill-opacity="0.0"
     stroke="#000000"
     stroke-opacity="1.00"
     stroke-width="0.3"
     id="g11">
    <path
       d=" M 295.00 472.00  C 288.16 472.48 279.55 473.82 273.08 470.92 C 266.60 468.03 262.83 466.94 258.77 460.23 C 254.71 453.51 253.46 450.82 252.93 441.07 C 252.39 431.32 243.46 436.36 246.07 444.93 C 248.69 453.49 248.58 456.85 252.75 463.25 C 256.91 469.66 259.69 471.65 265.92 475.08 C 272.16 478.50 279.60 479.21 287.00 479.00 C 294.40 478.79 301.92 478.22 308.98 480.02 C 316.03 481.83 323.70 480.64 330.32 478.32 C 336.94 476.01 340.02 473.50 345.08 468.08 C 350.15 462.66 349.46 458.38 353.22 451.22 C 356.99 444.06 350.55 436.78 347.98 444.98 C 345.40 453.17 345.18 457.32 340.75 462.75 C 336.32 468.19 331.84 471.96 326.01 473.01 C 320.18 474.06 308.31 476.66 303.26 472.74 C 298.21 468.83 304.94 456.48 303.00 450.00 C 301.06 443.52 313.10 442.52 317.77 439.77 C 322.44 437.02 327.23 432.46 330.75 427.75 C 334.26 423.03 337.23 414.81 332.25 409.75 C 327.27 404.69 323.57 402.00 317.02 399.98 C 310.48 397.96 302.27 396.11 295.02 397.02 C 287.78 397.94 282.85 399.41 276.75 403.75 C 270.65 408.09 271.85 415.91 274.03 421.97 C 276.20 428.04 279.95 431.90 284.25 436.75 C 288.55 441.61 298.22 441.51 296.99 448.99 C 295.76 456.47 296.28 464.53 295.00 472.00 M 311.00 403.00  C 320.33 403.57 320.89 413.89 310.75 413.20 C 300.62 412.51 300.61 402.37 311.00 403.00 Z"
       id="path11" />
  </g>
  <g
     fill="None"
     fill-opacity="0.0"
     stroke="#FFFFFF"
     stroke-opacity="1.00"
     stroke-width="0.3"
     id="g12">
    <path
       d=" M 311.00 403.00  C 300.61 402.37 300.62 412.51 310.75 413.20 C 320.89 413.89 320.33 403.57 311.00 403.00 Z"
       id="path12" />
  </g>
  <g
     fill="None"
     fill-opacity="0.0"
     stroke="#FFFFFF"
     stroke-opacity="1.00"
     stroke-width="0.3"
     id="g13">
    <path
       d=" M 463.00 562.00  C 454.72 566.74 441.29 564.67 433.01 568.01 C 424.72 571.35 407.48 564.97 404.00 574.00 C 400.52 583.03 406.61 599.31 404.00 609.00 C 421.05 610.00 436.37 609.51 452.98 604.98 C 469.58 600.44 456.23 575.24 463.00 562.00 Z"
       id="path13" />
  </g>
  <g
     fill="#000000"
     fill-opacity="0.00"
     stroke="None"
     id="g15">
    <path
       d=" M 0.00 728.00  L 728.00 728.00 L 728.00 0.00 L 0.00 0.00 L 0.00 728.00 M 264.00 196.00  C 284.34 188.67 317.81 186.09 343.25 191.19 C 368.69 196.28 386.25 205.10 408.00 220.00 C 409.83 206.55 427.27 194.93 437.92 187.87 C 448.57 180.81 470.92 181.60 484.30 184.71 C 497.68 187.82 512.33 198.39 520.39 210.75 C 528.46 223.12 533.24 235.15 531.60 253.75 C 529.96 272.34 525.25 276.88 512.25 292.25 C 499.24 307.62 488.91 308.04 473.00 312.00 C 483.78 314.97 495.45 317.55 505.90 321.12 C 516.35 324.68 524.59 329.32 534.30 335.71 C 544.01 342.11 557.93 353.80 564.75 364.25 C 571.56 374.71 573.80 382.90 578.06 394.08 C 582.33 405.27 584.63 415.84 586.39 428.75 C 588.16 441.66 588.21 466.32 586.07 480.08 C 583.93 493.83 585.02 502.49 581.81 515.25 C 578.60 528.02 577.45 542.68 578.02 560.02 C 578.60 577.37 579.20 597.99 576.80 612.25 C 574.40 626.51 559.12 628.41 547.77 630.21 C 536.42 632.02 511.88 633.54 499.75 631.20 C 487.62 628.85 471.96 628.57 471.01 614.99 C 470.05 601.41 483.97 595.80 494.25 587.25 C 504.54 578.70 507.16 564.49 505.00 547.00 C 494.53 550.91 484.32 557.26 473.00 559.00 C 469.25 569.87 467.10 581.35 469.20 595.25 C 471.30 609.15 457.65 613.71 446.23 615.58 C 434.81 617.44 416.65 616.93 402.00 618.00 C 398.15 635.11 386.50 634.70 367.92 637.92 C 349.34 641.14 326.50 637.27 309.90 633.09 C 293.30 628.92 296.90 606.77 313.75 600.61 C 330.61 594.44 339.23 578.29 336.00 564.00 C 320.02 563.29 305.30 556.93 292.00 551.00 C 293.97 565.89 293.74 589.54 293.65 604.70 C 293.55 619.85 280.86 622.65 269.25 625.40 C 257.65 628.15 237.85 629.35 222.97 627.03 C 208.09 624.71 198.49 627.71 187.00 616.00 C 183.51 602.33 196.25 595.87 204.75 589.61 C 213.26 583.35 226.36 576.93 224.78 561.78 C 223.20 546.63 227.44 526.54 226.00 509.00 C 221.59 510.36 226.18 498.73 224.21 493.77 C 222.25 488.81 225.27 480.81 223.93 475.92 C 222.59 471.04 214.72 468.53 211.70 464.30 C 208.69 460.07 202.73 457.85 198.75 452.25 C 194.77 446.65 194.45 449.42 189.29 441.70 C 184.13 433.97 177.59 425.01 173.87 418.08 C 170.15 411.16 170.72 412.26 168.42 406.23 C 166.13 400.20 164.49 400.33 163.09 392.90 C 161.70 385.47 158.84 375.34 157.79 366.77 C 156.74 358.19 156.89 357.84 156.01 348.99 C 155.12 340.14 157.80 337.34 157.90 329.90 C 158.01 322.47 158.09 322.59 159.64 314.30 C 161.19 306.00 163.62 296.21 166.21 288.77 C 168.80 281.32 174.24 274.90 177.00 266.00 C 160.62 263.96 145.78 245.54 139.60 231.25 C 133.42 216.96 131.06 193.01 140.13 178.08 C 149.20 163.15 161.65 147.22 178.77 143.43 C 195.88 139.64 219.13 139.02 232.92 150.13 C 246.70 161.24 264.45 179.15 264.00 196.00 M 724.00 726.00  C 721.10 724.17 715.56 725.95 716.00 722.00 C 713.67 728.06 706.59 721.82 703.00 725.00 C 701.83 723.55 700.95 720.78 702.00 719.00 C 708.98 724.90 724.25 715.89 724.00 726.00 Z"
       id="path15" />
  </g>
  <g
     fill="#000000"
     fill-opacity="0.97"
     stroke="None"
     id="g16">
    <path
       d=" M 264.00 196.00  C 264.45 179.15 246.70 161.24 232.92 150.13 C 219.13 139.02 195.88 139.64 178.77 143.43 C 161.65 147.22 149.20 163.15 140.13 178.08 C 131.06 193.01 133.42 216.96 139.60 231.25 C 145.78 245.54 160.62 263.96 177.00 266.00 C 174.24 274.90 168.80 281.32 166.21 288.77 C 163.62 296.21 161.19 306.00 159.64 314.30 C 158.09 322.59 158.01 322.47 157.90 329.90 C 157.80 337.34 155.12 340.14 156.01 348.99 C 156.89 357.84 156.74 358.19 157.79 366.77 C 158.84 375.34 161.70 385.47 163.09 392.90 C 164.49 400.33 166.13 400.20 168.42 406.23 C 170.72 412.26 170.15 411.16 173.87 418.08 C 177.59 425.01 184.13 433.97 189.29 441.70 C 194.45 449.42 194.77 446.65 198.75 452.25 C 202.73 457.85 208.69 460.07 211.70 464.30 C 214.72 468.53 222.59 471.04 223.93 475.92 C 225.27 480.81 222.25 488.81 224.21 493.77 C 226.18 498.73 221.59 510.36 226.00 509.00 C 227.44 526.54 223.20 546.63 224.78 561.78 C 226.36 576.93 213.26 583.35 204.75 589.61 C 196.25 595.87 183.51 602.33 187.00 616.00 C 198.49 627.71 208.09 624.71 222.97 627.03 C 237.85 629.35 257.65 628.15 269.25 625.40 C 280.86 622.65 293.55 619.85 293.65 604.70 C 293.74 589.54 293.97 565.89 292.00 551.00 C 305.30 556.93 320.02 563.29 336.00 564.00 C 339.23 578.29 330.61 594.44 313.75 600.61 C 296.90 606.77 293.30 628.92 309.90 633.09 C 326.50 637.27 349.34 641.14 367.92 637.92 C 386.50 634.70 398.15 635.11 402.00 618.00 C 416.65 616.93 434.81 617.44 446.23 615.58 C 457.65 613.71 471.30 609.15 469.20 595.25 C 467.10 581.35 469.25 569.87 473.00 559.00 C 484.32 557.26 494.53 550.91 505.00 547.00 C 507.16 564.49 504.54 578.70 494.25 587.25 C 483.97 595.80 470.05 601.41 471.01 614.99 C 471.96 628.57 487.62 628.85 499.75 631.20 C 511.88 633.54 536.42 632.02 547.77 630.21 C 559.12 628.41 574.40 626.51 576.80 612.25 C 579.20 597.99 578.60 577.37 578.02 560.02 C 577.45 542.68 578.60 528.02 581.81 515.25 C 585.02 502.49 583.93 493.83 586.07 480.08 C 588.21 466.32 588.16 441.66 586.39 428.75 C 584.63 415.84 582.33 405.27 578.06 394.08 C 573.80 382.90 571.56 374.71 564.75 364.25 C 557.93 353.80 544.01 342.11 534.30 335.71 C 524.59 329.32 516.35 324.68 505.90 321.12 C 495.45 317.55 483.78 314.97 473.00 312.00 C 488.91 308.04 499.24 307.62 512.25 292.25 C 525.25 276.88 529.96 272.34 531.60 253.75 C 533.24 235.15 528.46 223.12 520.39 210.75 C 512.33 198.39 497.68 187.82 484.30 184.71 C 470.92 181.60 448.57 180.81 437.92 187.87 C 427.27 194.93 409.83 206.55 408.00 220.00 C 386.25 205.10 368.69 196.28 343.25 191.19 C 317.81 186.09 284.34 188.67 264.00 196.00 M 182.00 260.00  C 172.46 257.10 163.67 252.17 156.75 244.25 C 149.84 236.33 145.22 227.41 143.02 216.98 C 140.83 206.54 142.08 191.35 146.93 181.93 C 151.77 172.50 156.78 165.80 165.25 159.25 C 173.71 152.69 185.41 149.79 196.00 149.00 C 206.59 148.21 218.56 150.78 227.70 156.30 C 236.83 161.82 242.84 167.79 248.30 176.70 C 253.77 185.60 259.34 198.78 248.31 202.31 C 237.27 205.83 231.22 211.83 222.25 217.25 C 213.29 222.67 207.71 229.13 200.25 236.25 C 192.79 243.37 186.99 251.55 182.00 260.00 M 464.00 304.00  C 456.81 274.03 438.94 245.47 414.00 226.00 C 427.80 183.55 488.79 177.70 513.75 214.25 C 538.71 250.79 510.94 307.53 464.00 304.00 M 316.00 196.00  C 337.40 196.91 361.47 203.01 380.23 212.77 C 398.99 222.53 411.76 232.03 425.75 248.25 C 439.75 264.47 448.08 280.62 454.98 301.02 C 461.87 321.43 463.61 350.89 459.22 372.22 C 454.83 393.56 447.53 412.86 435.23 430.23 C 422.93 447.60 411.20 458.17 393.92 469.92 C 376.63 481.67 356.92 484.95 340.25 498.25 C 323.58 511.55 294.25 511.73 274.78 504.22 C 255.30 496.71 246.55 477.98 228.92 468.08 C 211.30 458.17 201.02 443.31 189.08 426.92 C 177.14 410.53 169.61 388.85 166.02 367.98 C 162.44 347.10 165.01 317.00 172.32 297.32 C 179.63 277.65 188.32 261.07 202.75 245.75 C 217.18 230.43 229.94 220.01 249.08 211.08 C 268.21 202.14 293.80 195.05 316.00 196.00 M 494.00 622.00  C 497.29 612.77 496.53 608.19 507.03 604.03 C 517.52 599.86 504.53 592.58 497.75 599.75 C 490.98 606.93 487.31 609.87 487.00 620.00 C 483.70 620.79 481.96 617.17 479.00 617.00 C 478.32 607.22 486.88 603.67 493.75 598.75 C 500.61 593.82 506.64 589.94 510.31 581.31 C 513.97 572.67 512.55 561.38 513.00 551.00 C 513.45 540.62 509.23 535.40 500.75 529.25 C 492.28 523.10 495.01 517.86 487.70 509.31 C 480.38 500.75 477.71 513.57 484.75 520.25 C 491.80 526.92 490.55 535.40 500.00 539.00 C 471.52 555.34 437.70 561.45 404.00 562.00 C 402.05 549.73 406.03 543.73 403.00 531.00 C 399.97 518.27 391.58 533.39 395.00 543.00 C 398.42 552.61 395.01 563.85 396.00 574.00 C 396.99 584.15 395.34 595.93 396.00 606.00 C 396.66 616.07 394.15 624.41 383.99 625.99 C 373.84 627.58 366.55 630.05 356.00 630.00 C 345.45 629.95 334.35 630.08 324.00 629.00 C 325.73 618.43 326.37 613.61 337.01 609.01 C 347.65 604.41 334.34 596.51 327.30 604.30 C 320.27 612.10 317.08 616.80 316.00 627.00 C 312.03 626.25 308.29 624.42 305.00 622.00 C 305.80 614.69 311.52 610.97 317.23 607.23 C 322.94 603.49 328.64 600.92 333.75 595.75 C 338.87 590.58 341.90 586.71 343.93 578.93 C 345.95 571.15 346.41 563.31 347.00 554.00 C 347.59 544.69 344.83 540.01 345.02 528.98 C 345.22 517.94 334.37 519.31 337.00 531.00 C 339.63 542.69 338.07 545.74 339.00 557.00 C 332.02 555.59 322.44 554.64 315.99 552.01 C 309.55 549.37 301.35 547.82 295.92 544.08 C 290.50 540.34 282.53 538.83 279.25 532.75 C 275.96 526.67 263.92 522.82 266.98 531.03 C 270.04 539.23 274.64 539.68 279.75 546.25 C 284.86 552.81 285.13 560.54 285.00 569.00 C 284.87 577.46 287.22 587.55 286.00 596.00 C 284.78 604.45 285.76 612.49 276.98 614.98 C 268.19 617.46 263.07 619.00 253.78 619.78 C 244.49 620.56 235.82 619.50 226.00 620.00 C 216.18 620.50 209.66 618.83 212.98 608.98 C 216.29 599.13 225.15 603.29 228.30 596.30 C 231.45 589.31 215.73 591.20 212.30 596.30 C 208.88 601.41 202.88 608.94 203.00 616.00 C 186.49 611.87 201.75 600.13 210.75 594.75 C 219.74 589.36 231.19 582.86 232.00 570.00 C 232.81 557.13 233.06 539.14 233.00 525.00 C 232.94 510.86 232.68 494.23 232.00 480.00 C 245.05 489.23 252.22 503.95 268.69 510.31 C 285.17 516.66 309.70 520.34 326.67 513.67 C 343.64 507.00 355.00 495.84 371.69 490.69 C 388.39 485.55 400.19 476.07 413.75 465.75 C 427.30 455.43 435.82 443.47 445.30 429.30 C 454.79 415.13 461.56 399.13 465.78 381.78 C 469.99 364.43 471.65 339.35 468.01 320.99 C 483.89 323.10 502.41 326.77 516.69 334.31 C 530.98 341.84 541.41 348.86 552.25 361.75 C 563.09 374.64 567.91 387.46 572.99 404.01 C 578.07 420.56 579.87 441.68 579.00 460.00 C 578.13 478.32 577.79 499.33 573.02 517.02 C 568.26 534.72 570.52 557.68 570.60 575.74 C 570.67 593.81 573.89 618.56 553.00 621.00 C 532.10 623.43 514.64 626.45 494.00 622.00 M 463.00 562.00  C 456.23 575.24 469.58 600.44 452.98 604.98 C 436.37 609.51 421.05 610.00 404.00 609.00 C 406.61 599.31 400.52 583.03 404.00 574.00 C 407.48 564.97 424.72 571.35 433.01 568.01 C 441.29 564.67 454.72 566.74 463.00 562.00 Z"
       id="path16" />
  </g>
  <g
     fill="#FFFFFF"
     fill-opacity="1.00"
     stroke="None"
     id="g17">
    <path
       d=" M 182.00 260.00  C 186.99 251.55 192.79 243.37 200.25 236.25 C 207.71 229.13 213.29 222.67 222.25 217.25 C 231.22 211.83 237.27 205.83 248.31 202.31 C 259.34 198.78 253.77 185.60 248.30 176.70 C 242.84 167.79 236.83 161.82 227.70 156.30 C 218.56 150.78 206.59 148.21 196.00 149.00 C 185.41 149.79 173.71 152.69 165.25 159.25 C 156.78 165.80 151.77 172.50 146.93 181.93 C 142.08 191.35 140.83 206.54 143.02 216.98 C 145.22 227.41 149.84 236.33 156.75 244.25 C 163.67 252.17 172.46 257.10 182.00 260.00 Z"
       id="path17" />
  </g>
  <g
     fill="#FFFFFF"
     fill-opacity="1.00"
     stroke="None"
     id="g18">
    <path
       d=" M 464.00 304.00  C 510.94 307.53 538.71 250.79 513.75 214.25 C 488.79 177.70 427.80 183.55 414.00 226.00 C 438.94 245.47 456.81 274.03 464.00 304.00 Z"
       id="path18" />
  </g>
  <g
     fill="#FFFFFF"
     fill-opacity="1.00"
     stroke="None"
     id="g19">
    <path
       d=" M 316.00 196.00  C 293.80 195.05 268.21 202.14 249.08 211.08 C 229.94 220.01 217.18 230.43 202.75 245.75 C 188.32 261.07 179.63 277.65 172.32 297.32 C 165.01 317.00 162.44 347.10 166.02 367.98 C 169.61 388.85 177.14 410.53 189.08 426.92 C 201.02 443.31 211.30 458.17 228.92 468.08 C 246.55 477.98 255.30 496.71 274.78 504.22 C 294.25 511.73 323.58 511.55 340.25 498.25 C 356.92 484.95 376.63 481.67 393.92 469.92 C 411.20 458.17 422.93 447.60 435.23 430.23 C 447.53 412.86 454.83 393.56 459.22 372.22 C 463.61 350.89 461.87 321.43 454.98 301.02 C 448.08 280.62 439.75 264.47 425.75 248.25 C 411.76 232.03 398.99 222.53 380.23 212.77 C 361.47 203.01 337.40 196.91 316.00 196.00 M 247.00 331.00  C 271.28 334.94 282.47 366.53 267.25 385.25 C 252.03 403.96 221.16 402.78 210.08 378.92 C 198.99 355.07 220.00 326.62 247.00 331.00 M 375.00 343.00  C 398.76 347.26 410.07 379.68 394.08 398.08 C 378.09 416.49 346.18 413.44 336.68 389.32 C 327.18 365.21 347.94 338.15 375.00 343.00 M 295.00 472.00  C 296.28 464.53 295.76 456.47 296.99 448.99 C 298.22 441.51 288.55 441.61 284.25 436.75 C 279.95 431.90 276.20 428.04 274.03 421.97 C 271.85 415.91 270.65 408.09 276.75 403.75 C 282.85 399.41 287.78 397.94 295.02 397.02 C 302.27 396.11 310.48 397.96 317.02 399.98 C 323.57 402.00 327.27 404.69 332.25 409.75 C 337.23 414.81 334.26 423.03 330.75 427.75 C 327.23 432.46 322.44 437.02 317.77 439.77 C 313.10 442.52 301.06 443.52 303.00 450.00 C 304.94 456.48 298.21 468.83 303.26 472.74 C 308.31 476.66 320.18 474.06 326.01 473.01 C 331.84 471.96 336.32 468.19 340.75 462.75 C 345.18 457.32 345.40 453.17 347.98 444.98 C 350.55 436.78 356.99 444.06 353.22 451.22 C 349.46 458.38 350.15 462.66 345.08 468.08 C 340.02 473.50 336.94 476.01 330.32 478.32 C 323.70 480.64 316.03 481.83 308.98 480.02 C 301.92 478.22 294.40 478.79 287.00 479.00 C 279.60 479.21 272.16 478.50 265.92 475.08 C 259.69 471.65 256.91 469.66 252.75 463.25 C 248.58 456.85 248.69 453.49 246.07 444.93 C 243.46 436.36 252.39 431.32 252.93 441.07 C 253.46 450.82 254.71 453.51 258.77 460.23 C 262.83 466.94 266.60 468.03 273.08 470.92 C 279.55 473.82 288.16 472.48 295.00 472.00 Z"
       id="path19" />
  </g>
  <g
     fill="#FFFFFF"
     fill-opacity="1.00"
     stroke="None"
     id="g20">
    <path
       d=" M 494.00 622.00  C 514.64 626.45 532.10 623.43 553.00 621.00 C 573.89 618.56 570.67 593.81 570.60 575.74 C 570.52 557.68 568.26 534.72 573.02 517.02 C 577.79 499.33 578.13 478.32 579.00 460.00 C 579.87 441.68 578.07 420.56 572.99 404.01 C 567.91 387.46 563.09 374.64 552.25 361.75 C 541.41 348.86 530.98 341.84 516.69 334.31 C 502.41 326.77 483.89 323.10 468.00 320.00 C 471.65 339.35 469.99 364.43 465.78 381.78 C 461.56 399.13 454.79 415.13 445.30 429.30 C 435.82 443.47 427.30 455.43 413.75 465.75 C 400.19 476.07 388.39 485.55 371.69 490.69 C 355.00 495.84 343.64 507.00 326.67 513.67 C 309.70 520.34 285.17 516.66 268.69 510.31 C 252.22 503.95 245.05 489.23 232.00 480.00 C 232.68 494.23 232.94 510.86 233.00 525.00 C 233.06 539.14 232.81 557.13 232.00 570.00 C 231.19 582.86 219.74 589.36 210.75 594.75 C 201.75 600.13 186.49 611.87 203.00 616.00 C 202.88 608.94 208.88 601.41 212.30 596.30 C 215.73 591.20 231.45 589.31 228.30 596.30 C 225.15 603.29 216.29 599.13 212.98 608.98 C 209.66 618.83 216.18 620.50 226.00 620.00 C 235.82 619.50 244.49 620.56 253.78 619.78 C 263.07 619.00 268.19 617.46 276.98 614.98 C 285.76 612.49 284.78 604.45 286.00 596.00 C 287.22 587.55 284.87 577.46 285.00 569.00 C 285.13 560.54 284.86 552.81 279.75 546.25 C 274.64 539.68 270.04 539.23 266.98 531.03 C 263.92 522.82 275.96 526.67 279.25 532.75 C 282.53 538.83 290.50 540.34 295.92 544.08 C 301.35 547.82 309.55 549.37 315.99 552.01 C 322.44 554.64 332.02 555.59 339.00 557.00 C 338.07 545.74 339.63 542.69 337.00 531.00 C 334.37 519.31 345.22 517.94 345.02 528.98 C 344.83 540.01 347.59 544.69 347.00 554.00 C 346.41 563.31 345.95 571.15 343.93 578.93 C 341.90 586.71 338.87 590.58 333.75 595.75 C 328.64 600.92 322.94 603.49 317.23 607.23 C 311.52 610.97 305.80 614.69 305.00 622.00 C 308.29 624.42 312.03 626.25 316.00 627.00 C 317.08 616.80 320.27 612.10 327.30 604.30 C 334.34 596.51 347.65 604.41 337.01 609.01 C 326.37 613.61 325.73 618.43 324.00 629.00 C 334.35 630.08 345.45 629.95 356.00 630.00 C 366.55 630.05 373.84 627.58 383.99 625.99 C 394.15 624.41 396.66 616.07 396.00 606.00 C 395.34 595.93 396.99 584.15 396.00 574.00 C 395.01 563.85 398.42 552.61 395.00 543.00 C 391.58 533.39 399.97 518.27 403.00 531.00 C 406.03 543.73 402.05 549.73 404.00 562.00 C 437.70 561.45 471.52 555.34 500.00 539.00 C 490.55 535.40 491.80 526.92 484.75 520.25 C 477.71 513.57 480.38 500.75 487.70 509.31 C 495.01 517.86 492.28 523.10 500.75 529.25 C 509.23 535.40 513.45 540.62 513.00 551.00 C 512.55 561.38 513.97 572.67 510.31 581.31 C 506.64 589.94 500.61 593.82 493.75 598.75 C 486.88 603.67 478.32 607.22 479.00 617.00 C 481.96 617.17 483.70 620.79 487.00 620.00 C 487.31 609.87 490.98 606.93 497.75 599.75 C 504.53 592.58 517.52 599.86 507.03 604.03 C 496.53 608.19 497.29 612.77 494.00 622.00 Z"
       id="path20" />
  </g>
  <g
     fill="#000000"
     fill-opacity="1.00"
     stroke="None"
     id="g21">
    <path
       d=" M 247.00 331.00  C 220.00 326.62 198.99 355.07 210.08 378.92 C 221.16 402.78 252.03 403.96 267.25 385.25 C 282.47 366.53 271.28 334.94 247.00 331.00 M 248.00 337.00  C 266.62 338.20 265.81 368.20 246.00 367.00 C 226.19 365.80 229.16 335.79 248.00 337.00 Z"
       id="path21" />
  </g>
  <g
     fill="#FFFFFF"
     fill-opacity="1.00"
     stroke="None"
     id="g22">
    <path
       d=" M 248.00 337.00  C 229.16 335.79 226.19 365.80 246.00 367.00 C 265.81 368.20 266.62 338.20 248.00 337.00 Z"
       id="path22" />
  </g>
  <g
     fill="#000000"
     fill-opacity="1.00"
     stroke="None"
     id="g23">
    <path
       d=" M 375.00 343.00  C 347.94 338.15 327.18 365.21 336.68 389.32 C 346.18 413.44 378.09 416.49 394.08 398.08 C 410.07 379.68 398.76 347.26 375.00 343.00 M 377.00 349.00  C 395.65 352.18 390.35 383.10 371.00 379.00 C 351.65 374.90 358.47 345.85 377.00 349.00 Z"
       id="path23" />
  </g>
  <g
     fill="#FFFFFF"
     fill-opacity="1.00"
     stroke="None"
     id="g24">
    <path
       d=" M 377.00 349.00  C 358.47 345.85 351.65 374.90 371.00 379.00 C 390.35 383.10 395.65 352.18 377.00 349.00 Z"
       id="path24" />
  </g>
  <g
     fill="#000000"
     fill-opacity="1.00"
     stroke="None"
     id="g25">
    <path
       d=" M 295.00 472.00  C 288.16 472.48 279.55 473.82 273.08 470.92 C 266.60 468.03 262.83 466.94 258.77 460.23 C 254.71 453.51 253.46 450.82 252.93 441.07 C 252.39 431.32 243.46 436.36 246.07 444.93 C 248.69 453.49 248.58 456.85 252.75 463.25 C 256.91 469.66 259.69 471.65 265.92 475.08 C 272.16 478.50 279.60 479.21 287.00 479.00 C 294.40 478.79 301.92 478.22 308.98 480.02 C 316.03 481.83 323.70 480.64 330.32 478.32 C 336.94 476.01 340.02 473.50 345.08 468.08 C 350.15 462.66 349.46 458.38 353.22 451.22 C 356.99 444.06 350.55 436.78 347.98 444.98 C 345.40 453.17 345.18 457.32 340.75 462.75 C 336.32 468.19 331.84 471.96 326.01 473.01 C 320.18 474.06 308.31 476.66 303.26 472.74 C 298.21 468.83 304.94 456.48 303.00 450.00 C 301.06 443.52 313.10 442.52 317.77 439.77 C 322.44 437.02 327.23 432.46 330.75 427.75 C 334.26 423.03 337.23 414.81 332.25 409.75 C 327.27 404.69 323.57 402.00 317.02 399.98 C 310.48 397.96 302.27 396.11 295.02 397.02 C 287.78 397.94 282.85 399.41 276.75 403.75 C 270.65 408.09 271.85 415.91 274.03 421.97 C 276.20 428.04 279.95 431.90 284.25 436.75 C 288.55 441.61 298.22 441.51 296.99 448.99 C 295.76 456.47 296.28 464.53 295.00 472.00 M 311.00 403.00  C 320.33 403.57 320.89 413.89 310.75 413.20 C 300.62 412.51 300.61 402.37 311.00 403.00 Z"
       id="path25" />
  </g>
  <g
     fill="#FFFFFF"
     fill-opacity="1.00"
     stroke="None"
     id="g26">
    <path
       d=" M 311.00 403.00  C 300.61 402.37 300.62 412.51 310.75 413.20 C 320.89 413.89 320.33 403.57 311.00 403.00 Z"
       id="path26" />
  </g>
  <g
     fill="#FFFFFF"
     fill-opacity="1.00"
     stroke="None"
     id="g27">
    <path
       d=" M 463.00 562.00  C 454.72 566.74 441.29 564.67 433.01 568.01 C 424.72 571.35 407.48 564.97 404.00 574.00 C 400.52 583.03 406.61 599.31 404.00 609.00 C 421.05 610.00 436.37 609.51 452.98 604.98 C 469.58 600.44 456.23 575.24 463.00 562.00 Z"
       id="path27" />
  </g>
</svg>
