<?xml version="1.0" encoding="UTF-8" standalone="no"?>
<svg
   viewBox="0 0 572 778"
   width="572"
   height="778"
   version="1.1"
   id="svg108"
   sodipodi:docname="2 (1).svg"
   inkscape:version="1.4.2 (f4327f4, 2025-05-13)"
   xmlns:inkscape="http://www.inkscape.org/namespaces/inkscape"
   xmlns:sodipodi="http://sodipodi.sourceforge.net/DTD/sodipodi-0.dtd"
   xmlns="http://www.w3.org/2000/svg"
   xmlns:svg="http://www.w3.org/2000/svg">
  <defs
     id="defs108" />
  <sodipodi:namedview
     id="namedview108"
     pagecolor="#ffffff"
     bordercolor="#000000"
     borderopacity="0.25"
     inkscape:showpageshadow="2"
     inkscape:pageopacity="0.0"
     inkscape:pagecheckerboard="0"
     inkscape:deskcolor="#d1d1d1"
     inkscape:zoom="1.407455"
     inkscape:cx="285.97717"
     inkscape:cy="389"
     inkscape:window-width="2560"
     inkscape:window-height="1334"
     inkscape:window-x="-11"
     inkscape:window-y="-11"
     inkscape:window-maximized="1"
     inkscape:current-layer="svg108" />
  <g
     fill="None"
     fill-opacity="0.0"
     stroke="#FEFEFE"
     stroke-opacity="1.00"
     stroke-width="0.3"
     id="g1">
    <path
       d=" M 0.00 778.00  L 572.00 778.00 L 572.00 0.00 L 0.00 0.00 L 0.00 778.00 M 456.00 45.00  C 456.33 43.26 455.43 40.48 458.00 40.00 C 457.39 43.17 459.25 47.65 457.00 50.00 C 452.01 77.84 442.48 104.28 427.00 128.00 C 485.49 163.51 525.07 239.51 507.01 306.01 C 488.95 372.50 436.24 422.68 370.00 436.00 C 366.76 449.80 361.98 462.89 350.25 472.25 C 338.52 481.61 317.88 481.12 303.93 478.07 C 289.97 475.03 274.32 464.77 265.00 481.00 C 271.44 482.63 279.63 485.16 283.75 491.25 C 287.88 497.33 292.08 502.11 294.77 509.23 C 297.47 516.35 299.82 526.94 299.00 535.00 C 298.18 543.06 297.99 550.03 290.75 555.75 C 283.51 561.47 289.92 567.05 293.00 574.00 C 312.75 549.13 342.10 533.33 374.00 533.00 C 353.19 559.28 336.87 604.35 295.00 595.00 C 294.97 601.53 292.09 607.52 289.00 613.00 C 287.50 615.61 283.19 619.08 283.00 622.00 C 283.99 629.69 285.03 638.75 275.00 642.00 C 274.40 659.66 275.90 676.80 281.00 693.00 C 323.84 685.66 360.92 659.08 405.00 656.00 C 408.46 655.67 412.61 655.67 416.00 656.00 C 440.79 656.00 469.23 676.95 471.00 703.00 C 471.57 706.20 471.56 708.85 471.00 712.00 C 470.18 724.06 462.38 743.13 447.92 745.92 C 433.47 748.72 420.84 757.60 405.78 761.78 C 390.71 765.95 367.71 764.02 351.33 763.67 C 334.95 763.32 318.00 757.70 302.00 755.00 C 298.30 754.37 296.11 753.32 293.00 752.00 C 277.09 747.11 258.35 740.23 251.00 724.00 C 222.09 739.26 190.71 754.63 157.00 756.00 C 123.29 757.37 80.44 758.32 61.00 727.00 C 30.89 720.38 32.21 679.79 55.70 663.70 C 79.18 647.60 112.52 648.22 138.67 659.33 C 164.82 670.43 191.63 681.57 221.00 682.00 C 222.62 670.63 214.75 660.54 214.08 649.92 C 213.40 639.31 196.92 635.36 200.00 624.00 C 203.09 612.63 196.14 606.75 190.70 597.30 C 185.25 587.85 180.82 578.89 180.01 567.99 C 179.19 557.09 172.03 549.45 168.22 539.78 C 164.42 530.10 168.98 515.70 173.31 507.31 C 177.63 498.91 182.71 491.36 191.25 486.25 C 199.78 481.13 206.29 473.73 217.69 472.69 C 229.09 471.66 230.38 456.05 219.77 451.23 C 209.15 446.41 200.98 444.12 190.92 440.08 C 180.87 436.03 172.60 433.52 164.25 426.75 C 155.89 419.98 150.36 410.91 151.00 400.00 C 151.64 389.09 152.09 378.59 161.25 371.25 C 170.41 363.92 164.97 352.26 162.22 341.78 C 159.47 331.29 156.45 321.03 153.67 310.33 C 150.89 299.63 148.13 289.21 146.00 278.00 C 143.88 266.78 141.74 254.02 142.00 242.00 C 142.26 229.98 142.17 216.28 145.78 205.78 C 149.38 195.28 151.03 186.76 157.25 178.25 C 163.47 169.74 167.55 163.15 175.25 156.25 C 182.95 149.35 188.82 143.73 197.25 138.25 C 205.67 132.76 213.14 127.98 222.23 123.23 C 231.32 118.48 240.25 114.64 250.22 111.22 C 260.20 107.81 270.24 104.18 281.07 102.07 C 291.91 99.96 305.33 97.67 317.00 98.00 C 322.04 97.51 328.03 97.52 333.00 98.00 C 343.46 98.00 360.90 104.17 360.00 91.00 C 359.10 77.83 360.00 67.44 357.01 55.99 C 354.01 44.55 351.69 38.38 347.00 28.00 C 345.52 25.68 342.29 23.52 343.00 20.00 C 344.92 19.49 345.23 21.84 346.00 23.00 C 361.75 45.00 366.16 74.67 363.00 101.00 C 371.92 102.46 380.35 105.56 389.00 108.00 C 399.98 74.67 405.00 40.09 404.00 4.00 C 409.41 6.85 408.16 17.91 408.00 25.00 C 407.84 32.09 406.38 40.76 406.00 48.00 C 405.62 55.24 403.98 62.70 402.67 69.67 C 401.36 76.65 399.50 83.20 398.07 90.07 C 396.65 96.95 393.60 102.93 393.00 110.00 C 404.05 112.80 413.92 119.49 424.00 125.00 C 440.10 100.72 452.04 73.77 456.00 45.00 Z"
       id="path1" />
  </g>
  <g
     fill="None"
     fill-opacity="0.0"
     stroke="#171717"
     stroke-opacity="1.00"
     stroke-width="0.3"
     id="g2">
    <path
       d=" M 346.00 23.00  C 346.06 23.14 346.37 26.60 347.00 28.00 C 351.69 38.38 354.01 44.55 357.01 55.99 C 360.00 67.44 359.10 77.83 360.00 91.00 C 360.90 104.17 343.46 98.00 333.00 98.00 C 327.67 98.00 322.33 98.00 317.00 98.00 C 305.33 97.67 291.91 99.96 281.07 102.07 C 270.24 104.18 260.20 107.81 250.22 111.22 C 240.25 114.64 231.32 118.48 222.23 123.23 C 213.14 127.98 205.67 132.76 197.25 138.25 C 188.82 143.73 182.95 149.35 175.25 156.25 C 167.55 163.15 163.47 169.74 157.25 178.25 C 151.03 186.76 149.38 195.28 145.78 205.78 C 142.17 216.28 142.26 229.98 142.00 242.00 C 141.74 254.02 143.88 266.78 146.00 278.00 C 148.13 289.21 150.89 299.63 153.67 310.33 C 156.45 321.03 159.47 331.29 162.22 341.78 C 164.97 352.26 170.41 363.92 161.25 371.25 C 152.09 378.59 151.64 389.09 151.00 400.00 C 150.36 410.91 155.89 419.98 164.25 426.75 C 172.60 433.52 180.87 436.03 190.92 440.08 C 200.98 444.12 209.15 446.41 219.77 451.23 C 230.38 456.05 229.09 471.66 217.69 472.69 C 206.29 473.73 199.78 481.13 191.25 486.25 C 182.71 491.36 177.63 498.91 173.31 507.31 C 168.98 515.70 164.42 530.10 168.22 539.78 C 172.03 549.45 179.19 557.09 180.01 567.99 C 180.82 578.89 185.25 587.85 190.70 597.30 C 196.14 606.75 203.09 612.63 200.00 624.00 C 196.92 635.36 213.40 639.31 214.08 649.92 C 214.75 660.54 222.62 670.63 221.00 682.00 C 191.63 681.57 164.82 670.43 138.67 659.33 C 112.52 648.22 79.18 647.60 55.70 663.70 C 32.21 679.79 30.89 720.38 61.00 727.00 C 80.44 758.32 123.29 757.37 157.00 756.00 C 190.71 754.63 222.09 739.26 251.00 724.00 C 258.35 740.23 277.09 747.11 293.00 752.00 C 295.91 752.90 299.39 754.26 302.00 755.00 C 318.00 757.70 334.95 763.32 351.33 763.67 C 367.71 764.02 390.71 765.95 405.78 761.78 C 420.84 757.60 433.47 748.72 447.92 745.92 C 462.38 743.13 470.18 724.06 471.00 712.00 C 471.20 709.09 471.20 705.91 471.00 703.00 C 469.23 676.95 440.79 656.00 416.00 656.00 C 412.33 656.00 408.67 656.00 405.00 656.00 C 360.92 659.08 323.84 685.66 281.00 693.00 C 275.90 676.80 274.40 659.66 275.00 642.00 C 285.03 638.75 283.99 629.69 283.00 622.00 C 282.56 618.58 286.73 616.14 289.00 613.00 C 292.09 607.52 294.97 601.53 295.00 595.00 C 336.87 604.35 353.19 559.28 374.00 533.00 C 342.10 533.33 312.75 549.13 293.00 574.00 C 289.92 567.05 283.51 561.47 290.75 555.75 C 297.99 550.03 298.18 543.06 299.00 535.00 C 299.82 526.94 297.47 516.35 294.77 509.23 C 292.08 502.11 287.88 497.33 283.75 491.25 C 279.63 485.16 271.44 482.63 265.00 481.00 C 274.32 464.77 289.97 475.03 303.93 478.07 C 317.88 481.12 338.52 481.61 350.25 472.25 C 361.98 462.89 366.76 449.80 370.00 436.00 C 436.24 422.68 488.95 372.50 507.01 306.01 C 525.07 239.51 485.49 163.51 427.00 128.00 C 442.48 104.28 452.01 77.84 457.00 50.00 C 457.03 48.25 456.05 45.99 456.00 45.00 C 452.04 73.77 440.10 100.72 424.00 125.00 C 413.92 119.49 404.05 112.80 393.00 110.00 C 393.60 102.93 396.65 96.95 398.07 90.07 C 399.50 83.20 401.36 76.65 402.67 69.67 C 403.98 62.70 405.62 55.24 406.00 48.00 C 406.38 40.76 407.84 32.09 408.00 25.00 C 408.16 17.91 409.41 6.85 404.00 4.00 C 405.00 40.09 399.98 74.67 389.00 108.00 C 380.35 105.56 371.92 102.46 363.00 101.00 C 366.16 74.67 361.75 45.00 346.00 23.00 M 260.00 465.00  C 259.65 465.07 259.21 465.96 259.00 466.00 C 262.65 467.17 267.15 467.59 270.00 470.00 C 267.08 472.85 263.46 476.20 262.00 480.00 C 252.90 478.96 243.61 481.89 238.00 489.00 C 248.00 482.93 263.96 480.75 273.70 488.30 C 283.43 495.86 290.04 503.93 292.98 516.02 C 295.91 528.12 300.10 541.99 289.69 553.70 C 279.29 565.40 273.95 546.46 273.22 535.78 C 272.49 525.10 260.86 513.56 252.00 509.00 C 251.67 508.99 251.15 510.01 251.00 510.00 C 264.43 518.31 259.87 532.59 261.00 545.00 C 262.13 557.41 280.31 556.42 285.75 568.25 C 291.20 580.07 293.73 593.81 288.07 606.07 C 282.42 618.34 275.99 624.35 265.00 631.00 C 271.27 630.75 275.61 625.13 281.00 623.00 C 284.47 633.27 274.36 639.57 266.98 641.98 C 259.59 644.38 244.31 637.98 253.00 632.00 C 241.98 634.06 230.12 631.28 220.00 627.00 C 218.84 626.74 215.95 625.46 218.00 628.00 C 222.71 630.95 228.57 632.60 234.00 634.00 C 224.46 650.29 194.70 632.42 204.00 615.00 C 206.76 616.42 208.27 619.65 211.00 621.00 C 177.56 585.41 172.63 525.44 208.00 489.00 C 189.88 503.77 180.00 527.49 177.00 550.00 C 172.47 543.85 170.79 535.87 171.33 528.33 C 171.87 520.79 174.46 513.54 177.92 506.92 C 181.38 500.31 185.25 495.72 190.75 490.75 C 196.25 485.78 201.24 483.50 208.08 480.08 C 214.91 476.65 220.48 475.26 228.08 472.08 C 235.68 468.90 225.47 453.16 234.00 457.00 C 213.51 439.91 189.40 440.67 167.77 424.23 C 146.14 407.79 157.59 369.94 180.00 360.00 C 176.66 360.70 174.40 363.56 171.00 364.00 C 155.67 304.03 124.43 216.25 174.25 164.25 C 224.07 112.25 290.41 96.62 359.00 104.00 C 359.44 110.83 351.92 122.10 358.00 126.00 C 359.72 118.66 361.86 111.51 363.00 104.00 C 376.92 108.35 393.78 112.48 406.74 119.26 C 419.71 126.04 430.37 133.94 441.25 143.75 C 452.13 153.56 462.25 161.84 471.25 173.75 C 480.25 185.67 487.32 196.22 493.77 210.23 C 500.22 224.23 504.20 241.16 505.78 257.22 C 507.36 273.29 504.53 296.29 500.01 311.01 C 495.48 325.73 489.36 338.90 481.69 351.70 C 474.03 364.49 465.79 374.53 455.25 385.25 C 444.70 395.97 436.17 404.69 422.77 411.77 C 409.38 418.85 398.80 428.00 381.93 429.93 C 365.05 431.86 364.30 449.26 353.75 461.75 C 343.20 474.25 326.08 477.74 309.99 475.01 C 293.90 472.28 276.81 465.75 260.00 465.00 M 273.00 552.00  C 270.21 550.22 267.51 547.89 264.00 548.00 C 263.92 539.97 266.39 531.87 264.00 524.00 C 269.94 530.64 272.95 542.13 273.00 552.00 M 310.00 592.00  C 306.69 592.64 301.23 594.28 298.00 592.00 C 288.66 585.39 298.87 569.66 306.75 563.75 C 314.63 557.85 322.72 550.40 332.68 546.68 C 342.64 542.95 355.35 536.49 367.00 537.00 C 350.53 557.36 339.36 588.19 310.00 592.00 M 248.00 664.00  C 244.62 655.63 230.68 643.67 237.00 634.00 C 241.77 634.05 251.39 636.70 251.92 643.08 C 252.44 649.47 246.79 657.12 248.00 664.00 M 94.00 677.00  C 94.22 676.87 94.00 676.00 94.00 676.00 C 71.25 678.51 53.13 699.24 59.00 723.00 C 54.04 720.93 48.10 716.28 46.23 710.77 C 44.36 705.26 40.93 695.05 43.00 689.00 C 45.07 682.95 48.12 677.07 52.30 672.30 C 56.49 667.53 61.26 664.98 67.08 662.08 C 72.90 659.17 80.12 657.03 87.07 656.07 C 94.02 655.11 103.91 656.86 111.00 657.00 C 118.09 657.14 124.37 660.65 131.22 661.78 C 138.07 662.91 144.09 666.33 150.68 668.32 C 157.27 670.32 161.98 673.75 169.02 674.98 C 176.07 676.20 181.31 680.63 189.02 680.98 C 196.74 681.32 201.52 685.30 210.22 684.78 C 218.93 684.26 224.69 687.78 223.00 698.00 C 226.20 679.12 221.64 660.53 216.00 643.00 C 221.34 644.77 226.75 643.35 232.00 642.00 C 236.75 653.47 246.98 662.34 246.00 676.00 C 245.02 689.66 243.22 706.88 248.00 720.00 C 222.16 733.36 200.72 745.41 170.93 749.93 C 141.13 754.44 105.75 753.01 78.77 738.23 C 51.79 723.45 65.00 681.58 94.00 677.00 M 272.00 657.00  C 272.00 662.54 272.76 672.16 273.00 677.00 C 273.23 681.84 278.70 691.04 276.00 694.00 C 274.55 695.59 272.11 694.83 270.00 695.00 C 270.53 696.60 272.75 695.72 274.00 696.00 C 308.36 691.85 346.66 676.19 378.22 665.22 C 409.79 654.26 465.17 662.66 466.00 704.00 C 466.37 707.10 466.60 709.89 466.00 713.00 C 464.76 728.58 451.53 742.92 436.00 745.00 C 450.34 726.77 444.40 690.78 417.00 690.00 C 436.84 694.73 444.35 720.83 434.02 738.03 C 423.70 755.22 399.37 758.31 381.00 759.00 C 374.39 759.64 366.54 759.63 360.00 759.00 C 326.80 759.00 296.79 752.32 267.77 736.23 C 238.75 720.14 249.80 671.47 255.00 645.00 C 259.84 646.19 264.06 645.50 269.00 645.00 C 269.20 645.01 271.10 643.09 272.00 644.00 C 272.00 648.33 272.00 652.67 272.00 657.00 Z"
       id="path2" />
  </g>
  <g
     fill="None"
     fill-opacity="0.0"
     stroke="#B8B8B8"
     stroke-opacity="1.00"
     stroke-width="0.3"
     id="g3">
    <path
       d=" M 347.00 28.00  C 346.37 26.60 346.06 23.14 346.00 23.00 C 345.23 21.84 344.92 19.49 343.00 20.00 C 342.29 23.52 345.52 25.68 347.00 28.00 Z"
       id="path3" />
  </g>
  <g
     fill="None"
     fill-opacity="0.0"
     stroke="#808080"
     stroke-opacity="1.00"
     stroke-width="0.3"
     id="g4">
    <path
       d=" M 456.00 45.00  C 456.05 45.99 457.03 48.25 457.00 50.00 C 459.25 47.65 457.39 43.17 458.00 40.00 C 455.43 40.48 456.33 43.26 456.00 45.00 Z"
       id="path4" />
  </g>
  <g
     fill="None"
     fill-opacity="0.0"
     stroke="#9A9A9A"
     stroke-opacity="1.00"
     stroke-width="0.3"
     id="g5">
    <path
       d=" M 317.00 98.00  C 322.33 98.00 327.67 98.00 333.00 98.00 C 328.03 97.52 322.04 97.51 317.00 98.00 Z"
       id="path5" />
  </g>
  <g
     fill="None"
     fill-opacity="0.0"
     stroke="#FBFBFB"
     stroke-opacity="1.00"
     stroke-width="0.3"
     id="g6">
    <path
       d=" M 218.00 628.00  C 216.04 626.77 213.79 625.91 214.00 623.00 C 216.22 623.51 218.80 624.98 220.00 627.00 C 230.12 631.28 241.98 634.06 253.00 632.00 C 244.31 637.98 259.59 644.38 266.98 641.98 C 274.36 639.57 284.47 633.27 281.00 623.00 C 275.61 625.13 271.27 630.75 265.00 631.00 C 275.99 624.35 282.42 618.34 288.07 606.07 C 293.73 593.81 291.20 580.07 285.75 568.25 C 280.31 556.42 262.13 557.41 261.00 545.00 C 259.87 532.59 264.43 518.31 251.00 510.00 C 248.84 508.66 246.63 506.93 244.00 507.00 C 246.11 504.57 250.28 507.36 252.00 509.00 C 260.86 513.56 272.49 525.10 273.22 535.78 C 273.95 546.46 279.29 565.40 289.69 553.70 C 300.10 541.99 295.91 528.12 292.98 516.02 C 290.04 503.93 283.43 495.86 273.70 488.30 C 263.96 480.75 248.00 482.93 238.00 489.00 C 243.61 481.89 252.90 478.96 262.00 480.00 C 263.46 476.20 267.08 472.85 270.00 470.00 C 267.15 467.59 262.65 467.17 259.00 466.00 C 257.40 465.49 254.77 466.04 254.00 464.00 C 255.88 464.47 258.93 462.94 260.00 465.00 C 276.81 465.75 293.90 472.28 309.99 475.01 C 326.08 477.74 343.20 474.25 353.75 461.75 C 364.30 449.26 365.05 431.86 381.93 429.93 C 398.80 428.00 409.38 418.85 422.77 411.77 C 436.17 404.69 444.70 395.97 455.25 385.25 C 465.79 374.53 474.03 364.49 481.69 351.70 C 489.36 338.90 495.48 325.73 500.01 311.01 C 504.53 296.29 507.36 273.29 505.78 257.22 C 504.20 241.16 500.22 224.23 493.77 210.23 C 487.32 196.22 480.25 185.67 471.25 173.75 C 462.25 161.84 452.13 153.56 441.25 143.75 C 430.37 133.94 419.71 126.04 406.74 119.26 C 393.78 112.48 376.92 108.35 363.00 104.00 C 361.86 111.51 359.72 118.66 358.00 126.00 C 351.92 122.10 359.44 110.83 359.00 104.00 C 290.41 96.62 224.07 112.25 174.25 164.25 C 124.43 216.25 155.67 304.03 171.00 364.00 C 174.40 363.56 176.66 360.70 180.00 360.00 C 157.59 369.94 146.14 407.79 167.77 424.23 C 189.40 440.67 213.51 439.91 234.00 457.00 C 225.47 453.16 235.68 468.90 228.08 472.08 C 220.48 475.26 214.91 476.65 208.08 480.08 C 201.24 483.50 196.25 485.78 190.75 490.75 C 185.25 495.72 181.38 500.31 177.92 506.92 C 174.46 513.54 171.87 520.79 171.33 528.33 C 170.79 535.87 172.47 543.85 177.00 550.00 C 180.00 527.49 189.88 503.77 208.00 489.00 C 172.63 525.44 177.56 585.41 211.00 621.00 C 208.27 619.65 206.76 616.42 204.00 615.00 C 194.70 632.42 224.46 650.29 234.00 634.00 C 228.57 632.60 222.71 630.95 218.00 628.00 M 225.00 166.00  C 232.72 165.39 239.72 166.87 247.00 168.00 C 240.24 169.01 231.55 167.37 224.00 169.00 C 224.66 182.40 227.46 198.69 232.32 210.68 C 237.19 222.67 240.29 237.18 255.00 238.00 C 247.29 217.69 248.01 192.69 257.00 173.00 C 257.79 171.05 258.11 167.71 261.00 168.00 C 259.64 169.51 260.51 172.46 258.00 173.00 C 257.11 184.85 253.00 194.64 253.00 207.00 C 253.23 209.35 253.84 213.01 254.00 216.00 C 255.21 238.26 271.00 252.59 271.00 275.00 C 271.33 278.46 271.33 282.61 271.00 286.00 C 271.00 303.49 264.48 322.94 258.23 338.23 C 251.98 353.52 246.00 370.32 229.00 375.00 C 229.98 378.96 234.54 381.15 236.00 385.00 C 226.23 377.75 215.87 369.52 203.00 369.00 C 200.65 368.74 196.93 370.03 196.00 367.00 C 197.00 367.00 198.00 367.00 199.00 367.00 C 204.76 365.86 210.43 368.01 216.00 368.00 C 208.87 353.48 210.91 337.92 215.93 322.93 C 220.95 307.93 225.45 299.68 237.25 287.25 C 249.05 274.82 268.75 287.35 265.00 305.00 C 267.57 286.79 269.72 267.78 261.22 250.78 C 252.73 233.77 231.20 239.35 222.70 253.70 C 214.19 268.04 206.50 282.61 206.00 300.00 C 205.59 303.68 204.57 307.82 204.00 311.00 C 203.36 318.00 202.63 324.86 202.00 332.00 C 201.89 333.29 202.65 335.49 201.00 336.00 C 201.41 332.82 199.31 330.28 200.00 327.00 C 199.25 297.73 206.81 259.62 231.00 241.00 C 215.72 226.63 201.43 207.65 202.00 185.00 C 200.31 184.68 198.71 186.32 199.00 188.00 C 197.30 190.25 196.66 193.64 194.00 195.00 C 194.56 193.40 194.50 190.97 196.00 190.00 C 197.14 187.01 198.94 184.07 200.00 181.00 C 200.59 178.12 199.56 174.91 200.00 172.00 C 201.40 171.49 202.15 172.81 202.00 174.00 C 202.67 174.68 201.49 177.17 202.00 178.00 C 207.43 172.68 213.69 168.57 221.00 167.00 C 223.20 164.50 220.84 160.53 223.00 158.00 C 225.59 159.64 222.34 164.43 225.00 166.00 M 424.00 235.00  C 423.14 237.49 422.00 239.82 421.00 242.00 C 413.80 257.75 401.26 271.05 387.00 281.00 C 394.56 286.22 402.36 287.44 410.08 283.08 C 417.79 278.71 424.99 277.33 431.25 271.25 C 437.50 265.16 442.87 261.91 448.00 255.00 C 449.92 252.56 451.33 249.60 454.00 248.00 C 453.60 250.11 452.62 252.66 451.00 254.00 C 439.52 271.62 421.51 284.70 401.00 289.00 C 403.17 303.48 420.29 299.29 431.07 298.07 C 441.85 296.86 453.03 290.72 463.00 287.00 C 448.01 301.61 425.46 304.02 405.00 301.00 C 409.12 335.96 389.43 370.21 366.00 394.00 C 377.55 380.80 382.69 370.50 390.32 354.32 C 397.95 338.14 402.13 322.91 401.01 303.99 C 399.88 285.07 376.12 278.74 362.77 290.77 C 349.42 302.80 340.27 310.20 333.00 326.00 C 342.08 312.72 361.72 315.84 364.78 331.22 C 367.84 346.61 363.77 363.74 358.03 377.02 C 352.28 390.31 344.09 400.51 331.00 406.00 C 332.99 409.44 337.98 407.89 341.00 410.00 C 343.70 410.85 346.53 411.39 349.00 413.00 C 346.72 414.95 342.20 412.23 340.00 411.00 C 328.94 412.31 317.02 407.13 306.00 411.00 C 309.33 408.71 313.98 408.14 318.00 407.00 C 304.86 385.61 315.59 352.98 325.31 333.31 C 335.02 313.63 347.90 292.33 368.70 283.70 C 389.49 275.06 410.05 263.31 420.00 241.00 C 421.28 238.67 422.12 236.44 423.00 234.00 C 423.92 231.45 425.27 228.92 425.00 226.00 C 427.18 228.22 425.24 232.89 424.00 235.00 M 455.00 240.00  C 465.22 244.26 470.37 250.43 471.00 262.00 C 471.53 265.28 473.37 270.79 471.00 274.00 C 471.00 274.50 471.00 275.00 471.00 275.00 C 471.14 276.82 471.25 279.46 469.00 280.00 C 469.00 275.00 469.00 270.00 469.00 265.00 C 468.19 253.14 460.67 244.24 450.00 240.00 C 448.33 239.33 445.59 239.27 445.00 237.00 C 448.25 237.93 452.69 237.27 455.00 240.00 M 233.00 416.00  C 230.60 416.92 229.51 422.68 226.00 422.00 C 226.96 420.43 228.32 418.75 230.00 418.00 C 235.63 410.80 233.31 401.56 235.00 394.00 C 236.23 396.17 236.22 398.68 237.00 401.00 C 254.19 388.74 281.42 394.03 286.00 417.00 C 289.61 416.75 291.51 412.43 295.00 412.00 C 287.22 419.97 280.42 429.45 281.00 441.00 C 278.81 437.91 280.57 432.84 280.00 429.00 C 271.84 435.06 260.17 437.35 250.78 434.22 C 241.38 431.10 238.78 418.53 233.00 416.00 M 208.00 534.00  C 208.00 537.17 208.80 541.65 207.00 544.00 C 207.21 540.54 205.30 537.60 206.00 534.00 C 205.46 519.79 209.11 505.07 219.00 495.00 C 213.36 507.12 207.64 519.81 208.00 534.00 Z"
       id="path6" />
  </g>
  <g
     fill="None"
     fill-opacity="0.0"
     stroke="#606060"
     stroke-opacity="1.00"
     stroke-width="0.3"
     id="g7">
    <path
       d=" M 221.00 167.00  C 222.49 166.64 224.09 166.07 225.00 166.00 C 222.34 164.43 225.59 159.64 223.00 158.00 C 220.84 160.53 223.20 164.50 221.00 167.00 Z"
       id="path7" />
  </g>
  <g
     fill="None"
     fill-opacity="0.0"
     stroke="#0F0F0F"
     stroke-opacity="1.00"
     stroke-width="0.3"
     id="g8">
    <path
       d=" M 221.00 167.00  C 213.69 168.57 207.43 172.68 202.00 178.00 C 201.49 177.17 202.67 174.68 202.00 174.00 C 202.17 175.07 200.40 179.86 200.00 181.00 C 198.94 184.07 197.14 187.01 196.00 190.00 C 195.39 190.82 198.48 188.50 199.00 188.00 C 198.71 186.32 200.31 184.68 202.00 185.00 C 201.43 207.65 215.72 226.63 231.00 241.00 C 206.81 259.62 199.25 297.73 200.00 327.00 C 200.14 328.00 201.89 331.06 202.00 332.00 C 202.63 324.86 203.36 318.00 204.00 311.00 C 204.37 306.88 205.26 303.45 206.00 300.00 C 206.50 282.61 214.19 268.04 222.70 253.70 C 231.20 239.35 252.73 233.77 261.22 250.78 C 269.72 267.78 267.57 286.79 265.00 305.00 C 268.75 287.35 249.05 274.82 237.25 287.25 C 225.45 299.68 220.95 307.93 215.93 322.93 C 210.91 337.92 208.87 353.48 216.00 368.00 C 210.43 368.01 204.76 365.86 199.00 367.00 C 199.80 367.08 202.22 368.78 203.00 369.00 C 215.87 369.52 226.23 377.75 236.00 385.00 C 234.54 381.15 229.98 378.96 229.00 375.00 C 246.00 370.32 251.98 353.52 258.23 338.23 C 264.48 322.94 271.00 303.49 271.00 286.00 C 271.00 282.33 271.00 278.67 271.00 275.00 C 271.00 252.59 255.21 238.26 254.00 216.00 C 253.58 213.43 253.00 210.21 253.00 207.00 C 253.00 194.64 257.11 184.85 258.00 173.00 C 257.61 173.21 257.00 173.00 257.00 173.00 C 248.01 192.69 247.29 217.69 255.00 238.00 C 240.29 237.18 237.19 222.67 232.32 210.68 C 227.46 198.69 224.66 182.40 224.00 169.00 C 231.55 167.37 240.24 169.01 247.00 168.00 C 239.72 166.87 232.72 165.39 225.00 166.00 C 224.09 166.07 222.49 166.64 221.00 167.00 M 222.00 171.00  C 221.41 194.71 229.66 216.53 242.00 236.00 C 229.63 241.36 222.09 227.87 215.75 218.25 C 209.40 208.64 205.14 193.48 203.00 182.00 C 208.69 177.23 214.22 171.20 222.00 171.00 M 260.00 321.00  C 255.34 302.12 237.78 312.84 231.70 325.70 C 225.61 338.55 217.29 354.43 222.00 370.00 C 209.74 359.74 212.64 337.15 218.93 322.93 C 225.22 308.71 227.27 296.57 242.75 286.75 C 258.24 276.93 269.22 308.23 260.00 321.00 Z"
       id="path8" />
  </g>
  <g
     fill="None"
     fill-opacity="0.0"
     stroke="#828282"
     stroke-opacity="1.00"
     stroke-width="0.3"
     id="g9">
    <path
       d=" M 257.00 173.00  C 257.00 173.00 257.61 173.21 258.00 173.00 C 260.51 172.46 259.64 169.51 261.00 168.00 C 258.11 167.71 257.79 171.05 257.00 173.00 Z"
       id="path9" />
  </g>
  <g
     fill="None"
     fill-opacity="0.0"
     stroke="#F3F3F3"
     stroke-opacity="1.00"
     stroke-width="0.3"
     id="g10">
    <path
       d=" M 222.00 171.00  C 214.22 171.20 208.69 177.23 203.00 182.00 C 205.14 193.48 209.40 208.64 215.75 218.25 C 222.09 227.87 229.63 241.36 242.00 236.00 C 229.66 216.53 221.41 194.71 222.00 171.00 Z"
       id="path10" />
  </g>
  <g
     fill="None"
     fill-opacity="0.0"
     stroke="#A5A5A5"
     stroke-opacity="1.00"
     stroke-width="0.3"
     id="g11">
    <path
       d=" M 200.00 181.00  C 200.40 179.86 202.17 175.07 202.00 174.00 C 202.15 172.81 201.40 171.49 200.00 172.00 C 199.56 174.91 200.59 178.12 200.00 181.00 Z"
       id="path11" />
  </g>
  <g
     fill="None"
     fill-opacity="0.0"
     stroke="#ACACAC"
     stroke-opacity="1.00"
     stroke-width="0.3"
     id="g12">
    <path
       d=" M 196.00 190.00  C 194.50 190.97 194.56 193.40 194.00 195.00 C 196.66 193.64 197.30 190.25 199.00 188.00 C 198.48 188.50 195.39 190.82 196.00 190.00 Z"
       id="path12" />
  </g>
  <g
     fill="None"
     fill-opacity="0.0"
     stroke="#969696"
     stroke-opacity="1.00"
     stroke-width="0.3"
     id="g13">
    <path
       d=" M 254.00 216.00  C 253.84 213.01 253.23 209.35 253.00 207.00 C 253.00 210.21 253.58 213.43 254.00 216.00 Z"
       id="path13" />
  </g>
  <g
     fill="None"
     fill-opacity="0.0"
     stroke="#7F7F7F"
     stroke-opacity="1.00"
     stroke-width="0.3"
     id="g14">
    <path
       d=" M 423.00 234.00  C 423.01 234.18 423.99 234.66 424.00 235.00 C 425.24 232.89 427.18 228.22 425.00 226.00 C 425.27 228.92 423.92 231.45 423.00 234.00 Z"
       id="path14" />
  </g>
  <g
     fill="None"
     fill-opacity="0.0"
     stroke="#464646"
     stroke-opacity="1.00"
     stroke-width="0.3"
     id="g15">
    <path
       d=" M 420.00 241.00  C 419.99 241.15 421.01 241.67 421.00 242.00 C 422.00 239.82 423.14 237.49 424.00 235.00 C 423.99 234.66 423.01 234.18 423.00 234.00 C 422.12 236.44 421.28 238.67 420.00 241.00 Z"
       id="path15" />
  </g>
  <g
     fill="None"
     fill-opacity="0.0"
     stroke="#8C8C8C"
     stroke-opacity="1.00"
     stroke-width="0.3"
     id="g16">
    <path
       d=" M 450.00 240.00  C 450.88 240.14 453.19 239.54 455.00 240.00 C 452.69 237.27 448.25 237.93 445.00 237.00 C 445.59 239.27 448.33 239.33 450.00 240.00 Z"
       id="path16" />
  </g>
  <g
     fill="None"
     fill-opacity="0.0"
     stroke="#1D1D1D"
     stroke-opacity="1.00"
     stroke-width="0.3"
     id="g17">
    <path
       d=" M 450.00 240.00  C 460.67 244.24 468.19 253.14 469.00 265.00 C 469.36 266.99 469.48 273.53 471.00 275.00 C 471.00 275.00 471.00 274.50 471.00 274.00 C 471.00 270.02 471.22 265.97 471.00 262.00 C 470.37 250.43 465.22 244.26 455.00 240.00 C 453.19 239.54 450.88 240.14 450.00 240.00 Z"
       id="path17" />
  </g>
  <g
     fill="None"
     fill-opacity="0.0"
     stroke="#101110"
     stroke-opacity="1.00"
     stroke-width="0.3"
     id="g18">
    <path
       d=" M 340.00 411.00  C 340.35 410.96 340.80 410.02 341.00 410.00 C 337.98 407.89 332.99 409.44 331.00 406.00 C 344.09 400.51 352.28 390.31 358.03 377.02 C 363.77 363.74 367.84 346.61 364.78 331.22 C 361.72 315.84 342.08 312.72 333.00 326.00 C 340.27 310.20 349.42 302.80 362.77 290.77 C 376.12 278.74 399.88 285.07 401.01 303.99 C 402.13 322.91 397.95 338.14 390.32 354.32 C 382.69 370.50 377.55 380.80 366.00 394.00 C 389.43 370.21 409.12 335.96 405.00 301.00 C 425.46 304.02 448.01 301.61 463.00 287.00 C 453.03 290.72 441.85 296.86 431.07 298.07 C 420.29 299.29 403.17 303.48 401.00 289.00 C 421.51 284.70 439.52 271.62 451.00 254.00 C 451.43 253.67 448.66 254.45 448.00 255.00 C 442.87 261.91 437.50 265.16 431.25 271.25 C 424.99 277.33 417.79 278.71 410.08 283.08 C 402.36 287.44 394.56 286.22 387.00 281.00 C 401.26 271.05 413.80 257.75 421.00 242.00 C 421.01 241.67 419.99 241.15 420.00 241.00 C 410.05 263.31 389.49 275.06 368.70 283.70 C 347.90 292.33 335.02 313.63 325.31 333.31 C 315.59 352.98 304.86 385.61 318.00 407.00 C 313.98 408.14 309.33 408.71 306.00 411.00 C 317.02 407.13 328.94 412.31 340.00 411.00 M 347.00 366.00  C 347.07 362.37 347.20 358.63 347.00 355.00 C 346.09 338.15 333.00 340.48 325.70 351.70 C 318.39 362.91 317.95 372.43 315.00 385.00 C 314.78 385.95 315.18 387.04 315.00 388.00 C 311.61 385.83 312.59 378.84 314.00 376.00 C 314.93 362.29 322.19 347.89 328.31 336.30 C 334.42 324.72 352.69 312.71 359.92 327.08 C 367.16 341.44 361.61 358.92 357.07 372.07 C 352.54 385.23 344.63 396.07 333.00 403.00 C 341.10 392.25 346.53 379.61 347.00 366.00 Z"
       id="path18" />
  </g>
  <g
     fill="None"
     fill-opacity="0.0"
     stroke="#5E5E5E"
     stroke-opacity="1.00"
     stroke-width="0.3"
     id="g19">
    <path
       d=" M 448.00 255.00  C 448.66 254.45 451.43 253.67 451.00 254.00 C 452.62 252.66 453.60 250.11 454.00 248.00 C 451.33 249.60 449.92 252.56 448.00 255.00 Z"
       id="path19" />
  </g>
  <g
     fill="None"
     fill-opacity="0.0"
     stroke="#828282"
     stroke-opacity="1.00"
     stroke-width="0.3"
     id="g20">
    <path
       d=" M 471.00 274.00  C 473.37 270.79 471.53 265.28 471.00 262.00 C 471.22 265.97 471.00 270.02 471.00 274.00 Z"
       id="path20" />
  </g>
  <g
     fill="None"
     fill-opacity="0.0"
     stroke="#959595"
     stroke-opacity="1.00"
     stroke-width="0.3"
     id="g21">
    <path
       d=" M 471.00 275.00  C 469.48 273.53 469.36 266.99 469.00 265.00 C 469.00 270.00 469.00 275.00 469.00 280.00 C 471.25 279.46 471.14 276.82 471.00 275.00 Z"
       id="path21" />
  </g>
  <g
     fill="None"
     fill-opacity="0.0"
     stroke="#818181"
     stroke-opacity="1.00"
     stroke-width="0.3"
     id="g22">
    <path
       d=" M 271.00 286.00  C 271.33 282.61 271.33 278.46 271.00 275.00 C 271.00 278.67 271.00 282.33 271.00 286.00 Z"
       id="path22" />
  </g>
  <g
     fill="None"
     fill-opacity="0.0"
     stroke="#F1F1F1"
     stroke-opacity="1.00"
     stroke-width="0.3"
     id="g23">
    <path
       d=" M 260.00 321.00  C 269.22 308.23 258.24 276.93 242.75 286.75 C 227.27 296.57 225.22 308.71 218.93 322.93 C 212.64 337.15 209.74 359.74 222.00 370.00 C 217.29 354.43 225.61 338.55 231.70 325.70 C 237.78 312.84 255.34 302.12 260.00 321.00 Z"
       id="path23" />
  </g>
  <g
     fill="None"
     fill-opacity="0.0"
     stroke="#7C7C7C"
     stroke-opacity="1.00"
     stroke-width="0.3"
     id="g24">
    <path
       d=" M 204.00 311.00  C 204.57 307.82 205.59 303.68 206.00 300.00 C 205.26 303.45 204.37 306.88 204.00 311.00 Z"
       id="path24" />
  </g>
  <g
     fill="None"
     fill-opacity="0.0"
     stroke="#EFEFEF"
     stroke-opacity="1.00"
     stroke-width="0.3"
     id="g25">
    <path
       d=" M 314.00 376.00  C 313.81 378.79 315.13 383.13 315.00 385.00 C 317.95 372.43 318.39 362.91 325.70 351.70 C 333.00 340.48 346.09 338.15 347.00 355.00 C 347.60 358.69 347.43 362.41 347.00 366.00 C 346.53 379.61 341.10 392.25 333.00 403.00 C 344.63 396.07 352.54 385.23 357.07 372.07 C 361.61 358.92 367.16 341.44 359.92 327.08 C 352.69 312.71 334.42 324.72 328.31 336.30 C 322.19 347.89 314.93 362.29 314.00 376.00 Z"
       id="path25" />
  </g>
  <g
     fill="None"
     fill-opacity="0.0"
     stroke="#707070"
     stroke-opacity="1.00"
     stroke-width="0.3"
     id="g26">
    <path
       d=" M 202.00 332.00  C 201.89 331.06 200.14 328.00 200.00 327.00 C 199.31 330.28 201.41 332.82 201.00 336.00 C 202.65 335.49 201.89 333.29 202.00 332.00 Z"
       id="path26" />
  </g>
  <g
     fill="None"
     fill-opacity="0.0"
     stroke="#6A6A6A"
     stroke-opacity="1.00"
     stroke-width="0.3"
     id="g27">
    <path
       d=" M 347.00 366.00  C 347.43 362.41 347.60 358.69 347.00 355.00 C 347.20 358.63 347.07 362.37 347.00 366.00 Z"
       id="path27" />
  </g>
  <g
     fill="None"
     fill-opacity="0.0"
     stroke="#B1B1B1"
     stroke-opacity="1.00"
     stroke-width="0.3"
     id="g28">
    <path
       d=" M 203.00 369.00  C 202.22 368.78 199.80 367.08 199.00 367.00 C 198.00 367.00 197.00 367.00 196.00 367.00 C 196.93 370.03 200.65 368.74 203.00 369.00 Z"
       id="path28" />
  </g>
  <g
     fill="None"
     fill-opacity="0.0"
     stroke="#6B6B6B"
     stroke-opacity="1.00"
     stroke-width="0.3"
     id="g29">
    <path
       d=" M 315.00 385.00  C 315.13 383.13 313.81 378.79 314.00 376.00 C 312.59 378.84 311.61 385.83 315.00 388.00 C 315.18 387.04 314.78 385.95 315.00 385.00 Z"
       id="path29" />
  </g>
  <g
     fill="None"
     fill-opacity="0.0"
     stroke="#1E1E1E"
     stroke-opacity="1.00"
     stroke-width="0.3"
     id="g30">
    <path
       d=" M 230.00 418.00  C 230.91 417.31 231.95 416.41 233.00 416.00 C 238.78 418.53 241.38 431.10 250.78 434.22 C 260.17 437.35 271.84 435.06 280.00 429.00 C 280.57 432.84 278.81 437.91 281.00 441.00 C 280.42 429.45 287.22 419.97 295.00 412.00 C 291.51 412.43 289.61 416.75 286.00 417.00 C 281.42 394.03 254.19 388.74 237.00 401.00 C 236.22 398.68 236.23 396.17 235.00 394.00 C 233.31 401.56 235.63 410.80 230.00 418.00 M 284.00 421.00  C 276.31 424.27 259.74 422.88 253.32 419.68 C 246.90 416.48 233.24 407.84 239.70 402.70 C 246.15 397.56 261.47 396.06 269.07 399.93 C 276.68 403.79 283.09 412.76 284.00 421.00 M 282.00 425.00  C 265.83 440.10 239.07 431.07 236.00 409.00 C 246.25 423.99 266.24 428.35 282.00 425.00 Z"
       id="path30" />
  </g>
  <g
     fill="None"
     fill-opacity="0.0"
     stroke="#F4F4F4"
     stroke-opacity="1.00"
     stroke-width="0.3"
     id="g31">
    <path
       d=" M 284.00 421.00  C 283.09 412.76 276.68 403.79 269.07 399.93 C 261.47 396.06 246.15 397.56 239.70 402.70 C 233.24 407.84 246.90 416.48 253.32 419.68 C 259.74 422.88 276.31 424.27 284.00 421.00 Z"
       id="path31" />
  </g>
  <g
     fill="None"
     fill-opacity="0.0"
     stroke="#E5E5E5"
     stroke-opacity="1.00"
     stroke-width="0.3"
     id="g32">
    <path
       d=" M 282.00 425.00  C 266.24 428.35 246.25 423.99 236.00 409.00 C 239.07 431.07 265.83 440.10 282.00 425.00 Z"
       id="path32" />
  </g>
  <g
     fill="None"
     fill-opacity="0.0"
     stroke="#616161"
     stroke-opacity="1.00"
     stroke-width="0.3"
     id="g33">
    <path
       d=" M 340.00 411.00  C 342.20 412.23 346.72 414.95 349.00 413.00 C 346.53 411.39 343.70 410.85 341.00 410.00 C 340.80 410.02 340.35 410.96 340.00 411.00 Z"
       id="path33" />
  </g>
  <g
     fill="None"
     fill-opacity="0.0"
     stroke="#7A7A7A"
     stroke-opacity="1.00"
     stroke-width="0.3"
     id="g34">
    <path
       d=" M 230.00 418.00  C 228.32 418.75 226.96 420.43 226.00 422.00 C 229.51 422.68 230.60 416.92 233.00 416.00 C 231.95 416.41 230.91 417.31 230.00 418.00 Z"
       id="path34" />
  </g>
  <g
     fill="None"
     fill-opacity="0.0"
     stroke="#5F5F5F"
     stroke-opacity="1.00"
     stroke-width="0.3"
     id="g35">
    <path
       d=" M 259.00 466.00  C 259.21 465.96 259.65 465.07 260.00 465.00 C 258.93 462.94 255.88 464.47 254.00 464.00 C 254.77 466.04 257.40 465.49 259.00 466.00 Z"
       id="path35" />
  </g>
  <g
     fill="None"
     fill-opacity="0.0"
     stroke="#242424"
     stroke-opacity="1.00"
     stroke-width="0.3"
     id="g36">
    <path
       d=" M 206.00 534.00  C 206.08 534.19 207.92 534.19 208.00 534.00 C 207.64 519.81 213.36 507.12 219.00 495.00 C 209.11 505.07 205.46 519.79 206.00 534.00 Z"
       id="path36" />
  </g>
  <g
     fill="None"
     fill-opacity="0.0"
     stroke="#6A6A6A"
     stroke-opacity="1.00"
     stroke-width="0.3"
     id="g37">
    <path
       d=" M 251.00 510.00  C 251.15 510.01 251.67 508.99 252.00 509.00 C 250.28 507.36 246.11 504.57 244.00 507.00 C 246.63 506.93 248.84 508.66 251.00 510.00 Z"
       id="path37" />
  </g>
  <g
     fill="None"
     fill-opacity="0.0"
     stroke="#E4E4E4"
     stroke-opacity="1.00"
     stroke-width="0.3"
     id="g38">
    <path
       d=" M 273.00 552.00  C 272.95 542.13 269.94 530.64 264.00 524.00 C 266.39 531.87 263.92 539.97 264.00 548.00 C 267.51 547.89 270.21 550.22 273.00 552.00 Z"
       id="path38" />
  </g>
  <g
     fill="None"
     fill-opacity="0.0"
     stroke="#535353"
     stroke-opacity="1.00"
     stroke-width="0.3"
     id="g39">
    <path
       d=" M 208.00 534.00  C 207.92 534.19 206.08 534.19 206.00 534.00 C 205.30 537.60 207.21 540.54 207.00 544.00 C 208.80 541.65 208.00 537.17 208.00 534.00 Z"
       id="path39" />
  </g>
  <g
     fill="None"
     fill-opacity="0.0"
     stroke="#F6F6F6"
     stroke-opacity="1.00"
     stroke-width="0.3"
     id="g40">
    <path
       d=" M 298.00 592.00  C 300.39 593.16 307.29 592.22 310.00 592.00 C 339.36 588.19 350.53 557.36 367.00 537.00 C 355.35 536.49 342.64 542.95 332.68 546.68 C 322.72 550.40 314.63 557.85 306.75 563.75 C 298.87 569.66 288.66 585.39 298.00 592.00 Z"
       id="path40" />
  </g>
  <g
     fill="None"
     fill-opacity="0.0"
     stroke="#8A8A8A"
     stroke-opacity="1.00"
     stroke-width="0.3"
     id="g41">
    <path
       d=" M 310.00 592.00  C 307.29 592.22 300.39 593.16 298.00 592.00 C 301.23 594.28 306.69 592.64 310.00 592.00 Z"
       id="path41" />
  </g>
  <g
     fill="None"
     fill-opacity="0.0"
     stroke="#7B7B7B"
     stroke-opacity="1.00"
     stroke-width="0.3"
     id="g42">
    <path
       d=" M 283.00 622.00  C 283.19 619.08 287.50 615.61 289.00 613.00 C 286.73 616.14 282.56 618.58 283.00 622.00 Z"
       id="path42" />
  </g>
  <g
     fill="None"
     fill-opacity="0.0"
     stroke="#939393"
     stroke-opacity="1.00"
     stroke-width="0.3"
     id="g43">
    <path
       d=" M 218.00 628.00  C 215.95 625.46 218.84 626.74 220.00 627.00 C 218.80 624.98 216.22 623.51 214.00 623.00 C 213.79 625.91 216.04 626.77 218.00 628.00 Z"
       id="path43" />
  </g>
  <g
     fill="None"
     fill-opacity="0.0"
     stroke="#EBEBEB"
     stroke-opacity="1.00"
     stroke-width="0.3"
     id="g44">
    <path
       d=" M 248.00 664.00  C 246.79 657.12 252.44 649.47 251.92 643.08 C 251.39 636.70 241.77 634.05 237.00 634.00 C 230.68 643.67 244.62 655.63 248.00 664.00 Z"
       id="path44" />
  </g>
  <g
     fill="None"
     fill-opacity="0.0"
     stroke="#FAFAFA"
     stroke-opacity="1.00"
     stroke-width="0.3"
     id="g45">
    <path
       d=" M 94.00 676.00  C 95.37 674.95 97.02 674.79 99.00 675.00 C 98.40 677.31 95.87 677.03 94.00 677.00 C 65.00 681.58 51.79 723.45 78.77 738.23 C 105.75 753.01 141.13 754.44 170.93 749.93 C 200.72 745.41 222.16 733.36 248.00 720.00 C 243.22 706.88 245.02 689.66 246.00 676.00 C 246.98 662.34 236.75 653.47 232.00 642.00 C 226.75 643.35 221.34 644.77 216.00 643.00 C 221.64 660.53 226.20 679.12 223.00 698.00 C 224.69 687.78 218.93 684.26 210.22 684.78 C 201.52 685.30 196.74 681.32 189.02 680.98 C 181.31 680.63 176.07 676.20 169.02 674.98 C 161.98 673.75 157.27 670.32 150.68 668.32 C 144.09 666.33 138.07 662.91 131.22 661.78 C 124.37 660.65 118.09 657.14 111.00 657.00 C 103.91 656.86 94.02 655.11 87.07 656.07 C 80.12 657.03 72.90 659.17 67.08 662.08 C 61.26 664.98 56.49 667.53 52.30 672.30 C 48.12 677.07 45.07 682.95 43.00 689.00 C 40.93 695.05 44.36 705.26 46.23 710.77 C 48.10 716.28 54.04 720.93 59.00 723.00 C 53.13 699.24 71.25 678.51 94.00 676.00 Z"
       id="path45" />
  </g>
  <g
     fill="None"
     fill-opacity="0.0"
     stroke="#828282"
     stroke-opacity="1.00"
     stroke-width="0.3"
     id="g46">
    <path
       d=" M 269.00 645.00  C 271.63 646.16 271.73 654.17 272.00 657.00 C 272.00 652.67 272.00 648.33 272.00 644.00 C 271.10 643.09 269.20 645.01 269.00 645.00 Z"
       id="path46" />
  </g>
  <g
     fill="None"
     fill-opacity="0.0"
     stroke="#FBFBFB"
     stroke-opacity="1.00"
     stroke-width="0.3"
     id="g47">
    <path
       d=" M 360.00 759.00  C 367.00 759.00 374.00 759.00 381.00 759.00 C 399.37 758.31 423.70 755.22 434.02 738.03 C 444.35 720.83 436.84 694.73 417.00 690.00 C 444.40 690.78 450.34 726.77 436.00 745.00 C 451.53 742.92 464.76 728.58 466.00 713.00 C 466.23 710.06 466.06 706.95 466.00 704.00 C 465.17 662.66 409.79 654.26 378.22 665.22 C 346.66 676.19 308.36 691.85 274.00 696.00 C 271.89 696.26 267.00 698.66 265.00 696.00 C 268.44 694.55 272.10 693.75 276.00 694.00 C 278.70 691.04 273.23 681.84 273.00 677.00 C 272.76 672.16 272.00 662.54 272.00 657.00 C 271.73 654.17 271.63 646.16 269.00 645.00 C 264.06 645.50 259.84 646.19 255.00 645.00 C 249.80 671.47 238.75 720.14 267.77 736.23 C 296.79 752.32 326.80 759.00 360.00 759.00 Z"
       id="path47" />
  </g>
  <g
     fill="None"
     fill-opacity="0.0"
     stroke="#8D8D8D"
     stroke-opacity="1.00"
     stroke-width="0.3"
     id="g48">
    <path
       d=" M 405.00 656.00  C 408.67 656.00 412.33 656.00 416.00 656.00 C 412.61 655.67 408.46 655.67 405.00 656.00 Z"
       id="path48" />
  </g>
  <g
     fill="None"
     fill-opacity="0.0"
     stroke="#6F6F6F"
     stroke-opacity="1.00"
     stroke-width="0.3"
     id="g49">
    <path
       d=" M 94.00 676.00  C 94.00 676.00 94.22 676.87 94.00 677.00 C 95.87 677.03 98.40 677.31 99.00 675.00 C 97.02 674.79 95.37 674.95 94.00 676.00 Z"
       id="path49" />
  </g>
  <g
     fill="None"
     fill-opacity="0.0"
     stroke="#8D8D8D"
     stroke-opacity="1.00"
     stroke-width="0.3"
     id="g50">
    <path
       d=" M 274.00 696.00  C 272.75 695.72 270.53 696.60 270.00 695.00 C 272.11 694.83 274.55 695.59 276.00 694.00 C 272.10 693.75 268.44 694.55 265.00 696.00 C 267.00 698.66 271.89 696.26 274.00 696.00 Z"
       id="path50" />
  </g>
  <g
     fill="None"
     fill-opacity="0.0"
     stroke="#8C8E8D"
     stroke-opacity="1.00"
     stroke-width="0.3"
     id="g51">
    <path
       d=" M 471.00 712.00  C 471.56 708.85 471.57 706.20 471.00 703.00 C 471.20 705.91 471.20 709.09 471.00 712.00 Z"
       id="path51" />
  </g>
  <g
     fill="None"
     fill-opacity="0.0"
     stroke="#797B7A"
     stroke-opacity="1.00"
     stroke-width="0.3"
     id="g52">
    <path
       d=" M 466.00 713.00  C 466.60 709.89 466.37 707.10 466.00 704.00 C 466.06 706.95 466.23 710.06 466.00 713.00 Z"
       id="path52" />
  </g>
  <g
     fill="None"
     fill-opacity="0.0"
     stroke="#858585"
     stroke-opacity="1.00"
     stroke-width="0.3"
     id="g53">
    <path
       d=" M 302.00 755.00  C 299.39 754.26 295.91 752.90 293.00 752.00 C 296.11 753.32 298.30 754.37 302.00 755.00 Z"
       id="path53" />
  </g>
  <g
     fill="None"
     fill-opacity="0.0"
     stroke="#878787"
     stroke-opacity="1.00"
     stroke-width="0.3"
     id="g54">
    <path
       d=" M 381.00 759.00  C 374.00 759.00 367.00 759.00 360.00 759.00 C 366.54 759.63 374.39 759.64 381.00 759.00 Z"
       id="path54" />
  </g>
  <g
     fill="#FEFEFE"
     fill-opacity="1.00"
     stroke="None"
     id="g55">
    <path
       d=" M 0.00 778.00  L 572.00 778.00 L 572.00 0.00 L 0.00 0.00 L 0.00 778.00 M 456.00 45.00  C 456.33 43.26 455.43 40.48 458.00 40.00 C 457.39 43.17 459.25 47.65 457.00 50.00 C 452.01 77.84 442.48 104.28 427.00 128.00 C 485.49 163.51 525.07 239.51 507.01 306.01 C 488.95 372.50 436.24 422.68 370.00 436.00 C 366.76 449.80 361.98 462.89 350.25 472.25 C 338.52 481.61 317.88 481.12 303.93 478.07 C 289.97 475.03 274.32 464.77 265.00 481.00 C 271.44 482.63 279.63 485.16 283.75 491.25 C 287.88 497.33 292.08 502.11 294.77 509.23 C 297.47 516.35 299.82 526.94 299.00 535.00 C 298.18 543.06 297.99 550.03 290.75 555.75 C 283.51 561.47 289.92 567.05 293.00 574.00 C 312.75 549.13 342.10 533.33 374.00 533.00 C 353.19 559.28 336.87 604.35 295.00 595.00 C 294.97 601.53 292.09 607.52 289.00 613.00 C 287.50 615.61 283.19 619.08 283.00 622.00 C 283.99 629.69 285.03 638.75 275.00 642.00 C 274.40 659.66 275.90 676.80 281.00 693.00 C 323.84 685.66 360.92 659.08 405.00 656.00 C 408.46 655.67 412.61 655.67 416.00 656.00 C 440.79 656.00 469.23 676.95 471.00 703.00 C 471.57 706.20 471.56 708.85 471.00 712.00 C 470.18 724.06 462.38 743.13 447.92 745.92 C 433.47 748.72 420.84 757.60 405.78 761.78 C 390.71 765.95 367.71 764.02 351.33 763.67 C 334.95 763.32 318.00 757.70 302.00 755.00 C 298.30 754.37 296.11 753.32 293.00 752.00 C 277.09 747.11 258.35 740.23 251.00 724.00 C 222.09 739.26 190.71 754.63 157.00 756.00 C 123.29 757.37 80.44 758.32 61.00 727.00 C 30.89 720.38 32.21 679.79 55.70 663.70 C 79.18 647.60 112.52 648.22 138.67 659.33 C 164.82 670.43 191.63 681.57 221.00 682.00 C 222.62 670.63 214.75 660.54 214.08 649.92 C 213.40 639.31 196.92 635.36 200.00 624.00 C 203.09 612.63 196.14 606.75 190.70 597.30 C 185.25 587.85 180.82 578.89 180.01 567.99 C 179.19 557.09 172.03 549.45 168.22 539.78 C 164.42 530.10 168.98 515.70 173.31 507.31 C 177.63 498.91 182.71 491.36 191.25 486.25 C 199.78 481.13 206.29 473.73 217.69 472.69 C 229.09 471.66 230.38 456.05 219.77 451.23 C 209.15 446.41 200.98 444.12 190.92 440.08 C 180.87 436.03 172.60 433.52 164.25 426.75 C 155.89 419.98 150.36 410.91 151.00 400.00 C 151.64 389.09 152.09 378.59 161.25 371.25 C 170.41 363.92 164.97 352.26 162.22 341.78 C 159.47 331.29 156.45 321.03 153.67 310.33 C 150.89 299.63 148.13 289.21 146.00 278.00 C 143.88 266.78 141.74 254.02 142.00 242.00 C 142.26 229.98 142.17 216.28 145.78 205.78 C 149.38 195.28 151.03 186.76 157.25 178.25 C 163.47 169.74 167.55 163.15 175.25 156.25 C 182.95 149.35 188.82 143.73 197.25 138.25 C 205.67 132.76 213.14 127.98 222.23 123.23 C 231.32 118.48 240.25 114.64 250.22 111.22 C 260.20 107.81 270.24 104.18 281.07 102.07 C 291.91 99.96 305.33 97.67 317.00 98.00 C 322.04 97.51 328.03 97.52 333.00 98.00 C 343.46 98.00 360.90 104.17 360.00 91.00 C 359.10 77.83 360.00 67.44 357.01 55.99 C 354.01 44.55 351.69 38.38 347.00 28.00 C 345.52 25.68 342.29 23.52 343.00 20.00 C 344.92 19.49 345.23 21.84 346.00 23.00 C 361.75 45.00 366.16 74.67 363.00 101.00 C 371.92 102.46 380.35 105.56 389.00 108.00 C 399.98 74.67 405.00 40.09 404.00 4.00 C 409.41 6.85 408.16 17.91 408.00 25.00 C 407.84 32.09 406.38 40.76 406.00 48.00 C 405.62 55.24 403.98 62.70 402.67 69.67 C 401.36 76.65 399.50 83.20 398.07 90.07 C 396.65 96.95 393.60 102.93 393.00 110.00 C 404.05 112.80 413.92 119.49 424.00 125.00 C 440.10 100.72 452.04 73.77 456.00 45.00 Z"
       id="path55" />
  </g>
  <g
     fill="#171717"
     fill-opacity="1.00"
     stroke="None"
     id="g56">
    <path
       d=" M 346.00 23.00  C 346.06 23.14 346.37 26.60 347.00 28.00 C 351.69 38.38 354.01 44.55 357.01 55.99 C 360.00 67.44 359.10 77.83 360.00 91.00 C 360.90 104.17 343.46 98.00 333.00 98.00 C 327.67 98.00 322.33 98.00 317.00 98.00 C 305.33 97.67 291.91 99.96 281.07 102.07 C 270.24 104.18 260.20 107.81 250.22 111.22 C 240.25 114.64 231.32 118.48 222.23 123.23 C 213.14 127.98 205.67 132.76 197.25 138.25 C 188.82 143.73 182.95 149.35 175.25 156.25 C 167.55 163.15 163.47 169.74 157.25 178.25 C 151.03 186.76 149.38 195.28 145.78 205.78 C 142.17 216.28 142.26 229.98 142.00 242.00 C 141.74 254.02 143.88 266.78 146.00 278.00 C 148.13 289.21 150.89 299.63 153.67 310.33 C 156.45 321.03 159.47 331.29 162.22 341.78 C 164.97 352.26 170.41 363.92 161.25 371.25 C 152.09 378.59 151.64 389.09 151.00 400.00 C 150.36 410.91 155.89 419.98 164.25 426.75 C 172.60 433.52 180.87 436.03 190.92 440.08 C 200.98 444.12 209.15 446.41 219.77 451.23 C 230.38 456.05 229.09 471.66 217.69 472.69 C 206.29 473.73 199.78 481.13 191.25 486.25 C 182.71 491.36 177.63 498.91 173.31 507.31 C 168.98 515.70 164.42 530.10 168.22 539.78 C 172.03 549.45 179.19 557.09 180.01 567.99 C 180.82 578.89 185.25 587.85 190.70 597.30 C 196.14 606.75 203.09 612.63 200.00 624.00 C 196.92 635.36 213.40 639.31 214.08 649.92 C 214.75 660.54 222.62 670.63 221.00 682.00 C 191.63 681.57 164.82 670.43 138.67 659.33 C 112.52 648.22 79.18 647.60 55.70 663.70 C 32.21 679.79 30.89 720.38 61.00 727.00 C 80.44 758.32 123.29 757.37 157.00 756.00 C 190.71 754.63 222.09 739.26 251.00 724.00 C 258.35 740.23 277.09 747.11 293.00 752.00 C 295.91 752.90 299.39 754.26 302.00 755.00 C 318.00 757.70 334.95 763.32 351.33 763.67 C 367.71 764.02 390.71 765.95 405.78 761.78 C 420.84 757.60 433.47 748.72 447.92 745.92 C 462.38 743.13 470.18 724.06 471.00 712.00 C 471.20 709.09 471.20 705.91 471.00 703.00 C 469.23 676.95 440.79 656.00 416.00 656.00 C 412.33 656.00 408.67 656.00 405.00 656.00 C 360.92 659.08 323.84 685.66 281.00 693.00 C 275.90 676.80 274.40 659.66 275.00 642.00 C 285.03 638.75 283.99 629.69 283.00 622.00 C 282.56 618.58 286.73 616.14 289.00 613.00 C 292.09 607.52 294.97 601.53 295.00 595.00 C 336.87 604.35 353.19 559.28 374.00 533.00 C 342.10 533.33 312.75 549.13 293.00 574.00 C 289.92 567.05 283.51 561.47 290.75 555.75 C 297.99 550.03 298.18 543.06 299.00 535.00 C 299.82 526.94 297.47 516.35 294.77 509.23 C 292.08 502.11 287.88 497.33 283.75 491.25 C 279.63 485.16 271.44 482.63 265.00 481.00 C 274.32 464.77 289.97 475.03 303.93 478.07 C 317.88 481.12 338.52 481.61 350.25 472.25 C 361.98 462.89 366.76 449.80 370.00 436.00 C 436.24 422.68 488.95 372.50 507.01 306.01 C 525.07 239.51 485.49 163.51 427.00 128.00 C 442.48 104.28 452.01 77.84 457.00 50.00 C 457.03 48.25 456.05 45.99 456.00 45.00 C 452.04 73.77 440.10 100.72 424.00 125.00 C 413.92 119.49 404.05 112.80 393.00 110.00 C 393.60 102.93 396.65 96.95 398.07 90.07 C 399.50 83.20 401.36 76.65 402.67 69.67 C 403.98 62.70 405.62 55.24 406.00 48.00 C 406.38 40.76 407.84 32.09 408.00 25.00 C 408.16 17.91 409.41 6.85 404.00 4.00 C 405.00 40.09 399.98 74.67 389.00 108.00 C 380.35 105.56 371.92 102.46 363.00 101.00 C 366.16 74.67 361.75 45.00 346.00 23.00 M 260.00 465.00  C 259.65 465.07 259.21 465.96 259.00 466.00 C 262.65 467.17 267.15 467.59 270.00 470.00 C 267.08 472.85 263.46 476.20 262.00 480.00 C 252.90 478.96 243.61 481.89 238.00 489.00 C 248.00 482.93 263.96 480.75 273.70 488.30 C 283.43 495.86 290.04 503.93 292.98 516.02 C 295.91 528.12 300.10 541.99 289.69 553.70 C 279.29 565.40 273.95 546.46 273.22 535.78 C 272.49 525.10 260.86 513.56 252.00 509.00 C 251.67 508.99 251.15 510.01 251.00 510.00 C 264.43 518.31 259.87 532.59 261.00 545.00 C 262.13 557.41 280.31 556.42 285.75 568.25 C 291.20 580.07 293.73 593.81 288.07 606.07 C 282.42 618.34 275.99 624.35 265.00 631.00 C 271.27 630.75 275.61 625.13 281.00 623.00 C 284.47 633.27 274.36 639.57 266.98 641.98 C 259.59 644.38 244.31 637.98 253.00 632.00 C 241.98 634.06 230.12 631.28 220.00 627.00 C 218.84 626.74 215.95 625.46 218.00 628.00 C 222.71 630.95 228.57 632.60 234.00 634.00 C 224.46 650.29 194.70 632.42 204.00 615.00 C 206.76 616.42 208.27 619.65 211.00 621.00 C 177.56 585.41 172.63 525.44 208.00 489.00 C 189.88 503.77 180.00 527.49 177.00 550.00 C 172.47 543.85 170.79 535.87 171.33 528.33 C 171.87 520.79 174.46 513.54 177.92 506.92 C 181.38 500.31 185.25 495.72 190.75 490.75 C 196.25 485.78 201.24 483.50 208.08 480.08 C 214.91 476.65 220.48 475.26 228.08 472.08 C 235.68 468.90 225.47 453.16 234.00 457.00 C 213.51 439.91 189.40 440.67 167.77 424.23 C 146.14 407.79 157.59 369.94 180.00 360.00 C 176.66 360.70 174.40 363.56 171.00 364.00 C 155.67 304.03 124.43 216.25 174.25 164.25 C 224.07 112.25 290.41 96.62 359.00 104.00 C 359.44 110.83 351.92 122.10 358.00 126.00 C 359.72 118.66 361.86 111.51 363.00 104.00 C 376.92 108.35 393.78 112.48 406.74 119.26 C 419.71 126.04 430.37 133.94 441.25 143.75 C 452.13 153.56 462.25 161.84 471.25 173.75 C 480.25 185.67 487.32 196.22 493.77 210.23 C 500.22 224.23 504.20 241.16 505.78 257.22 C 507.36 273.29 504.53 296.29 500.01 311.01 C 495.48 325.73 489.36 338.90 481.69 351.70 C 474.03 364.49 465.79 374.53 455.25 385.25 C 444.70 395.97 436.17 404.69 422.77 411.77 C 409.38 418.85 398.80 428.00 381.93 429.93 C 365.05 431.86 364.30 449.26 353.75 461.75 C 343.20 474.25 326.08 477.74 309.99 475.01 C 293.90 472.28 276.81 465.75 260.00 465.00 M 273.00 552.00  C 270.21 550.22 267.51 547.89 264.00 548.00 C 263.92 539.97 266.39 531.87 264.00 524.00 C 269.94 530.64 272.95 542.13 273.00 552.00 M 310.00 592.00  C 306.69 592.64 301.23 594.28 298.00 592.00 C 288.66 585.39 298.87 569.66 306.75 563.75 C 314.63 557.85 322.72 550.40 332.68 546.68 C 342.64 542.95 355.35 536.49 367.00 537.00 C 350.53 557.36 339.36 588.19 310.00 592.00 M 248.00 664.00  C 244.62 655.63 230.68 643.67 237.00 634.00 C 241.77 634.05 251.39 636.70 251.92 643.08 C 252.44 649.47 246.79 657.12 248.00 664.00 M 94.00 677.00  C 94.22 676.87 94.00 676.00 94.00 676.00 C 71.25 678.51 53.13 699.24 59.00 723.00 C 54.04 720.93 48.10 716.28 46.23 710.77 C 44.36 705.26 40.93 695.05 43.00 689.00 C 45.07 682.95 48.12 677.07 52.30 672.30 C 56.49 667.53 61.26 664.98 67.08 662.08 C 72.90 659.17 80.12 657.03 87.07 656.07 C 94.02 655.11 103.91 656.86 111.00 657.00 C 118.09 657.14 124.37 660.65 131.22 661.78 C 138.07 662.91 144.09 666.33 150.68 668.32 C 157.27 670.32 161.98 673.75 169.02 674.98 C 176.07 676.20 181.31 680.63 189.02 680.98 C 196.74 681.32 201.52 685.30 210.22 684.78 C 218.93 684.26 224.69 687.78 223.00 698.00 C 226.20 679.12 221.64 660.53 216.00 643.00 C 221.34 644.77 226.75 643.35 232.00 642.00 C 236.75 653.47 246.98 662.34 246.00 676.00 C 245.02 689.66 243.22 706.88 248.00 720.00 C 222.16 733.36 200.72 745.41 170.93 749.93 C 141.13 754.44 105.75 753.01 78.77 738.23 C 51.79 723.45 65.00 681.58 94.00 677.00 M 272.00 657.00  C 272.00 662.54 272.76 672.16 273.00 677.00 C 273.23 681.84 278.70 691.04 276.00 694.00 C 274.55 695.59 272.11 694.83 270.00 695.00 C 270.53 696.60 272.75 695.72 274.00 696.00 C 308.36 691.85 346.66 676.19 378.22 665.22 C 409.79 654.26 465.17 662.66 466.00 704.00 C 466.37 707.10 466.60 709.89 466.00 713.00 C 464.76 728.58 451.53 742.92 436.00 745.00 C 450.34 726.77 444.40 690.78 417.00 690.00 C 436.84 694.73 444.35 720.83 434.02 738.03 C 423.70 755.22 399.37 758.31 381.00 759.00 C 374.39 759.64 366.54 759.63 360.00 759.00 C 326.80 759.00 296.79 752.32 267.77 736.23 C 238.75 720.14 249.80 671.47 255.00 645.00 C 259.84 646.19 264.06 645.50 269.00 645.00 C 269.20 645.01 271.10 643.09 272.00 644.00 C 272.00 648.33 272.00 652.67 272.00 657.00 Z"
       id="path56" />
  </g>
  <g
     fill="#B8B8B8"
     fill-opacity="1.00"
     stroke="None"
     id="g57">
    <path
       d=" M 347.00 28.00  C 346.37 26.60 346.06 23.14 346.00 23.00 C 345.23 21.84 344.92 19.49 343.00 20.00 C 342.29 23.52 345.52 25.68 347.00 28.00 Z"
       id="path57" />
  </g>
  <g
     fill="#808080"
     fill-opacity="1.00"
     stroke="None"
     id="g58">
    <path
       d=" M 456.00 45.00  C 456.05 45.99 457.03 48.25 457.00 50.00 C 459.25 47.65 457.39 43.17 458.00 40.00 C 455.43 40.48 456.33 43.26 456.00 45.00 Z"
       id="path58" />
  </g>
  <g
     fill="#9A9A9A"
     fill-opacity="1.00"
     stroke="None"
     id="g59">
    <path
       d=" M 317.00 98.00  C 322.33 98.00 327.67 98.00 333.00 98.00 C 328.03 97.52 322.04 97.51 317.00 98.00 Z"
       id="path59" />
  </g>
  <g
     fill="#FBFBFB"
     fill-opacity="1.00"
     stroke="None"
     id="g60">
    <path
       d=" M 218.00 628.00  C 216.04 626.77 213.79 625.91 214.00 623.00 C 216.22 623.51 218.80 624.98 220.00 627.00 C 230.12 631.28 241.98 634.06 253.00 632.00 C 244.31 637.98 259.59 644.38 266.98 641.98 C 274.36 639.57 284.47 633.27 281.00 623.00 C 275.61 625.13 271.27 630.75 265.00 631.00 C 275.99 624.35 282.42 618.34 288.07 606.07 C 293.73 593.81 291.20 580.07 285.75 568.25 C 280.31 556.42 262.13 557.41 261.00 545.00 C 259.87 532.59 264.43 518.31 251.00 510.00 C 248.84 508.66 246.63 506.93 244.00 507.00 C 246.11 504.57 250.28 507.36 252.00 509.00 C 260.86 513.56 272.49 525.10 273.22 535.78 C 273.95 546.46 279.29 565.40 289.69 553.70 C 300.10 541.99 295.91 528.12 292.98 516.02 C 290.04 503.93 283.43 495.86 273.70 488.30 C 263.96 480.75 248.00 482.93 238.00 489.00 C 243.61 481.89 252.90 478.96 262.00 480.00 C 263.46 476.20 267.08 472.85 270.00 470.00 C 267.15 467.59 262.65 467.17 259.00 466.00 C 257.40 465.49 254.77 466.04 254.00 464.00 C 255.88 464.47 258.93 462.94 260.00 465.00 C 276.81 465.75 293.90 472.28 309.99 475.01 C 326.08 477.74 343.20 474.25 353.75 461.75 C 364.30 449.26 365.05 431.86 381.93 429.93 C 398.80 428.00 409.38 418.85 422.77 411.77 C 436.17 404.69 444.70 395.97 455.25 385.25 C 465.79 374.53 474.03 364.49 481.69 351.70 C 489.36 338.90 495.48 325.73 500.01 311.01 C 504.53 296.29 507.36 273.29 505.78 257.22 C 504.20 241.16 500.22 224.23 493.77 210.23 C 487.32 196.22 480.25 185.67 471.25 173.75 C 462.25 161.84 452.13 153.56 441.25 143.75 C 430.37 133.94 419.71 126.04 406.74 119.26 C 393.78 112.48 376.92 108.35 363.00 104.00 C 361.86 111.51 359.72 118.66 358.00 126.00 C 351.92 122.10 359.44 110.83 359.00 104.00 C 290.41 96.62 224.07 112.25 174.25 164.25 C 124.43 216.25 155.67 304.03 171.00 364.00 C 174.40 363.56 176.66 360.70 180.00 360.00 C 157.59 369.94 146.14 407.79 167.77 424.23 C 189.40 440.67 213.51 439.91 234.00 457.00 C 225.47 453.16 235.68 468.90 228.08 472.08 C 220.48 475.26 214.91 476.65 208.08 480.08 C 201.24 483.50 196.25 485.78 190.75 490.75 C 185.25 495.72 181.38 500.31 177.92 506.92 C 174.46 513.54 171.87 520.79 171.33 528.33 C 170.79 535.87 172.47 543.85 177.00 550.00 C 180.00 527.49 189.88 503.77 208.00 489.00 C 172.63 525.44 177.56 585.41 211.00 621.00 C 208.27 619.65 206.76 616.42 204.00 615.00 C 194.70 632.42 224.46 650.29 234.00 634.00 C 228.57 632.60 222.71 630.95 218.00 628.00 M 225.00 166.00  C 232.72 165.39 239.72 166.87 247.00 168.00 C 240.24 169.01 231.55 167.37 224.00 169.00 C 224.66 182.40 227.46 198.69 232.32 210.68 C 237.19 222.67 240.29 237.18 255.00 238.00 C 247.29 217.69 248.01 192.69 257.00 173.00 C 257.79 171.05 258.11 167.71 261.00 168.00 C 259.64 169.51 260.51 172.46 258.00 173.00 C 257.11 184.85 253.00 194.64 253.00 207.00 C 253.23 209.35 253.84 213.01 254.00 216.00 C 255.21 238.26 271.00 252.59 271.00 275.00 C 271.33 278.46 271.33 282.61 271.00 286.00 C 271.00 303.49 264.48 322.94 258.23 338.23 C 251.98 353.52 246.00 370.32 229.00 375.00 C 229.98 378.96 234.54 381.15 236.00 385.00 C 226.23 377.75 215.87 369.52 203.00 369.00 C 200.65 368.74 196.93 370.03 196.00 367.00 C 197.00 367.00 198.00 367.00 199.00 367.00 C 204.76 365.86 210.43 368.01 216.00 368.00 C 208.87 353.48 210.91 337.92 215.93 322.93 C 220.95 307.93 225.45 299.68 237.25 287.25 C 249.05 274.82 268.75 287.35 265.00 305.00 C 267.57 286.79 269.72 267.78 261.22 250.78 C 252.73 233.77 231.20 239.35 222.70 253.70 C 214.19 268.04 206.50 282.61 206.00 300.00 C 205.59 303.68 204.57 307.82 204.00 311.00 C 203.36 318.00 202.63 324.86 202.00 332.00 C 201.89 333.29 202.65 335.49 201.00 336.00 C 201.41 332.82 199.31 330.28 200.00 327.00 C 199.25 297.73 206.81 259.62 231.00 241.00 C 215.72 226.63 201.43 207.65 202.00 185.00 C 200.31 184.68 198.71 186.32 199.00 188.00 C 197.30 190.25 196.66 193.64 194.00 195.00 C 194.56 193.40 194.50 190.97 196.00 190.00 C 197.14 187.01 198.94 184.07 200.00 181.00 C 200.59 178.12 199.56 174.91 200.00 172.00 C 201.40 171.49 202.15 172.81 202.00 174.00 C 202.67 174.68 201.49 177.17 202.00 178.00 C 207.43 172.68 213.69 168.57 221.00 167.00 C 223.20 164.50 220.84 160.53 223.00 158.00 C 225.59 159.64 222.34 164.43 225.00 166.00 M 424.00 235.00  C 423.14 237.49 422.00 239.82 421.00 242.00 C 413.80 257.75 401.26 271.05 387.00 281.00 C 394.56 286.22 402.36 287.44 410.08 283.08 C 417.79 278.71 424.99 277.33 431.25 271.25 C 437.50 265.16 442.87 261.91 448.00 255.00 C 449.92 252.56 451.33 249.60 454.00 248.00 C 453.60 250.11 452.62 252.66 451.00 254.00 C 439.52 271.62 421.51 284.70 401.00 289.00 C 403.17 303.48 420.29 299.29 431.07 298.07 C 441.85 296.86 453.03 290.72 463.00 287.00 C 448.01 301.61 425.46 304.02 405.00 301.00 C 409.12 335.96 389.43 370.21 366.00 394.00 C 377.55 380.80 382.69 370.50 390.32 354.32 C 397.95 338.14 402.13 322.91 401.01 303.99 C 399.88 285.07 376.12 278.74 362.77 290.77 C 349.42 302.80 340.27 310.20 333.00 326.00 C 342.08 312.72 361.72 315.84 364.78 331.22 C 367.84 346.61 363.77 363.74 358.03 377.02 C 352.28 390.31 344.09 400.51 331.00 406.00 C 332.99 409.44 337.98 407.89 341.00 410.00 C 343.70 410.85 346.53 411.39 349.00 413.00 C 346.72 414.95 342.20 412.23 340.00 411.00 C 328.94 412.31 317.02 407.13 306.00 411.00 C 309.33 408.71 313.98 408.14 318.00 407.00 C 304.86 385.61 315.59 352.98 325.31 333.31 C 335.02 313.63 347.90 292.33 368.70 283.70 C 389.49 275.06 410.05 263.31 420.00 241.00 C 421.28 238.67 422.12 236.44 423.00 234.00 C 423.92 231.45 425.27 228.92 425.00 226.00 C 427.18 228.22 425.24 232.89 424.00 235.00 M 455.00 240.00  C 465.22 244.26 470.37 250.43 471.00 262.00 C 471.53 265.28 473.37 270.79 471.00 274.00 C 471.00 274.50 471.00 275.00 471.00 275.00 C 471.14 276.82 471.25 279.46 469.00 280.00 C 469.00 275.00 469.00 270.00 469.00 265.00 C 468.19 253.14 460.67 244.24 450.00 240.00 C 448.33 239.33 445.59 239.27 445.00 237.00 C 448.25 237.93 452.69 237.27 455.00 240.00 M 233.00 416.00  C 230.60 416.92 229.51 422.68 226.00 422.00 C 226.96 420.43 228.32 418.75 230.00 418.00 C 235.63 410.80 233.31 401.56 235.00 394.00 C 236.23 396.17 236.22 398.68 237.00 401.00 C 254.19 388.74 281.42 394.03 286.00 417.00 C 289.61 416.75 291.51 412.43 295.00 412.00 C 287.22 419.97 280.42 429.45 281.00 441.00 C 278.81 437.91 280.57 432.84 280.00 429.00 C 271.84 435.06 260.17 437.35 250.78 434.22 C 241.38 431.10 238.78 418.53 233.00 416.00 M 208.00 534.00  C 208.00 537.17 208.80 541.65 207.00 544.00 C 207.21 540.54 205.30 537.60 206.00 534.00 C 205.46 519.79 209.11 505.07 219.00 495.00 C 213.36 507.12 207.64 519.81 208.00 534.00 Z"
       id="path60" />
  </g>
  <g
     fill="#606060"
     fill-opacity="1.00"
     stroke="None"
     id="g61">
    <path
       d=" M 221.00 167.00  C 222.49 166.64 224.09 166.07 225.00 166.00 C 222.34 164.43 225.59 159.64 223.00 158.00 C 220.84 160.53 223.20 164.50 221.00 167.00 Z"
       id="path61" />
  </g>
  <g
     fill="#0F0F0F"
     fill-opacity="1.00"
     stroke="None"
     id="g62">
    <path
       d=" M 221.00 167.00  C 213.69 168.57 207.43 172.68 202.00 178.00 C 201.49 177.17 202.67 174.68 202.00 174.00 C 202.17 175.07 200.40 179.86 200.00 181.00 C 198.94 184.07 197.14 187.01 196.00 190.00 C 195.39 190.82 198.48 188.50 199.00 188.00 C 198.71 186.32 200.31 184.68 202.00 185.00 C 201.43 207.65 215.72 226.63 231.00 241.00 C 206.81 259.62 199.25 297.73 200.00 327.00 C 200.14 328.00 201.89 331.06 202.00 332.00 C 202.63 324.86 203.36 318.00 204.00 311.00 C 204.37 306.88 205.26 303.45 206.00 300.00 C 206.50 282.61 214.19 268.04 222.70 253.70 C 231.20 239.35 252.73 233.77 261.22 250.78 C 269.72 267.78 267.57 286.79 265.00 305.00 C 268.75 287.35 249.05 274.82 237.25 287.25 C 225.45 299.68 220.95 307.93 215.93 322.93 C 210.91 337.92 208.87 353.48 216.00 368.00 C 210.43 368.01 204.76 365.86 199.00 367.00 C 199.80 367.08 202.22 368.78 203.00 369.00 C 215.87 369.52 226.23 377.75 236.00 385.00 C 234.54 381.15 229.98 378.96 229.00 375.00 C 246.00 370.32 251.98 353.52 258.23 338.23 C 264.48 322.94 271.00 303.49 271.00 286.00 C 271.00 282.33 271.00 278.67 271.00 275.00 C 271.00 252.59 255.21 238.26 254.00 216.00 C 253.58 213.43 253.00 210.21 253.00 207.00 C 253.00 194.64 257.11 184.85 258.00 173.00 C 257.61 173.21 257.00 173.00 257.00 173.00 C 248.01 192.69 247.29 217.69 255.00 238.00 C 240.29 237.18 237.19 222.67 232.32 210.68 C 227.46 198.69 224.66 182.40 224.00 169.00 C 231.55 167.37 240.24 169.01 247.00 168.00 C 239.72 166.87 232.72 165.39 225.00 166.00 C 224.09 166.07 222.49 166.64 221.00 167.00 M 222.00 171.00  C 221.41 194.71 229.66 216.53 242.00 236.00 C 229.63 241.36 222.09 227.87 215.75 218.25 C 209.40 208.64 205.14 193.48 203.00 182.00 C 208.69 177.23 214.22 171.20 222.00 171.00 M 260.00 321.00  C 255.34 302.12 237.78 312.84 231.70 325.70 C 225.61 338.55 217.29 354.43 222.00 370.00 C 209.74 359.74 212.64 337.15 218.93 322.93 C 225.22 308.71 227.27 296.57 242.75 286.75 C 258.24 276.93 269.22 308.23 260.00 321.00 Z"
       id="path62" />
  </g>
  <g
     fill="#828282"
     fill-opacity="1.00"
     stroke="None"
     id="g63">
    <path
       d=" M 257.00 173.00  C 257.00 173.00 257.61 173.21 258.00 173.00 C 260.51 172.46 259.64 169.51 261.00 168.00 C 258.11 167.71 257.79 171.05 257.00 173.00 Z"
       id="path63" />
  </g>
  <g
     fill="#F3F3F3"
     fill-opacity="1.00"
     stroke="None"
     id="g64">
    <path
       d=" M 222.00 171.00  C 214.22 171.20 208.69 177.23 203.00 182.00 C 205.14 193.48 209.40 208.64 215.75 218.25 C 222.09 227.87 229.63 241.36 242.00 236.00 C 229.66 216.53 221.41 194.71 222.00 171.00 Z"
       id="path64" />
  </g>
  <g
     fill="#A5A5A5"
     fill-opacity="1.00"
     stroke="None"
     id="g65">
    <path
       d=" M 200.00 181.00  C 200.40 179.86 202.17 175.07 202.00 174.00 C 202.15 172.81 201.40 171.49 200.00 172.00 C 199.56 174.91 200.59 178.12 200.00 181.00 Z"
       id="path65" />
  </g>
  <g
     fill="#ACACAC"
     fill-opacity="1.00"
     stroke="None"
     id="g66">
    <path
       d=" M 196.00 190.00  C 194.50 190.97 194.56 193.40 194.00 195.00 C 196.66 193.64 197.30 190.25 199.00 188.00 C 198.48 188.50 195.39 190.82 196.00 190.00 Z"
       id="path66" />
  </g>
  <g
     fill="#969696"
     fill-opacity="1.00"
     stroke="None"
     id="g67">
    <path
       d=" M 254.00 216.00  C 253.84 213.01 253.23 209.35 253.00 207.00 C 253.00 210.21 253.58 213.43 254.00 216.00 Z"
       id="path67" />
  </g>
  <g
     fill="#7F7F7F"
     fill-opacity="1.00"
     stroke="None"
     id="g68">
    <path
       d=" M 423.00 234.00  C 423.01 234.18 423.99 234.66 424.00 235.00 C 425.24 232.89 427.18 228.22 425.00 226.00 C 425.27 228.92 423.92 231.45 423.00 234.00 Z"
       id="path68" />
  </g>
  <g
     fill="#464646"
     fill-opacity="1.00"
     stroke="None"
     id="g69">
    <path
       d=" M 420.00 241.00  C 419.99 241.15 421.01 241.67 421.00 242.00 C 422.00 239.82 423.14 237.49 424.00 235.00 C 423.99 234.66 423.01 234.18 423.00 234.00 C 422.12 236.44 421.28 238.67 420.00 241.00 Z"
       id="path69" />
  </g>
  <g
     fill="#8C8C8C"
     fill-opacity="1.00"
     stroke="None"
     id="g70">
    <path
       d=" M 450.00 240.00  C 450.88 240.14 453.19 239.54 455.00 240.00 C 452.69 237.27 448.25 237.93 445.00 237.00 C 445.59 239.27 448.33 239.33 450.00 240.00 Z"
       id="path70" />
  </g>
  <g
     fill="#1D1D1D"
     fill-opacity="1.00"
     stroke="None"
     id="g71">
    <path
       d=" M 450.00 240.00  C 460.67 244.24 468.19 253.14 469.00 265.00 C 469.36 266.99 469.48 273.53 471.00 275.00 C 471.00 275.00 471.00 274.50 471.00 274.00 C 471.00 270.02 471.22 265.97 471.00 262.00 C 470.37 250.43 465.22 244.26 455.00 240.00 C 453.19 239.54 450.88 240.14 450.00 240.00 Z"
       id="path71" />
  </g>
  <g
     fill="#101110"
     fill-opacity="1.00"
     stroke="None"
     id="g72">
    <path
       d=" M 340.00 411.00  C 340.35 410.96 340.80 410.02 341.00 410.00 C 337.98 407.89 332.99 409.44 331.00 406.00 C 344.09 400.51 352.28 390.31 358.03 377.02 C 363.77 363.74 367.84 346.61 364.78 331.22 C 361.72 315.84 342.08 312.72 333.00 326.00 C 340.27 310.20 349.42 302.80 362.77 290.77 C 376.12 278.74 399.88 285.07 401.01 303.99 C 402.13 322.91 397.95 338.14 390.32 354.32 C 382.69 370.50 377.55 380.80 366.00 394.00 C 389.43 370.21 409.12 335.96 405.00 301.00 C 425.46 304.02 448.01 301.61 463.00 287.00 C 453.03 290.72 441.85 296.86 431.07 298.07 C 420.29 299.29 403.17 303.48 401.00 289.00 C 421.51 284.70 439.52 271.62 451.00 254.00 C 451.43 253.67 448.66 254.45 448.00 255.00 C 442.87 261.91 437.50 265.16 431.25 271.25 C 424.99 277.33 417.79 278.71 410.08 283.08 C 402.36 287.44 394.56 286.22 387.00 281.00 C 401.26 271.05 413.80 257.75 421.00 242.00 C 421.01 241.67 419.99 241.15 420.00 241.00 C 410.05 263.31 389.49 275.06 368.70 283.70 C 347.90 292.33 335.02 313.63 325.31 333.31 C 315.59 352.98 304.86 385.61 318.00 407.00 C 313.98 408.14 309.33 408.71 306.00 411.00 C 317.02 407.13 328.94 412.31 340.00 411.00 M 347.00 366.00  C 347.07 362.37 347.20 358.63 347.00 355.00 C 346.09 338.15 333.00 340.48 325.70 351.70 C 318.39 362.91 317.95 372.43 315.00 385.00 C 314.78 385.95 315.18 387.04 315.00 388.00 C 311.61 385.83 312.59 378.84 314.00 376.00 C 314.93 362.29 322.19 347.89 328.31 336.30 C 334.42 324.72 352.69 312.71 359.92 327.08 C 367.16 341.44 361.61 358.92 357.07 372.07 C 352.54 385.23 344.63 396.07 333.00 403.00 C 341.10 392.25 346.53 379.61 347.00 366.00 Z"
       id="path72" />
  </g>
  <g
     fill="#5E5E5E"
     fill-opacity="1.00"
     stroke="None"
     id="g73">
    <path
       d=" M 448.00 255.00  C 448.66 254.45 451.43 253.67 451.00 254.00 C 452.62 252.66 453.60 250.11 454.00 248.00 C 451.33 249.60 449.92 252.56 448.00 255.00 Z"
       id="path73" />
  </g>
  <g
     fill="#828282"
     fill-opacity="1.00"
     stroke="None"
     id="g74">
    <path
       d=" M 471.00 274.00  C 473.37 270.79 471.53 265.28 471.00 262.00 C 471.22 265.97 471.00 270.02 471.00 274.00 Z"
       id="path74" />
  </g>
  <g
     fill="#959595"
     fill-opacity="1.00"
     stroke="None"
     id="g75">
    <path
       d=" M 471.00 275.00  C 469.48 273.53 469.36 266.99 469.00 265.00 C 469.00 270.00 469.00 275.00 469.00 280.00 C 471.25 279.46 471.14 276.82 471.00 275.00 Z"
       id="path75" />
  </g>
  <g
     fill="#818181"
     fill-opacity="1.00"
     stroke="None"
     id="g76">
    <path
       d=" M 271.00 286.00  C 271.33 282.61 271.33 278.46 271.00 275.00 C 271.00 278.67 271.00 282.33 271.00 286.00 Z"
       id="path76" />
  </g>
  <g
     fill="#F1F1F1"
     fill-opacity="1.00"
     stroke="None"
     id="g77">
    <path
       d=" M 260.00 321.00  C 269.22 308.23 258.24 276.93 242.75 286.75 C 227.27 296.57 225.22 308.71 218.93 322.93 C 212.64 337.15 209.74 359.74 222.00 370.00 C 217.29 354.43 225.61 338.55 231.70 325.70 C 237.78 312.84 255.34 302.12 260.00 321.00 Z"
       id="path77" />
  </g>
  <g
     fill="#7C7C7C"
     fill-opacity="1.00"
     stroke="None"
     id="g78">
    <path
       d=" M 204.00 311.00  C 204.57 307.82 205.59 303.68 206.00 300.00 C 205.26 303.45 204.37 306.88 204.00 311.00 Z"
       id="path78" />
  </g>
  <g
     fill="#EFEFEF"
     fill-opacity="1.00"
     stroke="None"
     id="g79">
    <path
       d=" M 314.00 376.00  C 313.81 378.79 315.13 383.13 315.00 385.00 C 317.95 372.43 318.39 362.91 325.70 351.70 C 333.00 340.48 346.09 338.15 347.00 355.00 C 347.60 358.69 347.43 362.41 347.00 366.00 C 346.53 379.61 341.10 392.25 333.00 403.00 C 344.63 396.07 352.54 385.23 357.07 372.07 C 361.61 358.92 367.16 341.44 359.92 327.08 C 352.69 312.71 334.42 324.72 328.31 336.30 C 322.19 347.89 314.93 362.29 314.00 376.00 Z"
       id="path79" />
  </g>
  <g
     fill="#707070"
     fill-opacity="1.00"
     stroke="None"
     id="g80">
    <path
       d=" M 202.00 332.00  C 201.89 331.06 200.14 328.00 200.00 327.00 C 199.31 330.28 201.41 332.82 201.00 336.00 C 202.65 335.49 201.89 333.29 202.00 332.00 Z"
       id="path80" />
  </g>
  <g
     fill="#6A6A6A"
     fill-opacity="1.00"
     stroke="None"
     id="g81">
    <path
       d=" M 347.00 366.00  C 347.43 362.41 347.60 358.69 347.00 355.00 C 347.20 358.63 347.07 362.37 347.00 366.00 Z"
       id="path81" />
  </g>
  <g
     fill="#B1B1B1"
     fill-opacity="1.00"
     stroke="None"
     id="g82">
    <path
       d=" M 203.00 369.00  C 202.22 368.78 199.80 367.08 199.00 367.00 C 198.00 367.00 197.00 367.00 196.00 367.00 C 196.93 370.03 200.65 368.74 203.00 369.00 Z"
       id="path82" />
  </g>
  <g
     fill="#6B6B6B"
     fill-opacity="1.00"
     stroke="None"
     id="g83">
    <path
       d=" M 315.00 385.00  C 315.13 383.13 313.81 378.79 314.00 376.00 C 312.59 378.84 311.61 385.83 315.00 388.00 C 315.18 387.04 314.78 385.95 315.00 385.00 Z"
       id="path83" />
  </g>
  <g
     fill="#1E1E1E"
     fill-opacity="1.00"
     stroke="None"
     id="g84">
    <path
       d=" M 230.00 418.00  C 230.91 417.31 231.95 416.41 233.00 416.00 C 238.78 418.53 241.38 431.10 250.78 434.22 C 260.17 437.35 271.84 435.06 280.00 429.00 C 280.57 432.84 278.81 437.91 281.00 441.00 C 280.42 429.45 287.22 419.97 295.00 412.00 C 291.51 412.43 289.61 416.75 286.00 417.00 C 281.42 394.03 254.19 388.74 237.00 401.00 C 236.22 398.68 236.23 396.17 235.00 394.00 C 233.31 401.56 235.63 410.80 230.00 418.00 M 284.00 421.00  C 276.31 424.27 259.74 422.88 253.32 419.68 C 246.90 416.48 233.24 407.84 239.70 402.70 C 246.15 397.56 261.47 396.06 269.07 399.93 C 276.68 403.79 283.09 412.76 284.00 421.00 M 282.00 425.00  C 265.83 440.10 239.07 431.07 236.00 409.00 C 246.25 423.99 266.24 428.35 282.00 425.00 Z"
       id="path84" />
  </g>
  <g
     fill="#F4F4F4"
     fill-opacity="1.00"
     stroke="None"
     id="g85">
    <path
       d=" M 284.00 421.00  C 283.09 412.76 276.68 403.79 269.07 399.93 C 261.47 396.06 246.15 397.56 239.70 402.70 C 233.24 407.84 246.90 416.48 253.32 419.68 C 259.74 422.88 276.31 424.27 284.00 421.00 Z"
       id="path85" />
  </g>
  <g
     fill="#E5E5E5"
     fill-opacity="1.00"
     stroke="None"
     id="g86">
    <path
       d=" M 282.00 425.00  C 266.24 428.35 246.25 423.99 236.00 409.00 C 239.07 431.07 265.83 440.10 282.00 425.00 Z"
       id="path86" />
  </g>
  <g
     fill="#616161"
     fill-opacity="1.00"
     stroke="None"
     id="g87">
    <path
       d=" M 340.00 411.00  C 342.20 412.23 346.72 414.95 349.00 413.00 C 346.53 411.39 343.70 410.85 341.00 410.00 C 340.80 410.02 340.35 410.96 340.00 411.00 Z"
       id="path87" />
  </g>
  <g
     fill="#7A7A7A"
     fill-opacity="1.00"
     stroke="None"
     id="g88">
    <path
       d=" M 230.00 418.00  C 228.32 418.75 226.96 420.43 226.00 422.00 C 229.51 422.68 230.60 416.92 233.00 416.00 C 231.95 416.41 230.91 417.31 230.00 418.00 Z"
       id="path88" />
  </g>
  <g
     fill="#5F5F5F"
     fill-opacity="1.00"
     stroke="None"
     id="g89">
    <path
       d=" M 259.00 466.00  C 259.21 465.96 259.65 465.07 260.00 465.00 C 258.93 462.94 255.88 464.47 254.00 464.00 C 254.77 466.04 257.40 465.49 259.00 466.00 Z"
       id="path89" />
  </g>
  <g
     fill="#242424"
     fill-opacity="1.00"
     stroke="None"
     id="g90">
    <path
       d=" M 206.00 534.00  C 206.08 534.19 207.92 534.19 208.00 534.00 C 207.64 519.81 213.36 507.12 219.00 495.00 C 209.11 505.07 205.46 519.79 206.00 534.00 Z"
       id="path90" />
  </g>
  <g
     fill="#6A6A6A"
     fill-opacity="1.00"
     stroke="None"
     id="g91">
    <path
       d=" M 251.00 510.00  C 251.15 510.01 251.67 508.99 252.00 509.00 C 250.28 507.36 246.11 504.57 244.00 507.00 C 246.63 506.93 248.84 508.66 251.00 510.00 Z"
       id="path91" />
  </g>
  <g
     fill="#E4E4E4"
     fill-opacity="1.00"
     stroke="None"
     id="g92">
    <path
       d=" M 273.00 552.00  C 272.95 542.13 269.94 530.64 264.00 524.00 C 266.39 531.87 263.92 539.97 264.00 548.00 C 267.51 547.89 270.21 550.22 273.00 552.00 Z"
       id="path92" />
  </g>
  <g
     fill="#535353"
     fill-opacity="1.00"
     stroke="None"
     id="g93">
    <path
       d=" M 208.00 534.00  C 207.92 534.19 206.08 534.19 206.00 534.00 C 205.30 537.60 207.21 540.54 207.00 544.00 C 208.80 541.65 208.00 537.17 208.00 534.00 Z"
       id="path93" />
  </g>
  <g
     fill="#F6F6F6"
     fill-opacity="1.00"
     stroke="None"
     id="g94">
    <path
       d=" M 298.00 592.00  C 300.39 593.16 307.29 592.22 310.00 592.00 C 339.36 588.19 350.53 557.36 367.00 537.00 C 355.35 536.49 342.64 542.95 332.68 546.68 C 322.72 550.40 314.63 557.85 306.75 563.75 C 298.87 569.66 288.66 585.39 298.00 592.00 Z"
       id="path94" />
  </g>
  <g
     fill="#8A8A8A"
     fill-opacity="1.00"
     stroke="None"
     id="g95">
    <path
       d=" M 310.00 592.00  C 307.29 592.22 300.39 593.16 298.00 592.00 C 301.23 594.28 306.69 592.64 310.00 592.00 Z"
       id="path95" />
  </g>
  <g
     fill="#7B7B7B"
     fill-opacity="1.00"
     stroke="None"
     id="g96">
    <path
       d=" M 283.00 622.00  C 283.19 619.08 287.50 615.61 289.00 613.00 C 286.73 616.14 282.56 618.58 283.00 622.00 Z"
       id="path96" />
  </g>
  <g
     fill="#939393"
     fill-opacity="1.00"
     stroke="None"
     id="g97">
    <path
       d=" M 218.00 628.00  C 215.95 625.46 218.84 626.74 220.00 627.00 C 218.80 624.98 216.22 623.51 214.00 623.00 C 213.79 625.91 216.04 626.77 218.00 628.00 Z"
       id="path97" />
  </g>
  <g
     fill="#FAFAFA"
     fill-opacity="1.00"
     stroke="None"
     id="g99">
    <path
       d=" M 94.00 676.00  C 95.37 674.95 97.02 674.79 99.00 675.00 C 98.40 677.31 95.87 677.03 94.00 677.00 C 65.00 681.58 51.79 723.45 78.77 738.23 C 105.75 753.01 141.13 754.44 170.93 749.93 C 200.72 745.41 222.16 733.36 248.00 720.00 C 243.22 706.88 245.02 689.66 246.00 676.00 C 246.98 662.34 236.75 653.47 232.00 642.00 C 226.75 643.35 221.34 644.77 216.00 643.00 C 221.64 660.53 226.20 679.12 223.00 698.00 C 224.69 687.78 218.93 684.26 210.22 684.78 C 201.52 685.30 196.74 681.32 189.02 680.98 C 181.31 680.63 176.07 676.20 169.02 674.98 C 161.98 673.75 157.27 670.32 150.68 668.32 C 144.09 666.33 138.07 662.91 131.22 661.78 C 124.37 660.65 118.09 657.14 111.00 657.00 C 103.91 656.86 94.02 655.11 87.07 656.07 C 80.12 657.03 72.90 659.17 67.08 662.08 C 61.26 664.98 56.49 667.53 52.30 672.30 C 48.12 677.07 45.07 682.95 43.00 689.00 C 40.93 695.05 44.36 705.26 46.23 710.77 C 48.10 716.28 54.04 720.93 59.00 723.00 C 53.13 699.24 71.25 678.51 94.00 676.00 Z"
       id="path99" />
  </g>
  <g
     fill="#828282"
     fill-opacity="1.00"
     stroke="None"
     id="g100">
    <path
       d=" M 269.00 645.00  C 271.63 646.16 271.73 654.17 272.00 657.00 C 272.00 652.67 272.00 648.33 272.00 644.00 C 271.10 643.09 269.20 645.01 269.00 645.00 Z"
       id="path100" />
  </g>
  <g
     fill="#FBFBFB"
     fill-opacity="1.00"
     stroke="None"
     id="g101">
    <path
       d=" M 360.00 759.00  C 367.00 759.00 374.00 759.00 381.00 759.00 C 399.37 758.31 423.70 755.22 434.02 738.03 C 444.35 720.83 436.84 694.73 417.00 690.00 C 444.40 690.78 450.34 726.77 436.00 745.00 C 451.53 742.92 464.76 728.58 466.00 713.00 C 466.23 710.06 466.06 706.95 466.00 704.00 C 465.17 662.66 409.79 654.26 378.22 665.22 C 346.66 676.19 308.36 691.85 274.00 696.00 C 271.89 696.26 267.00 698.66 265.00 696.00 C 268.44 694.55 272.10 693.75 276.00 694.00 C 278.70 691.04 273.23 681.84 273.00 677.00 C 272.76 672.16 272.00 662.54 272.00 657.00 C 271.73 654.17 271.63 646.16 269.00 645.00 C 264.06 645.50 259.84 646.19 255.00 645.00 C 249.80 671.47 238.75 720.14 267.77 736.23 C 296.79 752.32 326.80 759.00 360.00 759.00 Z"
       id="path101" />
  </g>
  <g
     fill="#8D8D8D"
     fill-opacity="1.00"
     stroke="None"
     id="g102">
    <path
       d=" M 405.00 656.00  C 408.67 656.00 412.33 656.00 416.00 656.00 C 412.61 655.67 408.46 655.67 405.00 656.00 Z"
       id="path102" />
  </g>
  <g
     fill="#6F6F6F"
     fill-opacity="1.00"
     stroke="None"
     id="g103">
    <path
       d=" M 94.00 676.00  C 94.00 676.00 94.22 676.87 94.00 677.00 C 95.87 677.03 98.40 677.31 99.00 675.00 C 97.02 674.79 95.37 674.95 94.00 676.00 Z"
       id="path103" />
  </g>
  <g
     fill="#8D8D8D"
     fill-opacity="1.00"
     stroke="None"
     id="g104">
    <path
       d=" M 274.00 696.00  C 272.75 695.72 270.53 696.60 270.00 695.00 C 272.11 694.83 274.55 695.59 276.00 694.00 C 272.10 693.75 268.44 694.55 265.00 696.00 C 267.00 698.66 271.89 696.26 274.00 696.00 Z"
       id="path104" />
  </g>
  <g
     fill="#8C8E8D"
     fill-opacity="1.00"
     stroke="None"
     id="g105">
    <path
       d=" M 471.00 712.00  C 471.56 708.85 471.57 706.20 471.00 703.00 C 471.20 705.91 471.20 709.09 471.00 712.00 Z"
       id="path105" />
  </g>
  <g
     fill="#797B7A"
     fill-opacity="1.00"
     stroke="None"
     id="g106">
    <path
       d=" M 466.00 713.00  C 466.60 709.89 466.37 707.10 466.00 704.00 C 466.06 706.95 466.23 710.06 466.00 713.00 Z"
       id="path106" />
  </g>
  <g
     fill="#858585"
     fill-opacity="1.00"
     stroke="None"
     id="g107">
    <path
       d=" M 302.00 755.00  C 299.39 754.26 295.91 752.90 293.00 752.00 C 296.11 753.32 298.30 754.37 302.00 755.00 Z"
       id="path107" />
  </g>
  <g
     fill="#878787"
     fill-opacity="1.00"
     stroke="None"
     id="g108">
    <path
       d=" M 381.00 759.00  C 374.00 759.00 367.00 759.00 360.00 759.00 C 366.54 759.63 374.39 759.64 381.00 759.00 Z"
       id="path108" />
  </g>
</svg>
