<svg xmlns="http://www.w3.org/2000/svg" xmlns:v="https://svgstorm.com"
viewBox = "0 0 583 1000"
width="583"
height="1000">
<g fill="None" fill-opacity="0.0" stroke="#FEFEFE" stroke-opacity="1.00" stroke-width="0.3"><path d="
M 0.00 1000.00 
L 583.00 1000.00
L 583.00 0.00
L 0.00 0.00
L 0.00 1000.00
M 442.00 221.00 
C 442.77 227.33 442.60 234.76 442.00 241.00
C 442.00 255.17 441.30 267.90 437.67 281.67 C 434.04 295.44 446.72 296.99 452.77 308.23 C 458.82 319.47 443.89 330.09 440.00 339.00
C 452.78 343.53 461.35 351.92 469.30 363.70 C 477.26 375.47 492.90 382.61 508.00 379.00
C 509.22 392.36 514.31 403.14 525.25 409.75 C 536.18 416.36 540.92 424.82 548.75 434.25 C 556.58 443.68 559.98 454.91 564.32 466.68 C 568.66 478.45 567.44 496.94 564.02 509.02 C 560.61 521.11 555.87 531.97 550.08 543.08 C 544.28 554.19 534.60 562.22 540.92 574.08 C 547.25 585.93 544.30 604.43 541.22 616.22 C 538.15 628.01 530.30 636.25 520.92 643.92 C 511.53 651.58 498.34 656.76 486.00 657.00
C 474.67 684.25 459.18 709.01 456.01 739.01 C 452.83 769.01 442.93 801.77 435.02 830.02 C 427.11 858.28 414.14 880.35 396.00 903.00
C 424.20 905.41 442.38 946.51 416.25 965.25 C 390.11 983.99 359.99 984.87 327.98 976.02 C 295.96 967.18 293.79 931.60 303.99 902.99 C 314.19 874.38 308.00 835.03 315.00 805.00
C 305.94 806.12 297.23 808.44 288.00 809.00 C 278.77 809.56 267.41 811.12 258.00 810.00 C 248.59 808.88 239.09 808.99 230.00 807.00 C 220.90 805.01 211.03 800.32 210.07 811.07 C 209.12 821.83 205.81 826.85 204.01 836.01 C 202.21 845.17 198.02 850.65 196.07 859.07 C 194.13 867.50 189.99 874.47 187.23 882.23 C 184.46 889.99 181.43 896.82 178.08 904.08 C 174.72 911.34 171.69 918.05 168.08 925.08 C 164.46 932.10 160.67 938.98 156.70 945.70 C 152.73 952.41 148.78 957.84 144.25 964.25 C 139.71 970.65 134.67 974.83 127.92 978.92 C 121.17 983.01 112.51 987.55 104.00 987.00
C 100.35 987.52 96.56 987.43 93.00 987.00
C 62.75 986.39 38.41 960.29 28.07 933.93 C 17.74 907.57 21.14 858.00 58.00 856.00
C 61.74 855.39 65.33 855.40 69.00 856.00
C 74.61 856.30 80.02 857.50 85.00 860.00
C 88.00 843.52 89.19 824.88 91.33 808.33 C 93.47 791.78 96.91 775.21 100.33 759.33 C 103.74 743.45 113.62 731.62 106.68 716.32 C 99.73 701.02 99.15 682.78 101.00 666.00
C 63.95 661.49 49.91 609.44 82.00 588.00
C 56.81 570.10 36.85 550.44 25.68 521.32 C 14.51 492.20 21.51 451.65 51.00 434.00
C 46.43 424.81 49.85 411.50 60.23 407.23 C 70.61 402.96 81.84 402.14 93.07 400.07 C 104.31 398.01 110.14 392.57 121.23 388.23 C 132.32 383.89 121.11 370.07 127.00 360.00
C 116.06 351.02 117.09 335.91 127.30 325.30 C 137.51 314.69 127.75 302.47 125.01 288.99 C 122.26 275.51 124.45 257.88 130.77 245.77 C 137.10 233.67 148.20 224.55 145.00 210.00 C 141.80 195.44 138.35 180.35 138.00 165.00
C 104.56 164.41 72.90 125.63 90.77 93.77 C 108.64 61.91 158.82 77.42 169.00 108.00
C 204.27 76.22 251.99 57.67 300.00 66.00
C 297.42 52.83 298.35 37.48 305.30 26.30 C 312.26 15.13 325.99 11.07 338.22 13.78 C 350.45 16.48 358.39 25.16 363.77 36.23 C 369.15 47.30 371.99 63.56 369.07 76.07 C 366.16 88.59 356.31 97.57 365.25 107.75 C 374.19 117.92 374.08 129.32 379.92 140.08 C 385.77 150.83 394.61 156.54 403.75 164.25 C 412.88 171.97 419.20 178.60 427.75 187.25 C 436.30 195.89 443.00 208.27 442.00 221.00 Z"/>
</g>
<g fill="None" fill-opacity="0.0" stroke="#020202" stroke-opacity="1.00" stroke-width="0.3"><path d="
M 69.00 856.00 
C 65.41 855.81 61.59 855.80 58.00 856.00
C 21.14 858.00 17.74 907.57 28.07 933.93 C 38.41 960.29 62.75 986.39 93.00 987.00
C 96.64 987.07 100.36 987.14 104.00 987.00
C 112.51 987.55 121.17 983.01 127.92 978.92 C 134.67 974.83 139.71 970.65 144.25 964.25 C 148.78 957.84 152.73 952.41 156.70 945.70 C 160.67 938.98 164.46 932.10 168.08 925.08 C 171.69 918.05 174.72 911.34 178.08 904.08 C 181.43 896.82 184.46 889.99 187.23 882.23 C 189.99 874.47 194.13 867.50 196.07 859.07 C 198.02 850.65 202.21 845.17 204.01 836.01 C 205.81 826.85 209.12 821.83 210.07 811.07 C 211.03 800.32 220.90 805.01 230.00 807.00 C 239.09 808.99 248.59 808.88 258.00 810.00 C 267.41 811.12 278.77 809.56 288.00 809.00 C 297.23 808.44 305.94 806.12 315.00 805.00
C 308.00 835.03 314.19 874.38 303.99 902.99 C 293.79 931.60 295.96 967.18 327.98 976.02 C 359.99 984.87 390.11 983.99 416.25 965.25 C 442.38 946.51 424.20 905.41 396.00 903.00
C 414.14 880.35 427.11 858.28 435.02 830.02 C 442.93 801.77 452.83 769.01 456.01 739.01 C 459.18 709.01 474.67 684.25 486.00 657.00
C 498.34 656.76 511.53 651.58 520.92 643.92 C 530.30 636.25 538.15 628.01 541.22 616.22 C 544.30 604.43 547.25 585.93 540.92 574.08 C 534.60 562.22 544.28 554.19 550.08 543.08 C 555.87 531.97 560.61 521.11 564.02 509.02 C 567.44 496.94 568.66 478.45 564.32 466.68 C 559.98 454.91 556.58 443.68 548.75 434.25 C 540.92 424.82 536.18 416.36 525.25 409.75 C 514.31 403.14 509.22 392.36 508.00 379.00
C 492.90 382.61 477.26 375.47 469.30 363.70 C 461.35 351.92 452.78 343.53 440.00 339.00
C 443.89 330.09 458.82 319.47 452.77 308.23 C 446.72 296.99 434.04 295.44 437.67 281.67 C 441.30 267.90 442.00 255.17 442.00 241.00
C 442.00 234.34 442.13 227.66 442.00 221.00
C 443.00 208.27 436.30 195.89 427.75 187.25 C 419.20 178.60 412.88 171.97 403.75 164.25 C 394.61 156.54 385.77 150.83 379.92 140.08 C 374.08 129.32 374.19 117.92 365.25 107.75 C 356.31 97.57 366.16 88.59 369.07 76.07 C 371.99 63.56 369.15 47.30 363.77 36.23 C 358.39 25.16 350.45 16.48 338.22 13.78 C 325.99 11.07 312.26 15.13 305.30 26.30 C 298.35 37.48 297.42 52.83 300.00 66.00
C 251.99 57.67 204.27 76.22 169.00 108.00
C 158.82 77.42 108.64 61.91 90.77 93.77 C 72.90 125.63 104.56 164.41 138.00 165.00
C 138.35 180.35 141.80 195.44 145.00 210.00 C 148.20 224.55 137.10 233.67 130.77 245.77 C 124.45 257.88 122.26 275.51 125.01 288.99 C 127.75 302.47 137.51 314.69 127.30 325.30 C 117.09 335.91 116.06 351.02 127.00 360.00
C 121.11 370.07 132.32 383.89 121.23 388.23 C 110.14 392.57 104.31 398.01 93.07 400.07 C 81.84 402.14 70.61 402.96 60.23 407.23 C 49.85 411.50 46.43 424.81 51.00 434.00
C 21.51 451.65 14.51 492.20 25.68 521.32 C 36.85 550.44 56.81 570.10 82.00 588.00
C 49.91 609.44 63.95 661.49 101.00 666.00
C 99.15 682.78 99.73 701.02 106.68 716.32 C 113.62 731.62 103.74 743.45 100.33 759.33 C 96.91 775.21 93.47 791.78 91.33 808.33 C 89.19 824.88 88.00 843.52 85.00 860.00
C 80.02 857.50 74.61 856.30 69.00 856.00
M 353.00 92.00 
C 343.15 88.35 338.58 79.51 327.92 76.08 C 317.25 72.65 306.49 67.64 308.00 55.00 C 309.51 42.36 308.19 31.95 319.08 25.08 C 329.98 18.21 340.88 21.98 348.75 30.25 C 356.63 38.51 359.36 47.80 360.99 59.01 C 362.62 70.22 358.79 82.82 353.00 92.00
M 433.00 221.00 
C 433.73 227.02 433.57 234.07 433.00 240.00
C 433.00 260.83 426.36 279.97 425.00 300.00 C 423.65 320.04 410.64 329.92 394.77 338.77 C 378.90 347.62 369.11 357.28 354.92 366.92 C 340.73 376.56 332.01 389.09 319.00 400.00
C 306.19 389.90 295.59 380.66 280.31 373.70 C 265.02 366.73 250.14 359.87 232.93 356.07 C 215.71 352.28 198.76 343.27 179.33 344.67 C 159.90 346.07 152.47 330.43 144.08 314.92 C 135.69 299.42 131.04 279.76 134.00 262.00 C 136.96 244.24 153.90 235.49 155.00 218.00 C 156.10 200.51 143.71 179.01 147.78 161.78 C 151.85 144.55 159.43 131.64 170.92 118.92 C 182.41 106.19 193.50 99.26 208.23 91.23 C 222.96 83.19 239.18 77.55 256.22 74.22 C 273.26 70.90 298.02 73.10 313.68 79.32 C 329.34 85.54 340.20 93.93 352.25 105.75 C 364.29 117.57 365.52 135.72 373.93 149.07 C 382.33 162.43 397.30 168.26 407.75 180.25 C 418.21 192.24 435.08 203.09 433.00 221.00
M 163.00 115.00 
C 152.25 126.57 143.70 140.72 140.00 156.00
C 113.05 156.67 82.69 124.41 98.77 97.77 C 114.85 71.13 156.10 90.36 163.00 115.00
M 434.00 360.00 
C 433.42 356.77 432.91 354.27 434.00 351.00
C 434.40 349.80 433.69 348.23 434.00 347.00
C 461.00 352.11 468.18 395.10 501.00 388.00
C 510.26 411.48 506.51 445.42 482.00 458.00
C 473.21 451.17 466.06 442.04 462.03 431.98 C 457.99 421.91 453.90 405.75 451.02 395.98 C 448.15 386.21 437.86 367.90 432.00 382.00
C 450.10 401.84 445.55 432.85 464.00 453.00
C 458.62 451.61 452.73 452.03 447.00 452.00
C 447.00 455.00 447.00 458.00 447.00 461.00
C 462.96 461.33 482.90 462.56 492.00 477.00
C 481.72 471.09 469.59 472.46 458.00 471.00 C 446.41 469.54 433.25 471.34 421.98 472.98 C 410.70 474.62 399.80 477.21 389.32 480.32 C 378.84 483.44 369.55 486.73 359.77 490.77 C 349.99 494.82 340.73 497.86 331.31 502.31 C 321.88 506.75 312.90 510.43 303.32 514.32 C 293.74 518.21 284.52 522.28 274.78 525.78 C 265.03 529.27 253.81 533.09 243.98 535.98 C 234.14 538.86 221.68 542.64 211.98 543.98 C 202.27 545.32 186.80 552.79 181.70 544.30 C 176.59 535.82 172.59 526.46 166.70 519.30 C 160.80 512.14 168.11 499.75 176.22 496.22 C 184.33 492.70 194.12 488.14 200.75 480.75 C 207.38 473.36 213.61 467.04 217.77 457.77 C 221.93 448.50 226.52 437.32 228.00 427.00
C 224.99 426.79 222.23 425.44 219.00 426.00
C 214.19 451.64 199.23 479.00 173.00 488.00
C 174.36 480.95 173.99 473.40 174.00 466.00
C 170.73 465.30 168.23 467.43 165.00 467.00
C 165.37 481.06 164.79 495.42 157.00 507.00
C 153.06 503.87 150.54 498.69 146.00 496.00
C 146.23 474.18 132.56 455.55 117.75 439.25 C 102.94 422.94 77.14 411.41 58.00 427.00
C 62.88 406.09 93.96 412.01 110.69 403.69 C 127.43 395.38 143.37 384.37 160.69 377.70 C 178.02 371.02 197.13 393.74 212.00 400.00
C 213.69 397.29 215.72 394.92 217.00 392.00
C 204.07 385.34 196.15 376.88 181.93 372.07 C 167.70 367.27 155.03 363.25 139.93 358.07 C 124.82 352.90 127.10 334.11 139.00 325.00
C 141.78 330.15 145.86 334.68 148.00 340.00
C 144.64 338.30 141.35 336.69 138.00 335.00
C 136.31 337.71 134.28 340.08 133.00 343.00
C 165.24 354.81 205.72 355.85 238.02 366.98 C 270.33 378.10 295.51 390.33 322.00 412.00
C 353.26 371.19 399.76 349.35 439.00 319.00
C 436.90 316.54 434.72 312.57 431.00 313.00
C 432.69 309.53 432.11 305.42 434.00 302.00
C 449.25 308.68 444.19 321.50 434.08 331.08 C 423.97 340.66 422.74 359.06 427.00 372.00
C 430.32 372.53 432.88 370.36 436.00 370.00
C 435.43 366.66 433.81 363.57 434.00 360.00
M 151.00 372.00 
C 146.38 374.88 141.17 378.00 136.00 380.00
C 134.43 375.60 133.50 370.96 134.00 366.00
C 139.95 366.99 145.43 369.69 151.00 372.00
M 535.00 591.00 
C 535.48 594.34 535.39 597.75 535.00 601.00
C 534.52 625.22 512.67 644.27 490.00 648.00
C 491.86 636.85 495.18 626.51 496.00 615.00 C 496.81 603.48 497.15 588.50 497.00 577.00 C 496.85 565.50 493.04 552.68 493.00 542.00 C 492.96 531.32 483.70 519.90 489.25 511.25 C 494.80 502.60 503.86 496.49 503.00 485.00
C 512.83 486.07 521.53 482.71 530.00 479.00
C 528.72 476.07 526.64 473.70 525.00 471.00
C 517.83 475.11 509.22 477.41 501.00 475.00
C 500.52 470.44 496.35 465.46 492.00 464.00
C 506.83 451.01 514.04 433.05 515.00 414.00
C 545.80 433.16 566.36 475.18 554.67 509.67 C 542.99 544.17 524.23 570.84 499.00 597.00
C 498.96 600.15 503.02 601.30 504.00 604.00
C 509.48 599.98 513.56 593.97 519.00 590.00
C 518.80 596.51 516.00 602.34 513.00 608.00
C 515.93 609.29 517.85 612.46 521.00 613.00
C 527.03 601.34 529.38 588.15 531.00 575.00
C 534.00 579.37 534.87 585.43 535.00 591.00
M 135.00 484.00 
C 129.58 479.07 123.44 474.91 118.25 469.75 C 113.06 464.60 105.02 458.27 102.00 469.00
C 124.73 484.99 142.69 503.97 159.92 526.08 C 177.15 548.19 191.72 586.38 177.68 613.68 C 163.64 640.98 136.95 657.97 106.00 658.00 C 75.06 658.03 58.35 609.31 90.00 594.00
C 93.31 597.65 101.84 600.15 103.75 605.25 C 105.66 610.35 97.33 620.92 104.31 625.69 C 111.28 630.47 113.37 617.86 112.00 614.00
C 115.58 618.39 118.29 623.13 121.00 628.00
C 123.95 627.87 126.03 625.12 129.00 625.00
C 120.03 604.82 102.98 590.80 84.75 578.25 C 66.53 565.69 51.47 550.72 39.70 531.31 C 27.92 511.89 25.13 478.55 38.75 459.75 C 52.38 440.96 72.64 421.14 94.23 432.77 C 115.82 444.40 127.42 462.60 135.00 484.00
M 431.00 730.00 
C 427.04 734.63 422.58 739.09 418.00 743.00
C 362.30 790.59 285.59 813.90 213.00 794.00
C 213.28 762.17 207.18 731.44 187.75 706.25 C 168.31 681.07 129.02 690.04 116.00 717.00
C 110.84 701.31 106.84 684.04 110.00 667.00
C 162.51 666.18 209.19 609.40 187.00 558.00
C 283.68 549.70 362.30 477.31 461.00 480.00
C 505.69 557.69 495.59 665.64 431.00 730.00
M 483.00 505.00 
C 480.76 496.42 475.75 489.03 472.00 481.00
C 487.81 478.24 498.79 496.04 483.00 505.00
M 72.00 894.00 
C 69.08 893.84 65.92 893.80 63.00 894.00
C 50.63 894.84 39.72 904.20 34.00 915.00
C 44.40 923.95 47.63 907.38 58.08 904.08 C 68.52 900.77 81.55 903.47 90.08 910.92 C 98.61 918.36 104.70 925.27 108.32 935.68 C 111.94 946.09 113.21 961.40 105.00 970.00
C 105.20 973.09 108.53 974.88 111.00 976.00
C 83.71 986.54 53.99 964.56 41.08 940.92 C 28.16 917.29 24.55 871.78 58.00 865.00
C 61.47 864.38 64.60 864.45 68.00 865.00
C 104.30 866.97 130.57 907.38 130.00 941.00
C 133.00 941.00 136.00 941.00 139.00 941.00
C 138.84 928.81 135.76 915.55 131.23 904.77 C 126.70 894.00 121.15 886.70 112.75 878.25 C 104.35 869.80 91.56 866.11 95.00 853.00 C 98.44 839.89 97.35 825.84 99.99 812.99 C 102.64 800.14 103.14 786.26 106.00 774.00 C 108.86 761.73 111.86 750.26 115.98 738.98 C 120.09 727.69 125.03 719.72 132.75 710.75 C 140.47 701.79 154.70 697.00 165.67 701.33 C 176.64 705.65 182.38 712.81 188.30 722.70 C 194.23 732.59 197.68 744.05 200.33 755.67 C 202.97 767.30 205.03 784.22 203.67 796.67 C 202.31 809.12 198.30 821.43 195.07 833.07 C 191.85 844.72 187.95 855.98 184.02 867.02 C 180.10 878.06 174.98 888.13 170.69 898.70 C 166.41 909.26 160.94 918.85 155.75 928.75 C 150.55 938.64 145.35 947.83 138.75 956.75 C 132.14 965.66 123.64 973.37 113.00 976.00
C 133.07 944.44 107.69 898.49 72.00 894.00
M 426.00 748.00 
C 428.92 745.08 432.13 741.87 435.00 739.00
C 439.83 733.35 445.22 728.25 449.00 722.00
C 447.60 738.37 443.43 758.13 440.01 775.01 C 436.59 791.88 431.44 810.61 426.68 826.68 C 421.91 842.75 415.26 857.17 407.25 871.25 C 399.24 885.32 390.80 900.54 374.99 903.99 C 359.19 907.44 345.50 917.40 336.00 930.00
C 338.35 931.02 340.85 932.58 342.00 935.00
C 352.71 924.74 361.87 917.50 376.07 913.07 C 390.28 908.65 407.18 912.05 415.30 925.70 C 423.43 939.35 418.87 954.01 405.25 962.25 C 391.64 970.50 374.14 973.50 358.00 972.00 C 341.86 970.50 327.57 970.14 315.25 958.75 C 302.92 947.37 306.90 929.72 310.78 914.78 C 314.66 899.83 317.49 882.56 318.00 866.00 C 318.51 849.44 322.97 831.01 322.98 813.98 C 322.98 796.94 343.92 797.70 356.69 791.69 C 369.46 785.69 382.02 780.39 393.70 772.70 C 405.37 765.01 415.62 757.55 426.00 748.00 Z"/>
</g>
<g fill="None" fill-opacity="0.0" stroke="#FCFCFC" stroke-opacity="1.00" stroke-width="0.3"><path d="
M 353.00 92.00 
C 358.79 82.82 362.62 70.22 360.99 59.01 C 359.36 47.80 356.63 38.51 348.75 30.25 C 340.88 21.98 329.98 18.21 319.08 25.08 C 308.19 31.95 309.51 42.36 308.00 55.00 C 306.49 67.64 317.25 72.65 327.92 76.08 C 338.58 79.51 343.15 88.35 353.00 92.00 Z"/>
</g>
<g fill="None" fill-opacity="0.0" stroke="#FDFDFD" stroke-opacity="1.00" stroke-width="0.3"><path d="
M 433.00 240.00 
C 433.00 233.67 433.13 227.33 433.00 221.00
C 435.08 203.09 418.21 192.24 407.75 180.25 C 397.30 168.26 382.33 162.43 373.93 149.07 C 365.52 135.72 364.29 117.57 352.25 105.75 C 340.20 93.93 329.34 85.54 313.68 79.32 C 298.02 73.10 273.26 70.90 256.22 74.22 C 239.18 77.55 222.96 83.19 208.23 91.23 C 193.50 99.26 182.41 106.19 170.92 118.92 C 159.43 131.64 151.85 144.55 147.78 161.78 C 143.71 179.01 156.10 200.51 155.00 218.00 C 153.90 235.49 136.96 244.24 134.00 262.00 C 131.04 279.76 135.69 299.42 144.08 314.92 C 152.47 330.43 159.90 346.07 179.33 344.67 C 198.76 343.27 215.71 352.28 232.93 356.07 C 250.14 359.87 265.02 366.73 280.31 373.70 C 295.59 380.66 306.19 389.90 319.00 400.00
C 332.01 389.09 340.73 376.56 354.92 366.92 C 369.11 357.28 378.90 347.62 394.77 338.77 C 410.64 329.92 423.65 320.04 425.00 300.00 C 426.36 279.97 433.00 260.83 433.00 240.00
M 345.00 131.00 
C 333.17 119.11 318.87 109.63 301.00 115.00
C 313.37 92.88 341.40 112.43 345.00 131.00
M 204.00 135.00 
C 205.84 147.90 192.76 148.35 185.75 154.75 C 178.75 161.16 177.24 172.08 173.00 180.00
C 169.14 160.17 186.15 141.71 204.00 135.00
M 343.00 186.00 
C 347.95 185.68 353.51 180.50 358.00 183.00
C 347.81 184.64 332.09 202.65 326.68 184.32 C 321.27 165.99 349.93 167.75 343.00 186.00
M 309.00 195.00 
C 306.10 195.35 302.93 195.00 300.00 195.00
C 277.76 195.00 256.03 203.02 239.00 217.00
C 240.25 210.07 249.09 206.38 256.69 202.70 C 264.30 199.01 273.23 195.97 282.22 194.22 C 291.22 192.48 304.18 191.52 314.00 192.00
C 315.11 195.52 311.23 195.08 309.00 195.00
M 297.00 206.00 
C 315.31 209.79 305.60 237.45 294.75 245.75 C 283.91 254.05 259.63 245.12 256.23 228.77 C 252.83 212.42 284.08 203.32 297.00 206.00
M 216.00 229.00 
C 208.01 230.16 199.56 234.33 192.00 234.00
C 194.14 231.06 198.55 230.67 202.00 230.00
C 198.05 224.66 192.86 210.51 204.01 209.01 C 215.16 207.51 215.17 223.17 216.00 229.00
M 372.00 244.00 
C 366.79 242.39 361.80 239.69 356.00 240.00
C 354.68 258.42 342.98 279.08 339.22 296.22 C 335.46 313.37 327.84 336.77 308.00 338.00 C 288.16 339.23 277.69 319.62 263.25 309.75 C 248.80 299.89 232.03 292.96 221.00 278.00
C 215.84 281.81 212.63 287.92 208.00 292.00
C 209.50 282.75 221.47 273.48 227.00 266.00
C 227.18 270.33 223.50 273.26 222.00 277.00
C 244.90 296.29 272.52 320.52 304.67 313.67 C 336.82 306.82 347.78 266.97 354.00 240.00
C 349.54 238.06 343.97 237.24 341.00 233.00
C 345.64 232.51 351.28 236.99 356.67 237.33 C 362.07 237.67 370.73 238.59 372.00 244.00 Z"/>
</g>
<g fill="None" fill-opacity="0.0" stroke="#FCFCFC" stroke-opacity="1.00" stroke-width="0.3"><path d="
M 163.00 115.00 
C 156.10 90.36 114.85 71.13 98.77 97.77 C 82.69 124.41 113.05 156.67 140.00 156.00
C 143.70 140.72 152.25 126.57 163.00 115.00 Z"/>
</g>
<g fill="None" fill-opacity="0.0" stroke="#030303" stroke-opacity="1.00" stroke-width="0.3"><path d="
M 345.00 131.00 
C 341.40 112.43 313.37 92.88 301.00 115.00
C 318.87 109.63 333.17 119.11 345.00 131.00 Z"/>
</g>
<g fill="None" fill-opacity="0.0" stroke="#050505" stroke-opacity="1.00" stroke-width="0.3"><path d="
M 204.00 135.00 
C 186.15 141.71 169.14 160.17 173.00 180.00
C 177.24 172.08 178.75 161.16 185.75 154.75 C 192.76 148.35 205.84 147.90 204.00 135.00 Z"/>
</g>
<g fill="None" fill-opacity="0.0" stroke="#030303" stroke-opacity="1.00" stroke-width="0.3"><path d="
M 343.00 186.00 
C 349.93 167.75 321.27 165.99 326.68 184.32 C 332.09 202.65 347.81 184.64 358.00 183.00
C 353.51 180.50 347.95 185.68 343.00 186.00 Z"/>
</g>
<g fill="None" fill-opacity="0.0" stroke="#111111" stroke-opacity="1.00" stroke-width="0.3"><path d="
M 300.00 195.00 
C 302.40 194.77 306.85 195.05 309.00 195.00
C 311.23 195.08 315.11 195.52 314.00 192.00
C 304.18 191.52 291.22 192.48 282.22 194.22 C 273.23 195.97 264.30 199.01 256.69 202.70 C 249.09 206.38 240.25 210.07 239.00 217.00
C 256.03 203.02 277.76 195.00 300.00 195.00 Z"/>
</g>
<g fill="None" fill-opacity="0.0" stroke="#717171" stroke-opacity="1.00" stroke-width="0.3"><path d="
M 300.00 195.00 
C 302.93 195.00 306.10 195.35 309.00 195.00
C 306.85 195.05 302.40 194.77 300.00 195.00 Z"/>
</g>
<g fill="None" fill-opacity="0.0" stroke="#010101" stroke-opacity="1.00" stroke-width="0.3"><path d="
M 297.00 206.00 
C 284.08 203.32 252.83 212.42 256.23 228.77 C 259.63 245.12 283.91 254.05 294.75 245.75 C 305.60 237.45 315.31 209.79 297.00 206.00 Z"/>
</g>
<g fill="None" fill-opacity="0.0" stroke="#020202" stroke-opacity="1.00" stroke-width="0.3"><path d="
M 216.00 229.00 
C 215.17 223.17 215.16 207.51 204.01 209.01 C 192.86 210.51 198.05 224.66 202.00 230.00
C 198.55 230.67 194.14 231.06 192.00 234.00
C 199.56 234.33 208.01 230.16 216.00 229.00 Z"/>
</g>
<g fill="None" fill-opacity="0.0" stroke="#909090" stroke-opacity="1.00" stroke-width="0.3"><path d="
M 433.00 240.00 
C 433.57 234.07 433.73 227.02 433.00 221.00
C 433.13 227.33 433.00 233.67 433.00 240.00 Z"/>
</g>
<g fill="None" fill-opacity="0.0" stroke="#747474" stroke-opacity="1.00" stroke-width="0.3"><path d="
M 442.00 241.00 
C 442.60 234.76 442.77 227.33 442.00 221.00
C 442.13 227.66 442.00 234.34 442.00 241.00 Z"/>
</g>
<g fill="None" fill-opacity="0.0" stroke="#111111" stroke-opacity="1.00" stroke-width="0.3"><path d="
M 372.00 244.00 
C 370.73 238.59 362.07 237.67 356.67 237.33 C 351.28 236.99 345.64 232.51 341.00 233.00
C 343.97 237.24 349.54 238.06 354.00 240.00
C 347.78 266.97 336.82 306.82 304.67 313.67 C 272.52 320.52 244.90 296.29 222.00 277.00
C 223.50 273.26 227.18 270.33 227.00 266.00
C 221.47 273.48 209.50 282.75 208.00 292.00
C 212.63 287.92 215.84 281.81 221.00 278.00
C 232.03 292.96 248.80 299.89 263.25 309.75 C 277.69 319.62 288.16 339.23 308.00 338.00 C 327.84 336.77 335.46 313.37 339.22 296.22 C 342.98 279.08 354.68 258.42 356.00 240.00
C 361.80 239.69 366.79 242.39 372.00 244.00
M 324.00 327.00 
C 319.34 321.84 312.95 319.11 308.00 315.00
C 320.27 312.78 330.70 302.55 337.00 292.00
C 336.80 303.53 330.23 316.39 324.00 327.00
M 287.00 318.00 
C 281.13 324.85 275.09 319.10 271.00 313.00
C 276.15 314.75 282.97 314.59 287.00 318.00
M 283.00 325.00 
C 284.68 318.58 298.44 315.49 303.22 317.78 C 308.00 320.07 320.72 322.06 321.75 328.25 C 322.78 334.44 306.83 337.13 302.00 335.00 C 297.17 332.88 287.82 327.98 283.00 325.00 Z"/>
</g>
<g fill="None" fill-opacity="0.0" stroke="#F4F4F4" stroke-opacity="1.00" stroke-width="0.3"><path d="
M 324.00 327.00 
C 330.23 316.39 336.80 303.53 337.00 292.00
C 330.70 302.55 320.27 312.78 308.00 315.00
C 312.95 319.11 319.34 321.84 324.00 327.00 Z"/>
</g>
<g fill="None" fill-opacity="0.0" stroke="#FCFCFC" stroke-opacity="1.00" stroke-width="0.3"><path d="
M 434.00 351.00 
C 433.50 353.66 433.82 357.29 434.00 360.00
C 433.81 363.57 435.43 366.66 436.00 370.00
C 432.88 370.36 430.32 372.53 427.00 372.00
C 422.74 359.06 423.97 340.66 434.08 331.08 C 444.19 321.50 449.25 308.68 434.00 302.00
C 432.11 305.42 432.69 309.53 431.00 313.00
C 434.72 312.57 436.90 316.54 439.00 319.00
C 399.76 349.35 353.26 371.19 322.00 412.00
C 295.51 390.33 270.33 378.10 238.02 366.98 C 205.72 355.85 165.24 354.81 133.00 343.00
C 134.28 340.08 136.31 337.71 138.00 335.00
C 141.35 336.69 144.64 338.30 148.00 340.00
C 145.86 334.68 141.78 330.15 139.00 325.00
C 127.10 334.11 124.82 352.90 139.93 358.07 C 155.03 363.25 167.70 367.27 181.93 372.07 C 196.15 376.88 204.07 385.34 217.00 392.00
C 215.72 394.92 213.69 397.29 212.00 400.00
C 197.13 393.74 178.02 371.02 160.69 377.70 C 143.37 384.37 127.43 395.38 110.69 403.69 C 93.96 412.01 62.88 406.09 58.00 427.00
C 77.14 411.41 102.94 422.94 117.75 439.25 C 132.56 455.55 146.23 474.18 146.00 496.00
C 150.54 498.69 153.06 503.87 157.00 507.00
C 164.79 495.42 165.37 481.06 165.00 467.00
C 168.23 467.43 170.73 465.30 174.00 466.00
C 173.99 473.40 174.36 480.95 173.00 488.00
C 199.23 479.00 214.19 451.64 219.00 426.00
C 222.23 425.44 224.99 426.79 228.00 427.00
C 226.52 437.32 221.93 448.50 217.77 457.77 C 213.61 467.04 207.38 473.36 200.75 480.75 C 194.12 488.14 184.33 492.70 176.22 496.22 C 168.11 499.75 160.80 512.14 166.70 519.30 C 172.59 526.46 176.59 535.82 181.70 544.30 C 186.80 552.79 202.27 545.32 211.98 543.98 C 221.68 542.64 234.14 538.86 243.98 535.98 C 253.81 533.09 265.03 529.27 274.78 525.78 C 284.52 522.28 293.74 518.21 303.32 514.32 C 312.90 510.43 321.88 506.75 331.31 502.31 C 340.73 497.86 349.99 494.82 359.77 490.77 C 369.55 486.73 378.84 483.44 389.32 480.32 C 399.80 477.21 410.70 474.62 421.98 472.98 C 433.25 471.34 446.41 469.54 458.00 471.00 C 469.59 472.46 481.72 471.09 492.00 477.00
C 482.90 462.56 462.96 461.33 447.00 461.00
C 447.00 458.00 447.00 455.00 447.00 452.00
C 452.73 452.03 458.62 451.61 464.00 453.00
C 445.55 432.85 450.10 401.84 432.00 382.00
C 437.86 367.90 448.15 386.21 451.02 395.98 C 453.90 405.75 457.99 421.91 462.03 431.98 C 466.06 442.04 473.21 451.17 482.00 458.00
C 506.51 445.42 510.26 411.48 501.00 388.00
C 468.18 395.10 461.00 352.11 434.00 347.00
C 433.69 348.23 434.40 349.80 434.00 351.00 Z"/>
</g>
<g fill="None" fill-opacity="0.0" stroke="#E5E5E5" stroke-opacity="1.00" stroke-width="0.3"><path d="
M 287.00 318.00 
C 282.97 314.59 276.15 314.75 271.00 313.00
C 275.09 319.10 281.13 324.85 287.00 318.00 Z"/>
</g>
<g fill="None" fill-opacity="0.0" stroke="#F5F5F5" stroke-opacity="1.00" stroke-width="0.3"><path d="
M 283.00 325.00 
C 287.82 327.98 297.17 332.88 302.00 335.00 C 306.83 337.13 322.78 334.44 321.75 328.25 C 320.72 322.06 308.00 320.07 303.22 317.78 C 298.44 315.49 284.68 318.58 283.00 325.00 Z"/>
</g>
<g fill="None" fill-opacity="0.0" stroke="#686868" stroke-opacity="1.00" stroke-width="0.3"><path d="
M 434.00 360.00 
C 433.82 357.29 433.50 353.66 434.00 351.00
C 432.91 354.27 433.42 356.77 434.00 360.00 Z"/>
</g>
<g fill="None" fill-opacity="0.0" stroke="#EFEFEF" stroke-opacity="1.00" stroke-width="0.3"><path d="
M 151.00 372.00 
C 145.43 369.69 139.95 366.99 134.00 366.00
C 133.50 370.96 134.43 375.60 136.00 380.00
C 141.17 378.00 146.38 374.88 151.00 372.00 Z"/>
</g>
<g fill="None" fill-opacity="0.0" stroke="#FBFBFB" stroke-opacity="1.00" stroke-width="0.3"><path d="
M 535.00 601.00 
C 535.07 597.69 535.13 594.31 535.00 591.00
C 534.87 585.43 534.00 579.37 531.00 575.00
C 529.38 588.15 527.03 601.34 521.00 613.00
C 517.85 612.46 515.93 609.29 513.00 608.00
C 516.00 602.34 518.80 596.51 519.00 590.00
C 513.56 593.97 509.48 599.98 504.00 604.00
C 503.02 601.30 498.96 600.15 499.00 597.00
C 524.23 570.84 542.99 544.17 554.67 509.67 C 566.36 475.18 545.80 433.16 515.00 414.00
C 514.04 433.05 506.83 451.01 492.00 464.00
C 496.35 465.46 500.52 470.44 501.00 475.00
C 509.22 477.41 517.83 475.11 525.00 471.00
C 526.64 473.70 528.72 476.07 530.00 479.00
C 521.53 482.71 512.83 486.07 503.00 485.00
C 503.86 496.49 494.80 502.60 489.25 511.25 C 483.70 519.90 492.96 531.32 493.00 542.00 C 493.04 552.68 496.85 565.50 497.00 577.00 C 497.15 588.50 496.81 603.48 496.00 615.00 C 495.18 626.51 491.86 636.85 490.00 648.00
C 512.67 644.27 534.52 625.22 535.00 601.00 Z"/>
</g>
<g fill="None" fill-opacity="0.0" stroke="#FDFDFD" stroke-opacity="1.00" stroke-width="0.3"><path d="
M 135.00 484.00 
C 127.42 462.60 115.82 444.40 94.23 432.77 C 72.64 421.14 52.38 440.96 38.75 459.75 C 25.13 478.55 27.92 511.89 39.70 531.31 C 51.47 550.72 66.53 565.69 84.75 578.25 C 102.98 590.80 120.03 604.82 129.00 625.00
C 126.03 625.12 123.95 627.87 121.00 628.00
C 118.29 623.13 115.58 618.39 112.00 614.00
C 113.37 617.86 111.28 630.47 104.31 625.69 C 97.33 620.92 105.66 610.35 103.75 605.25 C 101.84 600.15 93.31 597.65 90.00 594.00
C 58.35 609.31 75.06 658.03 106.00 658.00 C 136.95 657.97 163.64 640.98 177.68 613.68 C 191.72 586.38 177.15 548.19 159.92 526.08 C 142.69 503.97 124.73 484.99 102.00 469.00
C 105.02 458.27 113.06 464.60 118.25 469.75 C 123.44 474.91 129.58 479.07 135.00 484.00 Z"/>
</g>
<g fill="None" fill-opacity="0.0" stroke="#FEFEFE" stroke-opacity="1.00" stroke-width="0.3"><path d="
M 418.00 743.00 
C 422.25 738.75 426.79 734.20 431.00 730.00
C 495.59 665.64 505.69 557.69 461.00 480.00
C 362.30 477.31 283.68 549.70 187.00 558.00
C 209.19 609.40 162.51 666.18 110.00 667.00
C 106.84 684.04 110.84 701.31 116.00 717.00
C 129.02 690.04 168.31 681.07 187.75 706.25 C 207.18 731.44 213.28 762.17 213.00 794.00
C 285.59 813.90 362.30 790.59 418.00 743.00 Z"/>
</g>
<g fill="None" fill-opacity="0.0" stroke="#F0F0F0" stroke-opacity="1.00" stroke-width="0.3"><path d="
M 483.00 505.00 
C 498.79 496.04 487.81 478.24 472.00 481.00
C 475.75 489.03 480.76 496.42 483.00 505.00 Z"/>
</g>
<g fill="None" fill-opacity="0.0" stroke="#686868" stroke-opacity="1.00" stroke-width="0.3"><path d="
M 535.00 601.00 
C 535.39 597.75 535.48 594.34 535.00 591.00
C 535.13 594.31 535.07 597.69 535.00 601.00 Z"/>
</g>
<g fill="None" fill-opacity="0.0" stroke="#FCFCFC" stroke-opacity="1.00" stroke-width="0.3"><path d="
M 68.00 865.00 
C 64.75 864.82 61.25 864.78 58.00 865.00
C 24.55 871.78 28.16 917.29 41.08 940.92 C 53.99 964.56 83.71 986.54 111.00 976.00
C 108.53 974.88 105.20 973.09 105.00 970.00
C 113.21 961.40 111.94 946.09 108.32 935.68 C 104.70 925.27 98.61 918.36 90.08 910.92 C 81.55 903.47 68.52 900.77 58.08 904.08 C 47.63 907.38 44.40 923.95 34.00 915.00
C 39.72 904.20 50.63 894.84 63.00 894.00
C 66.19 893.43 68.89 893.49 72.00 894.00
C 107.69 898.49 133.07 944.44 113.00 976.00
C 123.64 973.37 132.14 965.66 138.75 956.75 C 145.35 947.83 150.55 938.64 155.75 928.75 C 160.94 918.85 166.41 909.26 170.69 898.70 C 174.98 888.13 180.10 878.06 184.02 867.02 C 187.95 855.98 191.85 844.72 195.07 833.07 C 198.30 821.43 202.31 809.12 203.67 796.67 C 205.03 784.22 202.97 767.30 200.33 755.67 C 197.68 744.05 194.23 732.59 188.30 722.70 C 182.38 712.81 176.64 705.65 165.67 701.33 C 154.70 697.00 140.47 701.79 132.75 710.75 C 125.03 719.72 120.09 727.69 115.98 738.98 C 111.86 750.26 108.86 761.73 106.00 774.00 C 103.14 786.26 102.64 800.14 99.99 812.99 C 97.35 825.84 98.44 839.89 95.00 853.00 C 91.56 866.11 104.35 869.80 112.75 878.25 C 121.15 886.70 126.70 894.00 131.23 904.77 C 135.76 915.55 138.84 928.81 139.00 941.00
C 136.00 941.00 133.00 941.00 130.00 941.00
C 130.57 907.38 104.30 866.97 68.00 865.00 Z"/>
</g>
<g fill="None" fill-opacity="0.0" stroke="#FDFDFD" stroke-opacity="1.00" stroke-width="0.3"><path d="
M 435.00 739.00 
C 432.22 742.25 429.20 745.26 426.00 748.00
C 415.62 757.55 405.37 765.01 393.70 772.70 C 382.02 780.39 369.46 785.69 356.69 791.69 C 343.92 797.70 322.98 796.94 322.98 813.98 C 322.97 831.01 318.51 849.44 318.00 866.00 C 317.49 882.56 314.66 899.83 310.78 914.78 C 306.90 929.72 302.92 947.37 315.25 958.75 C 327.57 970.14 341.86 970.50 358.00 972.00 C 374.14 973.50 391.64 970.50 405.25 962.25 C 418.87 954.01 423.43 939.35 415.30 925.70 C 407.18 912.05 390.28 908.65 376.07 913.07 C 361.87 917.50 352.71 924.74 342.00 935.00
C 340.85 932.58 338.35 931.02 336.00 930.00
C 345.50 917.40 359.19 907.44 374.99 903.99 C 390.80 900.54 399.24 885.32 407.25 871.25 C 415.26 857.17 421.91 842.75 426.68 826.68 C 431.44 810.61 436.59 791.88 440.01 775.01 C 443.43 758.13 447.60 738.37 449.00 722.00
C 445.22 728.25 439.83 733.35 435.00 739.00 Z"/>
</g>
<g fill="None" fill-opacity="0.0" stroke="#848484" stroke-opacity="1.00" stroke-width="0.3"><path d="
M 418.00 743.00 
C 422.58 739.09 427.04 734.63 431.00 730.00
C 426.79 734.20 422.25 738.75 418.00 743.00 Z"/>
</g>
<g fill="None" fill-opacity="0.0" stroke="#7F7F7F" stroke-opacity="1.00" stroke-width="0.3"><path d="
M 426.00 748.00 
C 429.20 745.26 432.22 742.25 435.00 739.00
C 432.13 741.87 428.92 745.08 426.00 748.00 Z"/>
</g>
<g fill="None" fill-opacity="0.0" stroke="#6A6A6A" stroke-opacity="1.00" stroke-width="0.3"><path d="
M 58.00 856.00 
C 61.59 855.80 65.41 855.81 69.00 856.00
C 65.33 855.40 61.74 855.39 58.00 856.00 Z"/>
</g>
<g fill="None" fill-opacity="0.0" stroke="#8D8D8D" stroke-opacity="1.00" stroke-width="0.3"><path d="
M 58.00 865.00 
C 61.25 864.78 64.75 864.82 68.00 865.00
C 64.60 864.45 61.47 864.38 58.00 865.00 Z"/>
</g>
<g fill="None" fill-opacity="0.0" stroke="#787878" stroke-opacity="1.00" stroke-width="0.3"><path d="
M 63.00 894.00 
C 65.92 893.80 69.08 893.84 72.00 894.00
C 68.89 893.49 66.19 893.43 63.00 894.00 Z"/>
</g>
<g fill="None" fill-opacity="0.0" stroke="#616161" stroke-opacity="1.00" stroke-width="0.3"><path d="
M 104.00 987.00 
C 100.36 987.14 96.64 987.07 93.00 987.00
C 96.56 987.43 100.35 987.52 104.00 987.00 Z"/>
</g>
<g fill="#FEFEFE" fill-opacity="1.00" stroke="None">
<path d="
M 0.00 1000.00 
L 583.00 1000.00
L 583.00 0.00
L 0.00 0.00
L 0.00 1000.00
M 442.00 221.00 
C 442.77 227.33 442.60 234.76 442.00 241.00
C 442.00 255.17 441.30 267.90 437.67 281.67 C 434.04 295.44 446.72 296.99 452.77 308.23 C 458.82 319.47 443.89 330.09 440.00 339.00
C 452.78 343.53 461.35 351.92 469.30 363.70 C 477.26 375.47 492.90 382.61 508.00 379.00
C 509.22 392.36 514.31 403.14 525.25 409.75 C 536.18 416.36 540.92 424.82 548.75 434.25 C 556.58 443.68 559.98 454.91 564.32 466.68 C 568.66 478.45 567.44 496.94 564.02 509.02 C 560.61 521.11 555.87 531.97 550.08 543.08 C 544.28 554.19 534.60 562.22 540.92 574.08 C 547.25 585.93 544.30 604.43 541.22 616.22 C 538.15 628.01 530.30 636.25 520.92 643.92 C 511.53 651.58 498.34 656.76 486.00 657.00
C 474.67 684.25 459.18 709.01 456.01 739.01 C 452.83 769.01 442.93 801.77 435.02 830.02 C 427.11 858.28 414.14 880.35 396.00 903.00
C 424.20 905.41 442.38 946.51 416.25 965.25 C 390.11 983.99 359.99 984.87 327.98 976.02 C 295.96 967.18 293.79 931.60 303.99 902.99 C 314.19 874.38 308.00 835.03 315.00 805.00
C 305.94 806.12 297.23 808.44 288.00 809.00 C 278.77 809.56 267.41 811.12 258.00 810.00 C 248.59 808.88 239.09 808.99 230.00 807.00 C 220.90 805.01 211.03 800.32 210.07 811.07 C 209.12 821.83 205.81 826.85 204.01 836.01 C 202.21 845.17 198.02 850.65 196.07 859.07 C 194.13 867.50 189.99 874.47 187.23 882.23 C 184.46 889.99 181.43 896.82 178.08 904.08 C 174.72 911.34 171.69 918.05 168.08 925.08 C 164.46 932.10 160.67 938.98 156.70 945.70 C 152.73 952.41 148.78 957.84 144.25 964.25 C 139.71 970.65 134.67 974.83 127.92 978.92 C 121.17 983.01 112.51 987.55 104.00 987.00
C 100.35 987.52 96.56 987.43 93.00 987.00
C 62.75 986.39 38.41 960.29 28.07 933.93 C 17.74 907.57 21.14 858.00 58.00 856.00
C 61.74 855.39 65.33 855.40 69.00 856.00
C 74.61 856.30 80.02 857.50 85.00 860.00
C 88.00 843.52 89.19 824.88 91.33 808.33 C 93.47 791.78 96.91 775.21 100.33 759.33 C 103.74 743.45 113.62 731.62 106.68 716.32 C 99.73 701.02 99.15 682.78 101.00 666.00
C 63.95 661.49 49.91 609.44 82.00 588.00
C 56.81 570.10 36.85 550.44 25.68 521.32 C 14.51 492.20 21.51 451.65 51.00 434.00
C 46.43 424.81 49.85 411.50 60.23 407.23 C 70.61 402.96 81.84 402.14 93.07 400.07 C 104.31 398.01 110.14 392.57 121.23 388.23 C 132.32 383.89 121.11 370.07 127.00 360.00
C 116.06 351.02 117.09 335.91 127.30 325.30 C 137.51 314.69 127.75 302.47 125.01 288.99 C 122.26 275.51 124.45 257.88 130.77 245.77 C 137.10 233.67 148.20 224.55 145.00 210.00 C 141.80 195.44 138.35 180.35 138.00 165.00
C 104.56 164.41 72.90 125.63 90.77 93.77 C 108.64 61.91 158.82 77.42 169.00 108.00
C 204.27 76.22 251.99 57.67 300.00 66.00
C 297.42 52.83 298.35 37.48 305.30 26.30 C 312.26 15.13 325.99 11.07 338.22 13.78 C 350.45 16.48 358.39 25.16 363.77 36.23 C 369.15 47.30 371.99 63.56 369.07 76.07 C 366.16 88.59 356.31 97.57 365.25 107.75 C 374.19 117.92 374.08 129.32 379.92 140.08 C 385.77 150.83 394.61 156.54 403.75 164.25 C 412.88 171.97 419.20 178.60 427.75 187.25 C 436.30 195.89 443.00 208.27 442.00 221.00 Z"/>
</g>
<g fill="#020202" fill-opacity="1.00" stroke="None">
<path d="
M 69.00 856.00 
C 65.41 855.81 61.59 855.80 58.00 856.00
C 21.14 858.00 17.74 907.57 28.07 933.93 C 38.41 960.29 62.75 986.39 93.00 987.00
C 96.64 987.07 100.36 987.14 104.00 987.00
C 112.51 987.55 121.17 983.01 127.92 978.92 C 134.67 974.83 139.71 970.65 144.25 964.25 C 148.78 957.84 152.73 952.41 156.70 945.70 C 160.67 938.98 164.46 932.10 168.08 925.08 C 171.69 918.05 174.72 911.34 178.08 904.08 C 181.43 896.82 184.46 889.99 187.23 882.23 C 189.99 874.47 194.13 867.50 196.07 859.07 C 198.02 850.65 202.21 845.17 204.01 836.01 C 205.81 826.85 209.12 821.83 210.07 811.07 C 211.03 800.32 220.90 805.01 230.00 807.00 C 239.09 808.99 248.59 808.88 258.00 810.00 C 267.41 811.12 278.77 809.56 288.00 809.00 C 297.23 808.44 305.94 806.12 315.00 805.00
C 308.00 835.03 314.19 874.38 303.99 902.99 C 293.79 931.60 295.96 967.18 327.98 976.02 C 359.99 984.87 390.11 983.99 416.25 965.25 C 442.38 946.51 424.20 905.41 396.00 903.00
C 414.14 880.35 427.11 858.28 435.02 830.02 C 442.93 801.77 452.83 769.01 456.01 739.01 C 459.18 709.01 474.67 684.25 486.00 657.00
C 498.34 656.76 511.53 651.58 520.92 643.92 C 530.30 636.25 538.15 628.01 541.22 616.22 C 544.30 604.43 547.25 585.93 540.92 574.08 C 534.60 562.22 544.28 554.19 550.08 543.08 C 555.87 531.97 560.61 521.11 564.02 509.02 C 567.44 496.94 568.66 478.45 564.32 466.68 C 559.98 454.91 556.58 443.68 548.75 434.25 C 540.92 424.82 536.18 416.36 525.25 409.75 C 514.31 403.14 509.22 392.36 508.00 379.00
C 492.90 382.61 477.26 375.47 469.30 363.70 C 461.35 351.92 452.78 343.53 440.00 339.00
C 443.89 330.09 458.82 319.47 452.77 308.23 C 446.72 296.99 434.04 295.44 437.67 281.67 C 441.30 267.90 442.00 255.17 442.00 241.00
C 442.00 234.34 442.13 227.66 442.00 221.00
C 443.00 208.27 436.30 195.89 427.75 187.25 C 419.20 178.60 412.88 171.97 403.75 164.25 C 394.61 156.54 385.77 150.83 379.92 140.08 C 374.08 129.32 374.19 117.92 365.25 107.75 C 356.31 97.57 366.16 88.59 369.07 76.07 C 371.99 63.56 369.15 47.30 363.77 36.23 C 358.39 25.16 350.45 16.48 338.22 13.78 C 325.99 11.07 312.26 15.13 305.30 26.30 C 298.35 37.48 297.42 52.83 300.00 66.00
C 251.99 57.67 204.27 76.22 169.00 108.00
C 158.82 77.42 108.64 61.91 90.77 93.77 C 72.90 125.63 104.56 164.41 138.00 165.00
C 138.35 180.35 141.80 195.44 145.00 210.00 C 148.20 224.55 137.10 233.67 130.77 245.77 C 124.45 257.88 122.26 275.51 125.01 288.99 C 127.75 302.47 137.51 314.69 127.30 325.30 C 117.09 335.91 116.06 351.02 127.00 360.00
C 121.11 370.07 132.32 383.89 121.23 388.23 C 110.14 392.57 104.31 398.01 93.07 400.07 C 81.84 402.14 70.61 402.96 60.23 407.23 C 49.85 411.50 46.43 424.81 51.00 434.00
C 21.51 451.65 14.51 492.20 25.68 521.32 C 36.85 550.44 56.81 570.10 82.00 588.00
C 49.91 609.44 63.95 661.49 101.00 666.00
C 99.15 682.78 99.73 701.02 106.68 716.32 C 113.62 731.62 103.74 743.45 100.33 759.33 C 96.91 775.21 93.47 791.78 91.33 808.33 C 89.19 824.88 88.00 843.52 85.00 860.00
C 80.02 857.50 74.61 856.30 69.00 856.00
M 353.00 92.00 
C 343.15 88.35 338.58 79.51 327.92 76.08 C 317.25 72.65 306.49 67.64 308.00 55.00 C 309.51 42.36 308.19 31.95 319.08 25.08 C 329.98 18.21 340.88 21.98 348.75 30.25 C 356.63 38.51 359.36 47.80 360.99 59.01 C 362.62 70.22 358.79 82.82 353.00 92.00
M 433.00 221.00 
C 433.73 227.02 433.57 234.07 433.00 240.00
C 433.00 260.83 426.36 279.97 425.00 300.00 C 423.65 320.04 410.64 329.92 394.77 338.77 C 378.90 347.62 369.11 357.28 354.92 366.92 C 340.73 376.56 332.01 389.09 319.00 400.00
C 306.19 389.90 295.59 380.66 280.31 373.70 C 265.02 366.73 250.14 359.87 232.93 356.07 C 215.71 352.28 198.76 343.27 179.33 344.67 C 159.90 346.07 152.47 330.43 144.08 314.92 C 135.69 299.42 131.04 279.76 134.00 262.00 C 136.96 244.24 153.90 235.49 155.00 218.00 C 156.10 200.51 143.71 179.01 147.78 161.78 C 151.85 144.55 159.43 131.64 170.92 118.92 C 182.41 106.19 193.50 99.26 208.23 91.23 C 222.96 83.19 239.18 77.55 256.22 74.22 C 273.26 70.90 298.02 73.10 313.68 79.32 C 329.34 85.54 340.20 93.93 352.25 105.75 C 364.29 117.57 365.52 135.72 373.93 149.07 C 382.33 162.43 397.30 168.26 407.75 180.25 C 418.21 192.24 435.08 203.09 433.00 221.00
M 163.00 115.00 
C 152.25 126.57 143.70 140.72 140.00 156.00
C 113.05 156.67 82.69 124.41 98.77 97.77 C 114.85 71.13 156.10 90.36 163.00 115.00
M 434.00 360.00 
C 433.42 356.77 432.91 354.27 434.00 351.00
C 434.40 349.80 433.69 348.23 434.00 347.00
C 461.00 352.11 468.18 395.10 501.00 388.00
C 510.26 411.48 506.51 445.42 482.00 458.00
C 473.21 451.17 466.06 442.04 462.03 431.98 C 457.99 421.91 453.90 405.75 451.02 395.98 C 448.15 386.21 437.86 367.90 432.00 382.00
C 450.10 401.84 445.55 432.85 464.00 453.00
C 458.62 451.61 452.73 452.03 447.00 452.00
C 447.00 455.00 447.00 458.00 447.00 461.00
C 462.96 461.33 482.90 462.56 492.00 477.00
C 481.72 471.09 469.59 472.46 458.00 471.00 C 446.41 469.54 433.25 471.34 421.98 472.98 C 410.70 474.62 399.80 477.21 389.32 480.32 C 378.84 483.44 369.55 486.73 359.77 490.77 C 349.99 494.82 340.73 497.86 331.31 502.31 C 321.88 506.75 312.90 510.43 303.32 514.32 C 293.74 518.21 284.52 522.28 274.78 525.78 C 265.03 529.27 253.81 533.09 243.98 535.98 C 234.14 538.86 221.68 542.64 211.98 543.98 C 202.27 545.32 186.80 552.79 181.70 544.30 C 176.59 535.82 172.59 526.46 166.70 519.30 C 160.80 512.14 168.11 499.75 176.22 496.22 C 184.33 492.70 194.12 488.14 200.75 480.75 C 207.38 473.36 213.61 467.04 217.77 457.77 C 221.93 448.50 226.52 437.32 228.00 427.00
C 224.99 426.79 222.23 425.44 219.00 426.00
C 214.19 451.64 199.23 479.00 173.00 488.00
C 174.36 480.95 173.99 473.40 174.00 466.00
C 170.73 465.30 168.23 467.43 165.00 467.00
C 165.37 481.06 164.79 495.42 157.00 507.00
C 153.06 503.87 150.54 498.69 146.00 496.00
C 146.23 474.18 132.56 455.55 117.75 439.25 C 102.94 422.94 77.14 411.41 58.00 427.00
C 62.88 406.09 93.96 412.01 110.69 403.69 C 127.43 395.38 143.37 384.37 160.69 377.70 C 178.02 371.02 197.13 393.74 212.00 400.00
C 213.69 397.29 215.72 394.92 217.00 392.00
C 204.07 385.34 196.15 376.88 181.93 372.07 C 167.70 367.27 155.03 363.25 139.93 358.07 C 124.82 352.90 127.10 334.11 139.00 325.00
C 141.78 330.15 145.86 334.68 148.00 340.00
C 144.64 338.30 141.35 336.69 138.00 335.00
C 136.31 337.71 134.28 340.08 133.00 343.00
C 165.24 354.81 205.72 355.85 238.02 366.98 C 270.33 378.10 295.51 390.33 322.00 412.00
C 353.26 371.19 399.76 349.35 439.00 319.00
C 436.90 316.54 434.72 312.57 431.00 313.00
C 432.69 309.53 432.11 305.42 434.00 302.00
C 449.25 308.68 444.19 321.50 434.08 331.08 C 423.97 340.66 422.74 359.06 427.00 372.00
C 430.32 372.53 432.88 370.36 436.00 370.00
C 435.43 366.66 433.81 363.57 434.00 360.00
M 151.00 372.00 
C 146.38 374.88 141.17 378.00 136.00 380.00
C 134.43 375.60 133.50 370.96 134.00 366.00
C 139.95 366.99 145.43 369.69 151.00 372.00
M 535.00 591.00 
C 535.48 594.34 535.39 597.75 535.00 601.00
C 534.52 625.22 512.67 644.27 490.00 648.00
C 491.86 636.85 495.18 626.51 496.00 615.00 C 496.81 603.48 497.15 588.50 497.00 577.00 C 496.85 565.50 493.04 552.68 493.00 542.00 C 492.96 531.32 483.70 519.90 489.25 511.25 C 494.80 502.60 503.86 496.49 503.00 485.00
C 512.83 486.07 521.53 482.71 530.00 479.00
C 528.72 476.07 526.64 473.70 525.00 471.00
C 517.83 475.11 509.22 477.41 501.00 475.00
C 500.52 470.44 496.35 465.46 492.00 464.00
C 506.83 451.01 514.04 433.05 515.00 414.00
C 545.80 433.16 566.36 475.18 554.67 509.67 C 542.99 544.17 524.23 570.84 499.00 597.00
C 498.96 600.15 503.02 601.30 504.00 604.00
C 509.48 599.98 513.56 593.97 519.00 590.00
C 518.80 596.51 516.00 602.34 513.00 608.00
C 515.93 609.29 517.85 612.46 521.00 613.00
C 527.03 601.34 529.38 588.15 531.00 575.00
C 534.00 579.37 534.87 585.43 535.00 591.00
M 135.00 484.00 
C 129.58 479.07 123.44 474.91 118.25 469.75 C 113.06 464.60 105.02 458.27 102.00 469.00
C 124.73 484.99 142.69 503.97 159.92 526.08 C 177.15 548.19 191.72 586.38 177.68 613.68 C 163.64 640.98 136.95 657.97 106.00 658.00 C 75.06 658.03 58.35 609.31 90.00 594.00
C 93.31 597.65 101.84 600.15 103.75 605.25 C 105.66 610.35 97.33 620.92 104.31 625.69 C 111.28 630.47 113.37 617.86 112.00 614.00
C 115.58 618.39 118.29 623.13 121.00 628.00
C 123.95 627.87 126.03 625.12 129.00 625.00
C 120.03 604.82 102.98 590.80 84.75 578.25 C 66.53 565.69 51.47 550.72 39.70 531.31 C 27.92 511.89 25.13 478.55 38.75 459.75 C 52.38 440.96 72.64 421.14 94.23 432.77 C 115.82 444.40 127.42 462.60 135.00 484.00
M 431.00 730.00 
C 427.04 734.63 422.58 739.09 418.00 743.00
C 362.30 790.59 285.59 813.90 213.00 794.00
C 213.28 762.17 207.18 731.44 187.75 706.25 C 168.31 681.07 129.02 690.04 116.00 717.00
C 110.84 701.31 106.84 684.04 110.00 667.00
C 162.51 666.18 209.19 609.40 187.00 558.00
C 283.68 549.70 362.30 477.31 461.00 480.00
C 505.69 557.69 495.59 665.64 431.00 730.00
M 483.00 505.00 
C 480.76 496.42 475.75 489.03 472.00 481.00
C 487.81 478.24 498.79 496.04 483.00 505.00
M 72.00 894.00 
C 69.08 893.84 65.92 893.80 63.00 894.00
C 50.63 894.84 39.72 904.20 34.00 915.00
C 44.40 923.95 47.63 907.38 58.08 904.08 C 68.52 900.77 81.55 903.47 90.08 910.92 C 98.61 918.36 104.70 925.27 108.32 935.68 C 111.94 946.09 113.21 961.40 105.00 970.00
C 105.20 973.09 108.53 974.88 111.00 976.00
C 83.71 986.54 53.99 964.56 41.08 940.92 C 28.16 917.29 24.55 871.78 58.00 865.00
C 61.47 864.38 64.60 864.45 68.00 865.00
C 104.30 866.97 130.57 907.38 130.00 941.00
C 133.00 941.00 136.00 941.00 139.00 941.00
C 138.84 928.81 135.76 915.55 131.23 904.77 C 126.70 894.00 121.15 886.70 112.75 878.25 C 104.35 869.80 91.56 866.11 95.00 853.00 C 98.44 839.89 97.35 825.84 99.99 812.99 C 102.64 800.14 103.14 786.26 106.00 774.00 C 108.86 761.73 111.86 750.26 115.98 738.98 C 120.09 727.69 125.03 719.72 132.75 710.75 C 140.47 701.79 154.70 697.00 165.67 701.33 C 176.64 705.65 182.38 712.81 188.30 722.70 C 194.23 732.59 197.68 744.05 200.33 755.67 C 202.97 767.30 205.03 784.22 203.67 796.67 C 202.31 809.12 198.30 821.43 195.07 833.07 C 191.85 844.72 187.95 855.98 184.02 867.02 C 180.10 878.06 174.98 888.13 170.69 898.70 C 166.41 909.26 160.94 918.85 155.75 928.75 C 150.55 938.64 145.35 947.83 138.75 956.75 C 132.14 965.66 123.64 973.37 113.00 976.00
C 133.07 944.44 107.69 898.49 72.00 894.00
M 426.00 748.00 
C 428.92 745.08 432.13 741.87 435.00 739.00
C 439.83 733.35 445.22 728.25 449.00 722.00
C 447.60 738.37 443.43 758.13 440.01 775.01 C 436.59 791.88 431.44 810.61 426.68 826.68 C 421.91 842.75 415.26 857.17 407.25 871.25 C 399.24 885.32 390.80 900.54 374.99 903.99 C 359.19 907.44 345.50 917.40 336.00 930.00
C 338.35 931.02 340.85 932.58 342.00 935.00
C 352.71 924.74 361.87 917.50 376.07 913.07 C 390.28 908.65 407.18 912.05 415.30 925.70 C 423.43 939.35 418.87 954.01 405.25 962.25 C 391.64 970.50 374.14 973.50 358.00 972.00 C 341.86 970.50 327.57 970.14 315.25 958.75 C 302.92 947.37 306.90 929.72 310.78 914.78 C 314.66 899.83 317.49 882.56 318.00 866.00 C 318.51 849.44 322.97 831.01 322.98 813.98 C 322.98 796.94 343.92 797.70 356.69 791.69 C 369.46 785.69 382.02 780.39 393.70 772.70 C 405.37 765.01 415.62 757.55 426.00 748.00 Z"/>
</g>
<g fill="#FCFCFC" fill-opacity="1.00" stroke="None">
<path d="
M 353.00 92.00 
C 358.79 82.82 362.62 70.22 360.99 59.01 C 359.36 47.80 356.63 38.51 348.75 30.25 C 340.88 21.98 329.98 18.21 319.08 25.08 C 308.19 31.95 309.51 42.36 308.00 55.00 C 306.49 67.64 317.25 72.65 327.92 76.08 C 338.58 79.51 343.15 88.35 353.00 92.00 Z"/>
</g>
<g fill="#FDFDFD" fill-opacity="1.00" stroke="None">
<path d="
M 433.00 240.00 
C 433.00 233.67 433.13 227.33 433.00 221.00
C 435.08 203.09 418.21 192.24 407.75 180.25 C 397.30 168.26 382.33 162.43 373.93 149.07 C 365.52 135.72 364.29 117.57 352.25 105.75 C 340.20 93.93 329.34 85.54 313.68 79.32 C 298.02 73.10 273.26 70.90 256.22 74.22 C 239.18 77.55 222.96 83.19 208.23 91.23 C 193.50 99.26 182.41 106.19 170.92 118.92 C 159.43 131.64 151.85 144.55 147.78 161.78 C 143.71 179.01 156.10 200.51 155.00 218.00 C 153.90 235.49 136.96 244.24 134.00 262.00 C 131.04 279.76 135.69 299.42 144.08 314.92 C 152.47 330.43 159.90 346.07 179.33 344.67 C 198.76 343.27 215.71 352.28 232.93 356.07 C 250.14 359.87 265.02 366.73 280.31 373.70 C 295.59 380.66 306.19 389.90 319.00 400.00
C 332.01 389.09 340.73 376.56 354.92 366.92 C 369.11 357.28 378.90 347.62 394.77 338.77 C 410.64 329.92 423.65 320.04 425.00 300.00 C 426.36 279.97 433.00 260.83 433.00 240.00
M 345.00 131.00 
C 333.17 119.11 318.87 109.63 301.00 115.00
C 313.37 92.88 341.40 112.43 345.00 131.00
M 204.00 135.00 
C 205.84 147.90 192.76 148.35 185.75 154.75 C 178.75 161.16 177.24 172.08 173.00 180.00
C 169.14 160.17 186.15 141.71 204.00 135.00
M 343.00 186.00 
C 347.95 185.68 353.51 180.50 358.00 183.00
C 347.81 184.64 332.09 202.65 326.68 184.32 C 321.27 165.99 349.93 167.75 343.00 186.00
M 309.00 195.00 
C 306.10 195.35 302.93 195.00 300.00 195.00
C 277.76 195.00 256.03 203.02 239.00 217.00
C 240.25 210.07 249.09 206.38 256.69 202.70 C 264.30 199.01 273.23 195.97 282.22 194.22 C 291.22 192.48 304.18 191.52 314.00 192.00
C 315.11 195.52 311.23 195.08 309.00 195.00
M 297.00 206.00 
C 315.31 209.79 305.60 237.45 294.75 245.75 C 283.91 254.05 259.63 245.12 256.23 228.77 C 252.83 212.42 284.08 203.32 297.00 206.00
M 216.00 229.00 
C 208.01 230.16 199.56 234.33 192.00 234.00
C 194.14 231.06 198.55 230.67 202.00 230.00
C 198.05 224.66 192.86 210.51 204.01 209.01 C 215.16 207.51 215.17 223.17 216.00 229.00
M 372.00 244.00 
C 366.79 242.39 361.80 239.69 356.00 240.00
C 354.68 258.42 342.98 279.08 339.22 296.22 C 335.46 313.37 327.84 336.77 308.00 338.00 C 288.16 339.23 277.69 319.62 263.25 309.75 C 248.80 299.89 232.03 292.96 221.00 278.00
C 215.84 281.81 212.63 287.92 208.00 292.00
C 209.50 282.75 221.47 273.48 227.00 266.00
C 227.18 270.33 223.50 273.26 222.00 277.00
C 244.90 296.29 272.52 320.52 304.67 313.67 C 336.82 306.82 347.78 266.97 354.00 240.00
C 349.54 238.06 343.97 237.24 341.00 233.00
C 345.64 232.51 351.28 236.99 356.67 237.33 C 362.07 237.67 370.73 238.59 372.00 244.00 Z"/>
</g>
<g fill="#FCFCFC" fill-opacity="1.00" stroke="None">
<path d="
M 163.00 115.00 
C 156.10 90.36 114.85 71.13 98.77 97.77 C 82.69 124.41 113.05 156.67 140.00 156.00
C 143.70 140.72 152.25 126.57 163.00 115.00 Z"/>
</g>
<g fill="#030303" fill-opacity="1.00" stroke="None">
<path d="
M 345.00 131.00 
C 341.40 112.43 313.37 92.88 301.00 115.00
C 318.87 109.63 333.17 119.11 345.00 131.00 Z"/>
</g>
<g fill="#050505" fill-opacity="1.00" stroke="None">
<path d="
M 204.00 135.00 
C 186.15 141.71 169.14 160.17 173.00 180.00
C 177.24 172.08 178.75 161.16 185.75 154.75 C 192.76 148.35 205.84 147.90 204.00 135.00 Z"/>
</g>
<g fill="#030303" fill-opacity="1.00" stroke="None">
<path d="
M 343.00 186.00 
C 349.93 167.75 321.27 165.99 326.68 184.32 C 332.09 202.65 347.81 184.64 358.00 183.00
C 353.51 180.50 347.95 185.68 343.00 186.00 Z"/>
</g>
<g fill="#111111" fill-opacity="1.00" stroke="None">
<path d="
M 300.00 195.00 
C 302.40 194.77 306.85 195.05 309.00 195.00
C 311.23 195.08 315.11 195.52 314.00 192.00
C 304.18 191.52 291.22 192.48 282.22 194.22 C 273.23 195.97 264.30 199.01 256.69 202.70 C 249.09 206.38 240.25 210.07 239.00 217.00
C 256.03 203.02 277.76 195.00 300.00 195.00 Z"/>
</g>
<g fill="#717171" fill-opacity="1.00" stroke="None">
<path d="
M 300.00 195.00 
C 302.93 195.00 306.10 195.35 309.00 195.00
C 306.85 195.05 302.40 194.77 300.00 195.00 Z"/>
</g>
<g fill="#010101" fill-opacity="1.00" stroke="None">
<path d="
M 297.00 206.00 
C 284.08 203.32 252.83 212.42 256.23 228.77 C 259.63 245.12 283.91 254.05 294.75 245.75 C 305.60 237.45 315.31 209.79 297.00 206.00 Z"/>
</g>
<g fill="#020202" fill-opacity="1.00" stroke="None">
<path d="
M 216.00 229.00 
C 215.17 223.17 215.16 207.51 204.01 209.01 C 192.86 210.51 198.05 224.66 202.00 230.00
C 198.55 230.67 194.14 231.06 192.00 234.00
C 199.56 234.33 208.01 230.16 216.00 229.00 Z"/>
</g>
<g fill="#909090" fill-opacity="1.00" stroke="None">
<path d="
M 433.00 240.00 
C 433.57 234.07 433.73 227.02 433.00 221.00
C 433.13 227.33 433.00 233.67 433.00 240.00 Z"/>
</g>
<g fill="#747474" fill-opacity="1.00" stroke="None">
<path d="
M 442.00 241.00 
C 442.60 234.76 442.77 227.33 442.00 221.00
C 442.13 227.66 442.00 234.34 442.00 241.00 Z"/>
</g>
<g fill="#111111" fill-opacity="1.00" stroke="None">
<path d="
M 372.00 244.00 
C 370.73 238.59 362.07 237.67 356.67 237.33 C 351.28 236.99 345.64 232.51 341.00 233.00
C 343.97 237.24 349.54 238.06 354.00 240.00
C 347.78 266.97 336.82 306.82 304.67 313.67 C 272.52 320.52 244.90 296.29 222.00 277.00
C 223.50 273.26 227.18 270.33 227.00 266.00
C 221.47 273.48 209.50 282.75 208.00 292.00
C 212.63 287.92 215.84 281.81 221.00 278.00
C 232.03 292.96 248.80 299.89 263.25 309.75 C 277.69 319.62 288.16 339.23 308.00 338.00 C 327.84 336.77 335.46 313.37 339.22 296.22 C 342.98 279.08 354.68 258.42 356.00 240.00
C 361.80 239.69 366.79 242.39 372.00 244.00
M 324.00 327.00 
C 319.34 321.84 312.95 319.11 308.00 315.00
C 320.27 312.78 330.70 302.55 337.00 292.00
C 336.80 303.53 330.23 316.39 324.00 327.00
M 287.00 318.00 
C 281.13 324.85 275.09 319.10 271.00 313.00
C 276.15 314.75 282.97 314.59 287.00 318.00
M 283.00 325.00 
C 284.68 318.58 298.44 315.49 303.22 317.78 C 308.00 320.07 320.72 322.06 321.75 328.25 C 322.78 334.44 306.83 337.13 302.00 335.00 C 297.17 332.88 287.82 327.98 283.00 325.00 Z"/>
</g>
<g fill="#F4F4F4" fill-opacity="1.00" stroke="None">
<path d="
M 324.00 327.00 
C 330.23 316.39 336.80 303.53 337.00 292.00
C 330.70 302.55 320.27 312.78 308.00 315.00
C 312.95 319.11 319.34 321.84 324.00 327.00 Z"/>
</g>
<g fill="#FCFCFC" fill-opacity="1.00" stroke="None">
<path d="
M 434.00 351.00 
C 433.50 353.66 433.82 357.29 434.00 360.00
C 433.81 363.57 435.43 366.66 436.00 370.00
C 432.88 370.36 430.32 372.53 427.00 372.00
C 422.74 359.06 423.97 340.66 434.08 331.08 C 444.19 321.50 449.25 308.68 434.00 302.00
C 432.11 305.42 432.69 309.53 431.00 313.00
C 434.72 312.57 436.90 316.54 439.00 319.00
C 399.76 349.35 353.26 371.19 322.00 412.00
C 295.51 390.33 270.33 378.10 238.02 366.98 C 205.72 355.85 165.24 354.81 133.00 343.00
C 134.28 340.08 136.31 337.71 138.00 335.00
C 141.35 336.69 144.64 338.30 148.00 340.00
C 145.86 334.68 141.78 330.15 139.00 325.00
C 127.10 334.11 124.82 352.90 139.93 358.07 C 155.03 363.25 167.70 367.27 181.93 372.07 C 196.15 376.88 204.07 385.34 217.00 392.00
C 215.72 394.92 213.69 397.29 212.00 400.00
C 197.13 393.74 178.02 371.02 160.69 377.70 C 143.37 384.37 127.43 395.38 110.69 403.69 C 93.96 412.01 62.88 406.09 58.00 427.00
C 77.14 411.41 102.94 422.94 117.75 439.25 C 132.56 455.55 146.23 474.18 146.00 496.00
C 150.54 498.69 153.06 503.87 157.00 507.00
C 164.79 495.42 165.37 481.06 165.00 467.00
C 168.23 467.43 170.73 465.30 174.00 466.00
C 173.99 473.40 174.36 480.95 173.00 488.00
C 199.23 479.00 214.19 451.64 219.00 426.00
C 222.23 425.44 224.99 426.79 228.00 427.00
C 226.52 437.32 221.93 448.50 217.77 457.77 C 213.61 467.04 207.38 473.36 200.75 480.75 C 194.12 488.14 184.33 492.70 176.22 496.22 C 168.11 499.75 160.80 512.14 166.70 519.30 C 172.59 526.46 176.59 535.82 181.70 544.30 C 186.80 552.79 202.27 545.32 211.98 543.98 C 221.68 542.64 234.14 538.86 243.98 535.98 C 253.81 533.09 265.03 529.27 274.78 525.78 C 284.52 522.28 293.74 518.21 303.32 514.32 C 312.90 510.43 321.88 506.75 331.31 502.31 C 340.73 497.86 349.99 494.82 359.77 490.77 C 369.55 486.73 378.84 483.44 389.32 480.32 C 399.80 477.21 410.70 474.62 421.98 472.98 C 433.25 471.34 446.41 469.54 458.00 471.00 C 469.59 472.46 481.72 471.09 492.00 477.00
C 482.90 462.56 462.96 461.33 447.00 461.00
C 447.00 458.00 447.00 455.00 447.00 452.00
C 452.73 452.03 458.62 451.61 464.00 453.00
C 445.55 432.85 450.10 401.84 432.00 382.00
C 437.86 367.90 448.15 386.21 451.02 395.98 C 453.90 405.75 457.99 421.91 462.03 431.98 C 466.06 442.04 473.21 451.17 482.00 458.00
C 506.51 445.42 510.26 411.48 501.00 388.00
C 468.18 395.10 461.00 352.11 434.00 347.00
C 433.69 348.23 434.40 349.80 434.00 351.00 Z"/>
</g>
<g fill="#E5E5E5" fill-opacity="1.00" stroke="None">
<path d="
M 287.00 318.00 
C 282.97 314.59 276.15 314.75 271.00 313.00
C 275.09 319.10 281.13 324.85 287.00 318.00 Z"/>
</g>
<g fill="#F5F5F5" fill-opacity="1.00" stroke="None">
<path d="
M 283.00 325.00 
C 287.82 327.98 297.17 332.88 302.00 335.00 C 306.83 337.13 322.78 334.44 321.75 328.25 C 320.72 322.06 308.00 320.07 303.22 317.78 C 298.44 315.49 284.68 318.58 283.00 325.00 Z"/>
</g>
<g fill="#686868" fill-opacity="1.00" stroke="None">
<path d="
M 434.00 360.00 
C 433.82 357.29 433.50 353.66 434.00 351.00
C 432.91 354.27 433.42 356.77 434.00 360.00 Z"/>
</g>
<g fill="#EFEFEF" fill-opacity="1.00" stroke="None">
<path d="
M 151.00 372.00 
C 145.43 369.69 139.95 366.99 134.00 366.00
C 133.50 370.96 134.43 375.60 136.00 380.00
C 141.17 378.00 146.38 374.88 151.00 372.00 Z"/>
</g>
<g fill="#FBFBFB" fill-opacity="1.00" stroke="None">
<path d="
M 535.00 601.00 
C 535.07 597.69 535.13 594.31 535.00 591.00
C 534.87 585.43 534.00 579.37 531.00 575.00
C 529.38 588.15 527.03 601.34 521.00 613.00
C 517.85 612.46 515.93 609.29 513.00 608.00
C 516.00 602.34 518.80 596.51 519.00 590.00
C 513.56 593.97 509.48 599.98 504.00 604.00
C 503.02 601.30 498.96 600.15 499.00 597.00
C 524.23 570.84 542.99 544.17 554.67 509.67 C 566.36 475.18 545.80 433.16 515.00 414.00
C 514.04 433.05 506.83 451.01 492.00 464.00
C 496.35 465.46 500.52 470.44 501.00 475.00
C 509.22 477.41 517.83 475.11 525.00 471.00
C 526.64 473.70 528.72 476.07 530.00 479.00
C 521.53 482.71 512.83 486.07 503.00 485.00
C 503.86 496.49 494.80 502.60 489.25 511.25 C 483.70 519.90 492.96 531.32 493.00 542.00 C 493.04 552.68 496.85 565.50 497.00 577.00 C 497.15 588.50 496.81 603.48 496.00 615.00 C 495.18 626.51 491.86 636.85 490.00 648.00
C 512.67 644.27 534.52 625.22 535.00 601.00 Z"/>
</g>
<g fill="#FDFDFD" fill-opacity="1.00" stroke="None">
<path d="
M 135.00 484.00 
C 127.42 462.60 115.82 444.40 94.23 432.77 C 72.64 421.14 52.38 440.96 38.75 459.75 C 25.13 478.55 27.92 511.89 39.70 531.31 C 51.47 550.72 66.53 565.69 84.75 578.25 C 102.98 590.80 120.03 604.82 129.00 625.00
C 126.03 625.12 123.95 627.87 121.00 628.00
C 118.29 623.13 115.58 618.39 112.00 614.00
C 113.37 617.86 111.28 630.47 104.31 625.69 C 97.33 620.92 105.66 610.35 103.75 605.25 C 101.84 600.15 93.31 597.65 90.00 594.00
C 58.35 609.31 75.06 658.03 106.00 658.00 C 136.95 657.97 163.64 640.98 177.68 613.68 C 191.72 586.38 177.15 548.19 159.92 526.08 C 142.69 503.97 124.73 484.99 102.00 469.00
C 105.02 458.27 113.06 464.60 118.25 469.75 C 123.44 474.91 129.58 479.07 135.00 484.00 Z"/>
</g>
<g fill="#FEFEFE" fill-opacity="1.00" stroke="None">
<path d="
M 418.00 743.00 
C 422.25 738.75 426.79 734.20 431.00 730.00
C 495.59 665.64 505.69 557.69 461.00 480.00
C 362.30 477.31 283.68 549.70 187.00 558.00
C 209.19 609.40 162.51 666.18 110.00 667.00
C 106.84 684.04 110.84 701.31 116.00 717.00
C 129.02 690.04 168.31 681.07 187.75 706.25 C 207.18 731.44 213.28 762.17 213.00 794.00
C 285.59 813.90 362.30 790.59 418.00 743.00 Z"/>
</g>
<g fill="#F0F0F0" fill-opacity="1.00" stroke="None">
<path d="
M 483.00 505.00 
C 498.79 496.04 487.81 478.24 472.00 481.00
C 475.75 489.03 480.76 496.42 483.00 505.00 Z"/>
</g>
<g fill="#686868" fill-opacity="1.00" stroke="None">
<path d="
M 535.00 601.00 
C 535.39 597.75 535.48 594.34 535.00 591.00
C 535.13 594.31 535.07 597.69 535.00 601.00 Z"/>
</g>
<g fill="#FCFCFC" fill-opacity="1.00" stroke="None">
<path d="
M 68.00 865.00 
C 64.75 864.82 61.25 864.78 58.00 865.00
C 24.55 871.78 28.16 917.29 41.08 940.92 C 53.99 964.56 83.71 986.54 111.00 976.00
C 108.53 974.88 105.20 973.09 105.00 970.00
C 113.21 961.40 111.94 946.09 108.32 935.68 C 104.70 925.27 98.61 918.36 90.08 910.92 C 81.55 903.47 68.52 900.77 58.08 904.08 C 47.63 907.38 44.40 923.95 34.00 915.00
C 39.72 904.20 50.63 894.84 63.00 894.00
C 66.19 893.43 68.89 893.49 72.00 894.00
C 107.69 898.49 133.07 944.44 113.00 976.00
C 123.64 973.37 132.14 965.66 138.75 956.75 C 145.35 947.83 150.55 938.64 155.75 928.75 C 160.94 918.85 166.41 909.26 170.69 898.70 C 174.98 888.13 180.10 878.06 184.02 867.02 C 187.95 855.98 191.85 844.72 195.07 833.07 C 198.30 821.43 202.31 809.12 203.67 796.67 C 205.03 784.22 202.97 767.30 200.33 755.67 C 197.68 744.05 194.23 732.59 188.30 722.70 C 182.38 712.81 176.64 705.65 165.67 701.33 C 154.70 697.00 140.47 701.79 132.75 710.75 C 125.03 719.72 120.09 727.69 115.98 738.98 C 111.86 750.26 108.86 761.73 106.00 774.00 C 103.14 786.26 102.64 800.14 99.99 812.99 C 97.35 825.84 98.44 839.89 95.00 853.00 C 91.56 866.11 104.35 869.80 112.75 878.25 C 121.15 886.70 126.70 894.00 131.23 904.77 C 135.76 915.55 138.84 928.81 139.00 941.00
C 136.00 941.00 133.00 941.00 130.00 941.00
C 130.57 907.38 104.30 866.97 68.00 865.00 Z"/>
</g>
<g fill="#FDFDFD" fill-opacity="1.00" stroke="None">
<path d="
M 435.00 739.00 
C 432.22 742.25 429.20 745.26 426.00 748.00
C 415.62 757.55 405.37 765.01 393.70 772.70 C 382.02 780.39 369.46 785.69 356.69 791.69 C 343.92 797.70 322.98 796.94 322.98 813.98 C 322.97 831.01 318.51 849.44 318.00 866.00 C 317.49 882.56 314.66 899.83 310.78 914.78 C 306.90 929.72 302.92 947.37 315.25 958.75 C 327.57 970.14 341.86 970.50 358.00 972.00 C 374.14 973.50 391.64 970.50 405.25 962.25 C 418.87 954.01 423.43 939.35 415.30 925.70 C 407.18 912.05 390.28 908.65 376.07 913.07 C 361.87 917.50 352.71 924.74 342.00 935.00
C 340.85 932.58 338.35 931.02 336.00 930.00
C 345.50 917.40 359.19 907.44 374.99 903.99 C 390.80 900.54 399.24 885.32 407.25 871.25 C 415.26 857.17 421.91 842.75 426.68 826.68 C 431.44 810.61 436.59 791.88 440.01 775.01 C 443.43 758.13 447.60 738.37 449.00 722.00
C 445.22 728.25 439.83 733.35 435.00 739.00 Z"/>
</g>
<g fill="#848484" fill-opacity="1.00" stroke="None">
<path d="
M 418.00 743.00 
C 422.58 739.09 427.04 734.63 431.00 730.00
C 426.79 734.20 422.25 738.75 418.00 743.00 Z"/>
</g>
<g fill="#7F7F7F" fill-opacity="1.00" stroke="None">
<path d="
M 426.00 748.00 
C 429.20 745.26 432.22 742.25 435.00 739.00
C 432.13 741.87 428.92 745.08 426.00 748.00 Z"/>
</g>
<g fill="#6A6A6A" fill-opacity="1.00" stroke="None">
<path d="
M 58.00 856.00 
C 61.59 855.80 65.41 855.81 69.00 856.00
C 65.33 855.40 61.74 855.39 58.00 856.00 Z"/>
</g>
<g fill="#8D8D8D" fill-opacity="1.00" stroke="None">
<path d="
M 58.00 865.00 
C 61.25 864.78 64.75 864.82 68.00 865.00
C 64.60 864.45 61.47 864.38 58.00 865.00 Z"/>
</g>
<g fill="#787878" fill-opacity="1.00" stroke="None">
<path d="
M 63.00 894.00 
C 65.92 893.80 69.08 893.84 72.00 894.00
C 68.89 893.49 66.19 893.43 63.00 894.00 Z"/>
</g>
<g fill="#616161" fill-opacity="1.00" stroke="None">
<path d="
M 104.00 987.00 
C 100.36 987.14 96.64 987.07 93.00 987.00
C 96.56 987.43 100.35 987.52 104.00 987.00 Z"/>
</g>
</svg>