<svg xmlns="http://www.w3.org/2000/svg" xmlns:v="https://svgstorm.com"
viewBox = "0 0 575 1022"
width="575"
height="1022">
<g fill="None" fill-opacity="0.0" stroke="#FEFEFE" stroke-opacity="1.00" stroke-width="0.3"><path d="
M 0.00 1022.00 
L 575.00 1022.00
L 575.00 0.00
L 0.00 0.00
L 0.00 1022.00
M 282.00 270.00 
C 287.45 269.22 293.63 269.35 299.00 270.00
C 317.98 270.38 334.62 279.81 351.00 288.00
C 350.12 283.74 348.69 279.59 349.00 275.00
C 348.44 271.05 348.53 266.86 349.00 263.00
C 349.99 213.64 401.64 176.24 447.07 188.93 C 492.51 201.61 524.00 242.52 524.00 288.00
C 524.37 291.77 524.36 296.29 524.00 300.00
C 524.00 356.51 463.34 404.31 409.00 380.00
C 419.03 434.70 389.86 494.87 339.00 518.00
C 356.30 531.68 377.06 545.37 397.00 556.00
C 394.32 544.12 401.83 538.04 408.23 530.23 C 414.63 522.42 407.23 506.20 408.00 497.00 C 408.77 487.80 413.79 478.57 423.23 475.23 C 432.67 471.89 444.08 474.43 449.30 483.70 C 454.53 492.96 452.65 504.10 450.00 514.00
C 461.10 518.36 474.72 520.17 484.70 527.30 C 494.68 534.44 499.74 549.00 498.02 560.02 C 496.31 571.05 487.84 582.58 478.30 588.30 C 468.76 594.02 459.11 604.68 446.99 604.99 C 434.87 605.31 420.17 600.23 409.31 609.31 C 398.44 618.38 383.17 613.52 374.00 606.00
C 370.65 603.35 367.72 600.18 365.00 597.00
C 357.73 588.49 351.23 579.51 343.00 572.00
C 345.48 582.61 349.16 592.11 350.99 603.01 C 352.83 613.90 357.71 624.68 357.93 636.07 C 358.14 647.47 361.10 662.97 358.00 674.00 C 354.90 685.04 355.16 694.69 360.92 704.08 C 366.69 713.46 372.57 721.52 363.75 728.75 C 354.93 735.98 348.96 739.62 339.00 744.00
C 342.86 757.02 347.46 769.90 351.00 783.00
C 363.03 782.35 381.02 790.37 376.00 805.00
C 396.31 801.55 413.09 814.16 432.00 808.00
C 437.14 807.38 442.91 807.27 448.00 808.00
C 461.59 808.52 476.20 814.66 486.75 823.25 C 497.31 831.83 506.37 846.07 505.00 860.00 C 503.63 873.93 504.47 890.75 495.08 902.08 C 485.69 913.41 475.85 918.81 462.92 924.92 C 450.00 931.04 433.03 935.00 418.00 935.00
C 414.86 935.30 411.07 935.30 408.00 935.00
C 385.72 935.00 359.79 927.37 340.31 918.69 C 320.82 910.01 299.90 904.68 289.00 886.00
C 251.86 910.09 208.31 924.03 164.00 929.00
C 157.70 929.61 150.23 929.60 144.00 929.00
C 128.77 929.00 105.04 923.21 94.75 911.25 C 84.47 899.29 75.85 879.61 75.00 864.00
C 74.30 859.69 74.31 855.25 75.00 851.00
C 76.02 832.24 88.89 819.31 106.08 812.08 C 123.26 804.84 147.91 809.00 166.00 809.00
C 174.90 808.14 185.38 807.56 195.00 808.00
C 194.42 800.62 192.39 784.35 206.03 784.03 C 219.66 783.70 210.33 772.19 210.02 760.98 C 209.72 749.76 205.33 741.76 194.77 738.23 C 184.21 734.70 181.19 729.88 172.75 723.25 C 164.32 716.61 175.74 703.63 175.00 695.00
C 164.71 695.01 157.76 684.59 158.00 675.00
C 157.40 671.29 157.51 667.62 158.00 664.00
C 158.00 662.68 157.90 661.32 158.00 660.00
C 157.36 657.63 152.15 657.31 150.00 657.00
C 135.99 656.47 116.90 644.45 123.00 628.00
C 94.03 603.58 123.91 575.33 149.23 565.23 C 174.55 555.13 202.06 541.74 226.00 529.00
C 216.55 527.48 206.56 523.56 197.77 520.23 C 188.99 516.90 181.41 512.32 173.77 507.23 C 166.13 502.14 159.38 496.32 154.23 488.77 C 149.08 481.22 142.90 470.37 146.93 460.93 C 150.96 451.48 148.63 442.65 152.25 433.25 C 155.88 423.86 150.36 409.83 152.00 399.00 C 153.64 388.17 155.06 378.51 158.77 368.77 C 162.49 359.03 165.46 351.24 170.00 342.00
C 130.60 343.73 95.13 307.48 94.00 269.00
C 93.18 263.26 93.45 256.64 94.00 251.00
C 94.00 201.00 143.57 152.32 195.00 156.00 C 246.43 159.68 285.01 225.12 262.00 273.00
C 268.67 272.10 275.05 269.94 282.00 270.00 Z"/>
</g>
<g fill="None" fill-opacity="0.0" stroke="#141414" stroke-opacity="1.00" stroke-width="0.3"><path d="
M 94.00 251.00 
C 94.00 256.99 93.77 263.02 94.00 269.00
C 95.13 307.48 130.60 343.73 170.00 342.00
C 165.46 351.24 162.49 359.03 158.77 368.77 C 155.06 378.51 153.64 388.17 152.00 399.00 C 150.36 409.83 155.88 423.86 152.25 433.25 C 148.63 442.65 150.96 451.48 146.93 460.93 C 142.90 470.37 149.08 481.22 154.23 488.77 C 159.38 496.32 166.13 502.14 173.77 507.23 C 181.41 512.32 188.99 516.90 197.77 520.23 C 206.56 523.56 216.55 527.48 226.00 529.00
C 202.06 541.74 174.55 555.13 149.23 565.23 C 123.91 575.33 94.03 603.58 123.00 628.00
C 116.90 644.45 135.99 656.47 150.00 657.00
C 153.00 657.11 156.00 656.91 159.00 657.00
C 158.89 658.00 159.47 659.73 158.00 660.00
C 157.90 661.32 158.00 662.68 158.00 664.00
C 158.00 667.65 157.80 671.36 158.00 675.00
C 157.76 684.59 164.71 695.01 175.00 695.00
C 175.74 703.63 164.32 716.61 172.75 723.25 C 181.19 729.88 184.21 734.70 194.77 738.23 C 205.33 741.76 209.72 749.76 210.02 760.98 C 210.33 772.19 219.66 783.70 206.03 784.03 C 192.39 784.35 194.42 800.62 195.00 808.00
C 186.24 809.82 175.51 809.00 166.00 809.00
C 147.91 809.00 123.26 804.84 106.08 812.08 C 88.89 819.31 76.02 832.24 75.00 851.00
C 74.77 855.24 74.77 859.76 75.00 864.00
C 75.85 879.61 84.47 899.29 94.75 911.25 C 105.04 923.21 128.77 929.00 144.00 929.00
C 150.67 929.00 157.33 929.00 164.00 929.00
C 208.31 924.03 251.86 910.09 289.00 886.00
C 299.90 904.68 320.82 910.01 340.31 918.69 C 359.79 927.37 385.72 935.00 408.00 935.00
C 411.33 935.00 414.67 935.00 418.00 935.00
C 433.03 935.00 450.00 931.04 462.92 924.92 C 475.85 918.81 485.69 913.41 495.08 902.08 C 504.47 890.75 503.63 873.93 505.00 860.00 C 506.37 846.07 497.31 831.83 486.75 823.25 C 476.20 814.66 461.59 808.52 448.00 808.00
C 442.70 807.80 437.30 807.89 432.00 808.00
C 413.09 814.16 396.31 801.55 376.00 805.00
C 381.02 790.37 363.03 782.35 351.00 783.00
C 347.46 769.90 342.86 757.02 339.00 744.00
C 348.96 739.62 354.93 735.98 363.75 728.75 C 372.57 721.52 366.69 713.46 360.92 704.08 C 355.16 694.69 354.90 685.04 358.00 674.00 C 361.10 662.97 358.14 647.47 357.93 636.07 C 357.71 624.68 352.83 613.90 350.99 603.01 C 349.16 592.11 345.48 582.61 343.00 572.00
C 351.23 579.51 357.73 588.49 365.00 597.00
C 367.86 599.86 371.09 603.31 374.00 606.00
C 383.17 613.52 398.44 618.38 409.31 609.31 C 420.17 600.23 434.87 605.31 446.99 604.99 C 459.11 604.68 468.76 594.02 478.30 588.30 C 487.84 582.58 496.31 571.05 498.02 560.02 C 499.74 549.00 494.68 534.44 484.70 527.30 C 474.72 520.17 461.10 518.36 450.00 514.00
C 452.65 504.10 454.53 492.96 449.30 483.70 C 444.08 474.43 432.67 471.89 423.23 475.23 C 413.79 478.57 408.77 487.80 408.00 497.00 C 407.23 506.20 414.63 522.42 408.23 530.23 C 401.83 538.04 394.32 544.12 397.00 556.00
C 377.06 545.37 356.30 531.68 339.00 518.00
C 389.86 494.87 419.03 434.70 409.00 380.00
C 463.34 404.31 524.00 356.51 524.00 300.00
C 524.00 296.00 524.00 292.00 524.00 288.00
C 524.00 242.52 492.51 201.61 447.07 188.93 C 401.64 176.24 349.99 213.64 349.00 263.00
C 348.92 266.98 348.85 271.02 349.00 275.00
C 348.69 279.59 350.12 283.74 351.00 288.00
C 334.62 279.81 317.98 270.38 299.00 270.00
C 293.37 269.89 287.63 269.79 282.00 270.00
C 275.05 269.94 268.67 272.10 262.00 273.00
C 285.01 225.12 246.43 159.68 195.00 156.00 C 143.57 152.32 94.00 201.00 94.00 251.00
M 173.00 334.00 
C 168.70 334.70 164.22 334.60 160.00 334.00
C 130.39 332.87 109.38 309.04 102.02 280.98 C 94.67 252.91 106.21 218.54 124.00 196.00
C 127.42 191.66 130.59 187.48 135.00 184.00
C 145.58 175.65 154.34 169.69 167.02 165.02 C 179.71 160.36 197.65 160.22 210.22 164.78 C 222.80 169.33 232.41 174.61 240.25 185.75 C 248.08 196.89 254.70 206.44 258.33 219.67 C 261.96 232.91 262.23 252.44 258.67 265.67 C 255.11 278.90 240.07 281.73 228.77 286.77 C 217.47 291.81 209.01 300.81 199.75 308.75 C 190.50 316.70 184.66 333.37 173.00 334.00
M 445.00 380.00 
C 442.18 380.27 438.76 380.27 436.00 380.00
C 424.09 380.00 413.44 375.57 403.00 371.00
C 408.04 396.02 406.01 422.52 397.00 446.00
C 392.71 431.78 387.41 417.59 371.77 411.23 C 356.13 404.87 337.57 410.14 323.00 417.00
C 341.43 375.23 351.28 308.12 307.00 279.00
C 304.62 277.96 301.64 277.27 299.00 277.00
C 295.38 277.93 290.74 276.75 287.00 277.00
C 266.18 278.42 252.00 298.89 239.00 312.00
C 240.50 303.15 234.24 294.42 228.00 291.00
C 244.15 283.55 260.91 277.24 279.00 276.00
C 285.81 274.89 294.25 274.70 301.00 276.00
C 303.37 276.46 306.05 277.54 308.00 278.00
C 320.63 275.71 333.25 286.72 345.08 289.92 C 356.91 293.13 354.44 314.41 367.00 318.00
C 341.65 276.90 358.31 204.79 408.68 194.68 C 459.05 184.57 502.66 222.20 516.78 268.22 C 530.89 314.25 497.09 379.02 445.00 380.00
M 226.00 392.00 
C 226.00 385.04 226.38 377.95 226.00 371.00
C 225.43 360.44 218.39 344.38 208.75 355.75 C 199.12 367.12 201.95 375.06 199.00 388.00 C 196.06 400.95 200.60 415.08 203.00 427.00
C 194.88 426.97 181.44 428.45 174.00 425.00 C 166.56 421.55 170.48 404.05 170.00 396.00 C 169.52 387.95 172.56 375.41 174.32 367.32 C 176.09 359.23 179.66 350.62 182.92 342.92 C 186.18 335.23 191.08 328.24 195.00 321.00
C 197.28 317.50 200.92 314.63 204.00 312.00
C 210.82 306.18 215.67 299.86 225.02 298.03 C 234.38 296.19 238.64 313.66 237.00 321.00
C 242.41 318.18 244.78 310.69 249.00 306.00
C 251.80 302.24 255.51 298.98 259.00 296.00
C 275.64 281.78 301.47 272.46 317.25 292.75 C 333.02 313.04 334.69 337.39 333.02 362.02 C 331.36 386.66 324.23 408.01 312.00 429.00
C 330.27 417.14 356.69 404.86 376.75 420.25 C 396.80 435.65 392.56 466.10 377.70 482.70 C 362.83 499.30 346.38 512.18 326.00 519.00
C 326.37 515.14 328.70 511.88 329.00 508.00
C 321.15 520.23 316.73 531.45 300.98 537.98 C 285.22 544.50 269.53 535.77 255.92 529.08 C 242.30 522.40 221.74 524.71 207.98 518.02 C 194.21 511.34 182.10 507.95 170.75 497.25 C 159.41 486.54 148.14 474.90 153.00 458.00
C 168.94 474.57 188.30 487.05 212.22 477.22 C 236.14 467.40 216.83 435.68 198.00 430.00
C 221.81 426.69 245.98 431.69 267.00 441.00
C 266.37 438.62 262.43 439.05 263.00 436.00
C 273.07 426.67 272.68 416.02 275.99 402.99 C 279.31 389.96 277.36 373.25 276.22 359.78 C 275.09 346.31 261.35 338.91 253.75 351.75 C 246.16 364.59 245.44 374.68 244.00 389.00 C 242.56 403.32 244.59 418.09 249.00 431.00
C 239.82 428.88 230.66 426.42 221.00 426.00
C 224.43 415.15 225.48 403.62 226.00 392.00
M 181.00 336.00 
C 167.51 362.99 163.48 394.09 167.00 425.00
C 164.26 424.97 161.92 426.63 159.00 426.00
C 155.19 394.23 161.84 360.90 181.00 336.00
M 274.00 365.00 
C 274.86 371.05 274.58 378.06 274.00 384.00
C 274.00 389.76 274.36 395.57 273.00 401.00
C 256.12 391.55 250.33 421.33 256.00 433.00
C 247.96 428.35 247.31 416.79 247.00 407.00 C 246.69 397.20 246.49 383.39 248.98 373.98 C 251.46 364.56 252.33 357.30 259.75 349.75 C 267.17 342.20 276.16 356.93 274.00 365.00
M 223.00 370.00 
C 224.04 377.25 223.87 385.84 223.00 393.00
C 222.95 395.33 223.03 397.67 223.00 400.00
C 208.68 393.86 207.00 416.46 210.00 426.00
C 199.09 421.52 202.68 407.00 202.00 395.00 C 201.32 383.00 203.90 374.18 208.31 362.31 C 212.71 350.43 225.77 356.39 223.00 370.00
M 184.00 430.00 
C 194.64 431.91 202.35 439.08 211.25 445.75 C 220.14 452.43 222.23 469.49 209.92 472.92 C 197.62 476.35 185.25 475.62 174.92 469.08 C 164.60 462.53 156.40 458.79 155.01 444.99 C 153.62 431.20 172.71 427.98 184.00 430.00
M 448.00 600.00 
C 443.94 600.84 440.00 600.89 436.00 600.00
C 410.48 594.35 387.85 555.71 410.00 536.00
C 411.58 539.23 414.32 543.22 418.00 544.00
C 413.75 538.19 413.55 531.17 414.00 524.00
C 414.00 520.00 414.00 516.00 414.00 512.00
C 414.00 509.33 414.00 506.67 414.00 504.00
C 413.71 500.99 413.46 498.04 414.00 495.00
C 414.96 480.86 432.29 471.75 442.75 483.25 C 453.22 494.75 445.79 511.12 443.00 524.00
C 447.12 520.66 456.32 514.97 459.00 523.00
C 429.40 529.71 429.08 574.34 456.00 585.00
C 445.85 589.39 435.63 586.61 427.75 579.25 C 419.87 571.89 418.48 561.38 416.00 552.00
C 412.60 565.73 418.27 576.49 429.70 585.30 C 441.13 594.12 458.53 585.83 471.00 588.00
C 462.58 590.53 457.52 600.15 448.00 600.00
M 393.00 560.00 
C 388.50 564.14 381.88 567.64 380.00 574.00
C 385.98 570.53 391.03 565.19 398.00 564.00
C 399.81 577.81 410.05 588.30 418.00 599.00
C 406.90 605.64 389.08 613.60 378.25 603.75 C 367.43 593.89 361.44 585.28 351.75 575.25 C 342.06 565.22 337.12 552.91 328.00 543.00
C 328.43 546.63 331.58 549.35 332.00 553.00
C 328.20 550.62 325.76 546.32 322.00 544.00
C 336.90 564.20 345.75 587.69 348.00 613.00
C 302.13 591.54 246.68 575.04 196.00 592.00
C 199.93 581.02 207.01 573.06 214.75 563.75 C 222.49 554.44 229.70 548.98 235.77 537.77 C 241.84 526.56 258.62 534.80 268.23 540.77 C 277.84 546.74 298.21 545.68 308.07 541.07 C 317.93 536.47 323.60 518.88 335.22 522.78 C 346.84 526.68 353.82 535.29 364.25 540.75 C 374.67 546.21 383.02 553.90 393.00 560.00
M 473.00 526.00 
C 490.51 530.34 501.17 557.63 489.08 572.08 C 477.00 586.53 449.48 583.29 441.70 564.31 C 433.91 545.32 450.81 520.50 473.00 526.00
M 233.00 533.00 
C 226.59 549.47 212.01 560.00 201.75 574.75 C 191.50 589.50 170.83 596.82 154.00 601.00
C 159.43 603.82 172.92 600.47 171.98 611.02 C 171.03 621.58 167.38 623.57 161.75 630.75 C 156.12 637.93 146.90 638.51 139.31 635.69 C 131.71 632.88 127.31 629.08 122.23 622.77 C 117.15 616.46 116.02 606.68 117.93 598.93 C 119.84 591.17 124.04 586.02 130.08 581.08 C 136.12 576.15 142.15 573.25 149.08 570.08 C 156.00 566.90 162.15 562.99 169.23 560.23 C 176.31 557.46 183.20 554.24 190.23 551.23 C 197.26 548.22 204.17 545.32 211.23 542.23 C 218.29 539.13 226.05 536.54 233.00 533.00
M 353.00 643.00 
C 353.58 648.98 353.57 656.09 353.00 662.00
C 353.00 675.95 348.86 688.53 347.00 702.00
C 349.40 700.91 349.67 698.00 351.00 696.00
C 354.50 703.12 361.20 710.80 362.92 719.08 C 364.65 727.35 352.41 730.53 345.31 735.31 C 338.20 740.08 329.45 742.80 319.78 745.78 C 310.11 748.76 298.08 747.22 286.33 747.67 C 274.58 748.12 271.65 735.60 274.00 724.00
C 277.27 723.16 280.89 723.44 284.00 722.00
C 263.39 719.23 242.14 714.23 224.00 703.00
C 222.98 702.69 222.25 701.64 221.00 702.00
C 221.81 704.04 224.27 704.97 225.00 707.00
C 236.61 715.29 249.22 721.86 263.00 725.00
C 262.08 732.26 266.10 738.19 267.00 745.00
C 252.41 748.56 236.34 747.27 221.99 744.01 C 207.64 740.75 200.15 734.91 186.77 728.23 C 173.39 721.55 173.89 707.54 181.00 695.00
C 184.08 696.85 184.20 701.65 188.00 703.00
C 182.16 687.59 173.67 666.08 176.00 649.00 C 178.33 631.92 177.44 610.09 191.25 598.25 C 205.06 586.41 230.24 589.76 248.00 589.00 C 265.76 588.24 286.62 594.81 303.22 599.78 C 319.83 604.74 335.59 610.86 351.00 619.00
C 350.76 627.22 353.80 634.62 353.00 643.00
M 189.00 593.00 
C 186.42 596.39 184.99 600.29 183.00 604.00
C 179.85 603.12 176.71 601.93 174.00 600.00
C 177.83 596.19 183.59 593.81 189.00 593.00
M 127.00 634.00 
C 147.28 651.64 177.76 632.24 176.00 607.00
C 182.10 609.19 176.23 620.40 174.00 627.00 C 171.78 633.61 173.43 647.39 166.92 650.92 C 160.42 654.46 148.18 653.80 141.77 650.23 C 135.37 646.66 126.38 642.67 127.00 634.00
M 170.00 655.00 
C 170.44 666.82 174.10 677.84 177.00 689.00
C 159.54 692.41 155.14 657.20 170.00 655.00
M 334.00 746.00 
C 339.71 764.01 346.53 781.62 351.00 800.00
C 340.59 804.02 328.09 807.62 317.00 803.00
C 314.58 785.93 308.98 769.67 305.00 753.00
C 314.89 751.51 324.61 749.29 334.00 746.00
M 244.00 751.00 
C 244.75 766.02 252.24 780.00 254.32 794.68 C 256.40 809.35 223.24 807.92 222.01 792.99 C 220.78 778.06 212.60 762.60 213.00 747.00
C 223.44 747.79 233.01 752.24 244.00 751.00
M 272.00 747.00 
C 278.88 753.91 290.50 752.41 300.00 753.00
C 304.09 762.91 302.98 771.58 307.33 781.67 C 311.68 791.76 295.58 790.16 291.25 799.25 C 286.91 808.33 297.11 819.28 287.00 826.00
C 277.31 819.71 281.42 808.84 279.22 799.78 C 277.02 790.72 265.52 786.74 258.00 785.00
C 253.19 775.19 253.55 768.74 250.02 757.98 C 246.50 747.21 265.86 752.89 272.00 747.00
M 252.00 831.00 
C 247.95 831.73 243.99 831.71 240.00 831.00
C 229.57 830.29 223.08 825.39 213.77 821.23 C 204.46 817.07 200.97 810.28 198.02 800.98 C 195.08 791.67 217.28 781.74 215.67 791.67 C 214.05 801.61 221.73 806.43 232.22 807.78 C 242.72 809.12 253.58 807.81 261.00 800.00
C 259.08 796.60 257.30 793.17 258.00 789.00
C 285.47 790.16 276.98 833.16 252.00 831.00
M 324.00 809.00 
C 327.25 809.22 330.75 809.18 334.00 809.00
C 343.01 808.51 350.38 804.01 357.00 798.00
C 356.25 794.10 351.62 791.65 353.00 787.00
C 376.93 785.28 377.58 812.12 360.92 821.92 C 344.26 831.72 327.51 836.57 309.31 828.69 C 291.10 820.82 288.59 796.11 310.00 792.00
C 312.96 795.82 306.76 800.79 310.77 804.23 C 314.78 807.67 318.94 808.42 324.00 809.00
M 435.00 812.00 
C 439.29 811.39 443.76 811.31 448.00 812.00
C 472.27 813.32 494.83 827.98 499.98 854.02 C 505.12 880.07 484.32 901.72 459.78 908.78 C 435.23 915.84 402.09 921.91 376.33 915.67 C 350.57 909.43 331.87 900.43 309.77 887.23 C 287.67 874.03 279.63 844.03 295.00 823.00
C 304.51 831.60 319.81 838.40 333.00 836.00 C 346.19 833.60 360.06 832.03 368.75 819.75 C 377.44 807.47 393.18 807.98 407.00 814.00
C 388.63 823.50 368.76 836.20 358.00 855.00
C 380.12 834.61 404.43 814.19 435.00 812.00
M 187.00 839.00 
C 190.28 841.59 194.29 844.93 197.00 848.00
C 195.38 844.77 193.47 841.89 191.00 839.00
C 187.53 835.53 183.62 831.16 180.00 828.00
C 173.69 823.31 166.98 818.65 161.00 814.00
C 173.09 811.68 187.15 813.66 200.00 813.00
C 216.72 837.12 257.12 843.54 278.00 821.00
C 289.28 835.00 277.67 853.45 286.00 869.00
C 260.64 888.22 232.43 898.95 201.93 906.93 C 171.42 914.91 127.90 919.14 100.25 900.75 C 72.61 882.35 71.05 837.91 99.70 820.70 C 128.34 803.48 164.20 816.28 187.00 839.00
M 160.00 925.00 
C 154.02 925.58 146.91 925.57 141.00 925.00
C 122.06 925.00 101.20 917.94 92.00 900.00
C 120.05 922.19 164.80 918.90 198.00 912.00 C 231.21 905.10 259.39 891.88 287.00 873.00
C 286.78 889.65 268.71 894.12 254.98 899.98 C 241.24 905.83 225.84 910.98 210.93 915.93 C 196.01 920.88 176.45 924.51 160.00 925.00
M 404.00 922.00 
C 409.67 922.00 415.33 922.00 421.00 922.00
C 448.64 922.00 475.01 908.05 496.00 891.00
C 481.33 919.05 445.71 928.32 416.00 930.00
C 411.86 930.40 407.10 930.50 403.00 930.00
C 381.12 929.56 356.64 920.76 337.31 912.69 C 317.98 904.63 293.51 898.50 291.00 875.00
C 320.55 904.37 362.59 919.44 404.00 922.00 Z"/>
</g>
<g fill="None" fill-opacity="0.0" stroke="#FCFCFC" stroke-opacity="1.00" stroke-width="0.3"><path d="
M 135.00 184.00 
C 131.02 187.68 127.72 192.28 124.00 196.00
C 106.21 218.54 94.67 252.91 102.02 280.98 C 109.38 309.04 130.39 332.87 160.00 334.00
C 164.27 334.16 168.73 334.23 173.00 334.00
C 184.66 333.37 190.50 316.70 199.75 308.75 C 209.01 300.81 217.47 291.81 228.77 286.77 C 240.07 281.73 255.11 278.90 258.67 265.67 C 262.23 252.44 261.96 232.91 258.33 219.67 C 254.70 206.44 248.08 196.89 240.25 185.75 C 232.41 174.61 222.80 169.33 210.22 164.78 C 197.65 160.22 179.71 160.36 167.02 165.02 C 154.34 169.69 145.58 175.65 135.00 184.00 Z"/>
</g>
<g fill="None" fill-opacity="0.0" stroke="#8D8D8D" stroke-opacity="1.00" stroke-width="0.3"><path d="
M 124.00 196.00 
C 127.72 192.28 131.02 187.68 135.00 184.00
C 130.59 187.48 127.42 191.66 124.00 196.00 Z"/>
</g>
<g fill="None" fill-opacity="0.0" stroke="#FCFCFC" stroke-opacity="1.00" stroke-width="0.3"><path d="
M 308.00 278.00 
C 307.65 278.06 307.20 278.98 307.00 279.00
C 351.28 308.12 341.43 375.23 323.00 417.00
C 337.57 410.14 356.13 404.87 371.77 411.23 C 387.41 417.59 392.71 431.78 397.00 446.00
C 406.01 422.52 408.04 396.02 403.00 371.00
C 413.44 375.57 424.09 380.00 436.00 380.00
C 439.00 380.00 442.00 380.00 445.00 380.00
C 497.09 379.02 530.89 314.25 516.78 268.22 C 502.66 222.20 459.05 184.57 408.68 194.68 C 358.31 204.79 341.65 276.90 367.00 318.00
C 354.44 314.41 356.91 293.13 345.08 289.92 C 333.25 286.72 320.63 275.71 308.00 278.00 Z"/>
</g>
<g fill="None" fill-opacity="0.0" stroke="#6F6F6F" stroke-opacity="1.00" stroke-width="0.3"><path d="
M 94.00 269.00 
C 93.77 263.02 94.00 256.99 94.00 251.00
C 93.45 256.64 93.18 263.26 94.00 269.00 Z"/>
</g>
<g fill="None" fill-opacity="0.0" stroke="#959595" stroke-opacity="1.00" stroke-width="0.3"><path d="
M 349.00 275.00 
C 348.85 271.02 348.92 266.98 349.00 263.00
C 348.53 266.86 348.44 271.05 349.00 275.00 Z"/>
</g>
<g fill="None" fill-opacity="0.0" stroke="#757575" stroke-opacity="1.00" stroke-width="0.3"><path d="
M 282.00 270.00 
C 287.63 269.79 293.37 269.89 299.00 270.00
C 293.63 269.35 287.45 269.22 282.00 270.00 Z"/>
</g>
<g fill="None" fill-opacity="0.0" stroke="#818284" stroke-opacity="1.00" stroke-width="0.3"><path d="
M 279.00 276.00 
C 281.85 275.85 284.92 276.80 287.00 277.00
C 290.74 276.75 295.38 277.93 299.00 277.00
C 299.59 276.85 299.89 276.04 301.00 276.00
C 294.25 274.70 285.81 274.89 279.00 276.00 Z"/>
</g>
<g fill="None" fill-opacity="0.0" stroke="#ECEDED" stroke-opacity="1.00" stroke-width="0.3"><path d="
M 287.00 277.00 
C 284.92 276.80 281.85 275.85 279.00 276.00
C 260.91 277.24 244.15 283.55 228.00 291.00
C 234.24 294.42 240.50 303.15 239.00 312.00
C 252.00 298.89 266.18 278.42 287.00 277.00 Z"/>
</g>
<g fill="None" fill-opacity="0.0" stroke="#B2B3B3" stroke-opacity="1.00" stroke-width="0.3"><path d="
M 299.00 277.00 
C 301.64 277.27 304.62 277.96 307.00 279.00
C 307.20 278.98 307.65 278.06 308.00 278.00
C 306.05 277.54 303.37 276.46 301.00 276.00
C 299.89 276.04 299.59 276.85 299.00 277.00 Z"/>
</g>
<g fill="None" fill-opacity="0.0" stroke="#F9F9F9" stroke-opacity="1.00" stroke-width="0.3"><path d="
M 259.00 296.00 
C 255.86 299.14 251.85 302.73 249.00 306.00
C 244.78 310.69 242.41 318.18 237.00 321.00
C 238.64 313.66 234.38 296.19 225.02 298.03 C 215.67 299.86 210.82 306.18 204.00 312.00
C 201.32 314.68 197.21 318.11 195.00 321.00
C 191.08 328.24 186.18 335.23 182.92 342.92 C 179.66 350.62 176.09 359.23 174.32 367.32 C 172.56 375.41 169.52 387.95 170.00 396.00 C 170.48 404.05 166.56 421.55 174.00 425.00 C 181.44 428.45 194.88 426.97 203.00 427.00
C 200.60 415.08 196.06 400.95 199.00 388.00 C 201.95 375.06 199.12 367.12 208.75 355.75 C 218.39 344.38 225.43 360.44 226.00 371.00
C 227.08 377.66 226.63 385.46 226.00 392.00
C 225.48 403.62 224.43 415.15 221.00 426.00
C 230.66 426.42 239.82 428.88 249.00 431.00
C 244.59 418.09 242.56 403.32 244.00 389.00 C 245.44 374.68 246.16 364.59 253.75 351.75 C 261.35 338.91 275.09 346.31 276.22 359.78 C 277.36 373.25 279.31 389.96 275.99 402.99 C 272.68 416.02 273.07 426.67 263.00 436.00
C 262.43 439.05 266.37 438.62 267.00 441.00
C 245.98 431.69 221.81 426.69 198.00 430.00
C 216.83 435.68 236.14 467.40 212.22 477.22 C 188.30 487.05 168.94 474.57 153.00 458.00
C 148.14 474.90 159.41 486.54 170.75 497.25 C 182.10 507.95 194.21 511.34 207.98 518.02 C 221.74 524.71 242.30 522.40 255.92 529.08 C 269.53 535.77 285.22 544.50 300.98 537.98 C 316.73 531.45 321.15 520.23 329.00 508.00
C 328.70 511.88 326.37 515.14 326.00 519.00
C 346.38 512.18 362.83 499.30 377.70 482.70 C 392.56 466.10 396.80 435.65 376.75 420.25 C 356.69 404.86 330.27 417.14 312.00 429.00
C 324.23 408.01 331.36 386.66 333.02 362.02 C 334.69 337.39 333.02 313.04 317.25 292.75 C 301.47 272.46 275.64 281.78 259.00 296.00
M 353.00 454.00 
C 348.67 450.60 343.90 447.19 338.00 448.00
C 330.75 460.29 327.28 474.26 324.02 488.02 C 320.77 501.79 317.16 513.97 306.25 524.25 C 295.34 534.53 277.42 532.83 264.31 527.69 C 251.19 522.56 240.87 509.44 226.00 511.00
C 267.50 507.26 316.54 489.00 334.00 447.00
C 329.02 445.22 323.99 450.60 320.00 448.00
C 329.08 439.65 349.45 440.55 353.00 454.00 Z"/>
</g>
<g fill="None" fill-opacity="0.0" stroke="#888888" stroke-opacity="1.00" stroke-width="0.3"><path d="
M 524.00 300.00 
C 524.36 296.29 524.37 291.77 524.00 288.00
C 524.00 292.00 524.00 296.00 524.00 300.00 Z"/>
</g>
<g fill="None" fill-opacity="0.0" stroke="#87878B" stroke-opacity="1.00" stroke-width="0.3"><path d="
M 249.00 306.00 
C 251.85 302.73 255.86 299.14 259.00 296.00
C 255.51 298.98 251.80 302.24 249.00 306.00 Z"/>
</g>
<g fill="None" fill-opacity="0.0" stroke="#7F7F7F" stroke-opacity="1.00" stroke-width="0.3"><path d="
M 195.00 321.00 
C 197.21 318.11 201.32 314.68 204.00 312.00
C 200.92 314.63 197.28 317.50 195.00 321.00 Z"/>
</g>
<g fill="None" fill-opacity="0.0" stroke="#7B7B7B" stroke-opacity="1.00" stroke-width="0.3"><path d="
M 173.00 334.00 
C 168.73 334.23 164.27 334.16 160.00 334.00
C 164.22 334.60 168.70 334.70 173.00 334.00 Z"/>
</g>
<g fill="None" fill-opacity="0.0" stroke="#E7E7E7" stroke-opacity="1.00" stroke-width="0.3"><path d="
M 181.00 336.00 
C 161.84 360.90 155.19 394.23 159.00 426.00
C 161.92 426.63 164.26 424.97 167.00 425.00
C 163.48 394.09 167.51 362.99 181.00 336.00 Z"/>
</g>
<g fill="None" fill-opacity="0.0" stroke="#F5F5F5" stroke-opacity="1.00" stroke-width="0.3"><path d="
M 274.00 384.00 
C 274.00 377.68 274.24 371.31 274.00 365.00
C 276.16 356.93 267.17 342.20 259.75 349.75 C 252.33 357.30 251.46 364.56 248.98 373.98 C 246.49 383.39 246.69 397.20 247.00 407.00 C 247.31 416.79 247.96 428.35 256.00 433.00
C 250.33 421.33 256.12 391.55 273.00 401.00
C 274.36 395.57 274.00 389.76 274.00 384.00 Z"/>
</g>
<g fill="None" fill-opacity="0.0" stroke="#F2F2F2" stroke-opacity="1.00" stroke-width="0.3"><path d="
M 223.00 393.00 
C 223.15 385.38 223.29 377.62 223.00 370.00
C 225.77 356.39 212.71 350.43 208.31 362.31 C 203.90 374.18 201.32 383.00 202.00 395.00 C 202.68 407.00 199.09 421.52 210.00 426.00
C 207.00 416.46 208.68 393.86 223.00 400.00
C 223.03 397.67 222.95 395.33 223.00 393.00 Z"/>
</g>
<g fill="None" fill-opacity="0.0" stroke="#929292" stroke-opacity="1.00" stroke-width="0.3"><path d="
M 274.00 384.00 
C 274.58 378.06 274.86 371.05 274.00 365.00
C 274.24 371.31 274.00 377.68 274.00 384.00 Z"/>
</g>
<g fill="None" fill-opacity="0.0" stroke="#7F7F7F" stroke-opacity="1.00" stroke-width="0.3"><path d="
M 223.00 393.00 
C 223.87 385.84 224.04 377.25 223.00 370.00
C 223.29 377.62 223.15 385.38 223.00 393.00 Z"/>
</g>
<g fill="None" fill-opacity="0.0" stroke="#707070" stroke-opacity="1.00" stroke-width="0.3"><path d="
M 226.00 392.00 
C 226.63 385.46 227.08 377.66 226.00 371.00
C 226.38 377.95 226.00 385.04 226.00 392.00 Z"/>
</g>
<g fill="None" fill-opacity="0.0" stroke="#686868" stroke-opacity="1.00" stroke-width="0.3"><path d="
M 445.00 380.00 
C 442.00 380.00 439.00 380.00 436.00 380.00
C 438.76 380.27 442.18 380.27 445.00 380.00 Z"/>
</g>
<g fill="None" fill-opacity="0.0" stroke="#F8F8F8" stroke-opacity="1.00" stroke-width="0.3"><path d="
M 184.00 430.00 
C 172.71 427.98 153.62 431.20 155.01 444.99 C 156.40 458.79 164.60 462.53 174.92 469.08 C 185.25 475.62 197.62 476.35 209.92 472.92 C 222.23 469.49 220.14 452.43 211.25 445.75 C 202.35 439.08 194.64 431.91 184.00 430.00 Z"/>
</g>
<g fill="None" fill-opacity="0.0" stroke="#09090B" stroke-opacity="1.00" stroke-width="0.3"><path d="
M 353.00 454.00 
C 349.45 440.55 329.08 439.65 320.00 448.00
C 323.99 450.60 329.02 445.22 334.00 447.00
C 316.54 489.00 267.50 507.26 226.00 511.00
C 240.87 509.44 251.19 522.56 264.31 527.69 C 277.42 532.83 295.34 534.53 306.25 524.25 C 317.16 513.97 320.77 501.79 324.02 488.02 C 327.28 474.26 330.75 460.29 338.00 448.00
C 343.90 447.19 348.67 450.60 353.00 454.00
M 289.00 512.00 
C 293.61 501.05 295.08 498.27 308.07 494.07 C 321.07 489.88 316.32 504.90 311.22 513.22 C 306.13 521.55 297.09 525.62 288.78 527.78 C 280.47 529.93 261.11 525.29 265.26 516.26 C 269.40 507.22 283.76 503.97 289.00 512.00 Z"/>
</g>
<g fill="None" fill-opacity="0.0" stroke="#F4F4F5" stroke-opacity="1.00" stroke-width="0.3"><path d="
M 414.00 495.00 
C 413.80 497.97 414.00 501.02 414.00 504.00
C 414.00 506.67 414.00 509.33 414.00 512.00
C 414.37 515.77 414.36 520.29 414.00 524.00
C 413.55 531.17 413.75 538.19 418.00 544.00
C 414.32 543.22 411.58 539.23 410.00 536.00
C 387.85 555.71 410.48 594.35 436.00 600.00
C 439.75 600.39 444.24 600.34 448.00 600.00
C 457.52 600.15 462.58 590.53 471.00 588.00
C 458.53 585.83 441.13 594.12 429.70 585.30 C 418.27 576.49 412.60 565.73 416.00 552.00
C 418.48 561.38 419.87 571.89 427.75 579.25 C 435.63 586.61 445.85 589.39 456.00 585.00
C 429.08 574.34 429.40 529.71 459.00 523.00
C 456.32 514.97 447.12 520.66 443.00 524.00
C 445.79 511.12 453.22 494.75 442.75 483.25 C 432.29 471.75 414.96 480.86 414.00 495.00 Z"/>
</g>
<g fill="None" fill-opacity="0.0" stroke="#F2F2F4" stroke-opacity="1.00" stroke-width="0.3"><path d="
M 289.00 512.00 
C 283.76 503.97 269.40 507.22 265.26 516.26 C 261.11 525.29 280.47 529.93 288.78 527.78 C 297.09 525.62 306.13 521.55 311.22 513.22 C 316.32 504.90 321.07 489.88 308.07 494.07 C 295.08 498.27 293.61 501.05 289.00 512.00 Z"/>
</g>
<g fill="None" fill-opacity="0.0" stroke="#707070" stroke-opacity="1.00" stroke-width="0.3"><path d="
M 414.00 504.00 
C 414.00 501.02 413.80 497.97 414.00 495.00
C 413.46 498.04 413.71 500.99 414.00 504.00 Z"/>
</g>
<g fill="None" fill-opacity="0.0" stroke="#747474" stroke-opacity="1.00" stroke-width="0.3"><path d="
M 414.00 524.00 
C 414.36 520.29 414.37 515.77 414.00 512.00
C 414.00 516.00 414.00 520.00 414.00 524.00 Z"/>
</g>
<g fill="None" fill-opacity="0.0" stroke="#F9F9F9" stroke-opacity="1.00" stroke-width="0.3"><path d="
M 393.00 560.00 
C 383.02 553.90 374.67 546.21 364.25 540.75 C 353.82 535.29 346.84 526.68 335.22 522.78 C 323.60 518.88 317.93 536.47 308.07 541.07 C 298.21 545.68 277.84 546.74 268.23 540.77 C 258.62 534.80 241.84 526.56 235.77 537.77 C 229.70 548.98 222.49 554.44 214.75 563.75 C 207.01 573.06 199.93 581.02 196.00 592.00
C 246.68 575.04 302.13 591.54 348.00 613.00
C 345.75 587.69 336.90 564.20 322.00 544.00
C 325.76 546.32 328.20 550.62 332.00 553.00
C 331.58 549.35 328.43 546.63 328.00 543.00
C 337.12 552.91 342.06 565.22 351.75 575.25 C 361.44 585.28 367.43 593.89 378.25 603.75 C 389.08 613.60 406.90 605.64 418.00 599.00
C 410.05 588.30 399.81 577.81 398.00 564.00
C 391.03 565.19 385.98 570.53 380.00 574.00
C 381.88 567.64 388.50 564.14 393.00 560.00 Z"/>
</g>
<g fill="None" fill-opacity="0.0" stroke="#F9F9F9" stroke-opacity="1.00" stroke-width="0.3"><path d="
M 473.00 526.00 
C 450.81 520.50 433.91 545.32 441.70 564.31 C 449.48 583.29 477.00 586.53 489.08 572.08 C 501.17 557.63 490.51 530.34 473.00 526.00 Z"/>
</g>
<g fill="None" fill-opacity="0.0" stroke="#F8F8F8" stroke-opacity="1.00" stroke-width="0.3"><path d="
M 233.00 533.00 
C 226.05 536.54 218.29 539.13 211.23 542.23 C 204.17 545.32 197.26 548.22 190.23 551.23 C 183.20 554.24 176.31 557.46 169.23 560.23 C 162.15 562.99 156.00 566.90 149.08 570.08 C 142.15 573.25 136.12 576.15 130.08 581.08 C 124.04 586.02 119.84 591.17 117.93 598.93 C 116.02 606.68 117.15 616.46 122.23 622.77 C 127.31 629.08 131.71 632.88 139.31 635.69 C 146.90 638.51 156.12 637.93 161.75 630.75 C 167.38 623.57 171.03 621.58 171.98 611.02 C 172.92 600.47 159.43 603.82 154.00 601.00
C 170.83 596.82 191.50 589.50 201.75 574.75 C 212.01 560.00 226.59 549.47 233.00 533.00 Z"/>
</g>
<g fill="None" fill-opacity="0.0" stroke="#FAFAFA" stroke-opacity="1.00" stroke-width="0.3"><path d="
M 225.00 707.00 
C 222.96 705.54 220.14 703.68 220.00 701.00
C 221.57 700.70 223.61 701.25 224.00 703.00
C 242.14 714.23 263.39 719.23 284.00 722.00
C 280.89 723.44 277.27 723.16 274.00 724.00
C 271.65 735.60 274.58 748.12 286.33 747.67 C 298.08 747.22 310.11 748.76 319.78 745.78 C 329.45 742.80 338.20 740.08 345.31 735.31 C 352.41 730.53 364.65 727.35 362.92 719.08 C 361.20 710.80 354.50 703.12 351.00 696.00
C 349.67 698.00 349.40 700.91 347.00 702.00
C 348.86 688.53 353.00 675.95 353.00 662.00
C 353.00 655.67 353.00 649.33 353.00 643.00
C 353.80 634.62 350.76 627.22 351.00 619.00
C 335.59 610.86 319.83 604.74 303.22 599.78 C 286.62 594.81 265.76 588.24 248.00 589.00 C 230.24 589.76 205.06 586.41 191.25 598.25 C 177.44 610.09 178.33 631.92 176.00 649.00 C 173.67 666.08 182.16 687.59 188.00 703.00
C 184.20 701.65 184.08 696.85 181.00 695.00
C 173.89 707.54 173.39 721.55 186.77 728.23 C 200.15 734.91 207.64 740.75 221.99 744.01 C 236.34 747.27 252.41 748.56 267.00 745.00
C 266.10 738.19 262.08 732.26 263.00 725.00
C 249.22 721.86 236.61 715.29 225.00 707.00
M 241.00 624.00 
C 242.01 628.35 241.60 632.77 241.00 637.00
C 240.57 648.35 235.96 660.25 223.92 664.92 C 211.89 669.60 202.76 655.10 202.00 644.00
C 201.27 639.95 201.29 635.99 202.00 632.00
C 202.75 621.03 206.91 611.87 218.08 606.08 C 229.24 600.28 238.68 614.01 241.00 624.00
M 323.00 630.00 
C 323.73 634.05 323.83 637.99 323.00 642.00
C 320.72 653.01 317.84 666.41 303.98 668.98 C 290.11 671.54 282.64 655.77 282.00 644.00
C 281.44 640.54 281.39 637.42 282.00 634.00
C 282.72 623.39 287.81 610.95 300.08 607.08 C 312.34 603.20 322.25 619.04 323.00 630.00 Z"/>
</g>
<g fill="None" fill-opacity="0.0" stroke="#DADBDB" stroke-opacity="1.00" stroke-width="0.3"><path d="
M 189.00 593.00 
C 183.59 593.81 177.83 596.19 174.00 600.00
C 176.71 601.93 179.85 603.12 183.00 604.00
C 184.99 600.29 186.42 596.39 189.00 593.00 Z"/>
</g>
<g fill="None" fill-opacity="0.0" stroke="#858585" stroke-opacity="1.00" stroke-width="0.3"><path d="
M 374.00 606.00 
C 371.09 603.31 367.86 599.86 365.00 597.00
C 367.72 600.18 370.65 603.35 374.00 606.00 Z"/>
</g>
<g fill="None" fill-opacity="0.0" stroke="#7F7F81" stroke-opacity="1.00" stroke-width="0.3"><path d="
M 448.00 600.00 
C 444.24 600.34 439.75 600.39 436.00 600.00
C 440.00 600.89 443.94 600.84 448.00 600.00 Z"/>
</g>
<g fill="None" fill-opacity="0.0" stroke="#161616" stroke-opacity="1.00" stroke-width="0.3"><path d="
M 202.00 632.00 
C 201.74 635.88 201.74 640.12 202.00 644.00
C 202.76 655.10 211.89 669.60 223.92 664.92 C 235.96 660.25 240.57 648.35 241.00 637.00
C 241.16 632.82 241.46 628.15 241.00 624.00
C 238.68 614.01 229.24 600.28 218.08 606.08 C 206.91 611.87 202.75 621.03 202.00 632.00
M 225.00 609.00 
C 235.74 610.96 238.81 630.20 237.00 639.00 C 235.19 647.80 229.16 663.49 217.00 661.00 C 204.84 658.51 204.72 640.95 205.99 631.99 C 207.26 623.04 212.97 606.80 225.00 609.00 Z"/>
</g>
<g fill="None" fill-opacity="0.0" stroke="#E9E9EA" stroke-opacity="1.00" stroke-width="0.3"><path d="
M 127.00 634.00 
C 126.38 642.67 135.37 646.66 141.77 650.23 C 148.18 653.80 160.42 654.46 166.92 650.92 C 173.43 647.39 171.78 633.61 174.00 627.00 C 176.23 620.40 182.10 609.19 176.00 607.00
C 177.76 632.24 147.28 651.64 127.00 634.00 Z"/>
</g>
<g fill="None" fill-opacity="0.0" stroke="#161617" stroke-opacity="1.00" stroke-width="0.3"><path d="
M 282.00 634.00 
C 281.78 637.25 281.82 640.75 282.00 644.00
C 282.64 655.77 290.11 671.54 303.98 668.98 C 317.84 666.41 320.72 653.01 323.00 642.00
C 323.35 638.17 323.26 633.83 323.00 630.00
C 322.25 619.04 312.34 603.20 300.08 607.08 C 287.81 610.95 282.72 623.39 282.00 634.00
M 305.00 611.00 
C 316.39 612.61 320.63 631.83 319.00 641.00 C 317.37 650.17 311.46 666.92 299.00 665.00 C 286.54 663.08 284.75 645.35 285.98 635.98 C 287.20 626.60 291.54 609.10 305.00 611.00 Z"/>
</g>
<g fill="None" fill-opacity="0.0" stroke="#F6F6F6" stroke-opacity="1.00" stroke-width="0.3"><path d="
M 225.00 609.00 
C 212.97 606.80 207.26 623.04 205.99 631.99 C 204.72 640.95 204.84 658.51 217.00 661.00 C 229.16 663.49 235.19 647.80 237.00 639.00 C 238.81 630.20 235.74 610.96 225.00 609.00 Z"/>
</g>
<g fill="None" fill-opacity="0.0" stroke="#F6F6F6" stroke-opacity="1.00" stroke-width="0.3"><path d="
M 305.00 611.00 
C 291.54 609.10 287.20 626.60 285.98 635.98 C 284.75 645.35 286.54 663.08 299.00 665.00 C 311.46 666.92 317.37 650.17 319.00 641.00 C 320.63 631.83 316.39 612.61 305.00 611.00 Z"/>
</g>
<g fill="None" fill-opacity="0.0" stroke="#737373" stroke-opacity="1.00" stroke-width="0.3"><path d="
M 241.00 637.00 
C 241.60 632.77 242.01 628.35 241.00 624.00
C 241.46 628.15 241.16 632.82 241.00 637.00 Z"/>
</g>
<g fill="None" fill-opacity="0.0" stroke="#7D7D7D" stroke-opacity="1.00" stroke-width="0.3"><path d="
M 323.00 642.00 
C 323.83 637.99 323.73 634.05 323.00 630.00
C 323.26 633.83 323.35 638.17 323.00 642.00 Z"/>
</g>
<g fill="None" fill-opacity="0.0" stroke="#717171" stroke-opacity="1.00" stroke-width="0.3"><path d="
M 202.00 644.00 
C 201.74 640.12 201.74 635.88 202.00 632.00
C 201.29 635.99 201.27 639.95 202.00 644.00 Z"/>
</g>
<g fill="None" fill-opacity="0.0" stroke="#969696" stroke-opacity="1.00" stroke-width="0.3"><path d="
M 282.00 644.00 
C 281.82 640.75 281.78 637.25 282.00 634.00
C 281.39 637.42 281.44 640.54 282.00 644.00 Z"/>
</g>
<g fill="None" fill-opacity="0.0" stroke="#7F7F7F" stroke-opacity="1.00" stroke-width="0.3"><path d="
M 353.00 662.00 
C 353.57 656.09 353.58 648.98 353.00 643.00
C 353.00 649.33 353.00 655.67 353.00 662.00 Z"/>
</g>
<g fill="None" fill-opacity="0.0" stroke="#EBECEB" stroke-opacity="1.00" stroke-width="0.3"><path d="
M 170.00 655.00 
C 155.14 657.20 159.54 692.41 177.00 689.00
C 174.10 677.84 170.44 666.82 170.00 655.00 Z"/>
</g>
<g fill="None" fill-opacity="0.0" stroke="#68676C" stroke-opacity="1.00" stroke-width="0.3"><path d="
M 158.00 660.00 
C 159.47 659.73 158.89 658.00 159.00 657.00
C 156.00 656.91 153.00 657.11 150.00 657.00
C 152.15 657.31 157.36 657.63 158.00 660.00 Z"/>
</g>
<g fill="None" fill-opacity="0.0" stroke="#858586" stroke-opacity="1.00" stroke-width="0.3"><path d="
M 158.00 675.00 
C 157.80 671.36 158.00 667.65 158.00 664.00
C 157.51 667.62 157.40 671.29 158.00 675.00 Z"/>
</g>
<g fill="None" fill-opacity="0.0" stroke="#B7B7B7" stroke-opacity="1.00" stroke-width="0.3"><path d="
M 225.00 707.00 
C 224.27 704.97 221.81 704.04 221.00 702.00
C 222.25 701.64 222.98 702.69 224.00 703.00
C 223.61 701.25 221.57 700.70 220.00 701.00
C 220.14 703.68 222.96 705.54 225.00 707.00 Z"/>
</g>
<g fill="None" fill-opacity="0.0" stroke="#F6F6F6" stroke-opacity="1.00" stroke-width="0.3"><path d="
M 334.00 746.00 
C 324.61 749.29 314.89 751.51 305.00 753.00
C 308.98 769.67 314.58 785.93 317.00 803.00
C 328.09 807.62 340.59 804.02 351.00 800.00
C 346.53 781.62 339.71 764.01 334.00 746.00 Z"/>
</g>
<g fill="None" fill-opacity="0.0" stroke="#F6F7F7" stroke-opacity="1.00" stroke-width="0.3"><path d="
M 244.00 751.00 
C 233.01 752.24 223.44 747.79 213.00 747.00
C 212.60 762.60 220.78 778.06 222.01 792.99 C 223.24 807.92 256.40 809.35 254.32 794.68 C 252.24 780.00 244.75 766.02 244.00 751.00 Z"/>
</g>
<g fill="None" fill-opacity="0.0" stroke="#F7F7F7" stroke-opacity="1.00" stroke-width="0.3"><path d="
M 272.00 747.00 
C 265.86 752.89 246.50 747.21 250.02 757.98 C 253.55 768.74 253.19 775.19 258.00 785.00
C 265.52 786.74 277.02 790.72 279.22 799.78 C 281.42 808.84 277.31 819.71 287.00 826.00
C 297.11 819.28 286.91 808.33 291.25 799.25 C 295.58 790.16 311.68 791.76 307.33 781.67 C 302.98 771.58 304.09 762.91 300.00 753.00
C 290.50 752.41 278.88 753.91 272.00 747.00 Z"/>
</g>
<g fill="None" fill-opacity="0.0" stroke="#F5F5F5" stroke-opacity="1.00" stroke-width="0.3"><path d="
M 240.00 831.00 
C 243.87 831.26 248.13 831.26 252.00 831.00
C 276.98 833.16 285.47 790.16 258.00 789.00
C 257.30 793.17 259.08 796.60 261.00 800.00
C 253.58 807.81 242.72 809.12 232.22 807.78 C 221.73 806.43 214.05 801.61 215.67 791.67 C 217.28 781.74 195.08 791.67 198.02 800.98 C 200.97 810.28 204.46 817.07 213.77 821.23 C 223.08 825.39 229.57 830.29 240.00 831.00 Z"/>
</g>
<g fill="None" fill-opacity="0.0" stroke="#F5F5F6" stroke-opacity="1.00" stroke-width="0.3"><path d="
M 334.00 809.00 
C 330.54 809.56 327.42 809.61 324.00 809.00
C 318.94 808.42 314.78 807.67 310.77 804.23 C 306.76 800.79 312.96 795.82 310.00 792.00
C 288.59 796.11 291.10 820.82 309.31 828.69 C 327.51 836.57 344.26 831.72 360.92 821.92 C 377.58 812.12 376.93 785.28 353.00 787.00
C 351.62 791.65 356.25 794.10 357.00 798.00
C 350.38 804.01 343.01 808.51 334.00 809.00 Z"/>
</g>
<g fill="None" fill-opacity="0.0" stroke="#7E7E7E" stroke-opacity="1.00" stroke-width="0.3"><path d="
M 432.00 808.00 
C 437.30 807.89 442.70 807.80 448.00 808.00
C 442.91 807.27 437.14 807.38 432.00 808.00 Z"/>
</g>
<g fill="None" fill-opacity="0.0" stroke="#858585" stroke-opacity="1.00" stroke-width="0.3"><path d="
M 166.00 809.00 
C 175.51 809.00 186.24 809.82 195.00 808.00
C 185.38 807.56 174.90 808.14 166.00 809.00 Z"/>
</g>
<g fill="None" fill-opacity="0.0" stroke="#878789" stroke-opacity="1.00" stroke-width="0.3"><path d="
M 334.00 809.00 
C 330.75 809.18 327.25 809.22 324.00 809.00
C 327.42 809.61 330.54 809.56 334.00 809.00 Z"/>
</g>
<g fill="None" fill-opacity="0.0" stroke="#FBFBFB" stroke-opacity="1.00" stroke-width="0.3"><path d="
M 448.00 812.00 
C 443.73 811.77 439.27 811.84 435.00 812.00
C 404.43 814.19 380.12 834.61 358.00 855.00
C 368.76 836.20 388.63 823.50 407.00 814.00
C 393.18 807.98 377.44 807.47 368.75 819.75 C 360.06 832.03 346.19 833.60 333.00 836.00 C 319.81 838.40 304.51 831.60 295.00 823.00
C 279.63 844.03 287.67 874.03 309.77 887.23 C 331.87 900.43 350.57 909.43 376.33 915.67 C 402.09 921.91 435.23 915.84 459.78 908.78 C 484.32 901.72 505.12 880.07 499.98 854.02 C 494.83 827.98 472.27 813.32 448.00 812.00 Z"/>
</g>
<g fill="None" fill-opacity="0.0" stroke="#6B6B6B" stroke-opacity="1.00" stroke-width="0.3"><path d="
M 435.00 812.00 
C 439.27 811.84 443.73 811.77 448.00 812.00
C 443.76 811.31 439.29 811.39 435.00 812.00 Z"/>
</g>
<g fill="None" fill-opacity="0.0" stroke="#FBFBFB" stroke-opacity="1.00" stroke-width="0.3"><path d="
M 180.00 828.00 
C 184.11 831.06 187.73 835.18 191.00 839.00
C 193.47 841.89 195.38 844.77 197.00 848.00
C 197.44 848.87 199.90 849.24 199.00 851.00
C 194.68 847.48 190.44 843.30 187.00 839.00
C 164.20 816.28 128.34 803.48 99.70 820.70 C 71.05 837.91 72.61 882.35 100.25 900.75 C 127.90 919.14 171.42 914.91 201.93 906.93 C 232.43 898.95 260.64 888.22 286.00 869.00
C 277.67 853.45 289.28 835.00 278.00 821.00
C 257.12 843.54 216.72 837.12 200.00 813.00
C 187.15 813.66 173.09 811.68 161.00 814.00
C 166.98 818.65 173.69 823.31 180.00 828.00 Z"/>
</g>
<g fill="None" fill-opacity="0.0" stroke="#848484" stroke-opacity="1.00" stroke-width="0.3"><path d="
M 191.00 839.00 
C 187.73 835.18 184.11 831.06 180.00 828.00
C 183.62 831.16 187.53 835.53 191.00 839.00 Z"/>
</g>
<g fill="None" fill-opacity="0.0" stroke="#808080" stroke-opacity="1.00" stroke-width="0.3"><path d="
M 252.00 831.00 
C 248.13 831.26 243.87 831.26 240.00 831.00
C 243.99 831.71 247.95 831.73 252.00 831.00 Z"/>
</g>
<g fill="None" fill-opacity="0.0" stroke="#737373" stroke-opacity="1.00" stroke-width="0.3"><path d="
M 197.00 848.00 
C 194.29 844.93 190.28 841.59 187.00 839.00
C 190.44 843.30 194.68 847.48 199.00 851.00
C 199.90 849.24 197.44 848.87 197.00 848.00 Z"/>
</g>
<g fill="None" fill-opacity="0.0" stroke="#777777" stroke-opacity="1.00" stroke-width="0.3"><path d="
M 75.00 864.00 
C 74.77 859.76 74.77 855.24 75.00 851.00
C 74.31 855.25 74.30 859.69 75.00 864.00 Z"/>
</g>
<g fill="None" fill-opacity="0.0" stroke="#EAEAEA" stroke-opacity="1.00" stroke-width="0.3"><path d="
M 141.00 925.00 
C 147.33 925.00 153.67 925.00 160.00 925.00
C 176.45 924.51 196.01 920.88 210.93 915.93 C 225.84 910.98 241.24 905.83 254.98 899.98 C 268.71 894.12 286.78 889.65 287.00 873.00
C 259.39 891.88 231.21 905.10 198.00 912.00 C 164.80 918.90 120.05 922.19 92.00 900.00
C 101.20 917.94 122.06 925.00 141.00 925.00 Z"/>
</g>
<g fill="None" fill-opacity="0.0" stroke="#EAEAEB" stroke-opacity="1.00" stroke-width="0.3"><path d="
M 403.00 930.00 
C 407.33 930.09 411.67 930.00 416.00 930.00
C 445.71 928.32 481.33 919.05 496.00 891.00
C 475.01 908.05 448.64 922.00 421.00 922.00
C 415.65 922.52 409.28 922.51 404.00 922.00
C 362.59 919.44 320.55 904.37 291.00 875.00
C 293.51 898.50 317.98 904.63 337.31 912.69 C 356.64 920.76 381.12 929.56 403.00 930.00 Z"/>
</g>
<g fill="None" fill-opacity="0.0" stroke="#727272" stroke-opacity="1.00" stroke-width="0.3"><path d="
M 421.00 922.00 
C 415.33 922.00 409.67 922.00 404.00 922.00
C 409.28 922.51 415.65 922.52 421.00 922.00 Z"/>
</g>
<g fill="None" fill-opacity="0.0" stroke="#747474" stroke-opacity="1.00" stroke-width="0.3"><path d="
M 160.00 925.00 
C 153.67 925.00 147.33 925.00 141.00 925.00
C 146.91 925.57 154.02 925.58 160.00 925.00 Z"/>
</g>
<g fill="None" fill-opacity="0.0" stroke="#838383" stroke-opacity="1.00" stroke-width="0.3"><path d="
M 164.00 929.00 
C 157.33 929.00 150.67 929.00 144.00 929.00
C 150.23 929.60 157.70 929.61 164.00 929.00 Z"/>
</g>
<g fill="None" fill-opacity="0.0" stroke="#818181" stroke-opacity="1.00" stroke-width="0.3"><path d="
M 416.00 930.00 
C 411.67 930.00 407.33 930.09 403.00 930.00
C 407.10 930.50 411.86 930.40 416.00 930.00 Z"/>
</g>
<g fill="None" fill-opacity="0.0" stroke="#919191" stroke-opacity="1.00" stroke-width="0.3"><path d="
M 418.00 935.00 
C 414.67 935.00 411.33 935.00 408.00 935.00
C 411.07 935.30 414.86 935.30 418.00 935.00 Z"/>
</g>
<g fill="#FEFEFE" fill-opacity="1.00" stroke="None">
<path d="
M 0.00 1022.00 
L 575.00 1022.00
L 575.00 0.00
L 0.00 0.00
L 0.00 1022.00
M 282.00 270.00 
C 287.45 269.22 293.63 269.35 299.00 270.00
C 317.98 270.38 334.62 279.81 351.00 288.00
C 350.12 283.74 348.69 279.59 349.00 275.00
C 348.44 271.05 348.53 266.86 349.00 263.00
C 349.99 213.64 401.64 176.24 447.07 188.93 C 492.51 201.61 524.00 242.52 524.00 288.00
C 524.37 291.77 524.36 296.29 524.00 300.00
C 524.00 356.51 463.34 404.31 409.00 380.00
C 419.03 434.70 389.86 494.87 339.00 518.00
C 356.30 531.68 377.06 545.37 397.00 556.00
C 394.32 544.12 401.83 538.04 408.23 530.23 C 414.63 522.42 407.23 506.20 408.00 497.00 C 408.77 487.80 413.79 478.57 423.23 475.23 C 432.67 471.89 444.08 474.43 449.30 483.70 C 454.53 492.96 452.65 504.10 450.00 514.00
C 461.10 518.36 474.72 520.17 484.70 527.30 C 494.68 534.44 499.74 549.00 498.02 560.02 C 496.31 571.05 487.84 582.58 478.30 588.30 C 468.76 594.02 459.11 604.68 446.99 604.99 C 434.87 605.31 420.17 600.23 409.31 609.31 C 398.44 618.38 383.17 613.52 374.00 606.00
C 370.65 603.35 367.72 600.18 365.00 597.00
C 357.73 588.49 351.23 579.51 343.00 572.00
C 345.48 582.61 349.16 592.11 350.99 603.01 C 352.83 613.90 357.71 624.68 357.93 636.07 C 358.14 647.47 361.10 662.97 358.00 674.00 C 354.90 685.04 355.16 694.69 360.92 704.08 C 366.69 713.46 372.57 721.52 363.75 728.75 C 354.93 735.98 348.96 739.62 339.00 744.00
C 342.86 757.02 347.46 769.90 351.00 783.00
C 363.03 782.35 381.02 790.37 376.00 805.00
C 396.31 801.55 413.09 814.16 432.00 808.00
C 437.14 807.38 442.91 807.27 448.00 808.00
C 461.59 808.52 476.20 814.66 486.75 823.25 C 497.31 831.83 506.37 846.07 505.00 860.00 C 503.63 873.93 504.47 890.75 495.08 902.08 C 485.69 913.41 475.85 918.81 462.92 924.92 C 450.00 931.04 433.03 935.00 418.00 935.00
C 414.86 935.30 411.07 935.30 408.00 935.00
C 385.72 935.00 359.79 927.37 340.31 918.69 C 320.82 910.01 299.90 904.68 289.00 886.00
C 251.86 910.09 208.31 924.03 164.00 929.00
C 157.70 929.61 150.23 929.60 144.00 929.00
C 128.77 929.00 105.04 923.21 94.75 911.25 C 84.47 899.29 75.85 879.61 75.00 864.00
C 74.30 859.69 74.31 855.25 75.00 851.00
C 76.02 832.24 88.89 819.31 106.08 812.08 C 123.26 804.84 147.91 809.00 166.00 809.00
C 174.90 808.14 185.38 807.56 195.00 808.00
C 194.42 800.62 192.39 784.35 206.03 784.03 C 219.66 783.70 210.33 772.19 210.02 760.98 C 209.72 749.76 205.33 741.76 194.77 738.23 C 184.21 734.70 181.19 729.88 172.75 723.25 C 164.32 716.61 175.74 703.63 175.00 695.00
C 164.71 695.01 157.76 684.59 158.00 675.00
C 157.40 671.29 157.51 667.62 158.00 664.00
C 158.00 662.68 157.90 661.32 158.00 660.00
C 157.36 657.63 152.15 657.31 150.00 657.00
C 135.99 656.47 116.90 644.45 123.00 628.00
C 94.03 603.58 123.91 575.33 149.23 565.23 C 174.55 555.13 202.06 541.74 226.00 529.00
C 216.55 527.48 206.56 523.56 197.77 520.23 C 188.99 516.90 181.41 512.32 173.77 507.23 C 166.13 502.14 159.38 496.32 154.23 488.77 C 149.08 481.22 142.90 470.37 146.93 460.93 C 150.96 451.48 148.63 442.65 152.25 433.25 C 155.88 423.86 150.36 409.83 152.00 399.00 C 153.64 388.17 155.06 378.51 158.77 368.77 C 162.49 359.03 165.46 351.24 170.00 342.00
C 130.60 343.73 95.13 307.48 94.00 269.00
C 93.18 263.26 93.45 256.64 94.00 251.00
C 94.00 201.00 143.57 152.32 195.00 156.00 C 246.43 159.68 285.01 225.12 262.00 273.00
C 268.67 272.10 275.05 269.94 282.00 270.00 Z"/>
</g>
<g fill="#141414" fill-opacity="1.00" stroke="None">
<path d="
M 94.00 251.00 
C 94.00 256.99 93.77 263.02 94.00 269.00
C 95.13 307.48 130.60 343.73 170.00 342.00
C 165.46 351.24 162.49 359.03 158.77 368.77 C 155.06 378.51 153.64 388.17 152.00 399.00 C 150.36 409.83 155.88 423.86 152.25 433.25 C 148.63 442.65 150.96 451.48 146.93 460.93 C 142.90 470.37 149.08 481.22 154.23 488.77 C 159.38 496.32 166.13 502.14 173.77 507.23 C 181.41 512.32 188.99 516.90 197.77 520.23 C 206.56 523.56 216.55 527.48 226.00 529.00
C 202.06 541.74 174.55 555.13 149.23 565.23 C 123.91 575.33 94.03 603.58 123.00 628.00
C 116.90 644.45 135.99 656.47 150.00 657.00
C 153.00 657.11 156.00 656.91 159.00 657.00
C 158.89 658.00 159.47 659.73 158.00 660.00
C 157.90 661.32 158.00 662.68 158.00 664.00
C 158.00 667.65 157.80 671.36 158.00 675.00
C 157.76 684.59 164.71 695.01 175.00 695.00
C 175.74 703.63 164.32 716.61 172.75 723.25 C 181.19 729.88 184.21 734.70 194.77 738.23 C 205.33 741.76 209.72 749.76 210.02 760.98 C 210.33 772.19 219.66 783.70 206.03 784.03 C 192.39 784.35 194.42 800.62 195.00 808.00
C 186.24 809.82 175.51 809.00 166.00 809.00
C 147.91 809.00 123.26 804.84 106.08 812.08 C 88.89 819.31 76.02 832.24 75.00 851.00
C 74.77 855.24 74.77 859.76 75.00 864.00
C 75.85 879.61 84.47 899.29 94.75 911.25 C 105.04 923.21 128.77 929.00 144.00 929.00
C 150.67 929.00 157.33 929.00 164.00 929.00
C 208.31 924.03 251.86 910.09 289.00 886.00
C 299.90 904.68 320.82 910.01 340.31 918.69 C 359.79 927.37 385.72 935.00 408.00 935.00
C 411.33 935.00 414.67 935.00 418.00 935.00
C 433.03 935.00 450.00 931.04 462.92 924.92 C 475.85 918.81 485.69 913.41 495.08 902.08 C 504.47 890.75 503.63 873.93 505.00 860.00 C 506.37 846.07 497.31 831.83 486.75 823.25 C 476.20 814.66 461.59 808.52 448.00 808.00
C 442.70 807.80 437.30 807.89 432.00 808.00
C 413.09 814.16 396.31 801.55 376.00 805.00
C 381.02 790.37 363.03 782.35 351.00 783.00
C 347.46 769.90 342.86 757.02 339.00 744.00
C 348.96 739.62 354.93 735.98 363.75 728.75 C 372.57 721.52 366.69 713.46 360.92 704.08 C 355.16 694.69 354.90 685.04 358.00 674.00 C 361.10 662.97 358.14 647.47 357.93 636.07 C 357.71 624.68 352.83 613.90 350.99 603.01 C 349.16 592.11 345.48 582.61 343.00 572.00
C 351.23 579.51 357.73 588.49 365.00 597.00
C 367.86 599.86 371.09 603.31 374.00 606.00
C 383.17 613.52 398.44 618.38 409.31 609.31 C 420.17 600.23 434.87 605.31 446.99 604.99 C 459.11 604.68 468.76 594.02 478.30 588.30 C 487.84 582.58 496.31 571.05 498.02 560.02 C 499.74 549.00 494.68 534.44 484.70 527.30 C 474.72 520.17 461.10 518.36 450.00 514.00
C 452.65 504.10 454.53 492.96 449.30 483.70 C 444.08 474.43 432.67 471.89 423.23 475.23 C 413.79 478.57 408.77 487.80 408.00 497.00 C 407.23 506.20 414.63 522.42 408.23 530.23 C 401.83 538.04 394.32 544.12 397.00 556.00
C 377.06 545.37 356.30 531.68 339.00 518.00
C 389.86 494.87 419.03 434.70 409.00 380.00
C 463.34 404.31 524.00 356.51 524.00 300.00
C 524.00 296.00 524.00 292.00 524.00 288.00
C 524.00 242.52 492.51 201.61 447.07 188.93 C 401.64 176.24 349.99 213.64 349.00 263.00
C 348.92 266.98 348.85 271.02 349.00 275.00
C 348.69 279.59 350.12 283.74 351.00 288.00
C 334.62 279.81 317.98 270.38 299.00 270.00
C 293.37 269.89 287.63 269.79 282.00 270.00
C 275.05 269.94 268.67 272.10 262.00 273.00
C 285.01 225.12 246.43 159.68 195.00 156.00 C 143.57 152.32 94.00 201.00 94.00 251.00
M 173.00 334.00 
C 168.70 334.70 164.22 334.60 160.00 334.00
C 130.39 332.87 109.38 309.04 102.02 280.98 C 94.67 252.91 106.21 218.54 124.00 196.00
C 127.42 191.66 130.59 187.48 135.00 184.00
C 145.58 175.65 154.34 169.69 167.02 165.02 C 179.71 160.36 197.65 160.22 210.22 164.78 C 222.80 169.33 232.41 174.61 240.25 185.75 C 248.08 196.89 254.70 206.44 258.33 219.67 C 261.96 232.91 262.23 252.44 258.67 265.67 C 255.11 278.90 240.07 281.73 228.77 286.77 C 217.47 291.81 209.01 300.81 199.75 308.75 C 190.50 316.70 184.66 333.37 173.00 334.00
M 445.00 380.00 
C 442.18 380.27 438.76 380.27 436.00 380.00
C 424.09 380.00 413.44 375.57 403.00 371.00
C 408.04 396.02 406.01 422.52 397.00 446.00
C 392.71 431.78 387.41 417.59 371.77 411.23 C 356.13 404.87 337.57 410.14 323.00 417.00
C 341.43 375.23 351.28 308.12 307.00 279.00
C 304.62 277.96 301.64 277.27 299.00 277.00
C 295.38 277.93 290.74 276.75 287.00 277.00
C 266.18 278.42 252.00 298.89 239.00 312.00
C 240.50 303.15 234.24 294.42 228.00 291.00
C 244.15 283.55 260.91 277.24 279.00 276.00
C 285.81 274.89 294.25 274.70 301.00 276.00
C 303.37 276.46 306.05 277.54 308.00 278.00
C 320.63 275.71 333.25 286.72 345.08 289.92 C 356.91 293.13 354.44 314.41 367.00 318.00
C 341.65 276.90 358.31 204.79 408.68 194.68 C 459.05 184.57 502.66 222.20 516.78 268.22 C 530.89 314.25 497.09 379.02 445.00 380.00
M 226.00 392.00 
C 226.00 385.04 226.38 377.95 226.00 371.00
C 225.43 360.44 218.39 344.38 208.75 355.75 C 199.12 367.12 201.95 375.06 199.00 388.00 C 196.06 400.95 200.60 415.08 203.00 427.00
C 194.88 426.97 181.44 428.45 174.00 425.00 C 166.56 421.55 170.48 404.05 170.00 396.00 C 169.52 387.95 172.56 375.41 174.32 367.32 C 176.09 359.23 179.66 350.62 182.92 342.92 C 186.18 335.23 191.08 328.24 195.00 321.00
C 197.28 317.50 200.92 314.63 204.00 312.00
C 210.82 306.18 215.67 299.86 225.02 298.03 C 234.38 296.19 238.64 313.66 237.00 321.00
C 242.41 318.18 244.78 310.69 249.00 306.00
C 251.80 302.24 255.51 298.98 259.00 296.00
C 275.64 281.78 301.47 272.46 317.25 292.75 C 333.02 313.04 334.69 337.39 333.02 362.02 C 331.36 386.66 324.23 408.01 312.00 429.00
C 330.27 417.14 356.69 404.86 376.75 420.25 C 396.80 435.65 392.56 466.10 377.70 482.70 C 362.83 499.30 346.38 512.18 326.00 519.00
C 326.37 515.14 328.70 511.88 329.00 508.00
C 321.15 520.23 316.73 531.45 300.98 537.98 C 285.22 544.50 269.53 535.77 255.92 529.08 C 242.30 522.40 221.74 524.71 207.98 518.02 C 194.21 511.34 182.10 507.95 170.75 497.25 C 159.41 486.54 148.14 474.90 153.00 458.00
C 168.94 474.57 188.30 487.05 212.22 477.22 C 236.14 467.40 216.83 435.68 198.00 430.00
C 221.81 426.69 245.98 431.69 267.00 441.00
C 266.37 438.62 262.43 439.05 263.00 436.00
C 273.07 426.67 272.68 416.02 275.99 402.99 C 279.31 389.96 277.36 373.25 276.22 359.78 C 275.09 346.31 261.35 338.91 253.75 351.75 C 246.16 364.59 245.44 374.68 244.00 389.00 C 242.56 403.32 244.59 418.09 249.00 431.00
C 239.82 428.88 230.66 426.42 221.00 426.00
C 224.43 415.15 225.48 403.62 226.00 392.00
M 181.00 336.00 
C 167.51 362.99 163.48 394.09 167.00 425.00
C 164.26 424.97 161.92 426.63 159.00 426.00
C 155.19 394.23 161.84 360.90 181.00 336.00
M 274.00 365.00 
C 274.86 371.05 274.58 378.06 274.00 384.00
C 274.00 389.76 274.36 395.57 273.00 401.00
C 256.12 391.55 250.33 421.33 256.00 433.00
C 247.96 428.35 247.31 416.79 247.00 407.00 C 246.69 397.20 246.49 383.39 248.98 373.98 C 251.46 364.56 252.33 357.30 259.75 349.75 C 267.17 342.20 276.16 356.93 274.00 365.00
M 223.00 370.00 
C 224.04 377.25 223.87 385.84 223.00 393.00
C 222.95 395.33 223.03 397.67 223.00 400.00
C 208.68 393.86 207.00 416.46 210.00 426.00
C 199.09 421.52 202.68 407.00 202.00 395.00 C 201.32 383.00 203.90 374.18 208.31 362.31 C 212.71 350.43 225.77 356.39 223.00 370.00
M 184.00 430.00 
C 194.64 431.91 202.35 439.08 211.25 445.75 C 220.14 452.43 222.23 469.49 209.92 472.92 C 197.62 476.35 185.25 475.62 174.92 469.08 C 164.60 462.53 156.40 458.79 155.01 444.99 C 153.62 431.20 172.71 427.98 184.00 430.00
M 448.00 600.00 
C 443.94 600.84 440.00 600.89 436.00 600.00
C 410.48 594.35 387.85 555.71 410.00 536.00
C 411.58 539.23 414.32 543.22 418.00 544.00
C 413.75 538.19 413.55 531.17 414.00 524.00
C 414.00 520.00 414.00 516.00 414.00 512.00
C 414.00 509.33 414.00 506.67 414.00 504.00
C 413.71 500.99 413.46 498.04 414.00 495.00
C 414.96 480.86 432.29 471.75 442.75 483.25 C 453.22 494.75 445.79 511.12 443.00 524.00
C 447.12 520.66 456.32 514.97 459.00 523.00
C 429.40 529.71 429.08 574.34 456.00 585.00
C 445.85 589.39 435.63 586.61 427.75 579.25 C 419.87 571.89 418.48 561.38 416.00 552.00
C 412.60 565.73 418.27 576.49 429.70 585.30 C 441.13 594.12 458.53 585.83 471.00 588.00
C 462.58 590.53 457.52 600.15 448.00 600.00
M 393.00 560.00 
C 388.50 564.14 381.88 567.64 380.00 574.00
C 385.98 570.53 391.03 565.19 398.00 564.00
C 399.81 577.81 410.05 588.30 418.00 599.00
C 406.90 605.64 389.08 613.60 378.25 603.75 C 367.43 593.89 361.44 585.28 351.75 575.25 C 342.06 565.22 337.12 552.91 328.00 543.00
C 328.43 546.63 331.58 549.35 332.00 553.00
C 328.20 550.62 325.76 546.32 322.00 544.00
C 336.90 564.20 345.75 587.69 348.00 613.00
C 302.13 591.54 246.68 575.04 196.00 592.00
C 199.93 581.02 207.01 573.06 214.75 563.75 C 222.49 554.44 229.70 548.98 235.77 537.77 C 241.84 526.56 258.62 534.80 268.23 540.77 C 277.84 546.74 298.21 545.68 308.07 541.07 C 317.93 536.47 323.60 518.88 335.22 522.78 C 346.84 526.68 353.82 535.29 364.25 540.75 C 374.67 546.21 383.02 553.90 393.00 560.00
M 473.00 526.00 
C 490.51 530.34 501.17 557.63 489.08 572.08 C 477.00 586.53 449.48 583.29 441.70 564.31 C 433.91 545.32 450.81 520.50 473.00 526.00
M 233.00 533.00 
C 226.59 549.47 212.01 560.00 201.75 574.75 C 191.50 589.50 170.83 596.82 154.00 601.00
C 159.43 603.82 172.92 600.47 171.98 611.02 C 171.03 621.58 167.38 623.57 161.75 630.75 C 156.12 637.93 146.90 638.51 139.31 635.69 C 131.71 632.88 127.31 629.08 122.23 622.77 C 117.15 616.46 116.02 606.68 117.93 598.93 C 119.84 591.17 124.04 586.02 130.08 581.08 C 136.12 576.15 142.15 573.25 149.08 570.08 C 156.00 566.90 162.15 562.99 169.23 560.23 C 176.31 557.46 183.20 554.24 190.23 551.23 C 197.26 548.22 204.17 545.32 211.23 542.23 C 218.29 539.13 226.05 536.54 233.00 533.00
M 353.00 643.00 
C 353.58 648.98 353.57 656.09 353.00 662.00
C 353.00 675.95 348.86 688.53 347.00 702.00
C 349.40 700.91 349.67 698.00 351.00 696.00
C 354.50 703.12 361.20 710.80 362.92 719.08 C 364.65 727.35 352.41 730.53 345.31 735.31 C 338.20 740.08 329.45 742.80 319.78 745.78 C 310.11 748.76 298.08 747.22 286.33 747.67 C 274.58 748.12 271.65 735.60 274.00 724.00
C 277.27 723.16 280.89 723.44 284.00 722.00
C 263.39 719.23 242.14 714.23 224.00 703.00
C 222.98 702.69 222.25 701.64 221.00 702.00
C 221.81 704.04 224.27 704.97 225.00 707.00
C 236.61 715.29 249.22 721.86 263.00 725.00
C 262.08 732.26 266.10 738.19 267.00 745.00
C 252.41 748.56 236.34 747.27 221.99 744.01 C 207.64 740.75 200.15 734.91 186.77 728.23 C 173.39 721.55 173.89 707.54 181.00 695.00
C 184.08 696.85 184.20 701.65 188.00 703.00
C 182.16 687.59 173.67 666.08 176.00 649.00 C 178.33 631.92 177.44 610.09 191.25 598.25 C 205.06 586.41 230.24 589.76 248.00 589.00 C 265.76 588.24 286.62 594.81 303.22 599.78 C 319.83 604.74 335.59 610.86 351.00 619.00
C 350.76 627.22 353.80 634.62 353.00 643.00
M 189.00 593.00 
C 186.42 596.39 184.99 600.29 183.00 604.00
C 179.85 603.12 176.71 601.93 174.00 600.00
C 177.83 596.19 183.59 593.81 189.00 593.00
M 127.00 634.00 
C 147.28 651.64 177.76 632.24 176.00 607.00
C 182.10 609.19 176.23 620.40 174.00 627.00 C 171.78 633.61 173.43 647.39 166.92 650.92 C 160.42 654.46 148.18 653.80 141.77 650.23 C 135.37 646.66 126.38 642.67 127.00 634.00
M 170.00 655.00 
C 170.44 666.82 174.10 677.84 177.00 689.00
C 159.54 692.41 155.14 657.20 170.00 655.00
M 334.00 746.00 
C 339.71 764.01 346.53 781.62 351.00 800.00
C 340.59 804.02 328.09 807.62 317.00 803.00
C 314.58 785.93 308.98 769.67 305.00 753.00
C 314.89 751.51 324.61 749.29 334.00 746.00
M 244.00 751.00 
C 244.75 766.02 252.24 780.00 254.32 794.68 C 256.40 809.35 223.24 807.92 222.01 792.99 C 220.78 778.06 212.60 762.60 213.00 747.00
C 223.44 747.79 233.01 752.24 244.00 751.00
M 272.00 747.00 
C 278.88 753.91 290.50 752.41 300.00 753.00
C 304.09 762.91 302.98 771.58 307.33 781.67 C 311.68 791.76 295.58 790.16 291.25 799.25 C 286.91 808.33 297.11 819.28 287.00 826.00
C 277.31 819.71 281.42 808.84 279.22 799.78 C 277.02 790.72 265.52 786.74 258.00 785.00
C 253.19 775.19 253.55 768.74 250.02 757.98 C 246.50 747.21 265.86 752.89 272.00 747.00
M 252.00 831.00 
C 247.95 831.73 243.99 831.71 240.00 831.00
C 229.57 830.29 223.08 825.39 213.77 821.23 C 204.46 817.07 200.97 810.28 198.02 800.98 C 195.08 791.67 217.28 781.74 215.67 791.67 C 214.05 801.61 221.73 806.43 232.22 807.78 C 242.72 809.12 253.58 807.81 261.00 800.00
C 259.08 796.60 257.30 793.17 258.00 789.00
C 285.47 790.16 276.98 833.16 252.00 831.00
M 324.00 809.00 
C 327.25 809.22 330.75 809.18 334.00 809.00
C 343.01 808.51 350.38 804.01 357.00 798.00
C 356.25 794.10 351.62 791.65 353.00 787.00
C 376.93 785.28 377.58 812.12 360.92 821.92 C 344.26 831.72 327.51 836.57 309.31 828.69 C 291.10 820.82 288.59 796.11 310.00 792.00
C 312.96 795.82 306.76 800.79 310.77 804.23 C 314.78 807.67 318.94 808.42 324.00 809.00
M 435.00 812.00 
C 439.29 811.39 443.76 811.31 448.00 812.00
C 472.27 813.32 494.83 827.98 499.98 854.02 C 505.12 880.07 484.32 901.72 459.78 908.78 C 435.23 915.84 402.09 921.91 376.33 915.67 C 350.57 909.43 331.87 900.43 309.77 887.23 C 287.67 874.03 279.63 844.03 295.00 823.00
C 304.51 831.60 319.81 838.40 333.00 836.00 C 346.19 833.60 360.06 832.03 368.75 819.75 C 377.44 807.47 393.18 807.98 407.00 814.00
C 388.63 823.50 368.76 836.20 358.00 855.00
C 380.12 834.61 404.43 814.19 435.00 812.00
M 187.00 839.00 
C 190.28 841.59 194.29 844.93 197.00 848.00
C 195.38 844.77 193.47 841.89 191.00 839.00
C 187.53 835.53 183.62 831.16 180.00 828.00
C 173.69 823.31 166.98 818.65 161.00 814.00
C 173.09 811.68 187.15 813.66 200.00 813.00
C 216.72 837.12 257.12 843.54 278.00 821.00
C 289.28 835.00 277.67 853.45 286.00 869.00
C 260.64 888.22 232.43 898.95 201.93 906.93 C 171.42 914.91 127.90 919.14 100.25 900.75 C 72.61 882.35 71.05 837.91 99.70 820.70 C 128.34 803.48 164.20 816.28 187.00 839.00
M 160.00 925.00 
C 154.02 925.58 146.91 925.57 141.00 925.00
C 122.06 925.00 101.20 917.94 92.00 900.00
C 120.05 922.19 164.80 918.90 198.00 912.00 C 231.21 905.10 259.39 891.88 287.00 873.00
C 286.78 889.65 268.71 894.12 254.98 899.98 C 241.24 905.83 225.84 910.98 210.93 915.93 C 196.01 920.88 176.45 924.51 160.00 925.00
M 404.00 922.00 
C 409.67 922.00 415.33 922.00 421.00 922.00
C 448.64 922.00 475.01 908.05 496.00 891.00
C 481.33 919.05 445.71 928.32 416.00 930.00
C 411.86 930.40 407.10 930.50 403.00 930.00
C 381.12 929.56 356.64 920.76 337.31 912.69 C 317.98 904.63 293.51 898.50 291.00 875.00
C 320.55 904.37 362.59 919.44 404.00 922.00 Z"/>
</g>
<g fill="#FCFCFC" fill-opacity="1.00" stroke="None">
<path d="
M 135.00 184.00 
C 131.02 187.68 127.72 192.28 124.00 196.00
C 106.21 218.54 94.67 252.91 102.02 280.98 C 109.38 309.04 130.39 332.87 160.00 334.00
C 164.27 334.16 168.73 334.23 173.00 334.00
C 184.66 333.37 190.50 316.70 199.75 308.75 C 209.01 300.81 217.47 291.81 228.77 286.77 C 240.07 281.73 255.11 278.90 258.67 265.67 C 262.23 252.44 261.96 232.91 258.33 219.67 C 254.70 206.44 248.08 196.89 240.25 185.75 C 232.41 174.61 222.80 169.33 210.22 164.78 C 197.65 160.22 179.71 160.36 167.02 165.02 C 154.34 169.69 145.58 175.65 135.00 184.00 Z"/>
</g>
<g fill="#8D8D8D" fill-opacity="1.00" stroke="None">
<path d="
M 124.00 196.00 
C 127.72 192.28 131.02 187.68 135.00 184.00
C 130.59 187.48 127.42 191.66 124.00 196.00 Z"/>
</g>
<g fill="#FCFCFC" fill-opacity="1.00" stroke="None">
<path d="
M 308.00 278.00 
C 307.65 278.06 307.20 278.98 307.00 279.00
C 351.28 308.12 341.43 375.23 323.00 417.00
C 337.57 410.14 356.13 404.87 371.77 411.23 C 387.41 417.59 392.71 431.78 397.00 446.00
C 406.01 422.52 408.04 396.02 403.00 371.00
C 413.44 375.57 424.09 380.00 436.00 380.00
C 439.00 380.00 442.00 380.00 445.00 380.00
C 497.09 379.02 530.89 314.25 516.78 268.22 C 502.66 222.20 459.05 184.57 408.68 194.68 C 358.31 204.79 341.65 276.90 367.00 318.00
C 354.44 314.41 356.91 293.13 345.08 289.92 C 333.25 286.72 320.63 275.71 308.00 278.00 Z"/>
</g>
<g fill="#6F6F6F" fill-opacity="1.00" stroke="None">
<path d="
M 94.00 269.00 
C 93.77 263.02 94.00 256.99 94.00 251.00
C 93.45 256.64 93.18 263.26 94.00 269.00 Z"/>
</g>
<g fill="#959595" fill-opacity="1.00" stroke="None">
<path d="
M 349.00 275.00 
C 348.85 271.02 348.92 266.98 349.00 263.00
C 348.53 266.86 348.44 271.05 349.00 275.00 Z"/>
</g>
<g fill="#757575" fill-opacity="1.00" stroke="None">
<path d="
M 282.00 270.00 
C 287.63 269.79 293.37 269.89 299.00 270.00
C 293.63 269.35 287.45 269.22 282.00 270.00 Z"/>
</g>
<g fill="#818284" fill-opacity="1.00" stroke="None">
<path d="
M 279.00 276.00 
C 281.85 275.85 284.92 276.80 287.00 277.00
C 290.74 276.75 295.38 277.93 299.00 277.00
C 299.59 276.85 299.89 276.04 301.00 276.00
C 294.25 274.70 285.81 274.89 279.00 276.00 Z"/>
</g>
<g fill="#ECEDED" fill-opacity="1.00" stroke="None">
<path d="
M 287.00 277.00 
C 284.92 276.80 281.85 275.85 279.00 276.00
C 260.91 277.24 244.15 283.55 228.00 291.00
C 234.24 294.42 240.50 303.15 239.00 312.00
C 252.00 298.89 266.18 278.42 287.00 277.00 Z"/>
</g>
<g fill="#B2B3B3" fill-opacity="1.00" stroke="None">
<path d="
M 299.00 277.00 
C 301.64 277.27 304.62 277.96 307.00 279.00
C 307.20 278.98 307.65 278.06 308.00 278.00
C 306.05 277.54 303.37 276.46 301.00 276.00
C 299.89 276.04 299.59 276.85 299.00 277.00 Z"/>
</g>
<g fill="#F9F9F9" fill-opacity="1.00" stroke="None">
<path d="
M 259.00 296.00 
C 255.86 299.14 251.85 302.73 249.00 306.00
C 244.78 310.69 242.41 318.18 237.00 321.00
C 238.64 313.66 234.38 296.19 225.02 298.03 C 215.67 299.86 210.82 306.18 204.00 312.00
C 201.32 314.68 197.21 318.11 195.00 321.00
C 191.08 328.24 186.18 335.23 182.92 342.92 C 179.66 350.62 176.09 359.23 174.32 367.32 C 172.56 375.41 169.52 387.95 170.00 396.00 C 170.48 404.05 166.56 421.55 174.00 425.00 C 181.44 428.45 194.88 426.97 203.00 427.00
C 200.60 415.08 196.06 400.95 199.00 388.00 C 201.95 375.06 199.12 367.12 208.75 355.75 C 218.39 344.38 225.43 360.44 226.00 371.00
C 227.08 377.66 226.63 385.46 226.00 392.00
C 225.48 403.62 224.43 415.15 221.00 426.00
C 230.66 426.42 239.82 428.88 249.00 431.00
C 244.59 418.09 242.56 403.32 244.00 389.00 C 245.44 374.68 246.16 364.59 253.75 351.75 C 261.35 338.91 275.09 346.31 276.22 359.78 C 277.36 373.25 279.31 389.96 275.99 402.99 C 272.68 416.02 273.07 426.67 263.00 436.00
C 262.43 439.05 266.37 438.62 267.00 441.00
C 245.98 431.69 221.81 426.69 198.00 430.00
C 216.83 435.68 236.14 467.40 212.22 477.22 C 188.30 487.05 168.94 474.57 153.00 458.00
C 148.14 474.90 159.41 486.54 170.75 497.25 C 182.10 507.95 194.21 511.34 207.98 518.02 C 221.74 524.71 242.30 522.40 255.92 529.08 C 269.53 535.77 285.22 544.50 300.98 537.98 C 316.73 531.45 321.15 520.23 329.00 508.00
C 328.70 511.88 326.37 515.14 326.00 519.00
C 346.38 512.18 362.83 499.30 377.70 482.70 C 392.56 466.10 396.80 435.65 376.75 420.25 C 356.69 404.86 330.27 417.14 312.00 429.00
C 324.23 408.01 331.36 386.66 333.02 362.02 C 334.69 337.39 333.02 313.04 317.25 292.75 C 301.47 272.46 275.64 281.78 259.00 296.00
M 353.00 454.00 
C 348.67 450.60 343.90 447.19 338.00 448.00
C 330.75 460.29 327.28 474.26 324.02 488.02 C 320.77 501.79 317.16 513.97 306.25 524.25 C 295.34 534.53 277.42 532.83 264.31 527.69 C 251.19 522.56 240.87 509.44 226.00 511.00
C 267.50 507.26 316.54 489.00 334.00 447.00
C 329.02 445.22 323.99 450.60 320.00 448.00
C 329.08 439.65 349.45 440.55 353.00 454.00 Z"/>
</g>
<g fill="#888888" fill-opacity="1.00" stroke="None">
<path d="
M 524.00 300.00 
C 524.36 296.29 524.37 291.77 524.00 288.00
C 524.00 292.00 524.00 296.00 524.00 300.00 Z"/>
</g>
<g fill="#87878B" fill-opacity="1.00" stroke="None">
<path d="
M 249.00 306.00 
C 251.85 302.73 255.86 299.14 259.00 296.00
C 255.51 298.98 251.80 302.24 249.00 306.00 Z"/>
</g>
<g fill="#7F7F7F" fill-opacity="1.00" stroke="None">
<path d="
M 195.00 321.00 
C 197.21 318.11 201.32 314.68 204.00 312.00
C 200.92 314.63 197.28 317.50 195.00 321.00 Z"/>
</g>
<g fill="#7B7B7B" fill-opacity="1.00" stroke="None">
<path d="
M 173.00 334.00 
C 168.73 334.23 164.27 334.16 160.00 334.00
C 164.22 334.60 168.70 334.70 173.00 334.00 Z"/>
</g>
<g fill="#E7E7E7" fill-opacity="1.00" stroke="None">
<path d="
M 181.00 336.00 
C 161.84 360.90 155.19 394.23 159.00 426.00
C 161.92 426.63 164.26 424.97 167.00 425.00
C 163.48 394.09 167.51 362.99 181.00 336.00 Z"/>
</g>
<g fill="#F5F5F5" fill-opacity="1.00" stroke="None">
<path d="
M 274.00 384.00 
C 274.00 377.68 274.24 371.31 274.00 365.00
C 276.16 356.93 267.17 342.20 259.75 349.75 C 252.33 357.30 251.46 364.56 248.98 373.98 C 246.49 383.39 246.69 397.20 247.00 407.00 C 247.31 416.79 247.96 428.35 256.00 433.00
C 250.33 421.33 256.12 391.55 273.00 401.00
C 274.36 395.57 274.00 389.76 274.00 384.00 Z"/>
</g>
<g fill="#F2F2F2" fill-opacity="1.00" stroke="None">
<path d="
M 223.00 393.00 
C 223.15 385.38 223.29 377.62 223.00 370.00
C 225.77 356.39 212.71 350.43 208.31 362.31 C 203.90 374.18 201.32 383.00 202.00 395.00 C 202.68 407.00 199.09 421.52 210.00 426.00
C 207.00 416.46 208.68 393.86 223.00 400.00
C 223.03 397.67 222.95 395.33 223.00 393.00 Z"/>
</g>
<g fill="#929292" fill-opacity="1.00" stroke="None">
<path d="
M 274.00 384.00 
C 274.58 378.06 274.86 371.05 274.00 365.00
C 274.24 371.31 274.00 377.68 274.00 384.00 Z"/>
</g>
<g fill="#7F7F7F" fill-opacity="1.00" stroke="None">
<path d="
M 223.00 393.00 
C 223.87 385.84 224.04 377.25 223.00 370.00
C 223.29 377.62 223.15 385.38 223.00 393.00 Z"/>
</g>
<g fill="#707070" fill-opacity="1.00" stroke="None">
<path d="
M 226.00 392.00 
C 226.63 385.46 227.08 377.66 226.00 371.00
C 226.38 377.95 226.00 385.04 226.00 392.00 Z"/>
</g>
<g fill="#686868" fill-opacity="1.00" stroke="None">
<path d="
M 445.00 380.00 
C 442.00 380.00 439.00 380.00 436.00 380.00
C 438.76 380.27 442.18 380.27 445.00 380.00 Z"/>
</g>
<g fill="#F8F8F8" fill-opacity="1.00" stroke="None">
<path d="
M 184.00 430.00 
C 172.71 427.98 153.62 431.20 155.01 444.99 C 156.40 458.79 164.60 462.53 174.92 469.08 C 185.25 475.62 197.62 476.35 209.92 472.92 C 222.23 469.49 220.14 452.43 211.25 445.75 C 202.35 439.08 194.64 431.91 184.00 430.00 Z"/>
</g>
<g fill="#09090B" fill-opacity="1.00" stroke="None">
<path d="
M 353.00 454.00 
C 349.45 440.55 329.08 439.65 320.00 448.00
C 323.99 450.60 329.02 445.22 334.00 447.00
C 316.54 489.00 267.50 507.26 226.00 511.00
C 240.87 509.44 251.19 522.56 264.31 527.69 C 277.42 532.83 295.34 534.53 306.25 524.25 C 317.16 513.97 320.77 501.79 324.02 488.02 C 327.28 474.26 330.75 460.29 338.00 448.00
C 343.90 447.19 348.67 450.60 353.00 454.00
M 289.00 512.00 
C 293.61 501.05 295.08 498.27 308.07 494.07 C 321.07 489.88 316.32 504.90 311.22 513.22 C 306.13 521.55 297.09 525.62 288.78 527.78 C 280.47 529.93 261.11 525.29 265.26 516.26 C 269.40 507.22 283.76 503.97 289.00 512.00 Z"/>
</g>
<g fill="#F4F4F5" fill-opacity="1.00" stroke="None">
<path d="
M 414.00 495.00 
C 413.80 497.97 414.00 501.02 414.00 504.00
C 414.00 506.67 414.00 509.33 414.00 512.00
C 414.37 515.77 414.36 520.29 414.00 524.00
C 413.55 531.17 413.75 538.19 418.00 544.00
C 414.32 543.22 411.58 539.23 410.00 536.00
C 387.85 555.71 410.48 594.35 436.00 600.00
C 439.75 600.39 444.24 600.34 448.00 600.00
C 457.52 600.15 462.58 590.53 471.00 588.00
C 458.53 585.83 441.13 594.12 429.70 585.30 C 418.27 576.49 412.60 565.73 416.00 552.00
C 418.48 561.38 419.87 571.89 427.75 579.25 C 435.63 586.61 445.85 589.39 456.00 585.00
C 429.08 574.34 429.40 529.71 459.00 523.00
C 456.32 514.97 447.12 520.66 443.00 524.00
C 445.79 511.12 453.22 494.75 442.75 483.25 C 432.29 471.75 414.96 480.86 414.00 495.00 Z"/>
</g>
<g fill="#F2F2F4" fill-opacity="1.00" stroke="None">
<path d="
M 289.00 512.00 
C 283.76 503.97 269.40 507.22 265.26 516.26 C 261.11 525.29 280.47 529.93 288.78 527.78 C 297.09 525.62 306.13 521.55 311.22 513.22 C 316.32 504.90 321.07 489.88 308.07 494.07 C 295.08 498.27 293.61 501.05 289.00 512.00 Z"/>
</g>
<g fill="#707070" fill-opacity="1.00" stroke="None">
<path d="
M 414.00 504.00 
C 414.00 501.02 413.80 497.97 414.00 495.00
C 413.46 498.04 413.71 500.99 414.00 504.00 Z"/>
</g>
<g fill="#747474" fill-opacity="1.00" stroke="None">
<path d="
M 414.00 524.00 
C 414.36 520.29 414.37 515.77 414.00 512.00
C 414.00 516.00 414.00 520.00 414.00 524.00 Z"/>
</g>
<g fill="#F9F9F9" fill-opacity="1.00" stroke="None">
<path d="
M 393.00 560.00 
C 383.02 553.90 374.67 546.21 364.25 540.75 C 353.82 535.29 346.84 526.68 335.22 522.78 C 323.60 518.88 317.93 536.47 308.07 541.07 C 298.21 545.68 277.84 546.74 268.23 540.77 C 258.62 534.80 241.84 526.56 235.77 537.77 C 229.70 548.98 222.49 554.44 214.75 563.75 C 207.01 573.06 199.93 581.02 196.00 592.00
C 246.68 575.04 302.13 591.54 348.00 613.00
C 345.75 587.69 336.90 564.20 322.00 544.00
C 325.76 546.32 328.20 550.62 332.00 553.00
C 331.58 549.35 328.43 546.63 328.00 543.00
C 337.12 552.91 342.06 565.22 351.75 575.25 C 361.44 585.28 367.43 593.89 378.25 603.75 C 389.08 613.60 406.90 605.64 418.00 599.00
C 410.05 588.30 399.81 577.81 398.00 564.00
C 391.03 565.19 385.98 570.53 380.00 574.00
C 381.88 567.64 388.50 564.14 393.00 560.00 Z"/>
</g>
<g fill="#F9F9F9" fill-opacity="1.00" stroke="None">
<path d="
M 473.00 526.00 
C 450.81 520.50 433.91 545.32 441.70 564.31 C 449.48 583.29 477.00 586.53 489.08 572.08 C 501.17 557.63 490.51 530.34 473.00 526.00 Z"/>
</g>
<g fill="#F8F8F8" fill-opacity="1.00" stroke="None">
<path d="
M 233.00 533.00 
C 226.05 536.54 218.29 539.13 211.23 542.23 C 204.17 545.32 197.26 548.22 190.23 551.23 C 183.20 554.24 176.31 557.46 169.23 560.23 C 162.15 562.99 156.00 566.90 149.08 570.08 C 142.15 573.25 136.12 576.15 130.08 581.08 C 124.04 586.02 119.84 591.17 117.93 598.93 C 116.02 606.68 117.15 616.46 122.23 622.77 C 127.31 629.08 131.71 632.88 139.31 635.69 C 146.90 638.51 156.12 637.93 161.75 630.75 C 167.38 623.57 171.03 621.58 171.98 611.02 C 172.92 600.47 159.43 603.82 154.00 601.00
C 170.83 596.82 191.50 589.50 201.75 574.75 C 212.01 560.00 226.59 549.47 233.00 533.00 Z"/>
</g>
<g fill="#FAFAFA" fill-opacity="1.00" stroke="None">
<path d="
M 225.00 707.00 
C 222.96 705.54 220.14 703.68 220.00 701.00
C 221.57 700.70 223.61 701.25 224.00 703.00
C 242.14 714.23 263.39 719.23 284.00 722.00
C 280.89 723.44 277.27 723.16 274.00 724.00
C 271.65 735.60 274.58 748.12 286.33 747.67 C 298.08 747.22 310.11 748.76 319.78 745.78 C 329.45 742.80 338.20 740.08 345.31 735.31 C 352.41 730.53 364.65 727.35 362.92 719.08 C 361.20 710.80 354.50 703.12 351.00 696.00
C 349.67 698.00 349.40 700.91 347.00 702.00
C 348.86 688.53 353.00 675.95 353.00 662.00
C 353.00 655.67 353.00 649.33 353.00 643.00
C 353.80 634.62 350.76 627.22 351.00 619.00
C 335.59 610.86 319.83 604.74 303.22 599.78 C 286.62 594.81 265.76 588.24 248.00 589.00 C 230.24 589.76 205.06 586.41 191.25 598.25 C 177.44 610.09 178.33 631.92 176.00 649.00 C 173.67 666.08 182.16 687.59 188.00 703.00
C 184.20 701.65 184.08 696.85 181.00 695.00
C 173.89 707.54 173.39 721.55 186.77 728.23 C 200.15 734.91 207.64 740.75 221.99 744.01 C 236.34 747.27 252.41 748.56 267.00 745.00
C 266.10 738.19 262.08 732.26 263.00 725.00
C 249.22 721.86 236.61 715.29 225.00 707.00
M 241.00 624.00 
C 242.01 628.35 241.60 632.77 241.00 637.00
C 240.57 648.35 235.96 660.25 223.92 664.92 C 211.89 669.60 202.76 655.10 202.00 644.00
C 201.27 639.95 201.29 635.99 202.00 632.00
C 202.75 621.03 206.91 611.87 218.08 606.08 C 229.24 600.28 238.68 614.01 241.00 624.00
M 323.00 630.00 
C 323.73 634.05 323.83 637.99 323.00 642.00
C 320.72 653.01 317.84 666.41 303.98 668.98 C 290.11 671.54 282.64 655.77 282.00 644.00
C 281.44 640.54 281.39 637.42 282.00 634.00
C 282.72 623.39 287.81 610.95 300.08 607.08 C 312.34 603.20 322.25 619.04 323.00 630.00 Z"/>
</g>
<g fill="#DADBDB" fill-opacity="1.00" stroke="None">
<path d="
M 189.00 593.00 
C 183.59 593.81 177.83 596.19 174.00 600.00
C 176.71 601.93 179.85 603.12 183.00 604.00
C 184.99 600.29 186.42 596.39 189.00 593.00 Z"/>
</g>
<g fill="#858585" fill-opacity="1.00" stroke="None">
<path d="
M 374.00 606.00 
C 371.09 603.31 367.86 599.86 365.00 597.00
C 367.72 600.18 370.65 603.35 374.00 606.00 Z"/>
</g>
<g fill="#7F7F81" fill-opacity="1.00" stroke="None">
<path d="
M 448.00 600.00 
C 444.24 600.34 439.75 600.39 436.00 600.00
C 440.00 600.89 443.94 600.84 448.00 600.00 Z"/>
</g>
<g fill="#161616" fill-opacity="1.00" stroke="None">
<path d="
M 202.00 632.00 
C 201.74 635.88 201.74 640.12 202.00 644.00
C 202.76 655.10 211.89 669.60 223.92 664.92 C 235.96 660.25 240.57 648.35 241.00 637.00
C 241.16 632.82 241.46 628.15 241.00 624.00
C 238.68 614.01 229.24 600.28 218.08 606.08 C 206.91 611.87 202.75 621.03 202.00 632.00
M 225.00 609.00 
C 235.74 610.96 238.81 630.20 237.00 639.00 C 235.19 647.80 229.16 663.49 217.00 661.00 C 204.84 658.51 204.72 640.95 205.99 631.99 C 207.26 623.04 212.97 606.80 225.00 609.00 Z"/>
</g>
<g fill="#E9E9EA" fill-opacity="1.00" stroke="None">
<path d="
M 127.00 634.00 
C 126.38 642.67 135.37 646.66 141.77 650.23 C 148.18 653.80 160.42 654.46 166.92 650.92 C 173.43 647.39 171.78 633.61 174.00 627.00 C 176.23 620.40 182.10 609.19 176.00 607.00
C 177.76 632.24 147.28 651.64 127.00 634.00 Z"/>
</g>
<g fill="#161617" fill-opacity="1.00" stroke="None">
<path d="
M 282.00 634.00 
C 281.78 637.25 281.82 640.75 282.00 644.00
C 282.64 655.77 290.11 671.54 303.98 668.98 C 317.84 666.41 320.72 653.01 323.00 642.00
C 323.35 638.17 323.26 633.83 323.00 630.00
C 322.25 619.04 312.34 603.20 300.08 607.08 C 287.81 610.95 282.72 623.39 282.00 634.00
M 305.00 611.00 
C 316.39 612.61 320.63 631.83 319.00 641.00 C 317.37 650.17 311.46 666.92 299.00 665.00 C 286.54 663.08 284.75 645.35 285.98 635.98 C 287.20 626.60 291.54 609.10 305.00 611.00 Z"/>
</g>
<g fill="#F6F6F6" fill-opacity="1.00" stroke="None">
<path d="
M 225.00 609.00 
C 212.97 606.80 207.26 623.04 205.99 631.99 C 204.72 640.95 204.84 658.51 217.00 661.00 C 229.16 663.49 235.19 647.80 237.00 639.00 C 238.81 630.20 235.74 610.96 225.00 609.00 Z"/>
</g>
<g fill="#F6F6F6" fill-opacity="1.00" stroke="None">
<path d="
M 305.00 611.00 
C 291.54 609.10 287.20 626.60 285.98 635.98 C 284.75 645.35 286.54 663.08 299.00 665.00 C 311.46 666.92 317.37 650.17 319.00 641.00 C 320.63 631.83 316.39 612.61 305.00 611.00 Z"/>
</g>
<g fill="#737373" fill-opacity="1.00" stroke="None">
<path d="
M 241.00 637.00 
C 241.60 632.77 242.01 628.35 241.00 624.00
C 241.46 628.15 241.16 632.82 241.00 637.00 Z"/>
</g>
<g fill="#7D7D7D" fill-opacity="1.00" stroke="None">
<path d="
M 323.00 642.00 
C 323.83 637.99 323.73 634.05 323.00 630.00
C 323.26 633.83 323.35 638.17 323.00 642.00 Z"/>
</g>
<g fill="#717171" fill-opacity="1.00" stroke="None">
<path d="
M 202.00 644.00 
C 201.74 640.12 201.74 635.88 202.00 632.00
C 201.29 635.99 201.27 639.95 202.00 644.00 Z"/>
</g>
<g fill="#969696" fill-opacity="1.00" stroke="None">
<path d="
M 282.00 644.00 
C 281.82 640.75 281.78 637.25 282.00 634.00
C 281.39 637.42 281.44 640.54 282.00 644.00 Z"/>
</g>
<g fill="#7F7F7F" fill-opacity="1.00" stroke="None">
<path d="
M 353.00 662.00 
C 353.57 656.09 353.58 648.98 353.00 643.00
C 353.00 649.33 353.00 655.67 353.00 662.00 Z"/>
</g>
<g fill="#EBECEB" fill-opacity="1.00" stroke="None">
<path d="
M 170.00 655.00 
C 155.14 657.20 159.54 692.41 177.00 689.00
C 174.10 677.84 170.44 666.82 170.00 655.00 Z"/>
</g>
<g fill="#68676C" fill-opacity="1.00" stroke="None">
<path d="
M 158.00 660.00 
C 159.47 659.73 158.89 658.00 159.00 657.00
C 156.00 656.91 153.00 657.11 150.00 657.00
C 152.15 657.31 157.36 657.63 158.00 660.00 Z"/>
</g>
<g fill="#858586" fill-opacity="1.00" stroke="None">
<path d="
M 158.00 675.00 
C 157.80 671.36 158.00 667.65 158.00 664.00
C 157.51 667.62 157.40 671.29 158.00 675.00 Z"/>
</g>
<g fill="#B7B7B7" fill-opacity="1.00" stroke="None">
<path d="
M 225.00 707.00 
C 224.27 704.97 221.81 704.04 221.00 702.00
C 222.25 701.64 222.98 702.69 224.00 703.00
C 223.61 701.25 221.57 700.70 220.00 701.00
C 220.14 703.68 222.96 705.54 225.00 707.00 Z"/>
</g>
<g fill="#F6F6F6" fill-opacity="1.00" stroke="None">
<path d="
M 334.00 746.00 
C 324.61 749.29 314.89 751.51 305.00 753.00
C 308.98 769.67 314.58 785.93 317.00 803.00
C 328.09 807.62 340.59 804.02 351.00 800.00
C 346.53 781.62 339.71 764.01 334.00 746.00 Z"/>
</g>
<g fill="#F6F7F7" fill-opacity="1.00" stroke="None">
<path d="
M 244.00 751.00 
C 233.01 752.24 223.44 747.79 213.00 747.00
C 212.60 762.60 220.78 778.06 222.01 792.99 C 223.24 807.92 256.40 809.35 254.32 794.68 C 252.24 780.00 244.75 766.02 244.00 751.00 Z"/>
</g>
<g fill="#F7F7F7" fill-opacity="1.00" stroke="None">
<path d="
M 272.00 747.00 
C 265.86 752.89 246.50 747.21 250.02 757.98 C 253.55 768.74 253.19 775.19 258.00 785.00
C 265.52 786.74 277.02 790.72 279.22 799.78 C 281.42 808.84 277.31 819.71 287.00 826.00
C 297.11 819.28 286.91 808.33 291.25 799.25 C 295.58 790.16 311.68 791.76 307.33 781.67 C 302.98 771.58 304.09 762.91 300.00 753.00
C 290.50 752.41 278.88 753.91 272.00 747.00 Z"/>
</g>
<g fill="#F5F5F5" fill-opacity="1.00" stroke="None">
<path d="
M 240.00 831.00 
C 243.87 831.26 248.13 831.26 252.00 831.00
C 276.98 833.16 285.47 790.16 258.00 789.00
C 257.30 793.17 259.08 796.60 261.00 800.00
C 253.58 807.81 242.72 809.12 232.22 807.78 C 221.73 806.43 214.05 801.61 215.67 791.67 C 217.28 781.74 195.08 791.67 198.02 800.98 C 200.97 810.28 204.46 817.07 213.77 821.23 C 223.08 825.39 229.57 830.29 240.00 831.00 Z"/>
</g>
<g fill="#F5F5F6" fill-opacity="1.00" stroke="None">
<path d="
M 334.00 809.00 
C 330.54 809.56 327.42 809.61 324.00 809.00
C 318.94 808.42 314.78 807.67 310.77 804.23 C 306.76 800.79 312.96 795.82 310.00 792.00
C 288.59 796.11 291.10 820.82 309.31 828.69 C 327.51 836.57 344.26 831.72 360.92 821.92 C 377.58 812.12 376.93 785.28 353.00 787.00
C 351.62 791.65 356.25 794.10 357.00 798.00
C 350.38 804.01 343.01 808.51 334.00 809.00 Z"/>
</g>
<g fill="#7E7E7E" fill-opacity="1.00" stroke="None">
<path d="
M 432.00 808.00 
C 437.30 807.89 442.70 807.80 448.00 808.00
C 442.91 807.27 437.14 807.38 432.00 808.00 Z"/>
</g>
<g fill="#858585" fill-opacity="1.00" stroke="None">
<path d="
M 166.00 809.00 
C 175.51 809.00 186.24 809.82 195.00 808.00
C 185.38 807.56 174.90 808.14 166.00 809.00 Z"/>
</g>
<g fill="#878789" fill-opacity="1.00" stroke="None">
<path d="
M 334.00 809.00 
C 330.75 809.18 327.25 809.22 324.00 809.00
C 327.42 809.61 330.54 809.56 334.00 809.00 Z"/>
</g>
<g fill="#FBFBFB" fill-opacity="1.00" stroke="None">
<path d="
M 448.00 812.00 
C 443.73 811.77 439.27 811.84 435.00 812.00
C 404.43 814.19 380.12 834.61 358.00 855.00
C 368.76 836.20 388.63 823.50 407.00 814.00
C 393.18 807.98 377.44 807.47 368.75 819.75 C 360.06 832.03 346.19 833.60 333.00 836.00 C 319.81 838.40 304.51 831.60 295.00 823.00
C 279.63 844.03 287.67 874.03 309.77 887.23 C 331.87 900.43 350.57 909.43 376.33 915.67 C 402.09 921.91 435.23 915.84 459.78 908.78 C 484.32 901.72 505.12 880.07 499.98 854.02 C 494.83 827.98 472.27 813.32 448.00 812.00 Z"/>
</g>
<g fill="#6B6B6B" fill-opacity="1.00" stroke="None">
<path d="
M 435.00 812.00 
C 439.27 811.84 443.73 811.77 448.00 812.00
C 443.76 811.31 439.29 811.39 435.00 812.00 Z"/>
</g>
<g fill="#FBFBFB" fill-opacity="1.00" stroke="None">
<path d="
M 180.00 828.00 
C 184.11 831.06 187.73 835.18 191.00 839.00
C 193.47 841.89 195.38 844.77 197.00 848.00
C 197.44 848.87 199.90 849.24 199.00 851.00
C 194.68 847.48 190.44 843.30 187.00 839.00
C 164.20 816.28 128.34 803.48 99.70 820.70 C 71.05 837.91 72.61 882.35 100.25 900.75 C 127.90 919.14 171.42 914.91 201.93 906.93 C 232.43 898.95 260.64 888.22 286.00 869.00
C 277.67 853.45 289.28 835.00 278.00 821.00
C 257.12 843.54 216.72 837.12 200.00 813.00
C 187.15 813.66 173.09 811.68 161.00 814.00
C 166.98 818.65 173.69 823.31 180.00 828.00 Z"/>
</g>
<g fill="#848484" fill-opacity="1.00" stroke="None">
<path d="
M 191.00 839.00 
C 187.73 835.18 184.11 831.06 180.00 828.00
C 183.62 831.16 187.53 835.53 191.00 839.00 Z"/>
</g>
<g fill="#808080" fill-opacity="1.00" stroke="None">
<path d="
M 252.00 831.00 
C 248.13 831.26 243.87 831.26 240.00 831.00
C 243.99 831.71 247.95 831.73 252.00 831.00 Z"/>
</g>
<g fill="#737373" fill-opacity="1.00" stroke="None">
<path d="
M 197.00 848.00 
C 194.29 844.93 190.28 841.59 187.00 839.00
C 190.44 843.30 194.68 847.48 199.00 851.00
C 199.90 849.24 197.44 848.87 197.00 848.00 Z"/>
</g>
<g fill="#777777" fill-opacity="1.00" stroke="None">
<path d="
M 75.00 864.00 
C 74.77 859.76 74.77 855.24 75.00 851.00
C 74.31 855.25 74.30 859.69 75.00 864.00 Z"/>
</g>
<g fill="#EAEAEA" fill-opacity="1.00" stroke="None">
<path d="
M 141.00 925.00 
C 147.33 925.00 153.67 925.00 160.00 925.00
C 176.45 924.51 196.01 920.88 210.93 915.93 C 225.84 910.98 241.24 905.83 254.98 899.98 C 268.71 894.12 286.78 889.65 287.00 873.00
C 259.39 891.88 231.21 905.10 198.00 912.00 C 164.80 918.90 120.05 922.19 92.00 900.00
C 101.20 917.94 122.06 925.00 141.00 925.00 Z"/>
</g>
<g fill="#EAEAEB" fill-opacity="1.00" stroke="None">
<path d="
M 403.00 930.00 
C 407.33 930.09 411.67 930.00 416.00 930.00
C 445.71 928.32 481.33 919.05 496.00 891.00
C 475.01 908.05 448.64 922.00 421.00 922.00
C 415.65 922.52 409.28 922.51 404.00 922.00
C 362.59 919.44 320.55 904.37 291.00 875.00
C 293.51 898.50 317.98 904.63 337.31 912.69 C 356.64 920.76 381.12 929.56 403.00 930.00 Z"/>
</g>
<g fill="#727272" fill-opacity="1.00" stroke="None">
<path d="
M 421.00 922.00 
C 415.33 922.00 409.67 922.00 404.00 922.00
C 409.28 922.51 415.65 922.52 421.00 922.00 Z"/>
</g>
<g fill="#747474" fill-opacity="1.00" stroke="None">
<path d="
M 160.00 925.00 
C 153.67 925.00 147.33 925.00 141.00 925.00
C 146.91 925.57 154.02 925.58 160.00 925.00 Z"/>
</g>
<g fill="#838383" fill-opacity="1.00" stroke="None">
<path d="
M 164.00 929.00 
C 157.33 929.00 150.67 929.00 144.00 929.00
C 150.23 929.60 157.70 929.61 164.00 929.00 Z"/>
</g>
<g fill="#818181" fill-opacity="1.00" stroke="None">
<path d="
M 416.00 930.00 
C 411.67 930.00 407.33 930.09 403.00 930.00
C 407.10 930.50 411.86 930.40 416.00 930.00 Z"/>
</g>
<g fill="#919191" fill-opacity="1.00" stroke="None">
<path d="
M 418.00 935.00 
C 414.67 935.00 411.33 935.00 408.00 935.00
C 411.07 935.30 414.86 935.30 418.00 935.00 Z"/>
</g>
</svg>