<svg xmlns="http://www.w3.org/2000/svg" xmlns:v="https://svgstorm.com"
viewBox = "0 0 539 403"
width="539"
height="403">
<g fill="None" fill-opacity="0.0" stroke="#000000" stroke-opacity="0.01" stroke-width="0.3"><path d="
M 0.00 403.00 
L 57.00 403.00
C 43.24 399.48 30.02 398.45 18.25 392.61 C 6.48 386.76 -6.22 364.66 7.00 354.00
C 4.99 338.68 4.95 325.88 3.00 309.00 C 1.06 292.12 8.02 268.42 4.00 251.00 C -0.02 233.58 12.92 224.81 23.89 215.89 C 34.87 206.98 43.01 197.66 53.90 188.90 C 64.80 180.14 73.84 171.64 84.25 162.25 C 94.66 152.87 105.23 144.61 115.10 136.09 C 124.97 127.58 133.02 120.53 136.39 110.25 C 139.77 99.96 153.88 89.98 161.70 80.70 C 169.53 71.43 171.63 56.06 156.00 55.00
C 168.39 45.03 188.15 51.83 200.00 61.00
C 210.44 53.43 218.45 42.94 229.00 37.00
C 222.61 24.45 233.87 11.70 246.00 18.00
C 250.03 9.71 262.33 -1.16 270.75 2.40 C 279.17 5.96 289.33 16.06 299.25 10.81 C 309.17 5.55 314.95 -0.15 327.22 1.22 C 339.50 2.59 343.41 12.23 350.92 20.08 C 358.42 27.94 371.19 26.77 378.25 21.20 C 385.30 15.63 393.77 12.01 402.25 16.19 C 410.74 20.37 413.01 32.97 419.00 41.00
C 432.25 42.21 436.12 29.71 449.75 33.26 C 463.38 36.82 462.56 45.50 469.24 54.77 C 475.91 64.04 491.88 62.85 500.25 58.80 C 508.62 54.75 521.91 57.99 528.92 67.08 C 535.93 76.17 536.00 84.08 539.00 95.00
L 539.00 0.00
L 0.00 0.00
L 0.00 403.00 Z"/>
</g>
<g fill="None" fill-opacity="0.0" stroke="#000000" stroke-opacity="0.91" stroke-width="0.3"><path d="
M 57.00 403.00 
L 107.00 403.00
C 119.56 400.62 136.07 399.42 148.23 398.21 C 160.39 397.01 170.52 394.54 182.25 393.20 C 193.97 391.86 207.31 389.11 218.75 387.41 C 230.19 385.72 241.46 383.17 252.25 381.20 C 263.03 379.23 273.42 377.45 284.75 374.74 C 296.08 372.02 305.73 370.96 317.25 367.81 C 328.76 364.65 339.21 362.72 351.08 359.94 C 362.95 357.15 374.68 352.26 385.30 349.29 C 395.91 346.33 408.62 343.20 418.70 339.65 C 428.78 336.10 438.60 332.06 448.75 328.61 C 458.91 325.16 468.23 319.32 477.77 315.42 C 487.31 311.53 496.88 304.54 508.22 298.22 C 519.57 291.91 528.28 279.31 537.76 269.75
C 537.50 263.44 538.00 257.59 538.00 252.00
C 538.00 217.00 538.00 182.00 538.00 147.00
C 538.00 143.17 537.18 138.01 539.00 135.00
L 539.00 130.00
C 537.35 121.07 537.32 108.85 539.00 100.00
L 539.00 95.00
C 536.00 84.08 535.93 76.17 528.92 67.08 C 521.91 57.99 508.62 54.75 500.25 58.80 C 491.88 62.85 475.91 64.04 469.24 54.77 C 462.56 45.50 463.38 36.82 449.75 33.26 C 436.12 29.71 432.25 42.21 419.00 41.00
C 413.01 32.97 410.74 20.37 402.25 16.19 C 393.77 12.01 385.30 15.63 378.25 21.20 C 371.19 26.77 358.42 27.94 350.92 20.08 C 343.41 12.23 339.50 2.59 327.22 1.22 C 314.95 -0.15 309.17 5.55 299.25 10.81 C 289.33 16.06 279.17 5.96 270.75 2.40 C 262.33 -1.16 250.03 9.71 246.00 18.00
C 233.87 11.70 222.61 24.45 229.00 37.00
C 218.45 42.94 210.44 53.43 200.00 61.00
C 188.15 51.83 168.39 45.03 156.00 55.00
C 171.63 56.06 169.53 71.43 161.70 80.70 C 153.88 89.98 139.77 99.96 136.39 110.25 C 133.02 120.53 124.97 127.58 115.10 136.09 C 105.23 144.61 94.66 152.87 84.25 162.25 C 73.84 171.64 64.80 180.14 53.90 188.90 C 43.01 197.66 34.87 206.98 23.89 215.89 C 12.92 224.81 -0.02 233.58 4.00 251.00 C 8.02 268.42 1.06 292.12 3.00 309.00 C 4.95 325.88 4.99 338.68 7.00 354.00
C -6.22 364.66 6.48 386.76 18.25 392.61 C 30.02 398.45 43.24 399.48 57.00 403.00
M 513.00 59.00 
C 515.07 62.26 520.75 61.24 523.00 66.00
C 506.48 69.82 508.59 90.55 510.00 106.00
C 485.85 85.22 455.76 73.30 427.70 64.29 C 399.63 55.28 374.14 47.59 343.70 41.29 C 313.26 34.99 269.10 30.18 232.00 34.00
C 232.97 31.50 233.41 28.36 231.00 26.00
C 231.89 24.07 235.33 23.81 235.00 21.00
C 248.65 26.96 250.32 14.74 261.03 8.03 C 271.74 1.33 274.62 11.09 285.75 14.39 C 296.89 17.70 307.01 8.04 315.25 5.81 C 323.50 3.58 337.99 6.05 341.39 15.75 C 344.79 25.45 360.78 30.93 370.69 29.35 C 380.60 27.78 383.90 15.30 395.68 17.34 C 407.46 19.37 406.17 28.18 411.97 38.03 C 417.77 47.88 432.20 44.29 439.75 37.61 C 447.30 30.92 459.93 38.14 461.71 47.30 C 463.48 56.46 471.34 66.90 482.08 65.93 C 492.82 64.97 501.58 60.67 513.00 59.00
M 497.00 108.00 
C 486.75 118.85 476.63 122.33 466.30 127.31 C 455.98 132.28 447.16 136.27 437.23 140.58 C 427.30 144.88 416.80 147.16 406.25 151.40 C 395.71 155.64 384.48 158.94 373.77 162.21 C 363.06 165.48 353.65 169.65 341.77 172.21 C 329.89 174.77 318.92 180.32 307.70 182.71 C 296.48 185.10 284.03 188.66 273.70 191.71 C 263.37 194.77 250.18 196.16 239.75 199.19 C 229.31 202.22 218.42 203.65 207.75 206.19 C 197.08 208.74 187.02 210.37 176.25 212.40 C 165.49 214.43 153.19 217.06 141.25 218.40 C 129.32 219.74 120.29 223.09 107.75 223.80 C 95.21 224.52 81.13 227.91 67.77 228.77 C 54.41 229.64 34.03 233.13 22.00 228.00
C 38.26 210.06 57.87 194.29 75.92 177.92 C 93.96 161.54 115.29 144.39 134.00 128.00
C 131.73 139.26 122.70 153.85 127.39 165.75 C 132.09 177.65 141.44 185.51 152.75 189.59 C 164.07 193.67 180.16 192.85 191.25 189.20 C 202.34 185.56 211.73 185.22 221.25 177.20 C 230.77 169.18 238.09 159.41 239.60 147.25 C 241.12 135.09 233.72 118.59 221.00 118.00
C 223.79 98.75 218.27 80.52 204.00 67.00
C 212.97 59.70 221.62 46.72 231.70 41.70 C 241.79 36.69 261.87 40.58 274.22 40.78 C 286.57 40.98 298.33 41.79 309.25 43.20 C 320.17 44.60 329.73 46.37 339.25 48.20 C 348.77 50.03 358.77 52.63 367.25 54.20 C 375.73 55.77 385.73 60.53 394.77 62.57 C 403.81 64.62 414.26 68.28 423.25 71.76 C 432.24 75.24 442.38 76.46 450.08 80.06 C 457.79 83.66 466.71 87.23 473.92 91.13 C 481.13 95.03 493.23 97.05 497.00 108.00
M 199.00 147.00 
C 209.19 141.51 218.23 130.54 219.00 121.00
C 244.45 127.21 236.04 160.13 218.30 172.30 C 200.55 184.47 179.79 188.00 158.75 185.80 C 137.71 183.60 122.81 154.34 137.00 139.00
C 139.42 147.06 149.79 154.51 156.30 156.71 C 162.81 158.92 174.87 159.99 178.00 153.00
C 162.97 155.86 146.97 151.82 140.09 136.90 C 133.22 121.98 142.73 105.24 154.30 95.30 C 165.88 85.36 181.08 66.88 165.00 55.00
C 208.66 49.72 237.58 118.22 199.00 147.00
M 527.00 69.00 
C 534.28 84.76 535.30 99.74 533.35 118.70 C 531.40 137.66 534.75 161.61 534.00 184.00 C 533.25 206.39 534.95 240.51 534.00 262.00 C 533.05 283.49 511.32 286.32 500.25 296.39 C 489.18 306.46 476.40 309.55 465.25 315.39 C 454.09 321.24 441.92 325.29 430.08 330.13 C 418.24 334.97 402.95 338.10 390.25 342.40 C 377.56 346.70 360.93 351.54 347.25 354.40 C 333.58 357.26 319.52 363.36 305.25 365.59 C 290.98 367.82 281.02 371.46 266.75 373.80 C 252.49 376.14 240.84 379.22 226.75 381.76 C 212.67 384.30 199.32 385.51 184.75 387.80 C 170.18 390.09 158.68 391.74 142.75 393.80 C 126.83 395.86 103.55 397.39 85.00 398.00 C 66.45 398.61 46.27 396.50 32.25 392.60 C 18.23 388.70 5.76 379.26 7.00 361.00
C 18.40 367.75 28.11 369.05 41.25 372.20 C 54.39 375.35 75.48 374.34 91.00 374.00 C 106.53 373.66 123.48 372.80 137.25 370.25 C 151.01 367.69 160.48 368.86 173.25 366.20 C 186.02 363.54 194.69 363.93 206.75 361.40 C 218.81 358.86 231.84 358.00 243.70 355.65 C 255.56 353.29 265.83 350.80 277.25 348.81 C 288.67 346.82 299.74 343.91 310.75 341.41 C 321.77 338.91 332.12 336.73 342.75 334.60 C 353.38 332.48 365.61 326.71 377.25 324.24 C 388.89 321.78 401.21 316.94 412.30 313.29 C 423.38 309.64 433.70 305.96 444.30 301.29 C 454.89 296.62 464.50 293.02 475.30 286.29 C 486.11 279.55 495.95 274.66 508.08 262.08 C 520.21 249.51 513.29 238.04 514.35 222.30 C 515.42 206.57 516.02 180.42 516.00 162.00 C 515.98 143.58 516.77 120.86 514.40 106.25 C 512.02 91.63 511.45 70.92 527.00 69.00
M 509.00 116.00 
C 513.07 123.33 512.34 132.79 509.00 139.00
C 504.16 139.74 502.17 136.07 500.00 132.00
C 483.49 130.48 479.76 153.19 478.93 164.08 C 478.11 174.97 466.30 175.70 461.75 171.24 C 457.20 166.79 448.78 163.09 442.32 168.32 C 435.86 173.55 432.29 181.38 430.41 187.75 C 428.53 194.12 428.47 203.10 427.61 209.75 C 426.74 216.40 425.55 223.18 424.20 229.25 C 422.85 235.31 420.11 242.98 415.30 248.30 C 410.49 253.61 405.67 261.64 398.25 263.26 C 390.83 264.89 385.04 262.49 380.11 257.89 C 375.17 253.30 371.68 243.18 369.41 237.25 C 367.14 231.31 365.82 226.73 363.61 220.25 C 361.39 213.77 354.27 203.81 348.75 200.25 C 343.24 196.68 335.54 195.07 331.10 204.10 C 326.66 213.13 323.06 205.70 318.00 201.00
C 315.18 201.86 312.68 202.97 310.00 204.00
C 310.90 216.02 307.88 232.78 293.00 231.00
C 287.95 224.46 290.25 211.16 278.00 213.00
C 268.21 225.34 271.83 237.89 267.80 251.25 C 263.77 264.61 265.84 276.67 257.08 288.08 C 248.31 299.49 230.01 296.20 221.08 283.92 C 212.16 271.63 208.74 259.04 202.69 246.30 C 196.64 233.56 173.99 227.46 167.68 240.68 C 161.37 253.90 161.45 264.58 153.00 278.00
C 136.81 277.04 143.69 254.56 134.00 245.00
C 131.04 244.84 127.72 246.39 125.00 246.00
C 116.93 257.01 123.86 270.23 117.80 281.25 C 111.74 292.26 113.42 303.83 101.25 312.59 C 89.08 321.35 80.00 304.87 78.07 292.92 C 76.13 280.97 75.54 264.82 63.77 258.79 C 51.99 252.76 41.99 272.42 28.97 272.98 C 15.96 273.54 9.15 253.32 12.00 239.00
C 27.83 237.40 48.58 235.34 63.69 234.35 C 78.81 233.37 94.33 231.06 108.25 229.24 C 122.16 227.43 133.39 226.34 146.75 223.74 C 160.10 221.14 171.53 220.27 184.25 217.80 C 196.97 215.33 208.44 212.21 220.75 209.74 C 233.06 207.26 245.11 204.75 257.75 201.41 C 270.39 198.07 282.51 195.73 294.70 192.65 C 306.88 189.57 320.46 184.58 332.75 181.41 C 345.04 178.24 357.34 174.31 369.75 170.74 C 382.15 167.17 394.09 164.95 407.25 160.81 C 420.40 156.66 427.93 151.07 440.90 146.88 C 453.88 142.70 462.44 136.93 473.90 132.88 C 485.36 128.84 497.95 122.74 509.00 116.00
M 498.00 135.00 
C 499.08 139.91 503.40 143.79 509.00 143.00
C 506.21 161.24 511.02 186.91 509.67 204.67 C 508.32 222.43 515.85 242.67 504.08 255.08 C 492.30 267.48 482.98 274.45 471.70 280.71 C 460.42 286.97 452.75 290.08 442.25 294.59 C 431.75 299.10 422.85 302.58 411.70 306.71 C 400.54 310.85 389.58 313.24 377.75 316.80 C 365.93 320.36 353.98 323.89 343.70 326.71 C 333.41 329.54 321.95 330.91 310.75 333.80 C 299.56 336.69 288.18 338.90 277.25 341.26 C 266.32 343.63 255.14 345.44 243.25 347.40 C 231.37 349.36 221.16 352.14 208.30 353.65 C 195.45 355.15 184.55 357.60 171.70 359.71 C 158.85 361.82 145.79 361.27 132.78 363.22 C 119.76 365.16 106.56 367.16 91.33 367.33 C 76.10 367.51 53.37 367.53 41.08 364.87 C 28.79 362.21 19.52 359.69 9.00 353.00
C 8.59 326.21 14.42 298.36 11.00 269.00
C 16.62 275.64 27.22 282.81 36.75 276.61 C 46.28 270.40 51.53 261.20 63.00 260.00
C 70.47 267.77 69.64 280.08 72.19 289.25 C 74.75 298.42 74.94 314.63 86.75 318.59 C 98.55 322.56 107.42 316.44 112.19 306.75 C 116.96 297.05 120.21 288.79 122.26 278.25 C 124.31 267.71 122.73 256.03 130.00 247.00
C 139.00 255.26 135.12 263.97 140.12 274.90 C 145.11 285.83 161.52 281.15 162.39 268.25 C 163.27 255.35 169.91 250.05 173.00 238.00
C 187.47 231.92 199.70 243.23 202.39 254.75 C 205.08 266.28 213.71 280.36 223.25 290.75 C 232.79 301.15 246.52 302.47 256.77 292.77 C 267.02 283.07 267.42 268.88 269.20 255.75 C 270.98 242.62 273.56 228.66 278.00 216.00
C 288.08 216.36 282.48 229.47 289.30 233.70 C 296.13 237.93 304.74 235.22 309.30 229.30 C 313.86 223.37 315.87 214.88 314.00 206.00
C 315.90 205.17 317.63 205.39 320.00 205.00
C 323.23 223.32 336.19 204.89 340.00 200.00
C 350.29 201.51 355.72 214.42 359.26 223.75 C 362.81 233.09 363.58 238.87 368.77 249.23 C 373.96 259.59 379.99 267.78 390.75 268.40 C 401.51 269.01 409.01 264.35 416.25 256.25 C 423.49 248.16 427.35 239.82 429.20 229.75 C 431.05 219.68 433.12 210.30 433.80 199.75 C 434.48 189.21 435.60 181.90 444.25 173.25 C 452.90 164.59 456.71 176.69 468.08 178.06 C 479.45 179.44 483.27 166.14 484.40 157.25 C 485.53 148.36 489.36 138.66 498.00 135.00 Z"/>
</g>
<g fill="None" fill-opacity="0.0" stroke="#000000" stroke-opacity="0.02" stroke-width="0.3"><path d="
M 513.00 59.00 
C 501.58 60.67 492.82 64.97 482.08 65.93 C 471.34 66.90 463.48 56.46 461.71 47.30 C 459.93 38.14 447.30 30.92 439.75 37.61 C 432.20 44.29 417.77 47.88 411.97 38.03 C 406.17 28.18 407.46 19.37 395.68 17.34 C 383.90 15.30 380.60 27.78 370.69 29.35 C 360.78 30.93 344.79 25.45 341.39 15.75 C 337.99 6.05 323.50 3.58 315.25 5.81 C 307.01 8.04 296.89 17.70 285.75 14.39 C 274.62 11.09 271.74 1.33 261.03 8.03 C 250.32 14.74 248.65 26.96 235.00 21.00
C 235.33 23.81 231.89 24.07 231.00 26.00
C 233.41 28.36 232.97 31.50 232.00 34.00
C 269.10 30.18 313.26 34.99 343.70 41.29 C 374.14 47.59 399.63 55.28 427.70 64.29 C 455.76 73.30 485.85 85.22 510.00 106.00
C 508.59 90.55 506.48 69.82 523.00 66.00
C 520.75 61.24 515.07 62.26 513.00 59.00 Z"/>
</g>
<g fill="None" fill-opacity="0.0" stroke="#000000" stroke-opacity="0.01" stroke-width="0.3"><path d="
M 497.00 108.00 
C 493.23 97.05 481.13 95.03 473.92 91.13 C 466.71 87.23 457.79 83.66 450.08 80.06 C 442.38 76.46 432.24 75.24 423.25 71.76 C 414.26 68.28 403.81 64.62 394.77 62.57 C 385.73 60.53 375.73 55.77 367.25 54.20 C 358.77 52.63 348.77 50.03 339.25 48.20 C 329.73 46.37 320.17 44.60 309.25 43.20 C 298.33 41.79 286.57 40.98 274.22 40.78 C 261.87 40.58 241.79 36.69 231.70 41.70 C 221.62 46.72 212.97 59.70 204.00 67.00
C 218.27 80.52 223.79 98.75 221.00 118.00
C 233.72 118.59 241.12 135.09 239.60 147.25 C 238.09 159.41 230.77 169.18 221.25 177.20 C 211.73 185.22 202.34 185.56 191.25 189.20 C 180.16 192.85 164.07 193.67 152.75 189.59 C 141.44 185.51 132.09 177.65 127.39 165.75 C 122.70 153.85 131.73 139.26 134.00 128.00
C 115.29 144.39 93.96 161.54 75.92 177.92 C 57.87 194.29 38.26 210.06 22.00 228.00
C 34.03 233.13 54.41 229.64 67.77 228.77 C 81.13 227.91 95.21 224.52 107.75 223.80 C 120.29 223.09 129.32 219.74 141.25 218.40 C 153.19 217.06 165.49 214.43 176.25 212.40 C 187.02 210.37 197.08 208.74 207.75 206.19 C 218.42 203.65 229.31 202.22 239.75 199.19 C 250.18 196.16 263.37 194.77 273.70 191.71 C 284.03 188.66 296.48 185.10 307.70 182.71 C 318.92 180.32 329.89 174.77 341.77 172.21 C 353.65 169.65 363.06 165.48 373.77 162.21 C 384.48 158.94 395.71 155.64 406.25 151.40 C 416.80 147.16 427.30 144.88 437.23 140.58 C 447.16 136.27 455.98 132.28 466.30 127.31 C 476.63 122.33 486.75 118.85 497.00 108.00 Z"/>
</g>
<g fill="None" fill-opacity="0.0" stroke="#000000" stroke-opacity="0.02" stroke-width="0.3"><path d="
M 199.00 147.00 
C 237.58 118.22 208.66 49.72 165.00 55.00
C 181.08 66.88 165.88 85.36 154.30 95.30 C 142.73 105.24 133.22 121.98 140.09 136.90 C 146.97 151.82 162.97 155.86 178.00 153.00
C 174.87 159.99 162.81 158.92 156.30 156.71 C 149.79 154.51 139.42 147.06 137.00 139.00
C 122.81 154.34 137.71 183.60 158.75 185.80 C 179.79 188.00 200.55 184.47 218.30 172.30 C 236.04 160.13 244.45 127.21 219.00 121.00
C 218.23 130.54 209.19 141.51 199.00 147.00 Z"/>
</g>
<g fill="None" fill-opacity="0.0" stroke="#000000" stroke-opacity="0.03" stroke-width="0.3"><path d="
M 527.00 69.00 
C 511.45 70.92 512.02 91.63 514.40 106.25 C 516.77 120.86 515.98 143.58 516.00 162.00 C 516.02 180.42 515.42 206.57 514.35 222.30 C 513.29 238.04 520.21 249.51 508.08 262.08 C 495.95 274.66 486.11 279.55 475.30 286.29 C 464.50 293.02 454.89 296.62 444.30 301.29 C 433.70 305.96 423.38 309.64 412.30 313.29 C 401.21 316.94 388.89 321.78 377.25 324.24 C 365.61 326.71 353.38 332.48 342.75 334.60 C 332.12 336.73 321.77 338.91 310.75 341.41 C 299.74 343.91 288.67 346.82 277.25 348.81 C 265.83 350.80 255.56 353.29 243.70 355.65 C 231.84 358.00 218.81 358.86 206.75 361.40 C 194.69 363.93 186.02 363.54 173.25 366.20 C 160.48 368.86 151.01 367.69 137.25 370.25 C 123.48 372.80 106.53 373.66 91.00 374.00 C 75.48 374.34 54.39 375.35 41.25 372.20 C 28.11 369.05 18.40 367.75 7.00 361.00
C 5.76 379.26 18.23 388.70 32.25 392.60 C 46.27 396.50 66.45 398.61 85.00 398.00 C 103.55 397.39 126.83 395.86 142.75 393.80 C 158.68 391.74 170.18 390.09 184.75 387.80 C 199.32 385.51 212.67 384.30 226.75 381.76 C 240.84 379.22 252.49 376.14 266.75 373.80 C 281.02 371.46 290.98 367.82 305.25 365.59 C 319.52 363.36 333.58 357.26 347.25 354.40 C 360.93 351.54 377.56 346.70 390.25 342.40 C 402.95 338.10 418.24 334.97 430.08 330.13 C 441.92 325.29 454.09 321.24 465.25 315.39 C 476.40 309.55 489.18 306.46 500.25 296.39 C 511.32 286.32 533.05 283.49 534.00 262.00 C 534.95 240.51 533.25 206.39 534.00 184.00 C 534.75 161.61 531.40 137.66 533.35 118.70 C 535.30 99.74 534.28 84.76 527.00 69.00 Z"/>
</g>
<g fill="None" fill-opacity="0.0" stroke="#000000" stroke-opacity="0.70" stroke-width="0.3"><path d="
M 539.00 130.00 
L 539.00 100.00
C 537.32 108.85 537.35 121.07 539.00 130.00 Z"/>
</g>
<g fill="None" fill-opacity="0.0" stroke="#000000" stroke-opacity="0.02" stroke-width="0.3"><path d="
M 509.00 116.00 
C 497.95 122.74 485.36 128.84 473.90 132.88 C 462.44 136.93 453.88 142.70 440.90 146.88 C 427.93 151.07 420.40 156.66 407.25 160.81 C 394.09 164.95 382.15 167.17 369.75 170.74 C 357.34 174.31 345.04 178.24 332.75 181.41 C 320.46 184.58 306.88 189.57 294.70 192.65 C 282.51 195.73 270.39 198.07 257.75 201.41 C 245.11 204.75 233.06 207.26 220.75 209.74 C 208.44 212.21 196.97 215.33 184.25 217.80 C 171.53 220.27 160.10 221.14 146.75 223.74 C 133.39 226.34 122.16 227.43 108.25 229.24 C 94.33 231.06 78.81 233.37 63.69 234.35 C 48.58 235.34 27.83 237.40 12.00 239.00
C 9.15 253.32 15.96 273.54 28.97 272.98 C 41.99 272.42 51.99 252.76 63.77 258.79 C 75.54 264.82 76.13 280.97 78.07 292.92 C 80.00 304.87 89.08 321.35 101.25 312.59 C 113.42 303.83 111.74 292.26 117.80 281.25 C 123.86 270.23 116.93 257.01 125.00 246.00
C 127.72 246.39 131.04 244.84 134.00 245.00
C 143.69 254.56 136.81 277.04 153.00 278.00
C 161.45 264.58 161.37 253.90 167.68 240.68 C 173.99 227.46 196.64 233.56 202.69 246.30 C 208.74 259.04 212.16 271.63 221.08 283.92 C 230.01 296.20 248.31 299.49 257.08 288.08 C 265.84 276.67 263.77 264.61 267.80 251.25 C 271.83 237.89 268.21 225.34 278.00 213.00
C 290.25 211.16 287.95 224.46 293.00 231.00
C 307.88 232.78 310.90 216.02 310.00 204.00
C 312.68 202.97 315.18 201.86 318.00 201.00
C 323.06 205.70 326.66 213.13 331.10 204.10 C 335.54 195.07 343.24 196.68 348.75 200.25 C 354.27 203.81 361.39 213.77 363.61 220.25 C 365.82 226.73 367.14 231.31 369.41 237.25 C 371.68 243.18 375.17 253.30 380.11 257.89 C 385.04 262.49 390.83 264.89 398.25 263.26 C 405.67 261.64 410.49 253.61 415.30 248.30 C 420.11 242.98 422.85 235.31 424.20 229.25 C 425.55 223.18 426.74 216.40 427.61 209.75 C 428.47 203.10 428.53 194.12 430.41 187.75 C 432.29 181.38 435.86 173.55 442.32 168.32 C 448.78 163.09 457.20 166.79 461.75 171.24 C 466.30 175.70 478.11 174.97 478.93 164.08 C 479.76 153.19 483.49 130.48 500.00 132.00
C 502.17 136.07 504.16 139.74 509.00 139.00
C 512.34 132.79 513.07 123.33 509.00 116.00 Z"/>
</g>
<g fill="None" fill-opacity="0.0" stroke="#000000" stroke-opacity="0.01" stroke-width="0.3"><path d="
M 498.00 135.00 
C 489.36 138.66 485.53 148.36 484.40 157.25 C 483.27 166.14 479.45 179.44 468.08 178.06 C 456.71 176.69 452.90 164.59 444.25 173.25 C 435.60 181.90 434.48 189.21 433.80 199.75 C 433.12 210.30 431.05 219.68 429.20 229.75 C 427.35 239.82 423.49 248.16 416.25 256.25 C 409.01 264.35 401.51 269.01 390.75 268.40 C 379.99 267.78 373.96 259.59 368.77 249.23 C 363.58 238.87 362.81 233.09 359.26 223.75 C 355.72 214.42 350.29 201.51 340.00 200.00
C 336.19 204.89 323.23 223.32 320.00 205.00
C 317.63 205.39 315.90 205.17 314.00 206.00
C 315.87 214.88 313.86 223.37 309.30 229.30 C 304.74 235.22 296.13 237.93 289.30 233.70 C 282.48 229.47 288.08 216.36 278.00 216.00
C 273.56 228.66 270.98 242.62 269.20 255.75 C 267.42 268.88 267.02 283.07 256.77 292.77 C 246.52 302.47 232.79 301.15 223.25 290.75 C 213.71 280.36 205.08 266.28 202.39 254.75 C 199.70 243.23 187.47 231.92 173.00 238.00
C 169.91 250.05 163.27 255.35 162.39 268.25 C 161.52 281.15 145.11 285.83 140.12 274.90 C 135.12 263.97 139.00 255.26 130.00 247.00
C 122.73 256.03 124.31 267.71 122.26 278.25 C 120.21 288.79 116.96 297.05 112.19 306.75 C 107.42 316.44 98.55 322.56 86.75 318.59 C 74.94 314.63 74.75 298.42 72.19 289.25 C 69.64 280.08 70.47 267.77 63.00 260.00
C 51.53 261.20 46.28 270.40 36.75 276.61 C 27.22 282.81 16.62 275.64 11.00 269.00
C 14.42 298.36 8.59 326.21 9.00 353.00
C 19.52 359.69 28.79 362.21 41.08 364.87 C 53.37 367.53 76.10 367.51 91.33 367.33 C 106.56 367.16 119.76 365.16 132.78 363.22 C 145.79 361.27 158.85 361.82 171.70 359.71 C 184.55 357.60 195.45 355.15 208.30 353.65 C 221.16 352.14 231.37 349.36 243.25 347.40 C 255.14 345.44 266.32 343.63 277.25 341.26 C 288.18 338.90 299.56 336.69 310.75 333.80 C 321.95 330.91 333.41 329.54 343.70 326.71 C 353.98 323.89 365.93 320.36 377.75 316.80 C 389.58 313.24 400.54 310.85 411.70 306.71 C 422.85 302.58 431.75 299.10 442.25 294.59 C 452.75 290.08 460.42 286.97 471.70 280.71 C 482.98 274.45 492.30 267.48 504.08 255.08 C 515.85 242.67 508.32 222.43 509.67 204.67 C 511.02 186.91 506.21 161.24 509.00 143.00
C 503.40 143.79 499.08 139.91 498.00 135.00 Z"/>
</g>
<g fill="None" fill-opacity="0.0" stroke="#000000" stroke-opacity="0.16" stroke-width="0.3"><path d="
M 538.00 147.00 
C 538.00 146.96 539.00 147.00 539.00 147.00
L 539.00 135.00
C 537.18 138.01 538.00 143.17 538.00 147.00 Z"/>
</g>
<g fill="None" fill-opacity="0.0" stroke="#000000" stroke-opacity="0.45" stroke-width="0.3"><path d="
M 538.00 252.00 
C 538.00 251.96 539.00 252.00 539.00 252.00
L 539.00 147.00
C 539.00 147.00 538.00 146.96 538.00 147.00
C 538.00 182.00 538.00 217.00 538.00 252.00 Z"/>
</g>
<g fill="None" fill-opacity="0.0" stroke="#000000" stroke-opacity="0.62" stroke-width="0.3"><path d="
M 538.00 269.00 
C 538.24 268.75 539.00 269.00 539.00 269.00
L 539.00 252.00
C 539.00 252.00 538.00 251.96 538.00 252.00
C 538.00 257.59 537.50 263.44 538.00 269.00 Z"/>
</g>
<g fill="None" fill-opacity="0.0" stroke="#000000" stroke-opacity="0.00" stroke-width="0.3"><path d="
M 107.00 403.00 
L 539.00 403.00
L 539.00 269.00
C 539.00 269.00 538.24 268.75 538.00 269.00
C 528.28 279.31 519.57 291.91 508.22 298.22 C 496.88 304.54 487.31 311.53 477.77 315.42 C 468.23 319.32 458.91 325.16 448.75 328.61 C 438.60 332.06 428.78 336.10 418.70 339.65 C 408.62 343.20 395.91 346.33 385.30 349.29 C 374.68 352.26 362.95 357.15 351.08 359.94 C 339.21 362.72 328.76 364.65 317.25 367.81 C 305.73 370.96 296.08 372.02 284.75 374.74 C 273.42 377.45 263.03 379.23 252.25 381.20 C 241.46 383.17 230.19 385.72 218.75 387.41 C 207.31 389.11 193.97 391.86 182.25 393.20 C 170.52 394.54 160.39 397.01 148.23 398.21 C 136.07 399.42 119.56 400.62 107.00 403.00 Z"/>
</g>
<g fill="#000000" fill-opacity="0.01" stroke="None">
<path d="
M 0.00 403.00 
L 57.00 403.00
C 43.24 399.48 30.02 398.45 18.25 392.61 C 6.48 386.76 -6.22 364.66 7.00 354.00
C 4.99 338.68 4.95 325.88 3.00 309.00 C 1.06 292.12 8.02 268.42 4.00 251.00 C -0.02 233.58 12.92 224.81 23.89 215.89 C 34.87 206.98 43.01 197.66 53.90 188.90 C 64.80 180.14 73.84 171.64 84.25 162.25 C 94.66 152.87 105.23 144.61 115.10 136.09 C 124.97 127.58 133.02 120.53 136.39 110.25 C 139.77 99.96 153.88 89.98 161.70 80.70 C 169.53 71.43 171.63 56.06 156.00 55.00
C 168.39 45.03 188.15 51.83 200.00 61.00
C 210.44 53.43 218.45 42.94 229.00 37.00
C 222.61 24.45 233.87 11.70 246.00 18.00
C 250.03 9.71 262.33 -1.16 270.75 2.40 C 279.17 5.96 289.33 16.06 299.25 10.81 C 309.17 5.55 314.95 -0.15 327.22 1.22 C 339.50 2.59 343.41 12.23 350.92 20.08 C 358.42 27.94 371.19 26.77 378.25 21.20 C 385.30 15.63 393.77 12.01 402.25 16.19 C 410.74 20.37 413.01 32.97 419.00 41.00
C 432.25 42.21 436.12 29.71 449.75 33.26 C 463.38 36.82 462.56 45.50 469.24 54.77 C 475.91 64.04 491.88 62.85 500.25 58.80 C 508.62 54.75 521.91 57.99 528.92 67.08 C 535.93 76.17 536.00 84.08 539.00 95.00
L 539.00 0.00
L 0.00 0.00
L 0.00 403.00 Z"/>
</g>
<g fill="#000000" fill-opacity="0.91" stroke="None">
<path d="
M 57.00 403.00 
L 107.00 403.00
C 119.56 400.62 136.07 399.42 148.23 398.21 C 160.39 397.01 170.52 394.54 182.25 393.20 C 193.97 391.86 207.31 389.11 218.75 387.41 C 230.19 385.72 241.46 383.17 252.25 381.20 C 263.03 379.23 273.42 377.45 284.75 374.74 C 296.08 372.02 305.73 370.96 317.25 367.81 C 328.76 364.65 339.21 362.72 351.08 359.94 C 362.95 357.15 374.68 352.26 385.30 349.29 C 395.91 346.33 408.62 343.20 418.70 339.65 C 428.78 336.10 438.60 332.06 448.75 328.61 C 458.91 325.16 468.23 319.32 477.77 315.42 C 487.31 311.53 496.88 304.54 508.22 298.22 C 519.57 291.91 528.28 279.31 537.76 269.75
C 537.50 263.44 538.00 257.59 538.00 252.00
C 538.00 217.00 538.00 182.00 538.00 147.00
C 538.00 143.17 537.18 138.01 539.00 135.00
L 539.00 130.00
C 537.35 121.07 537.32 108.85 539.00 100.00
L 539.00 95.00
C 536.00 84.08 535.93 76.17 528.92 67.08 C 521.91 57.99 508.62 54.75 500.25 58.80 C 491.88 62.85 475.91 64.04 469.24 54.77 C 462.56 45.50 463.38 36.82 449.75 33.26 C 436.12 29.71 432.25 42.21 419.00 41.00
C 413.01 32.97 410.74 20.37 402.25 16.19 C 393.77 12.01 385.30 15.63 378.25 21.20 C 371.19 26.77 358.42 27.94 350.92 20.08 C 343.41 12.23 339.50 2.59 327.22 1.22 C 314.95 -0.15 309.17 5.55 299.25 10.81 C 289.33 16.06 279.17 5.96 270.75 2.40 C 262.33 -1.16 250.03 9.71 246.00 18.00
C 233.87 11.70 222.61 24.45 229.00 37.00
C 218.45 42.94 210.44 53.43 200.00 61.00
C 188.15 51.83 168.39 45.03 156.00 55.00
C 171.63 56.06 169.53 71.43 161.70 80.70 C 153.88 89.98 139.77 99.96 136.39 110.25 C 133.02 120.53 124.97 127.58 115.10 136.09 C 105.23 144.61 94.66 152.87 84.25 162.25 C 73.84 171.64 64.80 180.14 53.90 188.90 C 43.01 197.66 34.87 206.98 23.89 215.89 C 12.92 224.81 -0.02 233.58 4.00 251.00 C 8.02 268.42 1.06 292.12 3.00 309.00 C 4.95 325.88 4.99 338.68 7.00 354.00
C -6.22 364.66 6.48 386.76 18.25 392.61 C 30.02 398.45 43.24 399.48 57.00 403.00
M 513.00 59.00 
C 515.07 62.26 520.75 61.24 523.00 66.00
C 506.48 69.82 508.59 90.55 510.00 106.00
C 485.85 85.22 455.76 73.30 427.70 64.29 C 399.63 55.28 374.14 47.59 343.70 41.29 C 313.26 34.99 269.10 30.18 232.00 34.00
C 232.97 31.50 233.41 28.36 231.00 26.00
C 231.89 24.07 235.33 23.81 235.00 21.00
C 248.65 26.96 250.32 14.74 261.03 8.03 C 271.74 1.33 274.62 11.09 285.75 14.39 C 296.89 17.70 307.01 8.04 315.25 5.81 C 323.50 3.58 337.99 6.05 341.39 15.75 C 344.79 25.45 360.78 30.93 370.69 29.35 C 380.60 27.78 383.90 15.30 395.68 17.34 C 407.46 19.37 406.17 28.18 411.97 38.03 C 417.77 47.88 432.20 44.29 439.75 37.61 C 447.30 30.92 459.93 38.14 461.71 47.30 C 463.48 56.46 471.34 66.90 482.08 65.93 C 492.82 64.97 501.58 60.67 513.00 59.00
M 497.00 108.00 
C 486.75 118.85 476.63 122.33 466.30 127.31 C 455.98 132.28 447.16 136.27 437.23 140.58 C 427.30 144.88 416.80 147.16 406.25 151.40 C 395.71 155.64 384.48 158.94 373.77 162.21 C 363.06 165.48 353.65 169.65 341.77 172.21 C 329.89 174.77 318.92 180.32 307.70 182.71 C 296.48 185.10 284.03 188.66 273.70 191.71 C 263.37 194.77 250.18 196.16 239.75 199.19 C 229.31 202.22 218.42 203.65 207.75 206.19 C 197.08 208.74 187.02 210.37 176.25 212.40 C 165.49 214.43 153.19 217.06 141.25 218.40 C 129.32 219.74 120.29 223.09 107.75 223.80 C 95.21 224.52 81.13 227.91 67.77 228.77 C 54.41 229.64 34.03 233.13 22.00 228.00
C 38.26 210.06 57.87 194.29 75.92 177.92 C 93.96 161.54 115.29 144.39 134.00 128.00
C 131.73 139.26 122.70 153.85 127.39 165.75 C 132.09 177.65 141.44 185.51 152.75 189.59 C 164.07 193.67 180.16 192.85 191.25 189.20 C 202.34 185.56 211.73 185.22 221.25 177.20 C 230.77 169.18 238.09 159.41 239.60 147.25 C 241.12 135.09 233.72 118.59 221.00 118.00
C 223.79 98.75 218.27 80.52 204.00 67.00
C 212.97 59.70 221.62 46.72 231.70 41.70 C 241.79 36.69 261.87 40.58 274.22 40.78 C 286.57 40.98 298.33 41.79 309.25 43.20 C 320.17 44.60 329.73 46.37 339.25 48.20 C 348.77 50.03 358.77 52.63 367.25 54.20 C 375.73 55.77 385.73 60.53 394.77 62.57 C 403.81 64.62 414.26 68.28 423.25 71.76 C 432.24 75.24 442.38 76.46 450.08 80.06 C 457.79 83.66 466.71 87.23 473.92 91.13 C 481.13 95.03 493.23 97.05 497.00 108.00
M 199.00 147.00 
C 209.19 141.51 218.23 130.54 219.00 121.00
C 244.45 127.21 236.04 160.13 218.30 172.30 C 200.55 184.47 179.79 188.00 158.75 185.80 C 137.71 183.60 122.81 154.34 137.00 139.00
C 139.42 147.06 149.79 154.51 156.30 156.71 C 162.81 158.92 174.87 159.99 178.00 153.00
C 162.97 155.86 146.97 151.82 140.09 136.90 C 133.22 121.98 142.73 105.24 154.30 95.30 C 165.88 85.36 181.08 66.88 165.00 55.00
C 208.66 49.72 237.58 118.22 199.00 147.00
M 527.00 69.00 
C 534.28 84.76 535.30 99.74 533.35 118.70 C 531.40 137.66 534.75 161.61 534.00 184.00 C 533.25 206.39 534.95 240.51 534.00 262.00 C 533.05 283.49 511.32 286.32 500.25 296.39 C 489.18 306.46 476.40 309.55 465.25 315.39 C 454.09 321.24 441.92 325.29 430.08 330.13 C 418.24 334.97 402.95 338.10 390.25 342.40 C 377.56 346.70 360.93 351.54 347.25 354.40 C 333.58 357.26 319.52 363.36 305.25 365.59 C 290.98 367.82 281.02 371.46 266.75 373.80 C 252.49 376.14 240.84 379.22 226.75 381.76 C 212.67 384.30 199.32 385.51 184.75 387.80 C 170.18 390.09 158.68 391.74 142.75 393.80 C 126.83 395.86 103.55 397.39 85.00 398.00 C 66.45 398.61 46.27 396.50 32.25 392.60 C 18.23 388.70 5.76 379.26 7.00 361.00
C 18.40 367.75 28.11 369.05 41.25 372.20 C 54.39 375.35 75.48 374.34 91.00 374.00 C 106.53 373.66 123.48 372.80 137.25 370.25 C 151.01 367.69 160.48 368.86 173.25 366.20 C 186.02 363.54 194.69 363.93 206.75 361.40 C 218.81 358.86 231.84 358.00 243.70 355.65 C 255.56 353.29 265.83 350.80 277.25 348.81 C 288.67 346.82 299.74 343.91 310.75 341.41 C 321.77 338.91 332.12 336.73 342.75 334.60 C 353.38 332.48 365.61 326.71 377.25 324.24 C 388.89 321.78 401.21 316.94 412.30 313.29 C 423.38 309.64 433.70 305.96 444.30 301.29 C 454.89 296.62 464.50 293.02 475.30 286.29 C 486.11 279.55 495.95 274.66 508.08 262.08 C 520.21 249.51 513.29 238.04 514.35 222.30 C 515.42 206.57 516.02 180.42 516.00 162.00 C 515.98 143.58 516.77 120.86 514.40 106.25 C 512.02 91.63 511.45 70.92 527.00 69.00
M 509.00 116.00 
C 513.07 123.33 512.34 132.79 509.00 139.00
C 504.16 139.74 502.17 136.07 500.00 132.00
C 483.49 130.48 479.76 153.19 478.93 164.08 C 478.11 174.97 466.30 175.70 461.75 171.24 C 457.20 166.79 448.78 163.09 442.32 168.32 C 435.86 173.55 432.29 181.38 430.41 187.75 C 428.53 194.12 428.47 203.10 427.61 209.75 C 426.74 216.40 425.55 223.18 424.20 229.25 C 422.85 235.31 420.11 242.98 415.30 248.30 C 410.49 253.61 405.67 261.64 398.25 263.26 C 390.83 264.89 385.04 262.49 380.11 257.89 C 375.17 253.30 371.68 243.18 369.41 237.25 C 367.14 231.31 365.82 226.73 363.61 220.25 C 361.39 213.77 354.27 203.81 348.75 200.25 C 343.24 196.68 335.54 195.07 331.10 204.10 C 326.66 213.13 323.06 205.70 318.00 201.00
C 315.18 201.86 312.68 202.97 310.00 204.00
C 310.90 216.02 307.88 232.78 293.00 231.00
C 287.95 224.46 290.25 211.16 278.00 213.00
C 268.21 225.34 271.83 237.89 267.80 251.25 C 263.77 264.61 265.84 276.67 257.08 288.08 C 248.31 299.49 230.01 296.20 221.08 283.92 C 212.16 271.63 208.74 259.04 202.69 246.30 C 196.64 233.56 173.99 227.46 167.68 240.68 C 161.37 253.90 161.45 264.58 153.00 278.00
C 136.81 277.04 143.69 254.56 134.00 245.00
C 131.04 244.84 127.72 246.39 125.00 246.00
C 116.93 257.01 123.86 270.23 117.80 281.25 C 111.74 292.26 113.42 303.83 101.25 312.59 C 89.08 321.35 80.00 304.87 78.07 292.92 C 76.13 280.97 75.54 264.82 63.77 258.79 C 51.99 252.76 41.99 272.42 28.97 272.98 C 15.96 273.54 9.15 253.32 12.00 239.00
C 27.83 237.40 48.58 235.34 63.69 234.35 C 78.81 233.37 94.33 231.06 108.25 229.24 C 122.16 227.43 133.39 226.34 146.75 223.74 C 160.10 221.14 171.53 220.27 184.25 217.80 C 196.97 215.33 208.44 212.21 220.75 209.74 C 233.06 207.26 245.11 204.75 257.75 201.41 C 270.39 198.07 282.51 195.73 294.70 192.65 C 306.88 189.57 320.46 184.58 332.75 181.41 C 345.04 178.24 357.34 174.31 369.75 170.74 C 382.15 167.17 394.09 164.95 407.25 160.81 C 420.40 156.66 427.93 151.07 440.90 146.88 C 453.88 142.70 462.44 136.93 473.90 132.88 C 485.36 128.84 497.95 122.74 509.00 116.00
M 498.00 135.00 
C 499.08 139.91 503.40 143.79 509.00 143.00
C 506.21 161.24 511.02 186.91 509.67 204.67 C 508.32 222.43 515.85 242.67 504.08 255.08 C 492.30 267.48 482.98 274.45 471.70 280.71 C 460.42 286.97 452.75 290.08 442.25 294.59 C 431.75 299.10 422.85 302.58 411.70 306.71 C 400.54 310.85 389.58 313.24 377.75 316.80 C 365.93 320.36 353.98 323.89 343.70 326.71 C 333.41 329.54 321.95 330.91 310.75 333.80 C 299.56 336.69 288.18 338.90 277.25 341.26 C 266.32 343.63 255.14 345.44 243.25 347.40 C 231.37 349.36 221.16 352.14 208.30 353.65 C 195.45 355.15 184.55 357.60 171.70 359.71 C 158.85 361.82 145.79 361.27 132.78 363.22 C 119.76 365.16 106.56 367.16 91.33 367.33 C 76.10 367.51 53.37 367.53 41.08 364.87 C 28.79 362.21 19.52 359.69 9.00 353.00
C 8.59 326.21 14.42 298.36 11.00 269.00
C 16.62 275.64 27.22 282.81 36.75 276.61 C 46.28 270.40 51.53 261.20 63.00 260.00
C 70.47 267.77 69.64 280.08 72.19 289.25 C 74.75 298.42 74.94 314.63 86.75 318.59 C 98.55 322.56 107.42 316.44 112.19 306.75 C 116.96 297.05 120.21 288.79 122.26 278.25 C 124.31 267.71 122.73 256.03 130.00 247.00
C 139.00 255.26 135.12 263.97 140.12 274.90 C 145.11 285.83 161.52 281.15 162.39 268.25 C 163.27 255.35 169.91 250.05 173.00 238.00
C 187.47 231.92 199.70 243.23 202.39 254.75 C 205.08 266.28 213.71 280.36 223.25 290.75 C 232.79 301.15 246.52 302.47 256.77 292.77 C 267.02 283.07 267.42 268.88 269.20 255.75 C 270.98 242.62 273.56 228.66 278.00 216.00
C 288.08 216.36 282.48 229.47 289.30 233.70 C 296.13 237.93 304.74 235.22 309.30 229.30 C 313.86 223.37 315.87 214.88 314.00 206.00
C 315.90 205.17 317.63 205.39 320.00 205.00
C 323.23 223.32 336.19 204.89 340.00 200.00
C 350.29 201.51 355.72 214.42 359.26 223.75 C 362.81 233.09 363.58 238.87 368.77 249.23 C 373.96 259.59 379.99 267.78 390.75 268.40 C 401.51 269.01 409.01 264.35 416.25 256.25 C 423.49 248.16 427.35 239.82 429.20 229.75 C 431.05 219.68 433.12 210.30 433.80 199.75 C 434.48 189.21 435.60 181.90 444.25 173.25 C 452.90 164.59 456.71 176.69 468.08 178.06 C 479.45 179.44 483.27 166.14 484.40 157.25 C 485.53 148.36 489.36 138.66 498.00 135.00 Z"/>
</g>
<g fill="#000000" fill-opacity="0.02" stroke="None">
<path d="
M 513.00 59.00 
C 501.58 60.67 492.82 64.97 482.08 65.93 C 471.34 66.90 463.48 56.46 461.71 47.30 C 459.93 38.14 447.30 30.92 439.75 37.61 C 432.20 44.29 417.77 47.88 411.97 38.03 C 406.17 28.18 407.46 19.37 395.68 17.34 C 383.90 15.30 380.60 27.78 370.69 29.35 C 360.78 30.93 344.79 25.45 341.39 15.75 C 337.99 6.05 323.50 3.58 315.25 5.81 C 307.01 8.04 296.89 17.70 285.75 14.39 C 274.62 11.09 271.74 1.33 261.03 8.03 C 250.32 14.74 248.65 26.96 235.00 21.00
C 235.33 23.81 231.89 24.07 231.00 26.00
C 233.41 28.36 232.97 31.50 232.00 34.00
C 269.10 30.18 313.26 34.99 343.70 41.29 C 374.14 47.59 399.63 55.28 427.70 64.29 C 455.76 73.30 485.85 85.22 510.00 106.00
C 508.59 90.55 506.48 69.82 523.00 66.00
C 520.75 61.24 515.07 62.26 513.00 59.00 Z"/>
</g>
<g fill="#000000" fill-opacity="0.01" stroke="None">
<path d="
M 497.00 108.00 
C 493.23 97.05 481.13 95.03 473.92 91.13 C 466.71 87.23 457.79 83.66 450.08 80.06 C 442.38 76.46 432.24 75.24 423.25 71.76 C 414.26 68.28 403.81 64.62 394.77 62.57 C 385.73 60.53 375.73 55.77 367.25 54.20 C 358.77 52.63 348.77 50.03 339.25 48.20 C 329.73 46.37 320.17 44.60 309.25 43.20 C 298.33 41.79 286.57 40.98 274.22 40.78 C 261.87 40.58 241.79 36.69 231.70 41.70 C 221.62 46.72 212.97 59.70 204.00 67.00
C 218.27 80.52 223.79 98.75 221.00 118.00
C 233.72 118.59 241.12 135.09 239.60 147.25 C 238.09 159.41 230.77 169.18 221.25 177.20 C 211.73 185.22 202.34 185.56 191.25 189.20 C 180.16 192.85 164.07 193.67 152.75 189.59 C 141.44 185.51 132.09 177.65 127.39 165.75 C 122.70 153.85 131.73 139.26 134.00 128.00
C 115.29 144.39 93.96 161.54 75.92 177.92 C 57.87 194.29 38.26 210.06 22.00 228.00
C 34.03 233.13 54.41 229.64 67.77 228.77 C 81.13 227.91 95.21 224.52 107.75 223.80 C 120.29 223.09 129.32 219.74 141.25 218.40 C 153.19 217.06 165.49 214.43 176.25 212.40 C 187.02 210.37 197.08 208.74 207.75 206.19 C 218.42 203.65 229.31 202.22 239.75 199.19 C 250.18 196.16 263.37 194.77 273.70 191.71 C 284.03 188.66 296.48 185.10 307.70 182.71 C 318.92 180.32 329.89 174.77 341.77 172.21 C 353.65 169.65 363.06 165.48 373.77 162.21 C 384.48 158.94 395.71 155.64 406.25 151.40 C 416.80 147.16 427.30 144.88 437.23 140.58 C 447.16 136.27 455.98 132.28 466.30 127.31 C 476.63 122.33 486.75 118.85 497.00 108.00 Z"/>
</g>
<g fill="#000000" fill-opacity="0.02" stroke="None">
<path d="
M 199.00 147.00 
C 237.58 118.22 208.66 49.72 165.00 55.00
C 181.08 66.88 165.88 85.36 154.30 95.30 C 142.73 105.24 133.22 121.98 140.09 136.90 C 146.97 151.82 162.97 155.86 178.00 153.00
C 174.87 159.99 162.81 158.92 156.30 156.71 C 149.79 154.51 139.42 147.06 137.00 139.00
C 122.81 154.34 137.71 183.60 158.75 185.80 C 179.79 188.00 200.55 184.47 218.30 172.30 C 236.04 160.13 244.45 127.21 219.00 121.00
C 218.23 130.54 209.19 141.51 199.00 147.00 Z"/>
</g>
<g fill="#000000" fill-opacity="0.03" stroke="None">
<path d="
M 527.00 69.00 
C 511.45 70.92 512.02 91.63 514.40 106.25 C 516.77 120.86 515.98 143.58 516.00 162.00 C 516.02 180.42 515.42 206.57 514.35 222.30 C 513.29 238.04 520.21 249.51 508.08 262.08 C 495.95 274.66 486.11 279.55 475.30 286.29 C 464.50 293.02 454.89 296.62 444.30 301.29 C 433.70 305.96 423.38 309.64 412.30 313.29 C 401.21 316.94 388.89 321.78 377.25 324.24 C 365.61 326.71 353.38 332.48 342.75 334.60 C 332.12 336.73 321.77 338.91 310.75 341.41 C 299.74 343.91 288.67 346.82 277.25 348.81 C 265.83 350.80 255.56 353.29 243.70 355.65 C 231.84 358.00 218.81 358.86 206.75 361.40 C 194.69 363.93 186.02 363.54 173.25 366.20 C 160.48 368.86 151.01 367.69 137.25 370.25 C 123.48 372.80 106.53 373.66 91.00 374.00 C 75.48 374.34 54.39 375.35 41.25 372.20 C 28.11 369.05 18.40 367.75 7.00 361.00
C 5.76 379.26 18.23 388.70 32.25 392.60 C 46.27 396.50 66.45 398.61 85.00 398.00 C 103.55 397.39 126.83 395.86 142.75 393.80 C 158.68 391.74 170.18 390.09 184.75 387.80 C 199.32 385.51 212.67 384.30 226.75 381.76 C 240.84 379.22 252.49 376.14 266.75 373.80 C 281.02 371.46 290.98 367.82 305.25 365.59 C 319.52 363.36 333.58 357.26 347.25 354.40 C 360.93 351.54 377.56 346.70 390.25 342.40 C 402.95 338.10 418.24 334.97 430.08 330.13 C 441.92 325.29 454.09 321.24 465.25 315.39 C 476.40 309.55 489.18 306.46 500.25 296.39 C 511.32 286.32 533.05 283.49 534.00 262.00 C 534.95 240.51 533.25 206.39 534.00 184.00 C 534.75 161.61 531.40 137.66 533.35 118.70 C 535.30 99.74 534.28 84.76 527.00 69.00 Z"/>
</g>
<g fill="#000000" fill-opacity="0.70" stroke="None">
<path d="
M 539.00 130.00 
L 539.00 100.00
C 537.32 108.85 537.35 121.07 539.00 130.00 Z"/>
</g>
<g fill="#000000" fill-opacity="0.02" stroke="None">
<path d="
M 509.00 116.00 
C 497.95 122.74 485.36 128.84 473.90 132.88 C 462.44 136.93 453.88 142.70 440.90 146.88 C 427.93 151.07 420.40 156.66 407.25 160.81 C 394.09 164.95 382.15 167.17 369.75 170.74 C 357.34 174.31 345.04 178.24 332.75 181.41 C 320.46 184.58 306.88 189.57 294.70 192.65 C 282.51 195.73 270.39 198.07 257.75 201.41 C 245.11 204.75 233.06 207.26 220.75 209.74 C 208.44 212.21 196.97 215.33 184.25 217.80 C 171.53 220.27 160.10 221.14 146.75 223.74 C 133.39 226.34 122.16 227.43 108.25 229.24 C 94.33 231.06 78.81 233.37 63.69 234.35 C 48.58 235.34 27.83 237.40 12.00 239.00
C 9.15 253.32 15.96 273.54 28.97 272.98 C 41.99 272.42 51.99 252.76 63.77 258.79 C 75.54 264.82 76.13 280.97 78.07 292.92 C 80.00 304.87 89.08 321.35 101.25 312.59 C 113.42 303.83 111.74 292.26 117.80 281.25 C 123.86 270.23 116.93 257.01 125.00 246.00
C 127.72 246.39 131.04 244.84 134.00 245.00
C 143.69 254.56 136.81 277.04 153.00 278.00
C 161.45 264.58 161.37 253.90 167.68 240.68 C 173.99 227.46 196.64 233.56 202.69 246.30 C 208.74 259.04 212.16 271.63 221.08 283.92 C 230.01 296.20 248.31 299.49 257.08 288.08 C 265.84 276.67 263.77 264.61 267.80 251.25 C 271.83 237.89 268.21 225.34 278.00 213.00
C 290.25 211.16 287.95 224.46 293.00 231.00
C 307.88 232.78 310.90 216.02 310.00 204.00
C 312.68 202.97 315.18 201.86 318.00 201.00
C 323.06 205.70 326.66 213.13 331.10 204.10 C 335.54 195.07 343.24 196.68 348.75 200.25 C 354.27 203.81 361.39 213.77 363.61 220.25 C 365.82 226.73 367.14 231.31 369.41 237.25 C 371.68 243.18 375.17 253.30 380.11 257.89 C 385.04 262.49 390.83 264.89 398.25 263.26 C 405.67 261.64 410.49 253.61 415.30 248.30 C 420.11 242.98 422.85 235.31 424.20 229.25 C 425.55 223.18 426.74 216.40 427.61 209.75 C 428.47 203.10 428.53 194.12 430.41 187.75 C 432.29 181.38 435.86 173.55 442.32 168.32 C 448.78 163.09 457.20 166.79 461.75 171.24 C 466.30 175.70 478.11 174.97 478.93 164.08 C 479.76 153.19 483.49 130.48 500.00 132.00
C 502.17 136.07 504.16 139.74 509.00 139.00
C 512.34 132.79 513.07 123.33 509.00 116.00 Z"/>
</g>
<g fill="#000000" fill-opacity="0.01" stroke="None">
<path d="
M 498.00 135.00 
C 489.36 138.66 485.53 148.36 484.40 157.25 C 483.27 166.14 479.45 179.44 468.08 178.06 C 456.71 176.69 452.90 164.59 444.25 173.25 C 435.60 181.90 434.48 189.21 433.80 199.75 C 433.12 210.30 431.05 219.68 429.20 229.75 C 427.35 239.82 423.49 248.16 416.25 256.25 C 409.01 264.35 401.51 269.01 390.75 268.40 C 379.99 267.78 373.96 259.59 368.77 249.23 C 363.58 238.87 362.81 233.09 359.26 223.75 C 355.72 214.42 350.29 201.51 340.00 200.00
C 336.19 204.89 323.23 223.32 320.00 205.00
C 317.63 205.39 315.90 205.17 314.00 206.00
C 315.87 214.88 313.86 223.37 309.30 229.30 C 304.74 235.22 296.13 237.93 289.30 233.70 C 282.48 229.47 288.08 216.36 278.00 216.00
C 273.56 228.66 270.98 242.62 269.20 255.75 C 267.42 268.88 267.02 283.07 256.77 292.77 C 246.52 302.47 232.79 301.15 223.25 290.75 C 213.71 280.36 205.08 266.28 202.39 254.75 C 199.70 243.23 187.47 231.92 173.00 238.00
C 169.91 250.05 163.27 255.35 162.39 268.25 C 161.52 281.15 145.11 285.83 140.12 274.90 C 135.12 263.97 139.00 255.26 130.00 247.00
C 122.73 256.03 124.31 267.71 122.26 278.25 C 120.21 288.79 116.96 297.05 112.19 306.75 C 107.42 316.44 98.55 322.56 86.75 318.59 C 74.94 314.63 74.75 298.42 72.19 289.25 C 69.64 280.08 70.47 267.77 63.00 260.00
C 51.53 261.20 46.28 270.40 36.75 276.61 C 27.22 282.81 16.62 275.64 11.00 269.00
C 14.42 298.36 8.59 326.21 9.00 353.00
C 19.52 359.69 28.79 362.21 41.08 364.87 C 53.37 367.53 76.10 367.51 91.33 367.33 C 106.56 367.16 119.76 365.16 132.78 363.22 C 145.79 361.27 158.85 361.82 171.70 359.71 C 184.55 357.60 195.45 355.15 208.30 353.65 C 221.16 352.14 231.37 349.36 243.25 347.40 C 255.14 345.44 266.32 343.63 277.25 341.26 C 288.18 338.90 299.56 336.69 310.75 333.80 C 321.95 330.91 333.41 329.54 343.70 326.71 C 353.98 323.89 365.93 320.36 377.75 316.80 C 389.58 313.24 400.54 310.85 411.70 306.71 C 422.85 302.58 431.75 299.10 442.25 294.59 C 452.75 290.08 460.42 286.97 471.70 280.71 C 482.98 274.45 492.30 267.48 504.08 255.08 C 515.85 242.67 508.32 222.43 509.67 204.67 C 511.02 186.91 506.21 161.24 509.00 143.00
C 503.40 143.79 499.08 139.91 498.00 135.00 Z"/>
</g>
<g fill="#000000" fill-opacity="0.16" stroke="None">
<path d="
M 538.00 147.00 
C 538.00 146.96 539.00 147.00 539.00 147.00
L 539.00 135.00
C 537.18 138.01 538.00 143.17 538.00 147.00 Z"/>
</g>
<g fill="#000000" fill-opacity="0.45" stroke="None">
<path d="
M 538.00 252.00 
C 538.00 251.96 539.00 252.00 539.00 252.00
L 539.00 147.00
C 539.00 147.00 538.00 146.96 538.00 147.00
C 538.00 182.00 538.00 217.00 538.00 252.00 Z"/>
</g>
<g fill="#000000" fill-opacity="0.62" stroke="None">
<path d="
M 538.00 269.00 
C 538.24 268.75 539.00 269.00 539.00 269.00
L 539.00 252.00
C 539.00 252.00 538.00 251.96 538.00 252.00
C 538.00 257.59 537.50 263.44 538.00 269.00 Z"/>
</g>
<g fill="#000000" fill-opacity="0.00" stroke="None">
<path d="
M 107.00 403.00 
L 539.00 403.00
L 539.00 269.00
C 539.00 269.00 538.24 268.75 538.00 269.00
C 528.28 279.31 519.57 291.91 508.22 298.22 C 496.88 304.54 487.31 311.53 477.77 315.42 C 468.23 319.32 458.91 325.16 448.75 328.61 C 438.60 332.06 428.78 336.10 418.70 339.65 C 408.62 343.20 395.91 346.33 385.30 349.29 C 374.68 352.26 362.95 357.15 351.08 359.94 C 339.21 362.72 328.76 364.65 317.25 367.81 C 305.73 370.96 296.08 372.02 284.75 374.74 C 273.42 377.45 263.03 379.23 252.25 381.20 C 241.46 383.17 230.19 385.72 218.75 387.41 C 207.31 389.11 193.97 391.86 182.25 393.20 C 170.52 394.54 160.39 397.01 148.23 398.21 C 136.07 399.42 119.56 400.62 107.00 403.00 Z"/>
</g>
</svg>